%TF.GenerationSoftware,KiCad,Pcbnew,(5.1.7)-1*%
%TF.CreationDate,2021-04-26T16:00:27-05:00*%
%TF.ProjectId,PID Demo Board,50494420-4465-46d6-9f20-426f6172642e,1.0*%
%TF.SameCoordinates,Original*%
%TF.FileFunction,Copper,L2,Bot*%
%TF.FilePolarity,Positive*%
%FSLAX46Y46*%
G04 Gerber Fmt 4.6, Leading zero omitted, Abs format (unit mm)*
G04 Created by KiCad (PCBNEW (5.1.7)-1) date 2021-04-26 16:00:27*
%MOMM*%
%LPD*%
G01*
G04 APERTURE LIST*
%TA.AperFunction,ComponentPad*%
%ADD10R,1.700000X1.700000*%
%TD*%
%TA.AperFunction,ComponentPad*%
%ADD11O,1.700000X1.700000*%
%TD*%
%TA.AperFunction,ComponentPad*%
%ADD12C,1.509000*%
%TD*%
%TA.AperFunction,ViaPad*%
%ADD13C,0.508000*%
%TD*%
%TA.AperFunction,Conductor*%
%ADD14C,0.304800*%
%TD*%
%TA.AperFunction,Conductor*%
%ADD15C,0.254000*%
%TD*%
%TA.AperFunction,Conductor*%
%ADD16C,0.100000*%
%TD*%
G04 APERTURE END LIST*
D10*
%TO.P,J1,1*%
%TO.N,-5V*%
X81280000Y-116840000D03*
D11*
%TO.P,J1,2*%
%TO.N,GND*%
X81280000Y-119380000D03*
%TO.P,J1,3*%
X81280000Y-121920000D03*
%TO.P,J1,4*%
%TO.N,+5V*%
X81280000Y-124460000D03*
%TD*%
%TO.P,J2,2*%
%TO.N,Net-(J2-Pad2)*%
X97155000Y-119380000D03*
D10*
%TO.P,J2,1*%
%TO.N,GND*%
X97155000Y-121920000D03*
%TD*%
%TO.P,J3,1*%
%TO.N,Net-(J3-Pad1)*%
X140970000Y-144145000D03*
D11*
%TO.P,J3,2*%
%TO.N,Net-(C14-Pad1)*%
X138430000Y-144145000D03*
%TD*%
%TO.P,J4,2*%
%TO.N,Net-(C15-Pad1)*%
X138430000Y-120650000D03*
D10*
%TO.P,J4,1*%
%TO.N,Net-(J3-Pad1)*%
X140970000Y-120650000D03*
%TD*%
%TO.P,J5,1*%
%TO.N,Net-(J3-Pad1)*%
X140970000Y-97155000D03*
D11*
%TO.P,J5,2*%
%TO.N,Net-(J5-Pad2)*%
X138430000Y-97155000D03*
%TD*%
D10*
%TO.P,J6,1*%
%TO.N,Net-(J3-Pad1)*%
X147066000Y-119253000D03*
D11*
%TO.P,J6,2*%
%TO.N,GND*%
X147066000Y-121793000D03*
%TD*%
D12*
%TO.P,U4,8*%
%TO.N,-5V*%
X81330000Y-134340000D03*
%TO.P,U4,7*%
%TO.N,GND*%
X81330000Y-136880000D03*
%TO.P,U4,6*%
%TO.N,+5V*%
X81330000Y-139420000D03*
%TO.P,U4,5*%
%TO.N,N/C*%
X81330000Y-141960000D03*
%TO.P,U4,3*%
X81330000Y-147040000D03*
%TO.P,U4,2*%
%TO.N,Net-(CON1-Pad1)*%
X81330000Y-149580000D03*
%TO.P,U4,1*%
%TO.N,Net-(CON1-Pad2)*%
X81330000Y-152120000D03*
%TD*%
D13*
%TO.N,GND*%
X128397000Y-91694000D03*
X128397000Y-102870000D03*
X128397000Y-126365000D03*
X128397000Y-114935000D03*
X128397000Y-138684000D03*
X128397000Y-149733000D03*
X114300000Y-94996000D03*
X122555000Y-125349000D03*
X122555000Y-148844000D03*
X88392000Y-85725000D03*
%TO.N,-5V*%
X126873000Y-102870000D03*
X126873000Y-126365000D03*
X126873000Y-149733000D03*
%TD*%
D14*
%TO.N,-5V*%
X84836000Y-120650000D02*
X126746000Y-120650000D01*
X81280000Y-117094000D02*
X84836000Y-120650000D01*
X81280000Y-116840000D02*
X81280000Y-117094000D01*
X126746000Y-120650000D02*
X126873000Y-120650000D01*
X126873000Y-120650000D02*
X126873000Y-102870000D01*
X126873000Y-120650000D02*
X126873000Y-126365000D01*
X126873000Y-126365000D02*
X126873000Y-149733000D01*
%TD*%
D15*
%TO.N,GND*%
X201024545Y-76898909D02*
X201375208Y-77004780D01*
X201698625Y-77176744D01*
X201982484Y-77408254D01*
X202215965Y-77690486D01*
X202390183Y-78012695D01*
X202498502Y-78362614D01*
X202540001Y-78757452D01*
X202540000Y-162527721D01*
X202501091Y-162924545D01*
X202395220Y-163275206D01*
X202223257Y-163598623D01*
X201991748Y-163882482D01*
X201709514Y-164115965D01*
X201387304Y-164290184D01*
X201037385Y-164398502D01*
X200642557Y-164440000D01*
X78772279Y-164440000D01*
X78375455Y-164401091D01*
X78024794Y-164295220D01*
X77701377Y-164123257D01*
X77417518Y-163891748D01*
X77184035Y-163609514D01*
X77009816Y-163287304D01*
X76901498Y-162937385D01*
X76860000Y-162542557D01*
X76860000Y-161704872D01*
X77140000Y-161704872D01*
X77140000Y-162145128D01*
X77225890Y-162576925D01*
X77394369Y-162983669D01*
X77638962Y-163349729D01*
X77950271Y-163661038D01*
X78316331Y-163905631D01*
X78723075Y-164074110D01*
X79154872Y-164160000D01*
X79595128Y-164160000D01*
X80026925Y-164074110D01*
X80433669Y-163905631D01*
X80799729Y-163661038D01*
X81111038Y-163349729D01*
X81355631Y-162983669D01*
X81524110Y-162576925D01*
X81610000Y-162145128D01*
X81610000Y-161704872D01*
X197790000Y-161704872D01*
X197790000Y-162145128D01*
X197875890Y-162576925D01*
X198044369Y-162983669D01*
X198288962Y-163349729D01*
X198600271Y-163661038D01*
X198966331Y-163905631D01*
X199373075Y-164074110D01*
X199804872Y-164160000D01*
X200245128Y-164160000D01*
X200676925Y-164074110D01*
X201083669Y-163905631D01*
X201449729Y-163661038D01*
X201761038Y-163349729D01*
X202005631Y-162983669D01*
X202174110Y-162576925D01*
X202260000Y-162145128D01*
X202260000Y-161704872D01*
X202174110Y-161273075D01*
X202005631Y-160866331D01*
X201761038Y-160500271D01*
X201449729Y-160188962D01*
X201083669Y-159944369D01*
X200676925Y-159775890D01*
X200245128Y-159690000D01*
X199804872Y-159690000D01*
X199373075Y-159775890D01*
X198966331Y-159944369D01*
X198600271Y-160188962D01*
X198288962Y-160500271D01*
X198044369Y-160866331D01*
X197875890Y-161273075D01*
X197790000Y-161704872D01*
X81610000Y-161704872D01*
X81524110Y-161273075D01*
X81355631Y-160866331D01*
X81111038Y-160500271D01*
X80799729Y-160188962D01*
X80433669Y-159944369D01*
X80026925Y-159775890D01*
X79595128Y-159690000D01*
X79154872Y-159690000D01*
X78723075Y-159775890D01*
X78316331Y-159944369D01*
X77950271Y-160188962D01*
X77638962Y-160500271D01*
X77394369Y-160866331D01*
X77225890Y-161273075D01*
X77140000Y-161704872D01*
X76860000Y-161704872D01*
X76860000Y-146903146D01*
X79940500Y-146903146D01*
X79940500Y-147176854D01*
X79993898Y-147445302D01*
X80098641Y-147698175D01*
X80250705Y-147925754D01*
X80444246Y-148119295D01*
X80671825Y-148271359D01*
X80765113Y-148310000D01*
X80671825Y-148348641D01*
X80444246Y-148500705D01*
X80250705Y-148694246D01*
X80098641Y-148921825D01*
X79993898Y-149174698D01*
X79940500Y-149443146D01*
X79940500Y-149716854D01*
X79993898Y-149985302D01*
X80098641Y-150238175D01*
X80250705Y-150465754D01*
X80444246Y-150659295D01*
X80671825Y-150811359D01*
X80765113Y-150850000D01*
X80671825Y-150888641D01*
X80444246Y-151040705D01*
X80250705Y-151234246D01*
X80098641Y-151461825D01*
X79993898Y-151714698D01*
X79940500Y-151983146D01*
X79940500Y-152256854D01*
X79993898Y-152525302D01*
X80098641Y-152778175D01*
X80250705Y-153005754D01*
X80444246Y-153199295D01*
X80671825Y-153351359D01*
X80924698Y-153456102D01*
X81193146Y-153509500D01*
X81466854Y-153509500D01*
X81735302Y-153456102D01*
X81988175Y-153351359D01*
X82215754Y-153199295D01*
X82409295Y-153005754D01*
X82561359Y-152778175D01*
X82666102Y-152525302D01*
X82719500Y-152256854D01*
X82719500Y-151983146D01*
X82666102Y-151714698D01*
X82561359Y-151461825D01*
X82409295Y-151234246D01*
X82215754Y-151040705D01*
X81988175Y-150888641D01*
X81894887Y-150850000D01*
X81988175Y-150811359D01*
X82215754Y-150659295D01*
X82409295Y-150465754D01*
X82561359Y-150238175D01*
X82666102Y-149985302D01*
X82719500Y-149716854D01*
X82719500Y-149443146D01*
X82666102Y-149174698D01*
X82561359Y-148921825D01*
X82409295Y-148694246D01*
X82215754Y-148500705D01*
X81988175Y-148348641D01*
X81894887Y-148310000D01*
X81988175Y-148271359D01*
X82215754Y-148119295D01*
X82409295Y-147925754D01*
X82561359Y-147698175D01*
X82666102Y-147445302D01*
X82719500Y-147176854D01*
X82719500Y-146903146D01*
X82666102Y-146634698D01*
X82561359Y-146381825D01*
X82409295Y-146154246D01*
X82215754Y-145960705D01*
X81988175Y-145808641D01*
X81735302Y-145703898D01*
X81466854Y-145650500D01*
X81193146Y-145650500D01*
X80924698Y-145703898D01*
X80671825Y-145808641D01*
X80444246Y-145960705D01*
X80250705Y-146154246D01*
X80098641Y-146381825D01*
X79993898Y-146634698D01*
X79940500Y-146903146D01*
X76860000Y-146903146D01*
X76860000Y-139283146D01*
X79940500Y-139283146D01*
X79940500Y-139556854D01*
X79993898Y-139825302D01*
X80098641Y-140078175D01*
X80250705Y-140305754D01*
X80444246Y-140499295D01*
X80671825Y-140651359D01*
X80765113Y-140690000D01*
X80671825Y-140728641D01*
X80444246Y-140880705D01*
X80250705Y-141074246D01*
X80098641Y-141301825D01*
X79993898Y-141554698D01*
X79940500Y-141823146D01*
X79940500Y-142096854D01*
X79993898Y-142365302D01*
X80098641Y-142618175D01*
X80250705Y-142845754D01*
X80444246Y-143039295D01*
X80671825Y-143191359D01*
X80924698Y-143296102D01*
X81193146Y-143349500D01*
X81466854Y-143349500D01*
X81735302Y-143296102D01*
X81988175Y-143191359D01*
X82215754Y-143039295D01*
X82409295Y-142845754D01*
X82561359Y-142618175D01*
X82666102Y-142365302D01*
X82719500Y-142096854D01*
X82719500Y-141823146D01*
X82666102Y-141554698D01*
X82561359Y-141301825D01*
X82409295Y-141074246D01*
X82215754Y-140880705D01*
X81988175Y-140728641D01*
X81894887Y-140690000D01*
X81988175Y-140651359D01*
X82215754Y-140499295D01*
X82409295Y-140305754D01*
X82561359Y-140078175D01*
X82666102Y-139825302D01*
X82719500Y-139556854D01*
X82719500Y-139283146D01*
X82666102Y-139014698D01*
X82561359Y-138761825D01*
X82409295Y-138534246D01*
X82215754Y-138340705D01*
X81988175Y-138188641D01*
X81899215Y-138151793D01*
X81930404Y-138140537D01*
X82044532Y-138079534D01*
X82110603Y-137840208D01*
X81330000Y-137059605D01*
X80549397Y-137840208D01*
X80615468Y-138079534D01*
X80765326Y-138149912D01*
X80671825Y-138188641D01*
X80444246Y-138340705D01*
X80250705Y-138534246D01*
X80098641Y-138761825D01*
X79993898Y-139014698D01*
X79940500Y-139283146D01*
X76860000Y-139283146D01*
X76860000Y-136952314D01*
X79935651Y-136952314D01*
X79976551Y-137222948D01*
X80069463Y-137480404D01*
X80130466Y-137594532D01*
X80369792Y-137660603D01*
X81150395Y-136880000D01*
X81509605Y-136880000D01*
X82290208Y-137660603D01*
X82529534Y-137594532D01*
X82645883Y-137346785D01*
X82711664Y-137081100D01*
X82724349Y-136807686D01*
X82683449Y-136537052D01*
X82590537Y-136279596D01*
X82529534Y-136165468D01*
X82290208Y-136099397D01*
X81509605Y-136880000D01*
X81150395Y-136880000D01*
X80369792Y-136099397D01*
X80130466Y-136165468D01*
X80014117Y-136413215D01*
X79948336Y-136678900D01*
X79935651Y-136952314D01*
X76860000Y-136952314D01*
X76860000Y-134203146D01*
X79940500Y-134203146D01*
X79940500Y-134476854D01*
X79993898Y-134745302D01*
X80098641Y-134998175D01*
X80250705Y-135225754D01*
X80444246Y-135419295D01*
X80671825Y-135571359D01*
X80760785Y-135608207D01*
X80729596Y-135619463D01*
X80615468Y-135680466D01*
X80549397Y-135919792D01*
X81330000Y-136700395D01*
X82110603Y-135919792D01*
X82044532Y-135680466D01*
X81894674Y-135610088D01*
X81988175Y-135571359D01*
X82215754Y-135419295D01*
X82409295Y-135225754D01*
X82561359Y-134998175D01*
X82666102Y-134745302D01*
X82719500Y-134476854D01*
X82719500Y-134203146D01*
X82666102Y-133934698D01*
X82561359Y-133681825D01*
X82409295Y-133454246D01*
X82215754Y-133260705D01*
X81988175Y-133108641D01*
X81735302Y-133003898D01*
X81466854Y-132950500D01*
X81193146Y-132950500D01*
X80924698Y-133003898D01*
X80671825Y-133108641D01*
X80444246Y-133260705D01*
X80250705Y-133454246D01*
X80098641Y-133681825D01*
X79993898Y-133934698D01*
X79940500Y-134203146D01*
X76860000Y-134203146D01*
X76860000Y-124313740D01*
X79795000Y-124313740D01*
X79795000Y-124606260D01*
X79852068Y-124893158D01*
X79964010Y-125163411D01*
X80126525Y-125406632D01*
X80333368Y-125613475D01*
X80576589Y-125775990D01*
X80846842Y-125887932D01*
X81133740Y-125945000D01*
X81426260Y-125945000D01*
X81713158Y-125887932D01*
X81983411Y-125775990D01*
X82226632Y-125613475D01*
X82433475Y-125406632D01*
X82595990Y-125163411D01*
X82707932Y-124893158D01*
X82765000Y-124606260D01*
X82765000Y-124313740D01*
X82707932Y-124026842D01*
X82595990Y-123756589D01*
X82433475Y-123513368D01*
X82226632Y-123306525D01*
X82044466Y-123184805D01*
X82161355Y-123115178D01*
X82377588Y-122920269D01*
X82489672Y-122770000D01*
X95666928Y-122770000D01*
X95679188Y-122894482D01*
X95715498Y-123014180D01*
X95774463Y-123124494D01*
X95853815Y-123221185D01*
X95950506Y-123300537D01*
X96060820Y-123359502D01*
X96180518Y-123395812D01*
X96305000Y-123408072D01*
X96869250Y-123405000D01*
X97028000Y-123246250D01*
X97028000Y-122047000D01*
X97282000Y-122047000D01*
X97282000Y-123246250D01*
X97440750Y-123405000D01*
X98005000Y-123408072D01*
X98129482Y-123395812D01*
X98249180Y-123359502D01*
X98359494Y-123300537D01*
X98456185Y-123221185D01*
X98535537Y-123124494D01*
X98594502Y-123014180D01*
X98630812Y-122894482D01*
X98643072Y-122770000D01*
X98640000Y-122205750D01*
X98481250Y-122047000D01*
X97282000Y-122047000D01*
X97028000Y-122047000D01*
X95828750Y-122047000D01*
X95670000Y-122205750D01*
X95666928Y-122770000D01*
X82489672Y-122770000D01*
X82551641Y-122686920D01*
X82676825Y-122424099D01*
X82721476Y-122276890D01*
X82600155Y-122047000D01*
X81407000Y-122047000D01*
X81407000Y-122067000D01*
X81153000Y-122067000D01*
X81153000Y-122047000D01*
X79959845Y-122047000D01*
X79838524Y-122276890D01*
X79883175Y-122424099D01*
X80008359Y-122686920D01*
X80182412Y-122920269D01*
X80398645Y-123115178D01*
X80515534Y-123184805D01*
X80333368Y-123306525D01*
X80126525Y-123513368D01*
X79964010Y-123756589D01*
X79852068Y-124026842D01*
X79795000Y-124313740D01*
X76860000Y-124313740D01*
X76860000Y-119736890D01*
X79838524Y-119736890D01*
X79883175Y-119884099D01*
X80008359Y-120146920D01*
X80182412Y-120380269D01*
X80398645Y-120575178D01*
X80524255Y-120650000D01*
X80398645Y-120724822D01*
X80182412Y-120919731D01*
X80008359Y-121153080D01*
X79883175Y-121415901D01*
X79838524Y-121563110D01*
X79959845Y-121793000D01*
X81153000Y-121793000D01*
X81153000Y-119507000D01*
X79959845Y-119507000D01*
X79838524Y-119736890D01*
X76860000Y-119736890D01*
X76860000Y-115990000D01*
X79791928Y-115990000D01*
X79791928Y-117690000D01*
X79804188Y-117814482D01*
X79840498Y-117934180D01*
X79899463Y-118044494D01*
X79978815Y-118141185D01*
X80075506Y-118220537D01*
X80185820Y-118279502D01*
X80266466Y-118303966D01*
X80182412Y-118379731D01*
X80008359Y-118613080D01*
X79883175Y-118875901D01*
X79838524Y-119023110D01*
X79959845Y-119253000D01*
X81153000Y-119253000D01*
X81153000Y-119233000D01*
X81407000Y-119233000D01*
X81407000Y-119253000D01*
X81427000Y-119253000D01*
X81427000Y-119507000D01*
X81407000Y-119507000D01*
X81407000Y-121793000D01*
X82600155Y-121793000D01*
X82721476Y-121563110D01*
X82676825Y-121415901D01*
X82551641Y-121153080D01*
X82377588Y-120919731D01*
X82161355Y-120724822D01*
X82035745Y-120650000D01*
X82161355Y-120575178D01*
X82377588Y-120380269D01*
X82551641Y-120146920D01*
X82676825Y-119884099D01*
X82721476Y-119736890D01*
X82623293Y-119550844D01*
X84251881Y-121179433D01*
X84276531Y-121209469D01*
X84306567Y-121234119D01*
X84306569Y-121234121D01*
X84370055Y-121286222D01*
X84396428Y-121307866D01*
X84533217Y-121380982D01*
X84681643Y-121426006D01*
X84797327Y-121437400D01*
X84797336Y-121437400D01*
X84835999Y-121441208D01*
X84874662Y-121437400D01*
X95668928Y-121437400D01*
X95670000Y-121634250D01*
X95828750Y-121793000D01*
X97028000Y-121793000D01*
X97028000Y-121773000D01*
X97282000Y-121773000D01*
X97282000Y-121793000D01*
X98481250Y-121793000D01*
X98640000Y-121634250D01*
X98641072Y-121437400D01*
X126085600Y-121437400D01*
X126085601Y-125943270D01*
X126085179Y-125943901D01*
X126018164Y-126105688D01*
X125984000Y-126277441D01*
X125984000Y-126452559D01*
X126018164Y-126624312D01*
X126085179Y-126786099D01*
X126085600Y-126786729D01*
X126085601Y-149311269D01*
X126085179Y-149311901D01*
X126018164Y-149473688D01*
X125984000Y-149645441D01*
X125984000Y-149820559D01*
X126018164Y-149992312D01*
X126085179Y-150154099D01*
X126182469Y-150299704D01*
X126306296Y-150423531D01*
X126451901Y-150520821D01*
X126613688Y-150587836D01*
X126785441Y-150622000D01*
X126960559Y-150622000D01*
X127132312Y-150587836D01*
X127294099Y-150520821D01*
X127439704Y-150423531D01*
X127563531Y-150299704D01*
X127660821Y-150154099D01*
X127727836Y-149992312D01*
X127762000Y-149820559D01*
X127762000Y-149645441D01*
X127727836Y-149473688D01*
X127660821Y-149311901D01*
X127660400Y-149311271D01*
X127660400Y-143998740D01*
X136945000Y-143998740D01*
X136945000Y-144291260D01*
X137002068Y-144578158D01*
X137114010Y-144848411D01*
X137276525Y-145091632D01*
X137483368Y-145298475D01*
X137726589Y-145460990D01*
X137996842Y-145572932D01*
X138283740Y-145630000D01*
X138576260Y-145630000D01*
X138863158Y-145572932D01*
X139133411Y-145460990D01*
X139376632Y-145298475D01*
X139508487Y-145166620D01*
X139530498Y-145239180D01*
X139589463Y-145349494D01*
X139668815Y-145446185D01*
X139765506Y-145525537D01*
X139875820Y-145584502D01*
X139995518Y-145620812D01*
X140120000Y-145633072D01*
X141820000Y-145633072D01*
X141944482Y-145620812D01*
X142064180Y-145584502D01*
X142174494Y-145525537D01*
X142271185Y-145446185D01*
X142350537Y-145349494D01*
X142409502Y-145239180D01*
X142445812Y-145119482D01*
X142458072Y-144995000D01*
X142458072Y-143295000D01*
X142445812Y-143170518D01*
X142409502Y-143050820D01*
X142350537Y-142940506D01*
X142271185Y-142843815D01*
X142174494Y-142764463D01*
X142064180Y-142705498D01*
X141944482Y-142669188D01*
X141820000Y-142656928D01*
X140120000Y-142656928D01*
X139995518Y-142669188D01*
X139875820Y-142705498D01*
X139765506Y-142764463D01*
X139668815Y-142843815D01*
X139589463Y-142940506D01*
X139530498Y-143050820D01*
X139508487Y-143123380D01*
X139376632Y-142991525D01*
X139133411Y-142829010D01*
X138863158Y-142717068D01*
X138576260Y-142660000D01*
X138283740Y-142660000D01*
X137996842Y-142717068D01*
X137726589Y-142829010D01*
X137483368Y-142991525D01*
X137276525Y-143198368D01*
X137114010Y-143441589D01*
X137002068Y-143711842D01*
X136945000Y-143998740D01*
X127660400Y-143998740D01*
X127660400Y-126786729D01*
X127660821Y-126786099D01*
X127727836Y-126624312D01*
X127762000Y-126452559D01*
X127762000Y-126277441D01*
X127727836Y-126105688D01*
X127660821Y-125943901D01*
X127660400Y-125943271D01*
X127660400Y-122149890D01*
X145624524Y-122149890D01*
X145669175Y-122297099D01*
X145794359Y-122559920D01*
X145968412Y-122793269D01*
X146184645Y-122988178D01*
X146434748Y-123137157D01*
X146709109Y-123234481D01*
X146939000Y-123113814D01*
X146939000Y-121920000D01*
X147193000Y-121920000D01*
X147193000Y-123113814D01*
X147422891Y-123234481D01*
X147697252Y-123137157D01*
X147947355Y-122988178D01*
X148163588Y-122793269D01*
X148337641Y-122559920D01*
X148462825Y-122297099D01*
X148507476Y-122149890D01*
X148386155Y-121920000D01*
X147193000Y-121920000D01*
X146939000Y-121920000D01*
X145745845Y-121920000D01*
X145624524Y-122149890D01*
X127660400Y-122149890D01*
X127660400Y-120688672D01*
X127664209Y-120650000D01*
X127660400Y-120611327D01*
X127660400Y-120503740D01*
X136945000Y-120503740D01*
X136945000Y-120796260D01*
X137002068Y-121083158D01*
X137114010Y-121353411D01*
X137276525Y-121596632D01*
X137483368Y-121803475D01*
X137726589Y-121965990D01*
X137996842Y-122077932D01*
X138283740Y-122135000D01*
X138576260Y-122135000D01*
X138863158Y-122077932D01*
X139133411Y-121965990D01*
X139376632Y-121803475D01*
X139508487Y-121671620D01*
X139530498Y-121744180D01*
X139589463Y-121854494D01*
X139668815Y-121951185D01*
X139765506Y-122030537D01*
X139875820Y-122089502D01*
X139995518Y-122125812D01*
X140120000Y-122138072D01*
X141820000Y-122138072D01*
X141944482Y-122125812D01*
X142064180Y-122089502D01*
X142174494Y-122030537D01*
X142271185Y-121951185D01*
X142350537Y-121854494D01*
X142409502Y-121744180D01*
X142445812Y-121624482D01*
X142458072Y-121500000D01*
X142458072Y-119800000D01*
X142445812Y-119675518D01*
X142409502Y-119555820D01*
X142350537Y-119445506D01*
X142271185Y-119348815D01*
X142174494Y-119269463D01*
X142064180Y-119210498D01*
X141944482Y-119174188D01*
X141820000Y-119161928D01*
X140120000Y-119161928D01*
X139995518Y-119174188D01*
X139875820Y-119210498D01*
X139765506Y-119269463D01*
X139668815Y-119348815D01*
X139589463Y-119445506D01*
X139530498Y-119555820D01*
X139508487Y-119628380D01*
X139376632Y-119496525D01*
X139133411Y-119334010D01*
X138863158Y-119222068D01*
X138576260Y-119165000D01*
X138283740Y-119165000D01*
X137996842Y-119222068D01*
X137726589Y-119334010D01*
X137483368Y-119496525D01*
X137276525Y-119703368D01*
X137114010Y-119946589D01*
X137002068Y-120216842D01*
X136945000Y-120503740D01*
X127660400Y-120503740D01*
X127660400Y-118403000D01*
X145577928Y-118403000D01*
X145577928Y-120103000D01*
X145590188Y-120227482D01*
X145626498Y-120347180D01*
X145685463Y-120457494D01*
X145764815Y-120554185D01*
X145861506Y-120633537D01*
X145971820Y-120692502D01*
X146052466Y-120716966D01*
X145968412Y-120792731D01*
X145794359Y-121026080D01*
X145669175Y-121288901D01*
X145624524Y-121436110D01*
X145745845Y-121666000D01*
X146939000Y-121666000D01*
X146939000Y-121646000D01*
X147193000Y-121646000D01*
X147193000Y-121666000D01*
X148386155Y-121666000D01*
X148507476Y-121436110D01*
X148462825Y-121288901D01*
X148337641Y-121026080D01*
X148163588Y-120792731D01*
X148079534Y-120716966D01*
X148160180Y-120692502D01*
X148270494Y-120633537D01*
X148367185Y-120554185D01*
X148446537Y-120457494D01*
X148505502Y-120347180D01*
X148541812Y-120227482D01*
X148554072Y-120103000D01*
X148554072Y-118403000D01*
X148541812Y-118278518D01*
X148505502Y-118158820D01*
X148446537Y-118048506D01*
X148367185Y-117951815D01*
X148270494Y-117872463D01*
X148160180Y-117813498D01*
X148040482Y-117777188D01*
X147916000Y-117764928D01*
X146216000Y-117764928D01*
X146091518Y-117777188D01*
X145971820Y-117813498D01*
X145861506Y-117872463D01*
X145764815Y-117951815D01*
X145685463Y-118048506D01*
X145626498Y-118158820D01*
X145590188Y-118278518D01*
X145577928Y-118403000D01*
X127660400Y-118403000D01*
X127660400Y-103291729D01*
X127660821Y-103291099D01*
X127727836Y-103129312D01*
X127762000Y-102957559D01*
X127762000Y-102782441D01*
X127727836Y-102610688D01*
X127660821Y-102448901D01*
X127563531Y-102303296D01*
X127439704Y-102179469D01*
X127294099Y-102082179D01*
X127132312Y-102015164D01*
X126960559Y-101981000D01*
X126785441Y-101981000D01*
X126613688Y-102015164D01*
X126451901Y-102082179D01*
X126306296Y-102179469D01*
X126182469Y-102303296D01*
X126085179Y-102448901D01*
X126018164Y-102610688D01*
X125984000Y-102782441D01*
X125984000Y-102957559D01*
X126018164Y-103129312D01*
X126085179Y-103291099D01*
X126085601Y-103291731D01*
X126085600Y-119862600D01*
X98562453Y-119862600D01*
X98582932Y-119813158D01*
X98640000Y-119526260D01*
X98640000Y-119233740D01*
X98582932Y-118946842D01*
X98470990Y-118676589D01*
X98308475Y-118433368D01*
X98101632Y-118226525D01*
X97858411Y-118064010D01*
X97588158Y-117952068D01*
X97301260Y-117895000D01*
X97008740Y-117895000D01*
X96721842Y-117952068D01*
X96451589Y-118064010D01*
X96208368Y-118226525D01*
X96001525Y-118433368D01*
X95839010Y-118676589D01*
X95727068Y-118946842D01*
X95670000Y-119233740D01*
X95670000Y-119526260D01*
X95727068Y-119813158D01*
X95747547Y-119862600D01*
X85162152Y-119862600D01*
X82768072Y-117468521D01*
X82768072Y-115990000D01*
X82755812Y-115865518D01*
X82719502Y-115745820D01*
X82660537Y-115635506D01*
X82581185Y-115538815D01*
X82484494Y-115459463D01*
X82374180Y-115400498D01*
X82254482Y-115364188D01*
X82130000Y-115351928D01*
X80430000Y-115351928D01*
X80305518Y-115364188D01*
X80185820Y-115400498D01*
X80075506Y-115459463D01*
X79978815Y-115538815D01*
X79899463Y-115635506D01*
X79840498Y-115745820D01*
X79804188Y-115865518D01*
X79791928Y-115990000D01*
X76860000Y-115990000D01*
X76860000Y-97008740D01*
X136945000Y-97008740D01*
X136945000Y-97301260D01*
X137002068Y-97588158D01*
X137114010Y-97858411D01*
X137276525Y-98101632D01*
X137483368Y-98308475D01*
X137726589Y-98470990D01*
X137996842Y-98582932D01*
X138283740Y-98640000D01*
X138576260Y-98640000D01*
X138863158Y-98582932D01*
X139133411Y-98470990D01*
X139376632Y-98308475D01*
X139508487Y-98176620D01*
X139530498Y-98249180D01*
X139589463Y-98359494D01*
X139668815Y-98456185D01*
X139765506Y-98535537D01*
X139875820Y-98594502D01*
X139995518Y-98630812D01*
X140120000Y-98643072D01*
X141820000Y-98643072D01*
X141944482Y-98630812D01*
X142064180Y-98594502D01*
X142174494Y-98535537D01*
X142271185Y-98456185D01*
X142350537Y-98359494D01*
X142409502Y-98249180D01*
X142445812Y-98129482D01*
X142458072Y-98005000D01*
X142458072Y-96305000D01*
X142445812Y-96180518D01*
X142409502Y-96060820D01*
X142350537Y-95950506D01*
X142271185Y-95853815D01*
X142174494Y-95774463D01*
X142064180Y-95715498D01*
X141944482Y-95679188D01*
X141820000Y-95666928D01*
X140120000Y-95666928D01*
X139995518Y-95679188D01*
X139875820Y-95715498D01*
X139765506Y-95774463D01*
X139668815Y-95853815D01*
X139589463Y-95950506D01*
X139530498Y-96060820D01*
X139508487Y-96133380D01*
X139376632Y-96001525D01*
X139133411Y-95839010D01*
X138863158Y-95727068D01*
X138576260Y-95670000D01*
X138283740Y-95670000D01*
X137996842Y-95727068D01*
X137726589Y-95839010D01*
X137483368Y-96001525D01*
X137276525Y-96208368D01*
X137114010Y-96451589D01*
X137002068Y-96721842D01*
X136945000Y-97008740D01*
X76860000Y-97008740D01*
X76860000Y-79154872D01*
X77140000Y-79154872D01*
X77140000Y-79595128D01*
X77225890Y-80026925D01*
X77394369Y-80433669D01*
X77638962Y-80799729D01*
X77950271Y-81111038D01*
X78316331Y-81355631D01*
X78723075Y-81524110D01*
X79154872Y-81610000D01*
X79595128Y-81610000D01*
X80026925Y-81524110D01*
X80433669Y-81355631D01*
X80799729Y-81111038D01*
X81111038Y-80799729D01*
X81355631Y-80433669D01*
X81524110Y-80026925D01*
X81610000Y-79595128D01*
X81610000Y-79154872D01*
X197790000Y-79154872D01*
X197790000Y-79595128D01*
X197875890Y-80026925D01*
X198044369Y-80433669D01*
X198288962Y-80799729D01*
X198600271Y-81111038D01*
X198966331Y-81355631D01*
X199373075Y-81524110D01*
X199804872Y-81610000D01*
X200245128Y-81610000D01*
X200676925Y-81524110D01*
X201083669Y-81355631D01*
X201449729Y-81111038D01*
X201761038Y-80799729D01*
X202005631Y-80433669D01*
X202174110Y-80026925D01*
X202260000Y-79595128D01*
X202260000Y-79154872D01*
X202174110Y-78723075D01*
X202005631Y-78316331D01*
X201761038Y-77950271D01*
X201449729Y-77638962D01*
X201083669Y-77394369D01*
X200676925Y-77225890D01*
X200245128Y-77140000D01*
X199804872Y-77140000D01*
X199373075Y-77225890D01*
X198966331Y-77394369D01*
X198600271Y-77638962D01*
X198288962Y-77950271D01*
X198044369Y-78316331D01*
X197875890Y-78723075D01*
X197790000Y-79154872D01*
X81610000Y-79154872D01*
X81524110Y-78723075D01*
X81355631Y-78316331D01*
X81111038Y-77950271D01*
X80799729Y-77638962D01*
X80433669Y-77394369D01*
X80026925Y-77225890D01*
X79595128Y-77140000D01*
X79154872Y-77140000D01*
X78723075Y-77225890D01*
X78316331Y-77394369D01*
X77950271Y-77638962D01*
X77638962Y-77950271D01*
X77394369Y-78316331D01*
X77225890Y-78723075D01*
X77140000Y-79154872D01*
X76860000Y-79154872D01*
X76860000Y-78772279D01*
X76898909Y-78375455D01*
X77004780Y-78024792D01*
X77176744Y-77701375D01*
X77408254Y-77417516D01*
X77690486Y-77184035D01*
X78012695Y-77009817D01*
X78362614Y-76901498D01*
X78757443Y-76860000D01*
X200627721Y-76860000D01*
X201024545Y-76898909D01*
%TA.AperFunction,Conductor*%
D16*
G36*
X201024545Y-76898909D02*
G01*
X201375208Y-77004780D01*
X201698625Y-77176744D01*
X201982484Y-77408254D01*
X202215965Y-77690486D01*
X202390183Y-78012695D01*
X202498502Y-78362614D01*
X202540001Y-78757452D01*
X202540000Y-162527721D01*
X202501091Y-162924545D01*
X202395220Y-163275206D01*
X202223257Y-163598623D01*
X201991748Y-163882482D01*
X201709514Y-164115965D01*
X201387304Y-164290184D01*
X201037385Y-164398502D01*
X200642557Y-164440000D01*
X78772279Y-164440000D01*
X78375455Y-164401091D01*
X78024794Y-164295220D01*
X77701377Y-164123257D01*
X77417518Y-163891748D01*
X77184035Y-163609514D01*
X77009816Y-163287304D01*
X76901498Y-162937385D01*
X76860000Y-162542557D01*
X76860000Y-161704872D01*
X77140000Y-161704872D01*
X77140000Y-162145128D01*
X77225890Y-162576925D01*
X77394369Y-162983669D01*
X77638962Y-163349729D01*
X77950271Y-163661038D01*
X78316331Y-163905631D01*
X78723075Y-164074110D01*
X79154872Y-164160000D01*
X79595128Y-164160000D01*
X80026925Y-164074110D01*
X80433669Y-163905631D01*
X80799729Y-163661038D01*
X81111038Y-163349729D01*
X81355631Y-162983669D01*
X81524110Y-162576925D01*
X81610000Y-162145128D01*
X81610000Y-161704872D01*
X197790000Y-161704872D01*
X197790000Y-162145128D01*
X197875890Y-162576925D01*
X198044369Y-162983669D01*
X198288962Y-163349729D01*
X198600271Y-163661038D01*
X198966331Y-163905631D01*
X199373075Y-164074110D01*
X199804872Y-164160000D01*
X200245128Y-164160000D01*
X200676925Y-164074110D01*
X201083669Y-163905631D01*
X201449729Y-163661038D01*
X201761038Y-163349729D01*
X202005631Y-162983669D01*
X202174110Y-162576925D01*
X202260000Y-162145128D01*
X202260000Y-161704872D01*
X202174110Y-161273075D01*
X202005631Y-160866331D01*
X201761038Y-160500271D01*
X201449729Y-160188962D01*
X201083669Y-159944369D01*
X200676925Y-159775890D01*
X200245128Y-159690000D01*
X199804872Y-159690000D01*
X199373075Y-159775890D01*
X198966331Y-159944369D01*
X198600271Y-160188962D01*
X198288962Y-160500271D01*
X198044369Y-160866331D01*
X197875890Y-161273075D01*
X197790000Y-161704872D01*
X81610000Y-161704872D01*
X81524110Y-161273075D01*
X81355631Y-160866331D01*
X81111038Y-160500271D01*
X80799729Y-160188962D01*
X80433669Y-159944369D01*
X80026925Y-159775890D01*
X79595128Y-159690000D01*
X79154872Y-159690000D01*
X78723075Y-159775890D01*
X78316331Y-159944369D01*
X77950271Y-160188962D01*
X77638962Y-160500271D01*
X77394369Y-160866331D01*
X77225890Y-161273075D01*
X77140000Y-161704872D01*
X76860000Y-161704872D01*
X76860000Y-146903146D01*
X79940500Y-146903146D01*
X79940500Y-147176854D01*
X79993898Y-147445302D01*
X80098641Y-147698175D01*
X80250705Y-147925754D01*
X80444246Y-148119295D01*
X80671825Y-148271359D01*
X80765113Y-148310000D01*
X80671825Y-148348641D01*
X80444246Y-148500705D01*
X80250705Y-148694246D01*
X80098641Y-148921825D01*
X79993898Y-149174698D01*
X79940500Y-149443146D01*
X79940500Y-149716854D01*
X79993898Y-149985302D01*
X80098641Y-150238175D01*
X80250705Y-150465754D01*
X80444246Y-150659295D01*
X80671825Y-150811359D01*
X80765113Y-150850000D01*
X80671825Y-150888641D01*
X80444246Y-151040705D01*
X80250705Y-151234246D01*
X80098641Y-151461825D01*
X79993898Y-151714698D01*
X79940500Y-151983146D01*
X79940500Y-152256854D01*
X79993898Y-152525302D01*
X80098641Y-152778175D01*
X80250705Y-153005754D01*
X80444246Y-153199295D01*
X80671825Y-153351359D01*
X80924698Y-153456102D01*
X81193146Y-153509500D01*
X81466854Y-153509500D01*
X81735302Y-153456102D01*
X81988175Y-153351359D01*
X82215754Y-153199295D01*
X82409295Y-153005754D01*
X82561359Y-152778175D01*
X82666102Y-152525302D01*
X82719500Y-152256854D01*
X82719500Y-151983146D01*
X82666102Y-151714698D01*
X82561359Y-151461825D01*
X82409295Y-151234246D01*
X82215754Y-151040705D01*
X81988175Y-150888641D01*
X81894887Y-150850000D01*
X81988175Y-150811359D01*
X82215754Y-150659295D01*
X82409295Y-150465754D01*
X82561359Y-150238175D01*
X82666102Y-149985302D01*
X82719500Y-149716854D01*
X82719500Y-149443146D01*
X82666102Y-149174698D01*
X82561359Y-148921825D01*
X82409295Y-148694246D01*
X82215754Y-148500705D01*
X81988175Y-148348641D01*
X81894887Y-148310000D01*
X81988175Y-148271359D01*
X82215754Y-148119295D01*
X82409295Y-147925754D01*
X82561359Y-147698175D01*
X82666102Y-147445302D01*
X82719500Y-147176854D01*
X82719500Y-146903146D01*
X82666102Y-146634698D01*
X82561359Y-146381825D01*
X82409295Y-146154246D01*
X82215754Y-145960705D01*
X81988175Y-145808641D01*
X81735302Y-145703898D01*
X81466854Y-145650500D01*
X81193146Y-145650500D01*
X80924698Y-145703898D01*
X80671825Y-145808641D01*
X80444246Y-145960705D01*
X80250705Y-146154246D01*
X80098641Y-146381825D01*
X79993898Y-146634698D01*
X79940500Y-146903146D01*
X76860000Y-146903146D01*
X76860000Y-139283146D01*
X79940500Y-139283146D01*
X79940500Y-139556854D01*
X79993898Y-139825302D01*
X80098641Y-140078175D01*
X80250705Y-140305754D01*
X80444246Y-140499295D01*
X80671825Y-140651359D01*
X80765113Y-140690000D01*
X80671825Y-140728641D01*
X80444246Y-140880705D01*
X80250705Y-141074246D01*
X80098641Y-141301825D01*
X79993898Y-141554698D01*
X79940500Y-141823146D01*
X79940500Y-142096854D01*
X79993898Y-142365302D01*
X80098641Y-142618175D01*
X80250705Y-142845754D01*
X80444246Y-143039295D01*
X80671825Y-143191359D01*
X80924698Y-143296102D01*
X81193146Y-143349500D01*
X81466854Y-143349500D01*
X81735302Y-143296102D01*
X81988175Y-143191359D01*
X82215754Y-143039295D01*
X82409295Y-142845754D01*
X82561359Y-142618175D01*
X82666102Y-142365302D01*
X82719500Y-142096854D01*
X82719500Y-141823146D01*
X82666102Y-141554698D01*
X82561359Y-141301825D01*
X82409295Y-141074246D01*
X82215754Y-140880705D01*
X81988175Y-140728641D01*
X81894887Y-140690000D01*
X81988175Y-140651359D01*
X82215754Y-140499295D01*
X82409295Y-140305754D01*
X82561359Y-140078175D01*
X82666102Y-139825302D01*
X82719500Y-139556854D01*
X82719500Y-139283146D01*
X82666102Y-139014698D01*
X82561359Y-138761825D01*
X82409295Y-138534246D01*
X82215754Y-138340705D01*
X81988175Y-138188641D01*
X81899215Y-138151793D01*
X81930404Y-138140537D01*
X82044532Y-138079534D01*
X82110603Y-137840208D01*
X81330000Y-137059605D01*
X80549397Y-137840208D01*
X80615468Y-138079534D01*
X80765326Y-138149912D01*
X80671825Y-138188641D01*
X80444246Y-138340705D01*
X80250705Y-138534246D01*
X80098641Y-138761825D01*
X79993898Y-139014698D01*
X79940500Y-139283146D01*
X76860000Y-139283146D01*
X76860000Y-136952314D01*
X79935651Y-136952314D01*
X79976551Y-137222948D01*
X80069463Y-137480404D01*
X80130466Y-137594532D01*
X80369792Y-137660603D01*
X81150395Y-136880000D01*
X81509605Y-136880000D01*
X82290208Y-137660603D01*
X82529534Y-137594532D01*
X82645883Y-137346785D01*
X82711664Y-137081100D01*
X82724349Y-136807686D01*
X82683449Y-136537052D01*
X82590537Y-136279596D01*
X82529534Y-136165468D01*
X82290208Y-136099397D01*
X81509605Y-136880000D01*
X81150395Y-136880000D01*
X80369792Y-136099397D01*
X80130466Y-136165468D01*
X80014117Y-136413215D01*
X79948336Y-136678900D01*
X79935651Y-136952314D01*
X76860000Y-136952314D01*
X76860000Y-134203146D01*
X79940500Y-134203146D01*
X79940500Y-134476854D01*
X79993898Y-134745302D01*
X80098641Y-134998175D01*
X80250705Y-135225754D01*
X80444246Y-135419295D01*
X80671825Y-135571359D01*
X80760785Y-135608207D01*
X80729596Y-135619463D01*
X80615468Y-135680466D01*
X80549397Y-135919792D01*
X81330000Y-136700395D01*
X82110603Y-135919792D01*
X82044532Y-135680466D01*
X81894674Y-135610088D01*
X81988175Y-135571359D01*
X82215754Y-135419295D01*
X82409295Y-135225754D01*
X82561359Y-134998175D01*
X82666102Y-134745302D01*
X82719500Y-134476854D01*
X82719500Y-134203146D01*
X82666102Y-133934698D01*
X82561359Y-133681825D01*
X82409295Y-133454246D01*
X82215754Y-133260705D01*
X81988175Y-133108641D01*
X81735302Y-133003898D01*
X81466854Y-132950500D01*
X81193146Y-132950500D01*
X80924698Y-133003898D01*
X80671825Y-133108641D01*
X80444246Y-133260705D01*
X80250705Y-133454246D01*
X80098641Y-133681825D01*
X79993898Y-133934698D01*
X79940500Y-134203146D01*
X76860000Y-134203146D01*
X76860000Y-124313740D01*
X79795000Y-124313740D01*
X79795000Y-124606260D01*
X79852068Y-124893158D01*
X79964010Y-125163411D01*
X80126525Y-125406632D01*
X80333368Y-125613475D01*
X80576589Y-125775990D01*
X80846842Y-125887932D01*
X81133740Y-125945000D01*
X81426260Y-125945000D01*
X81713158Y-125887932D01*
X81983411Y-125775990D01*
X82226632Y-125613475D01*
X82433475Y-125406632D01*
X82595990Y-125163411D01*
X82707932Y-124893158D01*
X82765000Y-124606260D01*
X82765000Y-124313740D01*
X82707932Y-124026842D01*
X82595990Y-123756589D01*
X82433475Y-123513368D01*
X82226632Y-123306525D01*
X82044466Y-123184805D01*
X82161355Y-123115178D01*
X82377588Y-122920269D01*
X82489672Y-122770000D01*
X95666928Y-122770000D01*
X95679188Y-122894482D01*
X95715498Y-123014180D01*
X95774463Y-123124494D01*
X95853815Y-123221185D01*
X95950506Y-123300537D01*
X96060820Y-123359502D01*
X96180518Y-123395812D01*
X96305000Y-123408072D01*
X96869250Y-123405000D01*
X97028000Y-123246250D01*
X97028000Y-122047000D01*
X97282000Y-122047000D01*
X97282000Y-123246250D01*
X97440750Y-123405000D01*
X98005000Y-123408072D01*
X98129482Y-123395812D01*
X98249180Y-123359502D01*
X98359494Y-123300537D01*
X98456185Y-123221185D01*
X98535537Y-123124494D01*
X98594502Y-123014180D01*
X98630812Y-122894482D01*
X98643072Y-122770000D01*
X98640000Y-122205750D01*
X98481250Y-122047000D01*
X97282000Y-122047000D01*
X97028000Y-122047000D01*
X95828750Y-122047000D01*
X95670000Y-122205750D01*
X95666928Y-122770000D01*
X82489672Y-122770000D01*
X82551641Y-122686920D01*
X82676825Y-122424099D01*
X82721476Y-122276890D01*
X82600155Y-122047000D01*
X81407000Y-122047000D01*
X81407000Y-122067000D01*
X81153000Y-122067000D01*
X81153000Y-122047000D01*
X79959845Y-122047000D01*
X79838524Y-122276890D01*
X79883175Y-122424099D01*
X80008359Y-122686920D01*
X80182412Y-122920269D01*
X80398645Y-123115178D01*
X80515534Y-123184805D01*
X80333368Y-123306525D01*
X80126525Y-123513368D01*
X79964010Y-123756589D01*
X79852068Y-124026842D01*
X79795000Y-124313740D01*
X76860000Y-124313740D01*
X76860000Y-119736890D01*
X79838524Y-119736890D01*
X79883175Y-119884099D01*
X80008359Y-120146920D01*
X80182412Y-120380269D01*
X80398645Y-120575178D01*
X80524255Y-120650000D01*
X80398645Y-120724822D01*
X80182412Y-120919731D01*
X80008359Y-121153080D01*
X79883175Y-121415901D01*
X79838524Y-121563110D01*
X79959845Y-121793000D01*
X81153000Y-121793000D01*
X81153000Y-119507000D01*
X79959845Y-119507000D01*
X79838524Y-119736890D01*
X76860000Y-119736890D01*
X76860000Y-115990000D01*
X79791928Y-115990000D01*
X79791928Y-117690000D01*
X79804188Y-117814482D01*
X79840498Y-117934180D01*
X79899463Y-118044494D01*
X79978815Y-118141185D01*
X80075506Y-118220537D01*
X80185820Y-118279502D01*
X80266466Y-118303966D01*
X80182412Y-118379731D01*
X80008359Y-118613080D01*
X79883175Y-118875901D01*
X79838524Y-119023110D01*
X79959845Y-119253000D01*
X81153000Y-119253000D01*
X81153000Y-119233000D01*
X81407000Y-119233000D01*
X81407000Y-119253000D01*
X81427000Y-119253000D01*
X81427000Y-119507000D01*
X81407000Y-119507000D01*
X81407000Y-121793000D01*
X82600155Y-121793000D01*
X82721476Y-121563110D01*
X82676825Y-121415901D01*
X82551641Y-121153080D01*
X82377588Y-120919731D01*
X82161355Y-120724822D01*
X82035745Y-120650000D01*
X82161355Y-120575178D01*
X82377588Y-120380269D01*
X82551641Y-120146920D01*
X82676825Y-119884099D01*
X82721476Y-119736890D01*
X82623293Y-119550844D01*
X84251881Y-121179433D01*
X84276531Y-121209469D01*
X84306567Y-121234119D01*
X84306569Y-121234121D01*
X84370055Y-121286222D01*
X84396428Y-121307866D01*
X84533217Y-121380982D01*
X84681643Y-121426006D01*
X84797327Y-121437400D01*
X84797336Y-121437400D01*
X84835999Y-121441208D01*
X84874662Y-121437400D01*
X95668928Y-121437400D01*
X95670000Y-121634250D01*
X95828750Y-121793000D01*
X97028000Y-121793000D01*
X97028000Y-121773000D01*
X97282000Y-121773000D01*
X97282000Y-121793000D01*
X98481250Y-121793000D01*
X98640000Y-121634250D01*
X98641072Y-121437400D01*
X126085600Y-121437400D01*
X126085601Y-125943270D01*
X126085179Y-125943901D01*
X126018164Y-126105688D01*
X125984000Y-126277441D01*
X125984000Y-126452559D01*
X126018164Y-126624312D01*
X126085179Y-126786099D01*
X126085600Y-126786729D01*
X126085601Y-149311269D01*
X126085179Y-149311901D01*
X126018164Y-149473688D01*
X125984000Y-149645441D01*
X125984000Y-149820559D01*
X126018164Y-149992312D01*
X126085179Y-150154099D01*
X126182469Y-150299704D01*
X126306296Y-150423531D01*
X126451901Y-150520821D01*
X126613688Y-150587836D01*
X126785441Y-150622000D01*
X126960559Y-150622000D01*
X127132312Y-150587836D01*
X127294099Y-150520821D01*
X127439704Y-150423531D01*
X127563531Y-150299704D01*
X127660821Y-150154099D01*
X127727836Y-149992312D01*
X127762000Y-149820559D01*
X127762000Y-149645441D01*
X127727836Y-149473688D01*
X127660821Y-149311901D01*
X127660400Y-149311271D01*
X127660400Y-143998740D01*
X136945000Y-143998740D01*
X136945000Y-144291260D01*
X137002068Y-144578158D01*
X137114010Y-144848411D01*
X137276525Y-145091632D01*
X137483368Y-145298475D01*
X137726589Y-145460990D01*
X137996842Y-145572932D01*
X138283740Y-145630000D01*
X138576260Y-145630000D01*
X138863158Y-145572932D01*
X139133411Y-145460990D01*
X139376632Y-145298475D01*
X139508487Y-145166620D01*
X139530498Y-145239180D01*
X139589463Y-145349494D01*
X139668815Y-145446185D01*
X139765506Y-145525537D01*
X139875820Y-145584502D01*
X139995518Y-145620812D01*
X140120000Y-145633072D01*
X141820000Y-145633072D01*
X141944482Y-145620812D01*
X142064180Y-145584502D01*
X142174494Y-145525537D01*
X142271185Y-145446185D01*
X142350537Y-145349494D01*
X142409502Y-145239180D01*
X142445812Y-145119482D01*
X142458072Y-144995000D01*
X142458072Y-143295000D01*
X142445812Y-143170518D01*
X142409502Y-143050820D01*
X142350537Y-142940506D01*
X142271185Y-142843815D01*
X142174494Y-142764463D01*
X142064180Y-142705498D01*
X141944482Y-142669188D01*
X141820000Y-142656928D01*
X140120000Y-142656928D01*
X139995518Y-142669188D01*
X139875820Y-142705498D01*
X139765506Y-142764463D01*
X139668815Y-142843815D01*
X139589463Y-142940506D01*
X139530498Y-143050820D01*
X139508487Y-143123380D01*
X139376632Y-142991525D01*
X139133411Y-142829010D01*
X138863158Y-142717068D01*
X138576260Y-142660000D01*
X138283740Y-142660000D01*
X137996842Y-142717068D01*
X137726589Y-142829010D01*
X137483368Y-142991525D01*
X137276525Y-143198368D01*
X137114010Y-143441589D01*
X137002068Y-143711842D01*
X136945000Y-143998740D01*
X127660400Y-143998740D01*
X127660400Y-126786729D01*
X127660821Y-126786099D01*
X127727836Y-126624312D01*
X127762000Y-126452559D01*
X127762000Y-126277441D01*
X127727836Y-126105688D01*
X127660821Y-125943901D01*
X127660400Y-125943271D01*
X127660400Y-122149890D01*
X145624524Y-122149890D01*
X145669175Y-122297099D01*
X145794359Y-122559920D01*
X145968412Y-122793269D01*
X146184645Y-122988178D01*
X146434748Y-123137157D01*
X146709109Y-123234481D01*
X146939000Y-123113814D01*
X146939000Y-121920000D01*
X147193000Y-121920000D01*
X147193000Y-123113814D01*
X147422891Y-123234481D01*
X147697252Y-123137157D01*
X147947355Y-122988178D01*
X148163588Y-122793269D01*
X148337641Y-122559920D01*
X148462825Y-122297099D01*
X148507476Y-122149890D01*
X148386155Y-121920000D01*
X147193000Y-121920000D01*
X146939000Y-121920000D01*
X145745845Y-121920000D01*
X145624524Y-122149890D01*
X127660400Y-122149890D01*
X127660400Y-120688672D01*
X127664209Y-120650000D01*
X127660400Y-120611327D01*
X127660400Y-120503740D01*
X136945000Y-120503740D01*
X136945000Y-120796260D01*
X137002068Y-121083158D01*
X137114010Y-121353411D01*
X137276525Y-121596632D01*
X137483368Y-121803475D01*
X137726589Y-121965990D01*
X137996842Y-122077932D01*
X138283740Y-122135000D01*
X138576260Y-122135000D01*
X138863158Y-122077932D01*
X139133411Y-121965990D01*
X139376632Y-121803475D01*
X139508487Y-121671620D01*
X139530498Y-121744180D01*
X139589463Y-121854494D01*
X139668815Y-121951185D01*
X139765506Y-122030537D01*
X139875820Y-122089502D01*
X139995518Y-122125812D01*
X140120000Y-122138072D01*
X141820000Y-122138072D01*
X141944482Y-122125812D01*
X142064180Y-122089502D01*
X142174494Y-122030537D01*
X142271185Y-121951185D01*
X142350537Y-121854494D01*
X142409502Y-121744180D01*
X142445812Y-121624482D01*
X142458072Y-121500000D01*
X142458072Y-119800000D01*
X142445812Y-119675518D01*
X142409502Y-119555820D01*
X142350537Y-119445506D01*
X142271185Y-119348815D01*
X142174494Y-119269463D01*
X142064180Y-119210498D01*
X141944482Y-119174188D01*
X141820000Y-119161928D01*
X140120000Y-119161928D01*
X139995518Y-119174188D01*
X139875820Y-119210498D01*
X139765506Y-119269463D01*
X139668815Y-119348815D01*
X139589463Y-119445506D01*
X139530498Y-119555820D01*
X139508487Y-119628380D01*
X139376632Y-119496525D01*
X139133411Y-119334010D01*
X138863158Y-119222068D01*
X138576260Y-119165000D01*
X138283740Y-119165000D01*
X137996842Y-119222068D01*
X137726589Y-119334010D01*
X137483368Y-119496525D01*
X137276525Y-119703368D01*
X137114010Y-119946589D01*
X137002068Y-120216842D01*
X136945000Y-120503740D01*
X127660400Y-120503740D01*
X127660400Y-118403000D01*
X145577928Y-118403000D01*
X145577928Y-120103000D01*
X145590188Y-120227482D01*
X145626498Y-120347180D01*
X145685463Y-120457494D01*
X145764815Y-120554185D01*
X145861506Y-120633537D01*
X145971820Y-120692502D01*
X146052466Y-120716966D01*
X145968412Y-120792731D01*
X145794359Y-121026080D01*
X145669175Y-121288901D01*
X145624524Y-121436110D01*
X145745845Y-121666000D01*
X146939000Y-121666000D01*
X146939000Y-121646000D01*
X147193000Y-121646000D01*
X147193000Y-121666000D01*
X148386155Y-121666000D01*
X148507476Y-121436110D01*
X148462825Y-121288901D01*
X148337641Y-121026080D01*
X148163588Y-120792731D01*
X148079534Y-120716966D01*
X148160180Y-120692502D01*
X148270494Y-120633537D01*
X148367185Y-120554185D01*
X148446537Y-120457494D01*
X148505502Y-120347180D01*
X148541812Y-120227482D01*
X148554072Y-120103000D01*
X148554072Y-118403000D01*
X148541812Y-118278518D01*
X148505502Y-118158820D01*
X148446537Y-118048506D01*
X148367185Y-117951815D01*
X148270494Y-117872463D01*
X148160180Y-117813498D01*
X148040482Y-117777188D01*
X147916000Y-117764928D01*
X146216000Y-117764928D01*
X146091518Y-117777188D01*
X145971820Y-117813498D01*
X145861506Y-117872463D01*
X145764815Y-117951815D01*
X145685463Y-118048506D01*
X145626498Y-118158820D01*
X145590188Y-118278518D01*
X145577928Y-118403000D01*
X127660400Y-118403000D01*
X127660400Y-103291729D01*
X127660821Y-103291099D01*
X127727836Y-103129312D01*
X127762000Y-102957559D01*
X127762000Y-102782441D01*
X127727836Y-102610688D01*
X127660821Y-102448901D01*
X127563531Y-102303296D01*
X127439704Y-102179469D01*
X127294099Y-102082179D01*
X127132312Y-102015164D01*
X126960559Y-101981000D01*
X126785441Y-101981000D01*
X126613688Y-102015164D01*
X126451901Y-102082179D01*
X126306296Y-102179469D01*
X126182469Y-102303296D01*
X126085179Y-102448901D01*
X126018164Y-102610688D01*
X125984000Y-102782441D01*
X125984000Y-102957559D01*
X126018164Y-103129312D01*
X126085179Y-103291099D01*
X126085601Y-103291731D01*
X126085600Y-119862600D01*
X98562453Y-119862600D01*
X98582932Y-119813158D01*
X98640000Y-119526260D01*
X98640000Y-119233740D01*
X98582932Y-118946842D01*
X98470990Y-118676589D01*
X98308475Y-118433368D01*
X98101632Y-118226525D01*
X97858411Y-118064010D01*
X97588158Y-117952068D01*
X97301260Y-117895000D01*
X97008740Y-117895000D01*
X96721842Y-117952068D01*
X96451589Y-118064010D01*
X96208368Y-118226525D01*
X96001525Y-118433368D01*
X95839010Y-118676589D01*
X95727068Y-118946842D01*
X95670000Y-119233740D01*
X95670000Y-119526260D01*
X95727068Y-119813158D01*
X95747547Y-119862600D01*
X85162152Y-119862600D01*
X82768072Y-117468521D01*
X82768072Y-115990000D01*
X82755812Y-115865518D01*
X82719502Y-115745820D01*
X82660537Y-115635506D01*
X82581185Y-115538815D01*
X82484494Y-115459463D01*
X82374180Y-115400498D01*
X82254482Y-115364188D01*
X82130000Y-115351928D01*
X80430000Y-115351928D01*
X80305518Y-115364188D01*
X80185820Y-115400498D01*
X80075506Y-115459463D01*
X79978815Y-115538815D01*
X79899463Y-115635506D01*
X79840498Y-115745820D01*
X79804188Y-115865518D01*
X79791928Y-115990000D01*
X76860000Y-115990000D01*
X76860000Y-97008740D01*
X136945000Y-97008740D01*
X136945000Y-97301260D01*
X137002068Y-97588158D01*
X137114010Y-97858411D01*
X137276525Y-98101632D01*
X137483368Y-98308475D01*
X137726589Y-98470990D01*
X137996842Y-98582932D01*
X138283740Y-98640000D01*
X138576260Y-98640000D01*
X138863158Y-98582932D01*
X139133411Y-98470990D01*
X139376632Y-98308475D01*
X139508487Y-98176620D01*
X139530498Y-98249180D01*
X139589463Y-98359494D01*
X139668815Y-98456185D01*
X139765506Y-98535537D01*
X139875820Y-98594502D01*
X139995518Y-98630812D01*
X140120000Y-98643072D01*
X141820000Y-98643072D01*
X141944482Y-98630812D01*
X142064180Y-98594502D01*
X142174494Y-98535537D01*
X142271185Y-98456185D01*
X142350537Y-98359494D01*
X142409502Y-98249180D01*
X142445812Y-98129482D01*
X142458072Y-98005000D01*
X142458072Y-96305000D01*
X142445812Y-96180518D01*
X142409502Y-96060820D01*
X142350537Y-95950506D01*
X142271185Y-95853815D01*
X142174494Y-95774463D01*
X142064180Y-95715498D01*
X141944482Y-95679188D01*
X141820000Y-95666928D01*
X140120000Y-95666928D01*
X139995518Y-95679188D01*
X139875820Y-95715498D01*
X139765506Y-95774463D01*
X139668815Y-95853815D01*
X139589463Y-95950506D01*
X139530498Y-96060820D01*
X139508487Y-96133380D01*
X139376632Y-96001525D01*
X139133411Y-95839010D01*
X138863158Y-95727068D01*
X138576260Y-95670000D01*
X138283740Y-95670000D01*
X137996842Y-95727068D01*
X137726589Y-95839010D01*
X137483368Y-96001525D01*
X137276525Y-96208368D01*
X137114010Y-96451589D01*
X137002068Y-96721842D01*
X136945000Y-97008740D01*
X76860000Y-97008740D01*
X76860000Y-79154872D01*
X77140000Y-79154872D01*
X77140000Y-79595128D01*
X77225890Y-80026925D01*
X77394369Y-80433669D01*
X77638962Y-80799729D01*
X77950271Y-81111038D01*
X78316331Y-81355631D01*
X78723075Y-81524110D01*
X79154872Y-81610000D01*
X79595128Y-81610000D01*
X80026925Y-81524110D01*
X80433669Y-81355631D01*
X80799729Y-81111038D01*
X81111038Y-80799729D01*
X81355631Y-80433669D01*
X81524110Y-80026925D01*
X81610000Y-79595128D01*
X81610000Y-79154872D01*
X197790000Y-79154872D01*
X197790000Y-79595128D01*
X197875890Y-80026925D01*
X198044369Y-80433669D01*
X198288962Y-80799729D01*
X198600271Y-81111038D01*
X198966331Y-81355631D01*
X199373075Y-81524110D01*
X199804872Y-81610000D01*
X200245128Y-81610000D01*
X200676925Y-81524110D01*
X201083669Y-81355631D01*
X201449729Y-81111038D01*
X201761038Y-80799729D01*
X202005631Y-80433669D01*
X202174110Y-80026925D01*
X202260000Y-79595128D01*
X202260000Y-79154872D01*
X202174110Y-78723075D01*
X202005631Y-78316331D01*
X201761038Y-77950271D01*
X201449729Y-77638962D01*
X201083669Y-77394369D01*
X200676925Y-77225890D01*
X200245128Y-77140000D01*
X199804872Y-77140000D01*
X199373075Y-77225890D01*
X198966331Y-77394369D01*
X198600271Y-77638962D01*
X198288962Y-77950271D01*
X198044369Y-78316331D01*
X197875890Y-78723075D01*
X197790000Y-79154872D01*
X81610000Y-79154872D01*
X81524110Y-78723075D01*
X81355631Y-78316331D01*
X81111038Y-77950271D01*
X80799729Y-77638962D01*
X80433669Y-77394369D01*
X80026925Y-77225890D01*
X79595128Y-77140000D01*
X79154872Y-77140000D01*
X78723075Y-77225890D01*
X78316331Y-77394369D01*
X77950271Y-77638962D01*
X77638962Y-77950271D01*
X77394369Y-78316331D01*
X77225890Y-78723075D01*
X77140000Y-79154872D01*
X76860000Y-79154872D01*
X76860000Y-78772279D01*
X76898909Y-78375455D01*
X77004780Y-78024792D01*
X77176744Y-77701375D01*
X77408254Y-77417516D01*
X77690486Y-77184035D01*
X78012695Y-77009817D01*
X78362614Y-76901498D01*
X78757443Y-76860000D01*
X200627721Y-76860000D01*
X201024545Y-76898909D01*
G37*
%TD.AperFunction*%
%TD*%
M02*
