%TF.GenerationSoftware,KiCad,Pcbnew,(5.1.7)-1*%
%TF.CreationDate,2021-04-26T16:00:27-05:00*%
%TF.ProjectId,PID Demo Board,50494420-4465-46d6-9f20-426f6172642e,1.0*%
%TF.SameCoordinates,Original*%
%TF.FileFunction,Copper,L1,Top*%
%TF.FilePolarity,Positive*%
%FSLAX46Y46*%
G04 Gerber Fmt 4.6, Leading zero omitted, Abs format (unit mm)*
G04 Created by KiCad (PCBNEW (5.1.7)-1) date 2021-04-26 16:00:27*
%MOMM*%
%LPD*%
G01*
G04 APERTURE LIST*
%TA.AperFunction,SMDPad,CuDef*%
%ADD10R,4.060000X3.300000*%
%TD*%
%TA.AperFunction,SMDPad,CuDef*%
%ADD11R,5.760000X3.810000*%
%TD*%
%TA.AperFunction,SMDPad,CuDef*%
%ADD12R,6.350000X3.810000*%
%TD*%
%TA.AperFunction,SMDPad,CuDef*%
%ADD13C,1.000000*%
%TD*%
%TA.AperFunction,ComponentPad*%
%ADD14R,1.700000X1.700000*%
%TD*%
%TA.AperFunction,ComponentPad*%
%ADD15O,1.700000X1.700000*%
%TD*%
%TA.AperFunction,SMDPad,CuDef*%
%ADD16R,1.000000X3.000000*%
%TD*%
%TA.AperFunction,SMDPad,CuDef*%
%ADD17R,0.600000X1.550000*%
%TD*%
%TA.AperFunction,ComponentPad*%
%ADD18C,1.509000*%
%TD*%
%TA.AperFunction,ViaPad*%
%ADD19C,0.508000*%
%TD*%
%TA.AperFunction,Conductor*%
%ADD20C,0.304800*%
%TD*%
%TA.AperFunction,Conductor*%
%ADD21C,0.254000*%
%TD*%
%TA.AperFunction,Conductor*%
%ADD22C,0.100000*%
%TD*%
G04 APERTURE END LIST*
%TO.P,C1,2*%
%TO.N,+5V*%
%TA.AperFunction,SMDPad,CuDef*%
G36*
G01*
X127285000Y-140078750D02*
X127285000Y-140591250D01*
G75*
G02*
X127066250Y-140810000I-218750J0D01*
G01*
X126628750Y-140810000D01*
G75*
G02*
X126410000Y-140591250I0J218750D01*
G01*
X126410000Y-140078750D01*
G75*
G02*
X126628750Y-139860000I218750J0D01*
G01*
X127066250Y-139860000D01*
G75*
G02*
X127285000Y-140078750I0J-218750D01*
G01*
G37*
%TD.AperFunction*%
%TO.P,C1,1*%
%TO.N,GND*%
%TA.AperFunction,SMDPad,CuDef*%
G36*
G01*
X128860000Y-140078750D02*
X128860000Y-140591250D01*
G75*
G02*
X128641250Y-140810000I-218750J0D01*
G01*
X128203750Y-140810000D01*
G75*
G02*
X127985000Y-140591250I0J218750D01*
G01*
X127985000Y-140078750D01*
G75*
G02*
X128203750Y-139860000I218750J0D01*
G01*
X128641250Y-139860000D01*
G75*
G02*
X128860000Y-140078750I0J-218750D01*
G01*
G37*
%TD.AperFunction*%
%TD*%
%TO.P,C2,2*%
%TO.N,+5V*%
%TA.AperFunction,SMDPad,CuDef*%
G36*
G01*
X127285000Y-141983750D02*
X127285000Y-142496250D01*
G75*
G02*
X127066250Y-142715000I-218750J0D01*
G01*
X126628750Y-142715000D01*
G75*
G02*
X126410000Y-142496250I0J218750D01*
G01*
X126410000Y-141983750D01*
G75*
G02*
X126628750Y-141765000I218750J0D01*
G01*
X127066250Y-141765000D01*
G75*
G02*
X127285000Y-141983750I0J-218750D01*
G01*
G37*
%TD.AperFunction*%
%TO.P,C2,1*%
%TO.N,GND*%
%TA.AperFunction,SMDPad,CuDef*%
G36*
G01*
X128860000Y-141983750D02*
X128860000Y-142496250D01*
G75*
G02*
X128641250Y-142715000I-218750J0D01*
G01*
X128203750Y-142715000D01*
G75*
G02*
X127985000Y-142496250I0J218750D01*
G01*
X127985000Y-141983750D01*
G75*
G02*
X128203750Y-141765000I218750J0D01*
G01*
X128641250Y-141765000D01*
G75*
G02*
X128860000Y-141983750I0J-218750D01*
G01*
G37*
%TD.AperFunction*%
%TD*%
%TO.P,C3,1*%
%TO.N,GND*%
%TA.AperFunction,SMDPad,CuDef*%
G36*
G01*
X128860000Y-145793750D02*
X128860000Y-146306250D01*
G75*
G02*
X128641250Y-146525000I-218750J0D01*
G01*
X128203750Y-146525000D01*
G75*
G02*
X127985000Y-146306250I0J218750D01*
G01*
X127985000Y-145793750D01*
G75*
G02*
X128203750Y-145575000I218750J0D01*
G01*
X128641250Y-145575000D01*
G75*
G02*
X128860000Y-145793750I0J-218750D01*
G01*
G37*
%TD.AperFunction*%
%TO.P,C3,2*%
%TO.N,-5V*%
%TA.AperFunction,SMDPad,CuDef*%
G36*
G01*
X127285000Y-145793750D02*
X127285000Y-146306250D01*
G75*
G02*
X127066250Y-146525000I-218750J0D01*
G01*
X126628750Y-146525000D01*
G75*
G02*
X126410000Y-146306250I0J218750D01*
G01*
X126410000Y-145793750D01*
G75*
G02*
X126628750Y-145575000I218750J0D01*
G01*
X127066250Y-145575000D01*
G75*
G02*
X127285000Y-145793750I0J-218750D01*
G01*
G37*
%TD.AperFunction*%
%TD*%
%TO.P,C4,1*%
%TO.N,GND*%
%TA.AperFunction,SMDPad,CuDef*%
G36*
G01*
X128860000Y-147698750D02*
X128860000Y-148211250D01*
G75*
G02*
X128641250Y-148430000I-218750J0D01*
G01*
X128203750Y-148430000D01*
G75*
G02*
X127985000Y-148211250I0J218750D01*
G01*
X127985000Y-147698750D01*
G75*
G02*
X128203750Y-147480000I218750J0D01*
G01*
X128641250Y-147480000D01*
G75*
G02*
X128860000Y-147698750I0J-218750D01*
G01*
G37*
%TD.AperFunction*%
%TO.P,C4,2*%
%TO.N,-5V*%
%TA.AperFunction,SMDPad,CuDef*%
G36*
G01*
X127285000Y-147698750D02*
X127285000Y-148211250D01*
G75*
G02*
X127066250Y-148430000I-218750J0D01*
G01*
X126628750Y-148430000D01*
G75*
G02*
X126410000Y-148211250I0J218750D01*
G01*
X126410000Y-147698750D01*
G75*
G02*
X126628750Y-147480000I218750J0D01*
G01*
X127066250Y-147480000D01*
G75*
G02*
X127285000Y-147698750I0J-218750D01*
G01*
G37*
%TD.AperFunction*%
%TD*%
%TO.P,C5,1*%
%TO.N,GND*%
%TA.AperFunction,SMDPad,CuDef*%
G36*
G01*
X128860000Y-118488750D02*
X128860000Y-119001250D01*
G75*
G02*
X128641250Y-119220000I-218750J0D01*
G01*
X128203750Y-119220000D01*
G75*
G02*
X127985000Y-119001250I0J218750D01*
G01*
X127985000Y-118488750D01*
G75*
G02*
X128203750Y-118270000I218750J0D01*
G01*
X128641250Y-118270000D01*
G75*
G02*
X128860000Y-118488750I0J-218750D01*
G01*
G37*
%TD.AperFunction*%
%TO.P,C5,2*%
%TO.N,+5V*%
%TA.AperFunction,SMDPad,CuDef*%
G36*
G01*
X127285000Y-118488750D02*
X127285000Y-119001250D01*
G75*
G02*
X127066250Y-119220000I-218750J0D01*
G01*
X126628750Y-119220000D01*
G75*
G02*
X126410000Y-119001250I0J218750D01*
G01*
X126410000Y-118488750D01*
G75*
G02*
X126628750Y-118270000I218750J0D01*
G01*
X127066250Y-118270000D01*
G75*
G02*
X127285000Y-118488750I0J-218750D01*
G01*
G37*
%TD.AperFunction*%
%TD*%
%TO.P,C6,2*%
%TO.N,+5V*%
%TA.AperFunction,SMDPad,CuDef*%
G36*
G01*
X127285000Y-116583750D02*
X127285000Y-117096250D01*
G75*
G02*
X127066250Y-117315000I-218750J0D01*
G01*
X126628750Y-117315000D01*
G75*
G02*
X126410000Y-117096250I0J218750D01*
G01*
X126410000Y-116583750D01*
G75*
G02*
X126628750Y-116365000I218750J0D01*
G01*
X127066250Y-116365000D01*
G75*
G02*
X127285000Y-116583750I0J-218750D01*
G01*
G37*
%TD.AperFunction*%
%TO.P,C6,1*%
%TO.N,GND*%
%TA.AperFunction,SMDPad,CuDef*%
G36*
G01*
X128860000Y-116583750D02*
X128860000Y-117096250D01*
G75*
G02*
X128641250Y-117315000I-218750J0D01*
G01*
X128203750Y-117315000D01*
G75*
G02*
X127985000Y-117096250I0J218750D01*
G01*
X127985000Y-116583750D01*
G75*
G02*
X128203750Y-116365000I218750J0D01*
G01*
X128641250Y-116365000D01*
G75*
G02*
X128860000Y-116583750I0J-218750D01*
G01*
G37*
%TD.AperFunction*%
%TD*%
%TO.P,C7,1*%
%TO.N,GND*%
%TA.AperFunction,SMDPad,CuDef*%
G36*
G01*
X128860000Y-124203750D02*
X128860000Y-124716250D01*
G75*
G02*
X128641250Y-124935000I-218750J0D01*
G01*
X128203750Y-124935000D01*
G75*
G02*
X127985000Y-124716250I0J218750D01*
G01*
X127985000Y-124203750D01*
G75*
G02*
X128203750Y-123985000I218750J0D01*
G01*
X128641250Y-123985000D01*
G75*
G02*
X128860000Y-124203750I0J-218750D01*
G01*
G37*
%TD.AperFunction*%
%TO.P,C7,2*%
%TO.N,-5V*%
%TA.AperFunction,SMDPad,CuDef*%
G36*
G01*
X127285000Y-124203750D02*
X127285000Y-124716250D01*
G75*
G02*
X127066250Y-124935000I-218750J0D01*
G01*
X126628750Y-124935000D01*
G75*
G02*
X126410000Y-124716250I0J218750D01*
G01*
X126410000Y-124203750D01*
G75*
G02*
X126628750Y-123985000I218750J0D01*
G01*
X127066250Y-123985000D01*
G75*
G02*
X127285000Y-124203750I0J-218750D01*
G01*
G37*
%TD.AperFunction*%
%TD*%
%TO.P,C8,2*%
%TO.N,-5V*%
%TA.AperFunction,SMDPad,CuDef*%
G36*
G01*
X127285000Y-122298750D02*
X127285000Y-122811250D01*
G75*
G02*
X127066250Y-123030000I-218750J0D01*
G01*
X126628750Y-123030000D01*
G75*
G02*
X126410000Y-122811250I0J218750D01*
G01*
X126410000Y-122298750D01*
G75*
G02*
X126628750Y-122080000I218750J0D01*
G01*
X127066250Y-122080000D01*
G75*
G02*
X127285000Y-122298750I0J-218750D01*
G01*
G37*
%TD.AperFunction*%
%TO.P,C8,1*%
%TO.N,GND*%
%TA.AperFunction,SMDPad,CuDef*%
G36*
G01*
X128860000Y-122298750D02*
X128860000Y-122811250D01*
G75*
G02*
X128641250Y-123030000I-218750J0D01*
G01*
X128203750Y-123030000D01*
G75*
G02*
X127985000Y-122811250I0J218750D01*
G01*
X127985000Y-122298750D01*
G75*
G02*
X128203750Y-122080000I218750J0D01*
G01*
X128641250Y-122080000D01*
G75*
G02*
X128860000Y-122298750I0J-218750D01*
G01*
G37*
%TD.AperFunction*%
%TD*%
%TO.P,C9,2*%
%TO.N,+5V*%
%TA.AperFunction,SMDPad,CuDef*%
G36*
G01*
X127285000Y-93088750D02*
X127285000Y-93601250D01*
G75*
G02*
X127066250Y-93820000I-218750J0D01*
G01*
X126628750Y-93820000D01*
G75*
G02*
X126410000Y-93601250I0J218750D01*
G01*
X126410000Y-93088750D01*
G75*
G02*
X126628750Y-92870000I218750J0D01*
G01*
X127066250Y-92870000D01*
G75*
G02*
X127285000Y-93088750I0J-218750D01*
G01*
G37*
%TD.AperFunction*%
%TO.P,C9,1*%
%TO.N,GND*%
%TA.AperFunction,SMDPad,CuDef*%
G36*
G01*
X128860000Y-93088750D02*
X128860000Y-93601250D01*
G75*
G02*
X128641250Y-93820000I-218750J0D01*
G01*
X128203750Y-93820000D01*
G75*
G02*
X127985000Y-93601250I0J218750D01*
G01*
X127985000Y-93088750D01*
G75*
G02*
X128203750Y-92870000I218750J0D01*
G01*
X128641250Y-92870000D01*
G75*
G02*
X128860000Y-93088750I0J-218750D01*
G01*
G37*
%TD.AperFunction*%
%TD*%
%TO.P,C10,2*%
%TO.N,+5V*%
%TA.AperFunction,SMDPad,CuDef*%
G36*
G01*
X127285000Y-94993750D02*
X127285000Y-95506250D01*
G75*
G02*
X127066250Y-95725000I-218750J0D01*
G01*
X126628750Y-95725000D01*
G75*
G02*
X126410000Y-95506250I0J218750D01*
G01*
X126410000Y-94993750D01*
G75*
G02*
X126628750Y-94775000I218750J0D01*
G01*
X127066250Y-94775000D01*
G75*
G02*
X127285000Y-94993750I0J-218750D01*
G01*
G37*
%TD.AperFunction*%
%TO.P,C10,1*%
%TO.N,GND*%
%TA.AperFunction,SMDPad,CuDef*%
G36*
G01*
X128860000Y-94993750D02*
X128860000Y-95506250D01*
G75*
G02*
X128641250Y-95725000I-218750J0D01*
G01*
X128203750Y-95725000D01*
G75*
G02*
X127985000Y-95506250I0J218750D01*
G01*
X127985000Y-94993750D01*
G75*
G02*
X128203750Y-94775000I218750J0D01*
G01*
X128641250Y-94775000D01*
G75*
G02*
X128860000Y-94993750I0J-218750D01*
G01*
G37*
%TD.AperFunction*%
%TD*%
%TO.P,C11,1*%
%TO.N,GND*%
%TA.AperFunction,SMDPad,CuDef*%
G36*
G01*
X128860000Y-98803750D02*
X128860000Y-99316250D01*
G75*
G02*
X128641250Y-99535000I-218750J0D01*
G01*
X128203750Y-99535000D01*
G75*
G02*
X127985000Y-99316250I0J218750D01*
G01*
X127985000Y-98803750D01*
G75*
G02*
X128203750Y-98585000I218750J0D01*
G01*
X128641250Y-98585000D01*
G75*
G02*
X128860000Y-98803750I0J-218750D01*
G01*
G37*
%TD.AperFunction*%
%TO.P,C11,2*%
%TO.N,-5V*%
%TA.AperFunction,SMDPad,CuDef*%
G36*
G01*
X127285000Y-98803750D02*
X127285000Y-99316250D01*
G75*
G02*
X127066250Y-99535000I-218750J0D01*
G01*
X126628750Y-99535000D01*
G75*
G02*
X126410000Y-99316250I0J218750D01*
G01*
X126410000Y-98803750D01*
G75*
G02*
X126628750Y-98585000I218750J0D01*
G01*
X127066250Y-98585000D01*
G75*
G02*
X127285000Y-98803750I0J-218750D01*
G01*
G37*
%TD.AperFunction*%
%TD*%
%TO.P,C12,1*%
%TO.N,GND*%
%TA.AperFunction,SMDPad,CuDef*%
G36*
G01*
X128860000Y-100708750D02*
X128860000Y-101221250D01*
G75*
G02*
X128641250Y-101440000I-218750J0D01*
G01*
X128203750Y-101440000D01*
G75*
G02*
X127985000Y-101221250I0J218750D01*
G01*
X127985000Y-100708750D01*
G75*
G02*
X128203750Y-100490000I218750J0D01*
G01*
X128641250Y-100490000D01*
G75*
G02*
X128860000Y-100708750I0J-218750D01*
G01*
G37*
%TD.AperFunction*%
%TO.P,C12,2*%
%TO.N,-5V*%
%TA.AperFunction,SMDPad,CuDef*%
G36*
G01*
X127285000Y-100708750D02*
X127285000Y-101221250D01*
G75*
G02*
X127066250Y-101440000I-218750J0D01*
G01*
X126628750Y-101440000D01*
G75*
G02*
X126410000Y-101221250I0J218750D01*
G01*
X126410000Y-100708750D01*
G75*
G02*
X126628750Y-100490000I218750J0D01*
G01*
X127066250Y-100490000D01*
G75*
G02*
X127285000Y-100708750I0J-218750D01*
G01*
G37*
%TD.AperFunction*%
%TD*%
%TO.P,C13,1*%
%TO.N,Net-(C13-Pad1)*%
%TA.AperFunction,SMDPad,CuDef*%
G36*
G01*
X114756250Y-145570000D02*
X113843750Y-145570000D01*
G75*
G02*
X113600000Y-145326250I0J243750D01*
G01*
X113600000Y-144838750D01*
G75*
G02*
X113843750Y-144595000I243750J0D01*
G01*
X114756250Y-144595000D01*
G75*
G02*
X115000000Y-144838750I0J-243750D01*
G01*
X115000000Y-145326250D01*
G75*
G02*
X114756250Y-145570000I-243750J0D01*
G01*
G37*
%TD.AperFunction*%
%TO.P,C13,2*%
%TO.N,Net-(C13-Pad2)*%
%TA.AperFunction,SMDPad,CuDef*%
G36*
G01*
X114756250Y-143695000D02*
X113843750Y-143695000D01*
G75*
G02*
X113600000Y-143451250I0J243750D01*
G01*
X113600000Y-142963750D01*
G75*
G02*
X113843750Y-142720000I243750J0D01*
G01*
X114756250Y-142720000D01*
G75*
G02*
X115000000Y-142963750I0J-243750D01*
G01*
X115000000Y-143451250D01*
G75*
G02*
X114756250Y-143695000I-243750J0D01*
G01*
G37*
%TD.AperFunction*%
%TD*%
%TO.P,C14,1*%
%TO.N,Net-(C14-Pad1)*%
%TA.AperFunction,SMDPad,CuDef*%
G36*
G01*
X116583750Y-142920000D02*
X117096250Y-142920000D01*
G75*
G02*
X117315000Y-143138750I0J-218750D01*
G01*
X117315000Y-143576250D01*
G75*
G02*
X117096250Y-143795000I-218750J0D01*
G01*
X116583750Y-143795000D01*
G75*
G02*
X116365000Y-143576250I0J218750D01*
G01*
X116365000Y-143138750D01*
G75*
G02*
X116583750Y-142920000I218750J0D01*
G01*
G37*
%TD.AperFunction*%
%TO.P,C14,2*%
%TO.N,Net-(C13-Pad1)*%
%TA.AperFunction,SMDPad,CuDef*%
G36*
G01*
X116583750Y-144495000D02*
X117096250Y-144495000D01*
G75*
G02*
X117315000Y-144713750I0J-218750D01*
G01*
X117315000Y-145151250D01*
G75*
G02*
X117096250Y-145370000I-218750J0D01*
G01*
X116583750Y-145370000D01*
G75*
G02*
X116365000Y-145151250I0J218750D01*
G01*
X116365000Y-144713750D01*
G75*
G02*
X116583750Y-144495000I218750J0D01*
G01*
G37*
%TD.AperFunction*%
%TD*%
%TO.P,C15,1*%
%TO.N,Net-(C15-Pad1)*%
%TA.AperFunction,SMDPad,CuDef*%
G36*
G01*
X116583750Y-119425000D02*
X117096250Y-119425000D01*
G75*
G02*
X117315000Y-119643750I0J-218750D01*
G01*
X117315000Y-120081250D01*
G75*
G02*
X117096250Y-120300000I-218750J0D01*
G01*
X116583750Y-120300000D01*
G75*
G02*
X116365000Y-120081250I0J218750D01*
G01*
X116365000Y-119643750D01*
G75*
G02*
X116583750Y-119425000I218750J0D01*
G01*
G37*
%TD.AperFunction*%
%TO.P,C15,2*%
%TO.N,Net-(C15-Pad2)*%
%TA.AperFunction,SMDPad,CuDef*%
G36*
G01*
X116583750Y-121000000D02*
X117096250Y-121000000D01*
G75*
G02*
X117315000Y-121218750I0J-218750D01*
G01*
X117315000Y-121656250D01*
G75*
G02*
X117096250Y-121875000I-218750J0D01*
G01*
X116583750Y-121875000D01*
G75*
G02*
X116365000Y-121656250I0J218750D01*
G01*
X116365000Y-121218750D01*
G75*
G02*
X116583750Y-121000000I218750J0D01*
G01*
G37*
%TD.AperFunction*%
%TD*%
D10*
%TO.P,CON1,1*%
%TO.N,Net-(CON1-Pad1)*%
X92960000Y-99060000D03*
D11*
%TO.P,CON1,3*%
%TO.N,Net-(CON1-Pad2)*%
X83820000Y-91870000D03*
D12*
%TO.P,CON1,2*%
X83820000Y-105160000D03*
%TD*%
%TO.P,D1,1*%
%TO.N,GND*%
%TA.AperFunction,SMDPad,CuDef*%
G36*
G01*
X87150000Y-85268750D02*
X87150000Y-86181250D01*
G75*
G02*
X86906250Y-86425000I-243750J0D01*
G01*
X86418750Y-86425000D01*
G75*
G02*
X86175000Y-86181250I0J243750D01*
G01*
X86175000Y-85268750D01*
G75*
G02*
X86418750Y-85025000I243750J0D01*
G01*
X86906250Y-85025000D01*
G75*
G02*
X87150000Y-85268750I0J-243750D01*
G01*
G37*
%TD.AperFunction*%
%TO.P,D1,2*%
%TO.N,Net-(D1-Pad2)*%
%TA.AperFunction,SMDPad,CuDef*%
G36*
G01*
X85275000Y-85268750D02*
X85275000Y-86181250D01*
G75*
G02*
X85031250Y-86425000I-243750J0D01*
G01*
X84543750Y-86425000D01*
G75*
G02*
X84300000Y-86181250I0J243750D01*
G01*
X84300000Y-85268750D01*
G75*
G02*
X84543750Y-85025000I243750J0D01*
G01*
X85031250Y-85025000D01*
G75*
G02*
X85275000Y-85268750I0J-243750D01*
G01*
G37*
%TD.AperFunction*%
%TD*%
D13*
%TO.P,FID1,*%
%TO.N,*%
X81915000Y-158115000D03*
%TD*%
%TO.P,FID2,*%
%TO.N,*%
X196850000Y-82550000D03*
%TD*%
D14*
%TO.P,J1,1*%
%TO.N,-5V*%
X81280000Y-116840000D03*
D15*
%TO.P,J1,2*%
%TO.N,GND*%
X81280000Y-119380000D03*
%TO.P,J1,3*%
X81280000Y-121920000D03*
%TO.P,J1,4*%
%TO.N,+5V*%
X81280000Y-124460000D03*
%TD*%
%TO.P,J2,2*%
%TO.N,Net-(J2-Pad2)*%
X97155000Y-119380000D03*
D14*
%TO.P,J2,1*%
%TO.N,GND*%
X97155000Y-121920000D03*
%TD*%
%TO.P,J3,1*%
%TO.N,Net-(J3-Pad1)*%
X140970000Y-144145000D03*
D15*
%TO.P,J3,2*%
%TO.N,Net-(C14-Pad1)*%
X138430000Y-144145000D03*
%TD*%
%TO.P,J4,2*%
%TO.N,Net-(C15-Pad1)*%
X138430000Y-120650000D03*
D14*
%TO.P,J4,1*%
%TO.N,Net-(J3-Pad1)*%
X140970000Y-120650000D03*
%TD*%
%TO.P,J5,1*%
%TO.N,Net-(J3-Pad1)*%
X140970000Y-97155000D03*
D15*
%TO.P,J5,2*%
%TO.N,Net-(J5-Pad2)*%
X138430000Y-97155000D03*
%TD*%
D14*
%TO.P,J6,1*%
%TO.N,Net-(J3-Pad1)*%
X147066000Y-119253000D03*
D15*
%TO.P,J6,2*%
%TO.N,GND*%
X147066000Y-121793000D03*
%TD*%
%TO.P,R1,1*%
%TO.N,Net-(D1-Pad2)*%
%TA.AperFunction,SMDPad,CuDef*%
G36*
G01*
X83140000Y-85468750D02*
X83140000Y-85981250D01*
G75*
G02*
X82921250Y-86200000I-218750J0D01*
G01*
X82483750Y-86200000D01*
G75*
G02*
X82265000Y-85981250I0J218750D01*
G01*
X82265000Y-85468750D01*
G75*
G02*
X82483750Y-85250000I218750J0D01*
G01*
X82921250Y-85250000D01*
G75*
G02*
X83140000Y-85468750I0J-218750D01*
G01*
G37*
%TD.AperFunction*%
%TO.P,R1,2*%
%TO.N,+5V*%
%TA.AperFunction,SMDPad,CuDef*%
G36*
G01*
X81565000Y-85468750D02*
X81565000Y-85981250D01*
G75*
G02*
X81346250Y-86200000I-218750J0D01*
G01*
X80908750Y-86200000D01*
G75*
G02*
X80690000Y-85981250I0J218750D01*
G01*
X80690000Y-85468750D01*
G75*
G02*
X80908750Y-85250000I218750J0D01*
G01*
X81346250Y-85250000D01*
G75*
G02*
X81565000Y-85468750I0J-218750D01*
G01*
G37*
%TD.AperFunction*%
%TD*%
%TO.P,R2,1*%
%TO.N,Net-(C13-Pad2)*%
%TA.AperFunction,SMDPad,CuDef*%
G36*
G01*
X102491250Y-145370000D02*
X101978750Y-145370000D01*
G75*
G02*
X101760000Y-145151250I0J218750D01*
G01*
X101760000Y-144713750D01*
G75*
G02*
X101978750Y-144495000I218750J0D01*
G01*
X102491250Y-144495000D01*
G75*
G02*
X102710000Y-144713750I0J-218750D01*
G01*
X102710000Y-145151250D01*
G75*
G02*
X102491250Y-145370000I-218750J0D01*
G01*
G37*
%TD.AperFunction*%
%TO.P,R2,2*%
%TO.N,Net-(J2-Pad2)*%
%TA.AperFunction,SMDPad,CuDef*%
G36*
G01*
X102491250Y-143795000D02*
X101978750Y-143795000D01*
G75*
G02*
X101760000Y-143576250I0J218750D01*
G01*
X101760000Y-143138750D01*
G75*
G02*
X101978750Y-142920000I218750J0D01*
G01*
X102491250Y-142920000D01*
G75*
G02*
X102710000Y-143138750I0J-218750D01*
G01*
X102710000Y-143576250D01*
G75*
G02*
X102491250Y-143795000I-218750J0D01*
G01*
G37*
%TD.AperFunction*%
%TD*%
%TO.P,R3,1*%
%TO.N,Net-(R3-Pad1)*%
%TA.AperFunction,SMDPad,CuDef*%
G36*
G01*
X114556250Y-98380000D02*
X114043750Y-98380000D01*
G75*
G02*
X113825000Y-98161250I0J218750D01*
G01*
X113825000Y-97723750D01*
G75*
G02*
X114043750Y-97505000I218750J0D01*
G01*
X114556250Y-97505000D01*
G75*
G02*
X114775000Y-97723750I0J-218750D01*
G01*
X114775000Y-98161250D01*
G75*
G02*
X114556250Y-98380000I-218750J0D01*
G01*
G37*
%TD.AperFunction*%
%TO.P,R3,2*%
%TO.N,GND*%
%TA.AperFunction,SMDPad,CuDef*%
G36*
G01*
X114556250Y-96805000D02*
X114043750Y-96805000D01*
G75*
G02*
X113825000Y-96586250I0J218750D01*
G01*
X113825000Y-96148750D01*
G75*
G02*
X114043750Y-95930000I218750J0D01*
G01*
X114556250Y-95930000D01*
G75*
G02*
X114775000Y-96148750I0J-218750D01*
G01*
X114775000Y-96586250D01*
G75*
G02*
X114556250Y-96805000I-218750J0D01*
G01*
G37*
%TD.AperFunction*%
%TD*%
%TO.P,R4,1*%
%TO.N,Net-(J5-Pad2)*%
%TA.AperFunction,SMDPad,CuDef*%
G36*
G01*
X116583750Y-95930000D02*
X117096250Y-95930000D01*
G75*
G02*
X117315000Y-96148750I0J-218750D01*
G01*
X117315000Y-96586250D01*
G75*
G02*
X117096250Y-96805000I-218750J0D01*
G01*
X116583750Y-96805000D01*
G75*
G02*
X116365000Y-96586250I0J218750D01*
G01*
X116365000Y-96148750D01*
G75*
G02*
X116583750Y-95930000I218750J0D01*
G01*
G37*
%TD.AperFunction*%
%TO.P,R4,2*%
%TO.N,Net-(R4-Pad2)*%
%TA.AperFunction,SMDPad,CuDef*%
G36*
G01*
X116583750Y-97505000D02*
X117096250Y-97505000D01*
G75*
G02*
X117315000Y-97723750I0J-218750D01*
G01*
X117315000Y-98161250D01*
G75*
G02*
X117096250Y-98380000I-218750J0D01*
G01*
X116583750Y-98380000D01*
G75*
G02*
X116365000Y-98161250I0J218750D01*
G01*
X116365000Y-97723750D01*
G75*
G02*
X116583750Y-97505000I218750J0D01*
G01*
G37*
%TD.AperFunction*%
%TD*%
%TO.P,R5,1*%
%TO.N,Net-(C15-Pad1)*%
%TA.AperFunction,SMDPad,CuDef*%
G36*
G01*
X114043750Y-119425000D02*
X114556250Y-119425000D01*
G75*
G02*
X114775000Y-119643750I0J-218750D01*
G01*
X114775000Y-120081250D01*
G75*
G02*
X114556250Y-120300000I-218750J0D01*
G01*
X114043750Y-120300000D01*
G75*
G02*
X113825000Y-120081250I0J218750D01*
G01*
X113825000Y-119643750D01*
G75*
G02*
X114043750Y-119425000I218750J0D01*
G01*
G37*
%TD.AperFunction*%
%TO.P,R5,2*%
%TO.N,Net-(C15-Pad2)*%
%TA.AperFunction,SMDPad,CuDef*%
G36*
G01*
X114043750Y-121000000D02*
X114556250Y-121000000D01*
G75*
G02*
X114775000Y-121218750I0J-218750D01*
G01*
X114775000Y-121656250D01*
G75*
G02*
X114556250Y-121875000I-218750J0D01*
G01*
X114043750Y-121875000D01*
G75*
G02*
X113825000Y-121656250I0J218750D01*
G01*
X113825000Y-121218750D01*
G75*
G02*
X114043750Y-121000000I218750J0D01*
G01*
G37*
%TD.AperFunction*%
%TD*%
D16*
%TO.P,RV1,1*%
%TO.N,Net-(J2-Pad2)*%
X106045000Y-122900000D03*
%TO.P,RV1,2*%
%TO.N,Net-(C15-Pad2)*%
X108585000Y-118400000D03*
%TO.P,RV1,3*%
X111125000Y-122900000D03*
%TD*%
%TO.P,RV2,3*%
%TO.N,Net-(R4-Pad2)*%
X111125000Y-99405000D03*
%TO.P,RV2,2*%
X108585000Y-94905000D03*
%TO.P,RV2,1*%
%TO.N,Net-(J2-Pad2)*%
X106045000Y-99405000D03*
%TD*%
%TO.P,RV3,3*%
%TO.N,Net-(C14-Pad1)*%
X111125000Y-146395000D03*
%TO.P,RV3,2*%
X108585000Y-141895000D03*
%TO.P,RV3,1*%
%TO.N,Net-(C13-Pad1)*%
X106045000Y-146395000D03*
%TD*%
D17*
%TO.P,U1,1*%
%TO.N,N/C*%
X120015000Y-146845000D03*
%TO.P,U1,2*%
%TO.N,Net-(C13-Pad1)*%
X121285000Y-146845000D03*
%TO.P,U1,3*%
%TO.N,GND*%
X122555000Y-146845000D03*
%TO.P,U1,4*%
%TO.N,-5V*%
X123825000Y-146845000D03*
%TO.P,U1,5*%
%TO.N,N/C*%
X123825000Y-141445000D03*
%TO.P,U1,6*%
%TO.N,Net-(C14-Pad1)*%
X122555000Y-141445000D03*
%TO.P,U1,7*%
%TO.N,+5V*%
X121285000Y-141445000D03*
%TO.P,U1,8*%
%TO.N,N/C*%
X120015000Y-141445000D03*
%TD*%
%TO.P,U2,8*%
%TO.N,N/C*%
X120015000Y-117950000D03*
%TO.P,U2,7*%
%TO.N,+5V*%
X121285000Y-117950000D03*
%TO.P,U2,6*%
%TO.N,Net-(C15-Pad1)*%
X122555000Y-117950000D03*
%TO.P,U2,5*%
%TO.N,N/C*%
X123825000Y-117950000D03*
%TO.P,U2,4*%
%TO.N,-5V*%
X123825000Y-123350000D03*
%TO.P,U2,3*%
%TO.N,GND*%
X122555000Y-123350000D03*
%TO.P,U2,2*%
%TO.N,Net-(C15-Pad2)*%
X121285000Y-123350000D03*
%TO.P,U2,1*%
%TO.N,N/C*%
X120015000Y-123350000D03*
%TD*%
%TO.P,U3,8*%
%TO.N,N/C*%
X120015000Y-94455000D03*
%TO.P,U3,7*%
%TO.N,+5V*%
X121285000Y-94455000D03*
%TO.P,U3,6*%
%TO.N,Net-(J5-Pad2)*%
X122555000Y-94455000D03*
%TO.P,U3,5*%
%TO.N,N/C*%
X123825000Y-94455000D03*
%TO.P,U3,4*%
%TO.N,-5V*%
X123825000Y-99855000D03*
%TO.P,U3,3*%
%TO.N,Net-(R3-Pad1)*%
X122555000Y-99855000D03*
%TO.P,U3,2*%
%TO.N,Net-(R4-Pad2)*%
X121285000Y-99855000D03*
%TO.P,U3,1*%
%TO.N,N/C*%
X120015000Y-99855000D03*
%TD*%
D18*
%TO.P,U4,8*%
%TO.N,-5V*%
X81330000Y-134340000D03*
%TO.P,U4,7*%
%TO.N,GND*%
X81330000Y-136880000D03*
%TO.P,U4,6*%
%TO.N,+5V*%
X81330000Y-139420000D03*
%TO.P,U4,5*%
%TO.N,N/C*%
X81330000Y-141960000D03*
%TO.P,U4,3*%
X81330000Y-147040000D03*
%TO.P,U4,2*%
%TO.N,Net-(CON1-Pad1)*%
X81330000Y-149580000D03*
%TO.P,U4,1*%
%TO.N,Net-(CON1-Pad2)*%
X81330000Y-152120000D03*
%TD*%
D19*
%TO.N,GND*%
X128397000Y-91694000D03*
X128397000Y-102870000D03*
X128397000Y-126365000D03*
X128397000Y-114935000D03*
X128397000Y-138684000D03*
X128397000Y-149733000D03*
X114300000Y-94996000D03*
X122555000Y-125349000D03*
X122555000Y-148844000D03*
X88392000Y-85725000D03*
%TO.N,-5V*%
X126873000Y-102870000D03*
X126873000Y-126365000D03*
X126873000Y-149733000D03*
%TD*%
D20*
%TO.N,GND*%
X128422500Y-95250000D02*
X128422500Y-91719500D01*
X128422500Y-102844500D02*
X128397000Y-102870000D01*
X128422500Y-99060000D02*
X128422500Y-102844500D01*
X128422500Y-126339500D02*
X128397000Y-126365000D01*
X128422500Y-122555000D02*
X128422500Y-126339500D01*
X128422500Y-114960500D02*
X128397000Y-114935000D01*
X128422500Y-118745000D02*
X128422500Y-114960500D01*
X128422500Y-138709500D02*
X128397000Y-138684000D01*
X128422500Y-142240000D02*
X128422500Y-138709500D01*
X128422500Y-149707500D02*
X128397000Y-149733000D01*
X128422500Y-146050000D02*
X128422500Y-149707500D01*
X114300000Y-96367500D02*
X114300000Y-94996000D01*
X122555000Y-123350000D02*
X122555000Y-125349000D01*
X122555000Y-146845000D02*
X122555000Y-148844000D01*
X86662500Y-85725000D02*
X88392000Y-85725000D01*
%TO.N,-5V*%
X126847500Y-122555000D02*
X126847500Y-124460000D01*
X126212500Y-125095000D02*
X126847500Y-124460000D01*
X124206000Y-125095000D02*
X126212500Y-125095000D01*
X123825000Y-124714000D02*
X124206000Y-125095000D01*
X123825000Y-123350000D02*
X123825000Y-124714000D01*
X126847500Y-146050000D02*
X126847500Y-147955000D01*
X126847500Y-148031250D02*
X126847500Y-147955000D01*
X126034750Y-148844000D02*
X126847500Y-148031250D01*
X124587000Y-148844000D02*
X126034750Y-148844000D01*
X123825000Y-148082000D02*
X124587000Y-148844000D01*
X123825000Y-146845000D02*
X123825000Y-148082000D01*
X79756000Y-118364000D02*
X79756000Y-132766000D01*
X79756000Y-132766000D02*
X81330000Y-134340000D01*
X81280000Y-116840000D02*
X79756000Y-118364000D01*
X126847500Y-102844500D02*
X126873000Y-102870000D01*
X126847500Y-100965000D02*
X126847500Y-102844500D01*
X126873000Y-124485500D02*
X126847500Y-124460000D01*
X126873000Y-126365000D02*
X126873000Y-124485500D01*
X126873000Y-147980500D02*
X126847500Y-147955000D01*
X126873000Y-149733000D02*
X126873000Y-147980500D01*
X126847500Y-99923500D02*
X126847500Y-100965000D01*
X126847500Y-99060000D02*
X126847500Y-99923500D01*
X124079000Y-101600000D02*
X126212500Y-101600000D01*
X123825000Y-101346000D02*
X124079000Y-101600000D01*
X126212500Y-101600000D02*
X126847500Y-100965000D01*
X123825000Y-99855000D02*
X123825000Y-101346000D01*
%TO.N,Net-(C13-Pad1)*%
X121285000Y-145765200D02*
X121285000Y-146845000D01*
X120452300Y-144932500D02*
X121285000Y-145765200D01*
X116840000Y-144932500D02*
X120452300Y-144932500D01*
X116690000Y-145082500D02*
X116840000Y-144932500D01*
X114300000Y-145082500D02*
X116690000Y-145082500D01*
X107986000Y-148336000D02*
X106045000Y-146395000D01*
X111809821Y-148336000D02*
X107986000Y-148336000D01*
X114300000Y-145845821D02*
X111809821Y-148336000D01*
X114300000Y-145082500D02*
X114300000Y-145845821D01*
%TO.N,Net-(C13-Pad2)*%
X107213500Y-139954000D02*
X102235000Y-144932500D01*
X109982000Y-139954000D02*
X107213500Y-139954000D01*
X113235500Y-143207500D02*
X109982000Y-139954000D01*
X114300000Y-143207500D02*
X113235500Y-143207500D01*
%TO.N,Net-(C14-Pad1)*%
X122555000Y-142524800D02*
X122555000Y-141445000D01*
X121722300Y-143357500D02*
X122555000Y-142524800D01*
X116840000Y-143357500D02*
X121722300Y-143357500D01*
X122555000Y-142524800D02*
X122585800Y-142524800D01*
X124206000Y-144145000D02*
X138430000Y-144145000D01*
X122585800Y-142524800D02*
X124206000Y-144145000D01*
X116052500Y-144145000D02*
X116840000Y-143357500D01*
X113375000Y-144145000D02*
X116052500Y-144145000D01*
X111125000Y-146395000D02*
X113375000Y-144145000D01*
X108585000Y-143855000D02*
X111125000Y-146395000D01*
X108585000Y-141895000D02*
X108585000Y-143855000D01*
%TO.N,Net-(C15-Pad1)*%
X114300000Y-119862500D02*
X116840000Y-119862500D01*
X122555000Y-119126000D02*
X122555000Y-117950000D01*
X121818500Y-119862500D02*
X122555000Y-119126000D01*
X116840000Y-119862500D02*
X121818500Y-119862500D01*
X124079000Y-120650000D02*
X122555000Y-119126000D01*
X138430000Y-120650000D02*
X124079000Y-120650000D01*
%TO.N,Net-(C15-Pad2)*%
X114300000Y-121437500D02*
X116840000Y-121437500D01*
X121285000Y-122996358D02*
X121285000Y-123350000D01*
X119726142Y-121437500D02*
X121285000Y-122996358D01*
X116840000Y-121437500D02*
X119726142Y-121437500D01*
X112587500Y-121437500D02*
X111125000Y-122900000D01*
X114300000Y-121437500D02*
X112587500Y-121437500D01*
X108585000Y-120360000D02*
X111125000Y-122900000D01*
X108585000Y-118400000D02*
X108585000Y-120360000D01*
%TO.N,Net-(CON1-Pad1)*%
X92960000Y-99060000D02*
X92960000Y-102758593D01*
X92960000Y-102758593D02*
X79298789Y-116419803D01*
X79298789Y-116419803D02*
X79298789Y-147548789D01*
X79298789Y-147548789D02*
X80575501Y-148825501D01*
X80575501Y-148825501D02*
X81330000Y-149580000D01*
%TO.N,Net-(CON1-Pad2)*%
X83820000Y-91870000D02*
X83820000Y-105160000D01*
X80575501Y-151365501D02*
X81330000Y-152120000D01*
X83820000Y-105160000D02*
X83820000Y-111252000D01*
X83820000Y-111252000D02*
X78841578Y-116230422D01*
X78841578Y-149631578D02*
X80575501Y-151365501D01*
X78841578Y-116230422D02*
X78841578Y-149631578D01*
%TO.N,Net-(D1-Pad2)*%
X82702500Y-85725000D02*
X84787500Y-85725000D01*
%TO.N,Net-(J2-Pad2)*%
X106045000Y-140335000D02*
X103022500Y-143357500D01*
X103022500Y-143357500D02*
X102235000Y-143357500D01*
X106045000Y-122900000D02*
X106045000Y-140335000D01*
X106045000Y-122900000D02*
X106045000Y-120777000D01*
X106045000Y-120777000D02*
X106045000Y-99405000D01*
X97155000Y-119671358D02*
X97155000Y-119380000D01*
X98133642Y-120650000D02*
X97155000Y-119671358D01*
X105918000Y-120650000D02*
X98133642Y-120650000D01*
%TO.N,Net-(J3-Pad1)*%
X140970000Y-120650000D02*
X140970000Y-144145000D01*
X140970000Y-120650000D02*
X140970000Y-97155000D01*
X140970000Y-120650000D02*
X140981801Y-120638199D01*
X145669000Y-120650000D02*
X145859500Y-120459500D01*
X140970000Y-120650000D02*
X145669000Y-120650000D01*
X145859500Y-120459500D02*
X147066000Y-119253000D01*
X145680801Y-120638199D02*
X145859500Y-120459500D01*
%TO.N,Net-(J5-Pad2)*%
X121722300Y-96367500D02*
X116840000Y-96367500D01*
X122555000Y-95534800D02*
X121722300Y-96367500D01*
X122555000Y-94455000D02*
X122555000Y-95534800D01*
X124175200Y-97155000D02*
X122555000Y-95534800D01*
X138430000Y-97155000D02*
X124175200Y-97155000D01*
%TO.N,Net-(R3-Pad1)*%
X122555000Y-98775200D02*
X122555000Y-99855000D01*
X120979990Y-97200190D02*
X122555000Y-98775200D01*
X115042310Y-97200190D02*
X120979990Y-97200190D01*
X114300000Y-97942500D02*
X115042310Y-97200190D01*
%TO.N,Net-(R4-Pad2)*%
X120452300Y-97942500D02*
X116840000Y-97942500D01*
X121285000Y-98775200D02*
X120452300Y-97942500D01*
X121285000Y-99855000D02*
X121285000Y-98775200D01*
X108585000Y-96865000D02*
X111125000Y-99405000D01*
X108585000Y-94905000D02*
X108585000Y-96865000D01*
X115377500Y-99405000D02*
X116840000Y-97942500D01*
X111125000Y-99405000D02*
X115377500Y-99405000D01*
%TD*%
D21*
%TO.N,+5V*%
X201024545Y-76898909D02*
X201375208Y-77004780D01*
X201698625Y-77176744D01*
X201982484Y-77408254D01*
X202215965Y-77690486D01*
X202390183Y-78012695D01*
X202498502Y-78362614D01*
X202540001Y-78757452D01*
X202540000Y-162527721D01*
X202501091Y-162924545D01*
X202395220Y-163275206D01*
X202223257Y-163598623D01*
X201991748Y-163882482D01*
X201709514Y-164115965D01*
X201387304Y-164290184D01*
X201037385Y-164398502D01*
X200642557Y-164440000D01*
X78772279Y-164440000D01*
X78375455Y-164401091D01*
X78024794Y-164295220D01*
X77701377Y-164123257D01*
X77417518Y-163891748D01*
X77184035Y-163609514D01*
X77009816Y-163287304D01*
X76901498Y-162937385D01*
X76860000Y-162542557D01*
X76860000Y-161704872D01*
X77140000Y-161704872D01*
X77140000Y-162145128D01*
X77225890Y-162576925D01*
X77394369Y-162983669D01*
X77638962Y-163349729D01*
X77950271Y-163661038D01*
X78316331Y-163905631D01*
X78723075Y-164074110D01*
X79154872Y-164160000D01*
X79595128Y-164160000D01*
X80026925Y-164074110D01*
X80433669Y-163905631D01*
X80799729Y-163661038D01*
X81111038Y-163349729D01*
X81355631Y-162983669D01*
X81524110Y-162576925D01*
X81610000Y-162145128D01*
X81610000Y-161704872D01*
X197790000Y-161704872D01*
X197790000Y-162145128D01*
X197875890Y-162576925D01*
X198044369Y-162983669D01*
X198288962Y-163349729D01*
X198600271Y-163661038D01*
X198966331Y-163905631D01*
X199373075Y-164074110D01*
X199804872Y-164160000D01*
X200245128Y-164160000D01*
X200676925Y-164074110D01*
X201083669Y-163905631D01*
X201449729Y-163661038D01*
X201761038Y-163349729D01*
X202005631Y-162983669D01*
X202174110Y-162576925D01*
X202260000Y-162145128D01*
X202260000Y-161704872D01*
X202174110Y-161273075D01*
X202005631Y-160866331D01*
X201761038Y-160500271D01*
X201449729Y-160188962D01*
X201083669Y-159944369D01*
X200676925Y-159775890D01*
X200245128Y-159690000D01*
X199804872Y-159690000D01*
X199373075Y-159775890D01*
X198966331Y-159944369D01*
X198600271Y-160188962D01*
X198288962Y-160500271D01*
X198044369Y-160866331D01*
X197875890Y-161273075D01*
X197790000Y-161704872D01*
X81610000Y-161704872D01*
X81524110Y-161273075D01*
X81355631Y-160866331D01*
X81111038Y-160500271D01*
X80799729Y-160188962D01*
X80433669Y-159944369D01*
X80026925Y-159775890D01*
X79595128Y-159690000D01*
X79154872Y-159690000D01*
X78723075Y-159775890D01*
X78316331Y-159944369D01*
X77950271Y-160188962D01*
X77638962Y-160500271D01*
X77394369Y-160866331D01*
X77225890Y-161273075D01*
X77140000Y-161704872D01*
X76860000Y-161704872D01*
X76860000Y-158003212D01*
X80780000Y-158003212D01*
X80780000Y-158226788D01*
X80823617Y-158446067D01*
X80909176Y-158652624D01*
X81033388Y-158838520D01*
X81191480Y-158996612D01*
X81377376Y-159120824D01*
X81583933Y-159206383D01*
X81803212Y-159250000D01*
X82026788Y-159250000D01*
X82246067Y-159206383D01*
X82452624Y-159120824D01*
X82638520Y-158996612D01*
X82796612Y-158838520D01*
X82920824Y-158652624D01*
X83006383Y-158446067D01*
X83050000Y-158226788D01*
X83050000Y-158003212D01*
X83006383Y-157783933D01*
X82920824Y-157577376D01*
X82796612Y-157391480D01*
X82638520Y-157233388D01*
X82452624Y-157109176D01*
X82246067Y-157023617D01*
X82026788Y-156980000D01*
X81803212Y-156980000D01*
X81583933Y-157023617D01*
X81377376Y-157109176D01*
X81191480Y-157233388D01*
X81033388Y-157391480D01*
X80909176Y-157577376D01*
X80823617Y-157783933D01*
X80780000Y-158003212D01*
X76860000Y-158003212D01*
X76860000Y-116230422D01*
X78050370Y-116230422D01*
X78054178Y-116269085D01*
X78054179Y-149592905D01*
X78050370Y-149631578D01*
X78065573Y-149785935D01*
X78110596Y-149934360D01*
X78156144Y-150019572D01*
X78183713Y-150071150D01*
X78282110Y-150191047D01*
X78312151Y-150215701D01*
X79963577Y-151867129D01*
X79940500Y-151983146D01*
X79940500Y-152256854D01*
X79993898Y-152525302D01*
X80098641Y-152778175D01*
X80250705Y-153005754D01*
X80444246Y-153199295D01*
X80671825Y-153351359D01*
X80924698Y-153456102D01*
X81193146Y-153509500D01*
X81466854Y-153509500D01*
X81735302Y-153456102D01*
X81988175Y-153351359D01*
X82215754Y-153199295D01*
X82409295Y-153005754D01*
X82561359Y-152778175D01*
X82666102Y-152525302D01*
X82719500Y-152256854D01*
X82719500Y-151983146D01*
X82666102Y-151714698D01*
X82561359Y-151461825D01*
X82409295Y-151234246D01*
X82215754Y-151040705D01*
X81988175Y-150888641D01*
X81894887Y-150850000D01*
X81988175Y-150811359D01*
X82215754Y-150659295D01*
X82409295Y-150465754D01*
X82561359Y-150238175D01*
X82666102Y-149985302D01*
X82719500Y-149716854D01*
X82719500Y-149443146D01*
X82666102Y-149174698D01*
X82561359Y-148921825D01*
X82409295Y-148694246D01*
X82215754Y-148500705D01*
X81988175Y-148348641D01*
X81894887Y-148310000D01*
X81988175Y-148271359D01*
X82215754Y-148119295D01*
X82409295Y-147925754D01*
X82561359Y-147698175D01*
X82666102Y-147445302D01*
X82719500Y-147176854D01*
X82719500Y-146903146D01*
X82666102Y-146634698D01*
X82561359Y-146381825D01*
X82409295Y-146154246D01*
X82215754Y-145960705D01*
X81988175Y-145808641D01*
X81735302Y-145703898D01*
X81466854Y-145650500D01*
X81193146Y-145650500D01*
X80924698Y-145703898D01*
X80671825Y-145808641D01*
X80444246Y-145960705D01*
X80250705Y-146154246D01*
X80098641Y-146381825D01*
X80086189Y-146411887D01*
X80086189Y-142588113D01*
X80098641Y-142618175D01*
X80250705Y-142845754D01*
X80444246Y-143039295D01*
X80671825Y-143191359D01*
X80924698Y-143296102D01*
X81193146Y-143349500D01*
X81466854Y-143349500D01*
X81735302Y-143296102D01*
X81988175Y-143191359D01*
X82215754Y-143039295D01*
X82409295Y-142845754D01*
X82561359Y-142618175D01*
X82666102Y-142365302D01*
X82719500Y-142096854D01*
X82719500Y-141823146D01*
X82666102Y-141554698D01*
X82561359Y-141301825D01*
X82409295Y-141074246D01*
X82215754Y-140880705D01*
X81988175Y-140728641D01*
X81899215Y-140691793D01*
X81930404Y-140680537D01*
X82044532Y-140619534D01*
X82110603Y-140380208D01*
X81330000Y-139599605D01*
X80549397Y-140380208D01*
X80615468Y-140619534D01*
X80765326Y-140689912D01*
X80671825Y-140728641D01*
X80444246Y-140880705D01*
X80250705Y-141074246D01*
X80098641Y-141301825D01*
X80086189Y-141331887D01*
X80086189Y-140051696D01*
X80130466Y-140134532D01*
X80369792Y-140200603D01*
X81150395Y-139420000D01*
X81509605Y-139420000D01*
X82290208Y-140200603D01*
X82529534Y-140134532D01*
X82645883Y-139886785D01*
X82711664Y-139621100D01*
X82724349Y-139347686D01*
X82683449Y-139077052D01*
X82590537Y-138819596D01*
X82529534Y-138705468D01*
X82290208Y-138639397D01*
X81509605Y-139420000D01*
X81150395Y-139420000D01*
X80369792Y-138639397D01*
X80130466Y-138705468D01*
X80086189Y-138799749D01*
X80086189Y-137508113D01*
X80098641Y-137538175D01*
X80250705Y-137765754D01*
X80444246Y-137959295D01*
X80671825Y-138111359D01*
X80760785Y-138148207D01*
X80729596Y-138159463D01*
X80615468Y-138220466D01*
X80549397Y-138459792D01*
X81330000Y-139240395D01*
X82110603Y-138459792D01*
X82044532Y-138220466D01*
X81894674Y-138150088D01*
X81988175Y-138111359D01*
X82215754Y-137959295D01*
X82409295Y-137765754D01*
X82561359Y-137538175D01*
X82666102Y-137285302D01*
X82719500Y-137016854D01*
X82719500Y-136743146D01*
X82666102Y-136474698D01*
X82561359Y-136221825D01*
X82409295Y-135994246D01*
X82215754Y-135800705D01*
X81988175Y-135648641D01*
X81894887Y-135610000D01*
X81988175Y-135571359D01*
X82215754Y-135419295D01*
X82409295Y-135225754D01*
X82561359Y-134998175D01*
X82666102Y-134745302D01*
X82719500Y-134476854D01*
X82719500Y-134203146D01*
X82666102Y-133934698D01*
X82561359Y-133681825D01*
X82409295Y-133454246D01*
X82215754Y-133260705D01*
X81988175Y-133108641D01*
X81735302Y-133003898D01*
X81466854Y-132950500D01*
X81193146Y-132950500D01*
X81077128Y-132973577D01*
X80543400Y-132439850D01*
X80543400Y-125741404D01*
X80648748Y-125804157D01*
X80923109Y-125901481D01*
X81153000Y-125780814D01*
X81153000Y-124587000D01*
X81407000Y-124587000D01*
X81407000Y-125780814D01*
X81636891Y-125901481D01*
X81911252Y-125804157D01*
X82161355Y-125655178D01*
X82377588Y-125460269D01*
X82551641Y-125226920D01*
X82676825Y-124964099D01*
X82721476Y-124816890D01*
X82600155Y-124587000D01*
X81407000Y-124587000D01*
X81153000Y-124587000D01*
X81133000Y-124587000D01*
X81133000Y-124333000D01*
X81153000Y-124333000D01*
X81153000Y-124313000D01*
X81407000Y-124313000D01*
X81407000Y-124333000D01*
X82600155Y-124333000D01*
X82721476Y-124103110D01*
X82676825Y-123955901D01*
X82551641Y-123693080D01*
X82377588Y-123459731D01*
X82161355Y-123264822D01*
X82044466Y-123195195D01*
X82226632Y-123073475D01*
X82433475Y-122866632D01*
X82595990Y-122623411D01*
X82707932Y-122353158D01*
X82765000Y-122066260D01*
X82765000Y-121773740D01*
X82707932Y-121486842D01*
X82595990Y-121216589D01*
X82498043Y-121070000D01*
X95666928Y-121070000D01*
X95666928Y-122770000D01*
X95679188Y-122894482D01*
X95715498Y-123014180D01*
X95774463Y-123124494D01*
X95853815Y-123221185D01*
X95950506Y-123300537D01*
X96060820Y-123359502D01*
X96180518Y-123395812D01*
X96305000Y-123408072D01*
X98005000Y-123408072D01*
X98129482Y-123395812D01*
X98249180Y-123359502D01*
X98359494Y-123300537D01*
X98456185Y-123221185D01*
X98535537Y-123124494D01*
X98594502Y-123014180D01*
X98630812Y-122894482D01*
X98643072Y-122770000D01*
X98643072Y-121437400D01*
X104906928Y-121437400D01*
X104906928Y-124400000D01*
X104919188Y-124524482D01*
X104955498Y-124644180D01*
X105014463Y-124754494D01*
X105093815Y-124851185D01*
X105190506Y-124930537D01*
X105257600Y-124966400D01*
X105257601Y-140008847D01*
X102884412Y-142382038D01*
X102819142Y-142347150D01*
X102658408Y-142298392D01*
X102491250Y-142281928D01*
X101978750Y-142281928D01*
X101811592Y-142298392D01*
X101650858Y-142347150D01*
X101502725Y-142426329D01*
X101372885Y-142532885D01*
X101266329Y-142662725D01*
X101187150Y-142810858D01*
X101138392Y-142971592D01*
X101121928Y-143138750D01*
X101121928Y-143576250D01*
X101138392Y-143743408D01*
X101187150Y-143904142D01*
X101266329Y-144052275D01*
X101342426Y-144145000D01*
X101266329Y-144237725D01*
X101187150Y-144385858D01*
X101138392Y-144546592D01*
X101121928Y-144713750D01*
X101121928Y-145151250D01*
X101138392Y-145318408D01*
X101187150Y-145479142D01*
X101266329Y-145627275D01*
X101372885Y-145757115D01*
X101502725Y-145863671D01*
X101650858Y-145942850D01*
X101811592Y-145991608D01*
X101978750Y-146008072D01*
X102491250Y-146008072D01*
X102658408Y-145991608D01*
X102819142Y-145942850D01*
X102967275Y-145863671D01*
X103097115Y-145757115D01*
X103203671Y-145627275D01*
X103282850Y-145479142D01*
X103331608Y-145318408D01*
X103348072Y-145151250D01*
X103348072Y-144932978D01*
X107446928Y-140834124D01*
X107446928Y-143395000D01*
X107459188Y-143519482D01*
X107495498Y-143639180D01*
X107554463Y-143749494D01*
X107633815Y-143846185D01*
X107730506Y-143925537D01*
X107804642Y-143965164D01*
X107808995Y-144009357D01*
X107854018Y-144157782D01*
X107896749Y-144237725D01*
X107927135Y-144294572D01*
X108025532Y-144414469D01*
X108055573Y-144439123D01*
X109986928Y-146370480D01*
X109986928Y-147548600D01*
X108312152Y-147548600D01*
X107183072Y-146419521D01*
X107183072Y-144895000D01*
X107170812Y-144770518D01*
X107134502Y-144650820D01*
X107075537Y-144540506D01*
X106996185Y-144443815D01*
X106899494Y-144364463D01*
X106789180Y-144305498D01*
X106669482Y-144269188D01*
X106545000Y-144256928D01*
X105545000Y-144256928D01*
X105420518Y-144269188D01*
X105300820Y-144305498D01*
X105190506Y-144364463D01*
X105093815Y-144443815D01*
X105014463Y-144540506D01*
X104955498Y-144650820D01*
X104919188Y-144770518D01*
X104906928Y-144895000D01*
X104906928Y-147895000D01*
X104919188Y-148019482D01*
X104955498Y-148139180D01*
X105014463Y-148249494D01*
X105093815Y-148346185D01*
X105190506Y-148425537D01*
X105300820Y-148484502D01*
X105420518Y-148520812D01*
X105545000Y-148533072D01*
X106545000Y-148533072D01*
X106669482Y-148520812D01*
X106789180Y-148484502D01*
X106899494Y-148425537D01*
X106933817Y-148397369D01*
X107401881Y-148865433D01*
X107426531Y-148895469D01*
X107456567Y-148920119D01*
X107456570Y-148920122D01*
X107529358Y-148979857D01*
X107546428Y-148993866D01*
X107683217Y-149066982D01*
X107831643Y-149112006D01*
X107947327Y-149123400D01*
X107947335Y-149123400D01*
X107986000Y-149127208D01*
X108024665Y-149123400D01*
X111771158Y-149123400D01*
X111809821Y-149127208D01*
X111848484Y-149123400D01*
X111848494Y-149123400D01*
X111964178Y-149112006D01*
X112112604Y-149066982D01*
X112249393Y-148993866D01*
X112369290Y-148895469D01*
X112393949Y-148865422D01*
X114829428Y-146429944D01*
X114859469Y-146405290D01*
X114925633Y-146324669D01*
X114957866Y-146285394D01*
X115023728Y-146162176D01*
X115093709Y-146140947D01*
X115246164Y-146059458D01*
X115379792Y-145949792D01*
X115445358Y-145869900D01*
X116119379Y-145869900D01*
X116255858Y-145942850D01*
X116416592Y-145991608D01*
X116583750Y-146008072D01*
X117096250Y-146008072D01*
X117263408Y-145991608D01*
X117424142Y-145942850D01*
X117572275Y-145863671D01*
X117702115Y-145757115D01*
X117732656Y-145719900D01*
X119182114Y-145719900D01*
X119125498Y-145825820D01*
X119089188Y-145945518D01*
X119076928Y-146070000D01*
X119076928Y-147620000D01*
X119089188Y-147744482D01*
X119125498Y-147864180D01*
X119184463Y-147974494D01*
X119263815Y-148071185D01*
X119360506Y-148150537D01*
X119470820Y-148209502D01*
X119590518Y-148245812D01*
X119715000Y-148258072D01*
X120315000Y-148258072D01*
X120439482Y-148245812D01*
X120559180Y-148209502D01*
X120650000Y-148160957D01*
X120740820Y-148209502D01*
X120860518Y-148245812D01*
X120985000Y-148258072D01*
X121585000Y-148258072D01*
X121709482Y-148245812D01*
X121767601Y-148228182D01*
X121767601Y-148422270D01*
X121767179Y-148422901D01*
X121700164Y-148584688D01*
X121666000Y-148756441D01*
X121666000Y-148931559D01*
X121700164Y-149103312D01*
X121767179Y-149265099D01*
X121864469Y-149410704D01*
X121988296Y-149534531D01*
X122133901Y-149631821D01*
X122295688Y-149698836D01*
X122467441Y-149733000D01*
X122642559Y-149733000D01*
X122814312Y-149698836D01*
X122976099Y-149631821D01*
X123121704Y-149534531D01*
X123245531Y-149410704D01*
X123342821Y-149265099D01*
X123409836Y-149103312D01*
X123444000Y-148931559D01*
X123444000Y-148814550D01*
X124002881Y-149373433D01*
X124027531Y-149403469D01*
X124057567Y-149428119D01*
X124057570Y-149428122D01*
X124147427Y-149501866D01*
X124208539Y-149534531D01*
X124284217Y-149574982D01*
X124432643Y-149620006D01*
X124548327Y-149631400D01*
X124548335Y-149631400D01*
X124587000Y-149635208D01*
X124625665Y-149631400D01*
X125986793Y-149631400D01*
X125984000Y-149645441D01*
X125984000Y-149820559D01*
X126018164Y-149992312D01*
X126085179Y-150154099D01*
X126182469Y-150299704D01*
X126306296Y-150423531D01*
X126451901Y-150520821D01*
X126613688Y-150587836D01*
X126785441Y-150622000D01*
X126960559Y-150622000D01*
X127132312Y-150587836D01*
X127294099Y-150520821D01*
X127439704Y-150423531D01*
X127563531Y-150299704D01*
X127635000Y-150192743D01*
X127706469Y-150299704D01*
X127830296Y-150423531D01*
X127975901Y-150520821D01*
X128137688Y-150587836D01*
X128309441Y-150622000D01*
X128484559Y-150622000D01*
X128656312Y-150587836D01*
X128818099Y-150520821D01*
X128963704Y-150423531D01*
X129087531Y-150299704D01*
X129184821Y-150154099D01*
X129251836Y-149992312D01*
X129286000Y-149820559D01*
X129286000Y-149645441D01*
X129251836Y-149473688D01*
X129209900Y-149372446D01*
X129209900Y-148847656D01*
X129247115Y-148817115D01*
X129353671Y-148687275D01*
X129432850Y-148539142D01*
X129481608Y-148378408D01*
X129498072Y-148211250D01*
X129498072Y-147698750D01*
X129481608Y-147531592D01*
X129432850Y-147370858D01*
X129353671Y-147222725D01*
X129247115Y-147092885D01*
X129209900Y-147062344D01*
X129209900Y-146942656D01*
X129247115Y-146912115D01*
X129353671Y-146782275D01*
X129432850Y-146634142D01*
X129481608Y-146473408D01*
X129498072Y-146306250D01*
X129498072Y-145793750D01*
X129481608Y-145626592D01*
X129432850Y-145465858D01*
X129353671Y-145317725D01*
X129247115Y-145187885D01*
X129117275Y-145081329D01*
X128969142Y-145002150D01*
X128808408Y-144953392D01*
X128641250Y-144936928D01*
X128203750Y-144936928D01*
X128036592Y-144953392D01*
X127875858Y-145002150D01*
X127727725Y-145081329D01*
X127635000Y-145157426D01*
X127542275Y-145081329D01*
X127394142Y-145002150D01*
X127233408Y-144953392D01*
X127066250Y-144936928D01*
X126628750Y-144936928D01*
X126461592Y-144953392D01*
X126300858Y-145002150D01*
X126152725Y-145081329D01*
X126022885Y-145187885D01*
X125916329Y-145317725D01*
X125837150Y-145465858D01*
X125788392Y-145626592D01*
X125771928Y-145793750D01*
X125771928Y-146306250D01*
X125788392Y-146473408D01*
X125837150Y-146634142D01*
X125916329Y-146782275D01*
X126022885Y-146912115D01*
X126060100Y-146942657D01*
X126060101Y-147062343D01*
X126022885Y-147092885D01*
X125916329Y-147222725D01*
X125837150Y-147370858D01*
X125788392Y-147531592D01*
X125771928Y-147698750D01*
X125771928Y-147993272D01*
X125708600Y-148056600D01*
X124913151Y-148056600D01*
X124715952Y-147859401D01*
X124750812Y-147744482D01*
X124763072Y-147620000D01*
X124763072Y-146070000D01*
X124750812Y-145945518D01*
X124714502Y-145825820D01*
X124655537Y-145715506D01*
X124576185Y-145618815D01*
X124479494Y-145539463D01*
X124369180Y-145480498D01*
X124249482Y-145444188D01*
X124125000Y-145431928D01*
X123525000Y-145431928D01*
X123400518Y-145444188D01*
X123280820Y-145480498D01*
X123190000Y-145529043D01*
X123099180Y-145480498D01*
X122979482Y-145444188D01*
X122855000Y-145431928D01*
X122255000Y-145431928D01*
X122130518Y-145444188D01*
X122020570Y-145477540D01*
X122015982Y-145462417D01*
X121942866Y-145325628D01*
X121890402Y-145261700D01*
X121869122Y-145235770D01*
X121869119Y-145235767D01*
X121844469Y-145205731D01*
X121814434Y-145181082D01*
X121036427Y-144403077D01*
X121011769Y-144373031D01*
X120891872Y-144274634D01*
X120755083Y-144201518D01*
X120606657Y-144156494D01*
X120490973Y-144145100D01*
X120490963Y-144145100D01*
X120488932Y-144144900D01*
X121683637Y-144144900D01*
X121722300Y-144148708D01*
X121760963Y-144144900D01*
X121760973Y-144144900D01*
X121876657Y-144133506D01*
X122025083Y-144088482D01*
X122161872Y-144015366D01*
X122281769Y-143916969D01*
X122306427Y-143886923D01*
X122570400Y-143622951D01*
X123621877Y-144674428D01*
X123646531Y-144704469D01*
X123676570Y-144729121D01*
X123766427Y-144802866D01*
X123903217Y-144875982D01*
X124051643Y-144921006D01*
X124167327Y-144932400D01*
X124167337Y-144932400D01*
X124206000Y-144936208D01*
X124244663Y-144932400D01*
X137170130Y-144932400D01*
X137276525Y-145091632D01*
X137483368Y-145298475D01*
X137726589Y-145460990D01*
X137996842Y-145572932D01*
X138283740Y-145630000D01*
X138576260Y-145630000D01*
X138863158Y-145572932D01*
X139133411Y-145460990D01*
X139376632Y-145298475D01*
X139508487Y-145166620D01*
X139530498Y-145239180D01*
X139589463Y-145349494D01*
X139668815Y-145446185D01*
X139765506Y-145525537D01*
X139875820Y-145584502D01*
X139995518Y-145620812D01*
X140120000Y-145633072D01*
X141820000Y-145633072D01*
X141944482Y-145620812D01*
X142064180Y-145584502D01*
X142174494Y-145525537D01*
X142271185Y-145446185D01*
X142350537Y-145349494D01*
X142409502Y-145239180D01*
X142445812Y-145119482D01*
X142458072Y-144995000D01*
X142458072Y-143295000D01*
X142445812Y-143170518D01*
X142409502Y-143050820D01*
X142350537Y-142940506D01*
X142271185Y-142843815D01*
X142174494Y-142764463D01*
X142064180Y-142705498D01*
X141944482Y-142669188D01*
X141820000Y-142656928D01*
X141757400Y-142656928D01*
X141757400Y-122138072D01*
X141820000Y-122138072D01*
X141944482Y-122125812D01*
X142064180Y-122089502D01*
X142174494Y-122030537D01*
X142271185Y-121951185D01*
X142350537Y-121854494D01*
X142409502Y-121744180D01*
X142445812Y-121624482D01*
X142458072Y-121500000D01*
X142458072Y-121437400D01*
X145622641Y-121437400D01*
X145581000Y-121646740D01*
X145581000Y-121939260D01*
X145638068Y-122226158D01*
X145750010Y-122496411D01*
X145912525Y-122739632D01*
X146119368Y-122946475D01*
X146362589Y-123108990D01*
X146632842Y-123220932D01*
X146919740Y-123278000D01*
X147212260Y-123278000D01*
X147499158Y-123220932D01*
X147769411Y-123108990D01*
X148012632Y-122946475D01*
X148219475Y-122739632D01*
X148381990Y-122496411D01*
X148493932Y-122226158D01*
X148551000Y-121939260D01*
X148551000Y-121646740D01*
X148493932Y-121359842D01*
X148381990Y-121089589D01*
X148219475Y-120846368D01*
X148087620Y-120714513D01*
X148160180Y-120692502D01*
X148270494Y-120633537D01*
X148367185Y-120554185D01*
X148446537Y-120457494D01*
X148505502Y-120347180D01*
X148541812Y-120227482D01*
X148554072Y-120103000D01*
X148554072Y-118403000D01*
X148541812Y-118278518D01*
X148505502Y-118158820D01*
X148446537Y-118048506D01*
X148367185Y-117951815D01*
X148270494Y-117872463D01*
X148160180Y-117813498D01*
X148040482Y-117777188D01*
X147916000Y-117764928D01*
X146216000Y-117764928D01*
X146091518Y-117777188D01*
X145971820Y-117813498D01*
X145861506Y-117872463D01*
X145764815Y-117951815D01*
X145685463Y-118048506D01*
X145626498Y-118158820D01*
X145590188Y-118278518D01*
X145577928Y-118403000D01*
X145577928Y-119627522D01*
X145342850Y-119862600D01*
X142458072Y-119862600D01*
X142458072Y-119800000D01*
X142445812Y-119675518D01*
X142409502Y-119555820D01*
X142350537Y-119445506D01*
X142271185Y-119348815D01*
X142174494Y-119269463D01*
X142064180Y-119210498D01*
X141944482Y-119174188D01*
X141820000Y-119161928D01*
X141757400Y-119161928D01*
X141757400Y-98643072D01*
X141820000Y-98643072D01*
X141944482Y-98630812D01*
X142064180Y-98594502D01*
X142174494Y-98535537D01*
X142271185Y-98456185D01*
X142350537Y-98359494D01*
X142409502Y-98249180D01*
X142445812Y-98129482D01*
X142458072Y-98005000D01*
X142458072Y-96305000D01*
X142445812Y-96180518D01*
X142409502Y-96060820D01*
X142350537Y-95950506D01*
X142271185Y-95853815D01*
X142174494Y-95774463D01*
X142064180Y-95715498D01*
X141944482Y-95679188D01*
X141820000Y-95666928D01*
X140120000Y-95666928D01*
X139995518Y-95679188D01*
X139875820Y-95715498D01*
X139765506Y-95774463D01*
X139668815Y-95853815D01*
X139589463Y-95950506D01*
X139530498Y-96060820D01*
X139508487Y-96133380D01*
X139376632Y-96001525D01*
X139133411Y-95839010D01*
X138863158Y-95727068D01*
X138576260Y-95670000D01*
X138283740Y-95670000D01*
X137996842Y-95727068D01*
X137726589Y-95839010D01*
X137483368Y-96001525D01*
X137276525Y-96208368D01*
X137170130Y-96367600D01*
X124501351Y-96367600D01*
X124001823Y-95868072D01*
X124125000Y-95868072D01*
X124249482Y-95855812D01*
X124369180Y-95819502D01*
X124479494Y-95760537D01*
X124522796Y-95725000D01*
X125771928Y-95725000D01*
X125784188Y-95849482D01*
X125820498Y-95969180D01*
X125879463Y-96079494D01*
X125958815Y-96176185D01*
X126055506Y-96255537D01*
X126165820Y-96314502D01*
X126285518Y-96350812D01*
X126410000Y-96363072D01*
X126561750Y-96360000D01*
X126720500Y-96201250D01*
X126720500Y-95377000D01*
X125933750Y-95377000D01*
X125775000Y-95535750D01*
X125771928Y-95725000D01*
X124522796Y-95725000D01*
X124576185Y-95681185D01*
X124655537Y-95584494D01*
X124714502Y-95474180D01*
X124750812Y-95354482D01*
X124763072Y-95230000D01*
X124763072Y-93820000D01*
X125771928Y-93820000D01*
X125784188Y-93944482D01*
X125820498Y-94064180D01*
X125879463Y-94174494D01*
X125958815Y-94271185D01*
X125990880Y-94297500D01*
X125958815Y-94323815D01*
X125879463Y-94420506D01*
X125820498Y-94530820D01*
X125784188Y-94650518D01*
X125771928Y-94775000D01*
X125775000Y-94964250D01*
X125933750Y-95123000D01*
X126720500Y-95123000D01*
X126720500Y-94298750D01*
X126719250Y-94297500D01*
X126720500Y-94296250D01*
X126720500Y-93472000D01*
X125933750Y-93472000D01*
X125775000Y-93630750D01*
X125771928Y-93820000D01*
X124763072Y-93820000D01*
X124763072Y-93680000D01*
X124750812Y-93555518D01*
X124714502Y-93435820D01*
X124655537Y-93325506D01*
X124576185Y-93228815D01*
X124479494Y-93149463D01*
X124369180Y-93090498D01*
X124249482Y-93054188D01*
X124125000Y-93041928D01*
X123525000Y-93041928D01*
X123400518Y-93054188D01*
X123280820Y-93090498D01*
X123190000Y-93139043D01*
X123099180Y-93090498D01*
X122979482Y-93054188D01*
X122855000Y-93041928D01*
X122255000Y-93041928D01*
X122130518Y-93054188D01*
X122010820Y-93090498D01*
X121920000Y-93139043D01*
X121829180Y-93090498D01*
X121709482Y-93054188D01*
X121585000Y-93041928D01*
X121570750Y-93045000D01*
X121412000Y-93203750D01*
X121412000Y-94328000D01*
X121432000Y-94328000D01*
X121432000Y-94582000D01*
X121412000Y-94582000D01*
X121412000Y-94602000D01*
X121158000Y-94602000D01*
X121158000Y-94582000D01*
X121138000Y-94582000D01*
X121138000Y-94328000D01*
X121158000Y-94328000D01*
X121158000Y-93203750D01*
X120999250Y-93045000D01*
X120985000Y-93041928D01*
X120860518Y-93054188D01*
X120740820Y-93090498D01*
X120650000Y-93139043D01*
X120559180Y-93090498D01*
X120439482Y-93054188D01*
X120315000Y-93041928D01*
X119715000Y-93041928D01*
X119590518Y-93054188D01*
X119470820Y-93090498D01*
X119360506Y-93149463D01*
X119263815Y-93228815D01*
X119184463Y-93325506D01*
X119125498Y-93435820D01*
X119089188Y-93555518D01*
X119076928Y-93680000D01*
X119076928Y-95230000D01*
X119089188Y-95354482D01*
X119125498Y-95474180D01*
X119182114Y-95580100D01*
X117732656Y-95580100D01*
X117702115Y-95542885D01*
X117572275Y-95436329D01*
X117424142Y-95357150D01*
X117263408Y-95308392D01*
X117096250Y-95291928D01*
X116583750Y-95291928D01*
X116416592Y-95308392D01*
X116255858Y-95357150D01*
X116107725Y-95436329D01*
X115977885Y-95542885D01*
X115871329Y-95672725D01*
X115792150Y-95820858D01*
X115743392Y-95981592D01*
X115726928Y-96148750D01*
X115726928Y-96412790D01*
X115413072Y-96412790D01*
X115413072Y-96148750D01*
X115396608Y-95981592D01*
X115347850Y-95820858D01*
X115268671Y-95672725D01*
X115162115Y-95542885D01*
X115087400Y-95481569D01*
X115087400Y-95417729D01*
X115087821Y-95417099D01*
X115154836Y-95255312D01*
X115189000Y-95083559D01*
X115189000Y-94908441D01*
X115154836Y-94736688D01*
X115087821Y-94574901D01*
X114990531Y-94429296D01*
X114866704Y-94305469D01*
X114721099Y-94208179D01*
X114559312Y-94141164D01*
X114387559Y-94107000D01*
X114212441Y-94107000D01*
X114040688Y-94141164D01*
X113878901Y-94208179D01*
X113733296Y-94305469D01*
X113609469Y-94429296D01*
X113512179Y-94574901D01*
X113445164Y-94736688D01*
X113411000Y-94908441D01*
X113411000Y-95083559D01*
X113445164Y-95255312D01*
X113512179Y-95417099D01*
X113512601Y-95417730D01*
X113512601Y-95481568D01*
X113437885Y-95542885D01*
X113331329Y-95672725D01*
X113252150Y-95820858D01*
X113203392Y-95981592D01*
X113186928Y-96148750D01*
X113186928Y-96586250D01*
X113203392Y-96753408D01*
X113252150Y-96914142D01*
X113331329Y-97062275D01*
X113407426Y-97155000D01*
X113331329Y-97247725D01*
X113252150Y-97395858D01*
X113203392Y-97556592D01*
X113186928Y-97723750D01*
X113186928Y-98161250D01*
X113203392Y-98328408D01*
X113252150Y-98489142D01*
X113320812Y-98617600D01*
X112263072Y-98617600D01*
X112263072Y-97905000D01*
X112250812Y-97780518D01*
X112214502Y-97660820D01*
X112155537Y-97550506D01*
X112076185Y-97453815D01*
X111979494Y-97374463D01*
X111869180Y-97315498D01*
X111749482Y-97279188D01*
X111625000Y-97266928D01*
X110625000Y-97266928D01*
X110500518Y-97279188D01*
X110380820Y-97315498D01*
X110270506Y-97374463D01*
X110236182Y-97402632D01*
X109605398Y-96771848D01*
X109615537Y-96759494D01*
X109674502Y-96649180D01*
X109710812Y-96529482D01*
X109723072Y-96405000D01*
X109723072Y-93405000D01*
X109710812Y-93280518D01*
X109674502Y-93160820D01*
X109615537Y-93050506D01*
X109536185Y-92953815D01*
X109439494Y-92874463D01*
X109431145Y-92870000D01*
X125771928Y-92870000D01*
X125775000Y-93059250D01*
X125933750Y-93218000D01*
X126720500Y-93218000D01*
X126720500Y-92393750D01*
X126974500Y-92393750D01*
X126974500Y-93218000D01*
X126994500Y-93218000D01*
X126994500Y-93472000D01*
X126974500Y-93472000D01*
X126974500Y-94296250D01*
X126975750Y-94297500D01*
X126974500Y-94298750D01*
X126974500Y-95123000D01*
X126994500Y-95123000D01*
X126994500Y-95377000D01*
X126974500Y-95377000D01*
X126974500Y-96201250D01*
X127133250Y-96360000D01*
X127285000Y-96363072D01*
X127409482Y-96350812D01*
X127529180Y-96314502D01*
X127639494Y-96255537D01*
X127706070Y-96200900D01*
X127727725Y-96218671D01*
X127875858Y-96297850D01*
X128036592Y-96346608D01*
X128203750Y-96363072D01*
X128641250Y-96363072D01*
X128808408Y-96346608D01*
X128969142Y-96297850D01*
X129117275Y-96218671D01*
X129247115Y-96112115D01*
X129353671Y-95982275D01*
X129432850Y-95834142D01*
X129481608Y-95673408D01*
X129498072Y-95506250D01*
X129498072Y-94993750D01*
X129481608Y-94826592D01*
X129432850Y-94665858D01*
X129353671Y-94517725D01*
X129247115Y-94387885D01*
X129209900Y-94357344D01*
X129209900Y-94237656D01*
X129247115Y-94207115D01*
X129353671Y-94077275D01*
X129432850Y-93929142D01*
X129481608Y-93768408D01*
X129498072Y-93601250D01*
X129498072Y-93088750D01*
X129481608Y-92921592D01*
X129432850Y-92760858D01*
X129353671Y-92612725D01*
X129247115Y-92482885D01*
X129209900Y-92452344D01*
X129209900Y-92054554D01*
X129251836Y-91953312D01*
X129286000Y-91781559D01*
X129286000Y-91606441D01*
X129251836Y-91434688D01*
X129184821Y-91272901D01*
X129087531Y-91127296D01*
X128963704Y-91003469D01*
X128818099Y-90906179D01*
X128656312Y-90839164D01*
X128484559Y-90805000D01*
X128309441Y-90805000D01*
X128137688Y-90839164D01*
X127975901Y-90906179D01*
X127830296Y-91003469D01*
X127706469Y-91127296D01*
X127609179Y-91272901D01*
X127542164Y-91434688D01*
X127508000Y-91606441D01*
X127508000Y-91781559D01*
X127542164Y-91953312D01*
X127609179Y-92115099D01*
X127635101Y-92153894D01*
X127635101Y-92337115D01*
X127529180Y-92280498D01*
X127409482Y-92244188D01*
X127285000Y-92231928D01*
X127133250Y-92235000D01*
X126974500Y-92393750D01*
X126720500Y-92393750D01*
X126561750Y-92235000D01*
X126410000Y-92231928D01*
X126285518Y-92244188D01*
X126165820Y-92280498D01*
X126055506Y-92339463D01*
X125958815Y-92418815D01*
X125879463Y-92515506D01*
X125820498Y-92625820D01*
X125784188Y-92745518D01*
X125771928Y-92870000D01*
X109431145Y-92870000D01*
X109329180Y-92815498D01*
X109209482Y-92779188D01*
X109085000Y-92766928D01*
X108085000Y-92766928D01*
X107960518Y-92779188D01*
X107840820Y-92815498D01*
X107730506Y-92874463D01*
X107633815Y-92953815D01*
X107554463Y-93050506D01*
X107495498Y-93160820D01*
X107459188Y-93280518D01*
X107446928Y-93405000D01*
X107446928Y-96405000D01*
X107459188Y-96529482D01*
X107495498Y-96649180D01*
X107554463Y-96759494D01*
X107633815Y-96856185D01*
X107730506Y-96935537D01*
X107804642Y-96975164D01*
X107808995Y-97019357D01*
X107854018Y-97167782D01*
X107871341Y-97200190D01*
X107927135Y-97304572D01*
X108025532Y-97424469D01*
X108055573Y-97449123D01*
X109986928Y-99380480D01*
X109986928Y-100905000D01*
X109999188Y-101029482D01*
X110035498Y-101149180D01*
X110094463Y-101259494D01*
X110173815Y-101356185D01*
X110270506Y-101435537D01*
X110380820Y-101494502D01*
X110500518Y-101530812D01*
X110625000Y-101543072D01*
X111625000Y-101543072D01*
X111749482Y-101530812D01*
X111869180Y-101494502D01*
X111979494Y-101435537D01*
X112076185Y-101356185D01*
X112155537Y-101259494D01*
X112214502Y-101149180D01*
X112250812Y-101029482D01*
X112263072Y-100905000D01*
X112263072Y-100192400D01*
X115338837Y-100192400D01*
X115377500Y-100196208D01*
X115416163Y-100192400D01*
X115416173Y-100192400D01*
X115531857Y-100181006D01*
X115680283Y-100135982D01*
X115817072Y-100062866D01*
X115936969Y-99964469D01*
X115961627Y-99934423D01*
X116877979Y-99018072D01*
X117096250Y-99018072D01*
X117263408Y-99001608D01*
X117424142Y-98952850D01*
X117572275Y-98873671D01*
X117702115Y-98767115D01*
X117732656Y-98729900D01*
X119182114Y-98729900D01*
X119125498Y-98835820D01*
X119089188Y-98955518D01*
X119076928Y-99080000D01*
X119076928Y-100630000D01*
X119089188Y-100754482D01*
X119125498Y-100874180D01*
X119184463Y-100984494D01*
X119263815Y-101081185D01*
X119360506Y-101160537D01*
X119470820Y-101219502D01*
X119590518Y-101255812D01*
X119715000Y-101268072D01*
X120315000Y-101268072D01*
X120439482Y-101255812D01*
X120559180Y-101219502D01*
X120650000Y-101170957D01*
X120740820Y-101219502D01*
X120860518Y-101255812D01*
X120985000Y-101268072D01*
X121585000Y-101268072D01*
X121709482Y-101255812D01*
X121829180Y-101219502D01*
X121920000Y-101170957D01*
X122010820Y-101219502D01*
X122130518Y-101255812D01*
X122255000Y-101268072D01*
X122855000Y-101268072D01*
X122979482Y-101255812D01*
X123037601Y-101238182D01*
X123037601Y-101307327D01*
X123033792Y-101346000D01*
X123048995Y-101500357D01*
X123094018Y-101648782D01*
X123150450Y-101754357D01*
X123167135Y-101785572D01*
X123265532Y-101905469D01*
X123295572Y-101930122D01*
X123494876Y-102129427D01*
X123519531Y-102159469D01*
X123639428Y-102257866D01*
X123776217Y-102330982D01*
X123924643Y-102376006D01*
X124040327Y-102387400D01*
X124040336Y-102387400D01*
X124078999Y-102391208D01*
X124117662Y-102387400D01*
X126060101Y-102387400D01*
X126060101Y-102509445D01*
X126018164Y-102610688D01*
X125984000Y-102782441D01*
X125984000Y-102957559D01*
X126018164Y-103129312D01*
X126085179Y-103291099D01*
X126182469Y-103436704D01*
X126306296Y-103560531D01*
X126451901Y-103657821D01*
X126613688Y-103724836D01*
X126785441Y-103759000D01*
X126960559Y-103759000D01*
X127132312Y-103724836D01*
X127294099Y-103657821D01*
X127439704Y-103560531D01*
X127563531Y-103436704D01*
X127635000Y-103329743D01*
X127706469Y-103436704D01*
X127830296Y-103560531D01*
X127975901Y-103657821D01*
X128137688Y-103724836D01*
X128309441Y-103759000D01*
X128484559Y-103759000D01*
X128656312Y-103724836D01*
X128818099Y-103657821D01*
X128963704Y-103560531D01*
X129087531Y-103436704D01*
X129184821Y-103291099D01*
X129251836Y-103129312D01*
X129286000Y-102957559D01*
X129286000Y-102782441D01*
X129251836Y-102610688D01*
X129209900Y-102509446D01*
X129209900Y-101857656D01*
X129247115Y-101827115D01*
X129353671Y-101697275D01*
X129432850Y-101549142D01*
X129481608Y-101388408D01*
X129498072Y-101221250D01*
X129498072Y-100708750D01*
X129481608Y-100541592D01*
X129432850Y-100380858D01*
X129353671Y-100232725D01*
X129247115Y-100102885D01*
X129209900Y-100072344D01*
X129209900Y-99952656D01*
X129247115Y-99922115D01*
X129353671Y-99792275D01*
X129432850Y-99644142D01*
X129481608Y-99483408D01*
X129498072Y-99316250D01*
X129498072Y-98803750D01*
X129481608Y-98636592D01*
X129432850Y-98475858D01*
X129353671Y-98327725D01*
X129247115Y-98197885D01*
X129117275Y-98091329D01*
X128969142Y-98012150D01*
X128808408Y-97963392D01*
X128641250Y-97946928D01*
X128203750Y-97946928D01*
X128036592Y-97963392D01*
X127875858Y-98012150D01*
X127727725Y-98091329D01*
X127635000Y-98167426D01*
X127542275Y-98091329D01*
X127394142Y-98012150D01*
X127233408Y-97963392D01*
X127066250Y-97946928D01*
X126628750Y-97946928D01*
X126461592Y-97963392D01*
X126300858Y-98012150D01*
X126152725Y-98091329D01*
X126022885Y-98197885D01*
X125916329Y-98327725D01*
X125837150Y-98475858D01*
X125788392Y-98636592D01*
X125771928Y-98803750D01*
X125771928Y-99316250D01*
X125788392Y-99483408D01*
X125837150Y-99644142D01*
X125916329Y-99792275D01*
X126022885Y-99922115D01*
X126060100Y-99952656D01*
X126060100Y-100072344D01*
X126022885Y-100102885D01*
X125916329Y-100232725D01*
X125837150Y-100380858D01*
X125788392Y-100541592D01*
X125771928Y-100708750D01*
X125771928Y-100812600D01*
X124733182Y-100812600D01*
X124750812Y-100754482D01*
X124763072Y-100630000D01*
X124763072Y-99080000D01*
X124750812Y-98955518D01*
X124714502Y-98835820D01*
X124655537Y-98725506D01*
X124576185Y-98628815D01*
X124479494Y-98549463D01*
X124369180Y-98490498D01*
X124249482Y-98454188D01*
X124125000Y-98441928D01*
X123525000Y-98441928D01*
X123400518Y-98454188D01*
X123290570Y-98487540D01*
X123285982Y-98472417D01*
X123212866Y-98335628D01*
X123170491Y-98283994D01*
X123139122Y-98245770D01*
X123139119Y-98245767D01*
X123114469Y-98215731D01*
X123084434Y-98191082D01*
X121999571Y-97106221D01*
X122025083Y-97098482D01*
X122161872Y-97025366D01*
X122281769Y-96926969D01*
X122306427Y-96896923D01*
X122555000Y-96648351D01*
X123591077Y-97684428D01*
X123615731Y-97714469D01*
X123645770Y-97739121D01*
X123735627Y-97812866D01*
X123872417Y-97885982D01*
X124020843Y-97931006D01*
X124136527Y-97942400D01*
X124136537Y-97942400D01*
X124175200Y-97946208D01*
X124213863Y-97942400D01*
X137170130Y-97942400D01*
X137276525Y-98101632D01*
X137483368Y-98308475D01*
X137726589Y-98470990D01*
X137996842Y-98582932D01*
X138283740Y-98640000D01*
X138576260Y-98640000D01*
X138863158Y-98582932D01*
X139133411Y-98470990D01*
X139376632Y-98308475D01*
X139508487Y-98176620D01*
X139530498Y-98249180D01*
X139589463Y-98359494D01*
X139668815Y-98456185D01*
X139765506Y-98535537D01*
X139875820Y-98594502D01*
X139995518Y-98630812D01*
X140120000Y-98643072D01*
X140182601Y-98643072D01*
X140182600Y-119161928D01*
X140120000Y-119161928D01*
X139995518Y-119174188D01*
X139875820Y-119210498D01*
X139765506Y-119269463D01*
X139668815Y-119348815D01*
X139589463Y-119445506D01*
X139530498Y-119555820D01*
X139508487Y-119628380D01*
X139376632Y-119496525D01*
X139133411Y-119334010D01*
X138863158Y-119222068D01*
X138576260Y-119165000D01*
X138283740Y-119165000D01*
X137996842Y-119222068D01*
X137726589Y-119334010D01*
X137483368Y-119496525D01*
X137276525Y-119703368D01*
X137170130Y-119862600D01*
X124405152Y-119862600D01*
X123905623Y-119363072D01*
X124125000Y-119363072D01*
X124249482Y-119350812D01*
X124369180Y-119314502D01*
X124479494Y-119255537D01*
X124522796Y-119220000D01*
X125771928Y-119220000D01*
X125784188Y-119344482D01*
X125820498Y-119464180D01*
X125879463Y-119574494D01*
X125958815Y-119671185D01*
X126055506Y-119750537D01*
X126165820Y-119809502D01*
X126285518Y-119845812D01*
X126410000Y-119858072D01*
X126561750Y-119855000D01*
X126720500Y-119696250D01*
X126720500Y-118872000D01*
X125933750Y-118872000D01*
X125775000Y-119030750D01*
X125771928Y-119220000D01*
X124522796Y-119220000D01*
X124576185Y-119176185D01*
X124655537Y-119079494D01*
X124714502Y-118969180D01*
X124750812Y-118849482D01*
X124763072Y-118725000D01*
X124763072Y-117315000D01*
X125771928Y-117315000D01*
X125784188Y-117439482D01*
X125820498Y-117559180D01*
X125879463Y-117669494D01*
X125958815Y-117766185D01*
X125990880Y-117792500D01*
X125958815Y-117818815D01*
X125879463Y-117915506D01*
X125820498Y-118025820D01*
X125784188Y-118145518D01*
X125771928Y-118270000D01*
X125775000Y-118459250D01*
X125933750Y-118618000D01*
X126720500Y-118618000D01*
X126720500Y-117793750D01*
X126719250Y-117792500D01*
X126720500Y-117791250D01*
X126720500Y-116967000D01*
X125933750Y-116967000D01*
X125775000Y-117125750D01*
X125771928Y-117315000D01*
X124763072Y-117315000D01*
X124763072Y-117175000D01*
X124750812Y-117050518D01*
X124714502Y-116930820D01*
X124655537Y-116820506D01*
X124576185Y-116723815D01*
X124479494Y-116644463D01*
X124369180Y-116585498D01*
X124249482Y-116549188D01*
X124125000Y-116536928D01*
X123525000Y-116536928D01*
X123400518Y-116549188D01*
X123280820Y-116585498D01*
X123190000Y-116634043D01*
X123099180Y-116585498D01*
X122979482Y-116549188D01*
X122855000Y-116536928D01*
X122255000Y-116536928D01*
X122130518Y-116549188D01*
X122010820Y-116585498D01*
X121920000Y-116634043D01*
X121829180Y-116585498D01*
X121709482Y-116549188D01*
X121585000Y-116536928D01*
X121570750Y-116540000D01*
X121412000Y-116698750D01*
X121412000Y-117823000D01*
X121432000Y-117823000D01*
X121432000Y-118077000D01*
X121412000Y-118077000D01*
X121412000Y-118097000D01*
X121158000Y-118097000D01*
X121158000Y-118077000D01*
X121138000Y-118077000D01*
X121138000Y-117823000D01*
X121158000Y-117823000D01*
X121158000Y-116698750D01*
X120999250Y-116540000D01*
X120985000Y-116536928D01*
X120860518Y-116549188D01*
X120740820Y-116585498D01*
X120650000Y-116634043D01*
X120559180Y-116585498D01*
X120439482Y-116549188D01*
X120315000Y-116536928D01*
X119715000Y-116536928D01*
X119590518Y-116549188D01*
X119470820Y-116585498D01*
X119360506Y-116644463D01*
X119263815Y-116723815D01*
X119184463Y-116820506D01*
X119125498Y-116930820D01*
X119089188Y-117050518D01*
X119076928Y-117175000D01*
X119076928Y-118725000D01*
X119089188Y-118849482D01*
X119125498Y-118969180D01*
X119182114Y-119075100D01*
X117732656Y-119075100D01*
X117702115Y-119037885D01*
X117572275Y-118931329D01*
X117424142Y-118852150D01*
X117263408Y-118803392D01*
X117096250Y-118786928D01*
X116583750Y-118786928D01*
X116416592Y-118803392D01*
X116255858Y-118852150D01*
X116107725Y-118931329D01*
X115977885Y-119037885D01*
X115947344Y-119075100D01*
X115192656Y-119075100D01*
X115162115Y-119037885D01*
X115032275Y-118931329D01*
X114884142Y-118852150D01*
X114723408Y-118803392D01*
X114556250Y-118786928D01*
X114043750Y-118786928D01*
X113876592Y-118803392D01*
X113715858Y-118852150D01*
X113567725Y-118931329D01*
X113437885Y-119037885D01*
X113331329Y-119167725D01*
X113252150Y-119315858D01*
X113203392Y-119476592D01*
X113186928Y-119643750D01*
X113186928Y-120081250D01*
X113203392Y-120248408D01*
X113252150Y-120409142D01*
X113331329Y-120557275D01*
X113407426Y-120650000D01*
X113407344Y-120650100D01*
X112626162Y-120650100D01*
X112587499Y-120646292D01*
X112548836Y-120650100D01*
X112548827Y-120650100D01*
X112433143Y-120661494D01*
X112284717Y-120706518D01*
X112147928Y-120779634D01*
X112121555Y-120801278D01*
X112058069Y-120853379D01*
X112058067Y-120853381D01*
X112028031Y-120878031D01*
X112012699Y-120896713D01*
X111979494Y-120869463D01*
X111869180Y-120810498D01*
X111749482Y-120774188D01*
X111625000Y-120761928D01*
X110625000Y-120761928D01*
X110500518Y-120774188D01*
X110380820Y-120810498D01*
X110270506Y-120869463D01*
X110236182Y-120897632D01*
X109605398Y-120266848D01*
X109615537Y-120254494D01*
X109674502Y-120144180D01*
X109710812Y-120024482D01*
X109723072Y-119900000D01*
X109723072Y-116900000D01*
X109710812Y-116775518D01*
X109674502Y-116655820D01*
X109615537Y-116545506D01*
X109536185Y-116448815D01*
X109439494Y-116369463D01*
X109431145Y-116365000D01*
X125771928Y-116365000D01*
X125775000Y-116554250D01*
X125933750Y-116713000D01*
X126720500Y-116713000D01*
X126720500Y-115888750D01*
X126974500Y-115888750D01*
X126974500Y-116713000D01*
X126994500Y-116713000D01*
X126994500Y-116967000D01*
X126974500Y-116967000D01*
X126974500Y-117791250D01*
X126975750Y-117792500D01*
X126974500Y-117793750D01*
X126974500Y-118618000D01*
X126994500Y-118618000D01*
X126994500Y-118872000D01*
X126974500Y-118872000D01*
X126974500Y-119696250D01*
X127133250Y-119855000D01*
X127285000Y-119858072D01*
X127409482Y-119845812D01*
X127529180Y-119809502D01*
X127639494Y-119750537D01*
X127706070Y-119695900D01*
X127727725Y-119713671D01*
X127875858Y-119792850D01*
X128036592Y-119841608D01*
X128203750Y-119858072D01*
X128641250Y-119858072D01*
X128808408Y-119841608D01*
X128969142Y-119792850D01*
X129117275Y-119713671D01*
X129247115Y-119607115D01*
X129353671Y-119477275D01*
X129432850Y-119329142D01*
X129481608Y-119168408D01*
X129498072Y-119001250D01*
X129498072Y-118488750D01*
X129481608Y-118321592D01*
X129432850Y-118160858D01*
X129353671Y-118012725D01*
X129247115Y-117882885D01*
X129209900Y-117852344D01*
X129209900Y-117732656D01*
X129247115Y-117702115D01*
X129353671Y-117572275D01*
X129432850Y-117424142D01*
X129481608Y-117263408D01*
X129498072Y-117096250D01*
X129498072Y-116583750D01*
X129481608Y-116416592D01*
X129432850Y-116255858D01*
X129353671Y-116107725D01*
X129247115Y-115977885D01*
X129209900Y-115947344D01*
X129209900Y-115295554D01*
X129251836Y-115194312D01*
X129286000Y-115022559D01*
X129286000Y-114847441D01*
X129251836Y-114675688D01*
X129184821Y-114513901D01*
X129087531Y-114368296D01*
X128963704Y-114244469D01*
X128818099Y-114147179D01*
X128656312Y-114080164D01*
X128484559Y-114046000D01*
X128309441Y-114046000D01*
X128137688Y-114080164D01*
X127975901Y-114147179D01*
X127830296Y-114244469D01*
X127706469Y-114368296D01*
X127609179Y-114513901D01*
X127542164Y-114675688D01*
X127508000Y-114847441D01*
X127508000Y-115022559D01*
X127542164Y-115194312D01*
X127609179Y-115356099D01*
X127635101Y-115394894D01*
X127635101Y-115832115D01*
X127529180Y-115775498D01*
X127409482Y-115739188D01*
X127285000Y-115726928D01*
X127133250Y-115730000D01*
X126974500Y-115888750D01*
X126720500Y-115888750D01*
X126561750Y-115730000D01*
X126410000Y-115726928D01*
X126285518Y-115739188D01*
X126165820Y-115775498D01*
X126055506Y-115834463D01*
X125958815Y-115913815D01*
X125879463Y-116010506D01*
X125820498Y-116120820D01*
X125784188Y-116240518D01*
X125771928Y-116365000D01*
X109431145Y-116365000D01*
X109329180Y-116310498D01*
X109209482Y-116274188D01*
X109085000Y-116261928D01*
X108085000Y-116261928D01*
X107960518Y-116274188D01*
X107840820Y-116310498D01*
X107730506Y-116369463D01*
X107633815Y-116448815D01*
X107554463Y-116545506D01*
X107495498Y-116655820D01*
X107459188Y-116775518D01*
X107446928Y-116900000D01*
X107446928Y-119900000D01*
X107459188Y-120024482D01*
X107495498Y-120144180D01*
X107554463Y-120254494D01*
X107633815Y-120351185D01*
X107730506Y-120430537D01*
X107804642Y-120470164D01*
X107808995Y-120514357D01*
X107854018Y-120662782D01*
X107895866Y-120741072D01*
X107927135Y-120799572D01*
X108025532Y-120919469D01*
X108055573Y-120944123D01*
X109986928Y-122875480D01*
X109986928Y-124400000D01*
X109999188Y-124524482D01*
X110035498Y-124644180D01*
X110094463Y-124754494D01*
X110173815Y-124851185D01*
X110270506Y-124930537D01*
X110380820Y-124989502D01*
X110500518Y-125025812D01*
X110625000Y-125038072D01*
X111625000Y-125038072D01*
X111749482Y-125025812D01*
X111869180Y-124989502D01*
X111979494Y-124930537D01*
X112076185Y-124851185D01*
X112155537Y-124754494D01*
X112214502Y-124644180D01*
X112250812Y-124524482D01*
X112263072Y-124400000D01*
X112263072Y-122875479D01*
X112913652Y-122224900D01*
X113407344Y-122224900D01*
X113437885Y-122262115D01*
X113567725Y-122368671D01*
X113715858Y-122447850D01*
X113876592Y-122496608D01*
X114043750Y-122513072D01*
X114556250Y-122513072D01*
X114723408Y-122496608D01*
X114884142Y-122447850D01*
X115032275Y-122368671D01*
X115162115Y-122262115D01*
X115192656Y-122224900D01*
X115947344Y-122224900D01*
X115977885Y-122262115D01*
X116107725Y-122368671D01*
X116255858Y-122447850D01*
X116416592Y-122496608D01*
X116583750Y-122513072D01*
X117096250Y-122513072D01*
X117263408Y-122496608D01*
X117424142Y-122447850D01*
X117572275Y-122368671D01*
X117702115Y-122262115D01*
X117732656Y-122224900D01*
X119182114Y-122224900D01*
X119125498Y-122330820D01*
X119089188Y-122450518D01*
X119076928Y-122575000D01*
X119076928Y-124125000D01*
X119089188Y-124249482D01*
X119125498Y-124369180D01*
X119184463Y-124479494D01*
X119263815Y-124576185D01*
X119360506Y-124655537D01*
X119470820Y-124714502D01*
X119590518Y-124750812D01*
X119715000Y-124763072D01*
X120315000Y-124763072D01*
X120439482Y-124750812D01*
X120559180Y-124714502D01*
X120650000Y-124665957D01*
X120740820Y-124714502D01*
X120860518Y-124750812D01*
X120985000Y-124763072D01*
X121585000Y-124763072D01*
X121709482Y-124750812D01*
X121767601Y-124733182D01*
X121767601Y-124927270D01*
X121767179Y-124927901D01*
X121700164Y-125089688D01*
X121666000Y-125261441D01*
X121666000Y-125436559D01*
X121700164Y-125608312D01*
X121767179Y-125770099D01*
X121864469Y-125915704D01*
X121988296Y-126039531D01*
X122133901Y-126136821D01*
X122295688Y-126203836D01*
X122467441Y-126238000D01*
X122642559Y-126238000D01*
X122814312Y-126203836D01*
X122976099Y-126136821D01*
X123121704Y-126039531D01*
X123245531Y-125915704D01*
X123342821Y-125770099D01*
X123409836Y-125608312D01*
X123442342Y-125444893D01*
X123621876Y-125624427D01*
X123646531Y-125654469D01*
X123766428Y-125752866D01*
X123903217Y-125825982D01*
X124051643Y-125871006D01*
X124167327Y-125882400D01*
X124167336Y-125882400D01*
X124205999Y-125886208D01*
X124244662Y-125882400D01*
X126085600Y-125882400D01*
X126085600Y-125943271D01*
X126085179Y-125943901D01*
X126018164Y-126105688D01*
X125984000Y-126277441D01*
X125984000Y-126452559D01*
X126018164Y-126624312D01*
X126085179Y-126786099D01*
X126182469Y-126931704D01*
X126306296Y-127055531D01*
X126451901Y-127152821D01*
X126613688Y-127219836D01*
X126785441Y-127254000D01*
X126960559Y-127254000D01*
X127132312Y-127219836D01*
X127294099Y-127152821D01*
X127439704Y-127055531D01*
X127563531Y-126931704D01*
X127635000Y-126824743D01*
X127706469Y-126931704D01*
X127830296Y-127055531D01*
X127975901Y-127152821D01*
X128137688Y-127219836D01*
X128309441Y-127254000D01*
X128484559Y-127254000D01*
X128656312Y-127219836D01*
X128818099Y-127152821D01*
X128963704Y-127055531D01*
X129087531Y-126931704D01*
X129184821Y-126786099D01*
X129251836Y-126624312D01*
X129286000Y-126452559D01*
X129286000Y-126277441D01*
X129251836Y-126105688D01*
X129209900Y-126004446D01*
X129209900Y-125352656D01*
X129247115Y-125322115D01*
X129353671Y-125192275D01*
X129432850Y-125044142D01*
X129481608Y-124883408D01*
X129498072Y-124716250D01*
X129498072Y-124203750D01*
X129481608Y-124036592D01*
X129432850Y-123875858D01*
X129353671Y-123727725D01*
X129247115Y-123597885D01*
X129209900Y-123567344D01*
X129209900Y-123447656D01*
X129247115Y-123417115D01*
X129353671Y-123287275D01*
X129432850Y-123139142D01*
X129481608Y-122978408D01*
X129498072Y-122811250D01*
X129498072Y-122298750D01*
X129481608Y-122131592D01*
X129432850Y-121970858D01*
X129353671Y-121822725D01*
X129247115Y-121692885D01*
X129117275Y-121586329D01*
X128969142Y-121507150D01*
X128808408Y-121458392D01*
X128641250Y-121441928D01*
X128203750Y-121441928D01*
X128036592Y-121458392D01*
X127875858Y-121507150D01*
X127727725Y-121586329D01*
X127635000Y-121662426D01*
X127542275Y-121586329D01*
X127394142Y-121507150D01*
X127233408Y-121458392D01*
X127066250Y-121441928D01*
X126628750Y-121441928D01*
X126461592Y-121458392D01*
X126300858Y-121507150D01*
X126152725Y-121586329D01*
X126022885Y-121692885D01*
X125916329Y-121822725D01*
X125837150Y-121970858D01*
X125788392Y-122131592D01*
X125771928Y-122298750D01*
X125771928Y-122811250D01*
X125788392Y-122978408D01*
X125837150Y-123139142D01*
X125916329Y-123287275D01*
X126022885Y-123417115D01*
X126060100Y-123447657D01*
X126060101Y-123567343D01*
X126022885Y-123597885D01*
X125916329Y-123727725D01*
X125837150Y-123875858D01*
X125788392Y-124036592D01*
X125771928Y-124203750D01*
X125771928Y-124307600D01*
X124733182Y-124307600D01*
X124750812Y-124249482D01*
X124763072Y-124125000D01*
X124763072Y-122575000D01*
X124750812Y-122450518D01*
X124714502Y-122330820D01*
X124655537Y-122220506D01*
X124576185Y-122123815D01*
X124479494Y-122044463D01*
X124369180Y-121985498D01*
X124249482Y-121949188D01*
X124125000Y-121936928D01*
X123525000Y-121936928D01*
X123400518Y-121949188D01*
X123280820Y-121985498D01*
X123190000Y-122034043D01*
X123099180Y-121985498D01*
X122979482Y-121949188D01*
X122855000Y-121936928D01*
X122255000Y-121936928D01*
X122130518Y-121949188D01*
X122010820Y-121985498D01*
X121920000Y-122034043D01*
X121829180Y-121985498D01*
X121709482Y-121949188D01*
X121585000Y-121936928D01*
X121339121Y-121936928D01*
X120310269Y-120908077D01*
X120285611Y-120878031D01*
X120165714Y-120779634D01*
X120028925Y-120706518D01*
X119880499Y-120661494D01*
X119764815Y-120650100D01*
X119764805Y-120650100D01*
X119762774Y-120649900D01*
X121779837Y-120649900D01*
X121818500Y-120653708D01*
X121857163Y-120649900D01*
X121857173Y-120649900D01*
X121972857Y-120638506D01*
X122121283Y-120593482D01*
X122258072Y-120520366D01*
X122377969Y-120421969D01*
X122402627Y-120391923D01*
X122555000Y-120239551D01*
X123494881Y-121179433D01*
X123519531Y-121209469D01*
X123549567Y-121234119D01*
X123549569Y-121234121D01*
X123600012Y-121275518D01*
X123639428Y-121307866D01*
X123776217Y-121380982D01*
X123924643Y-121426006D01*
X124040327Y-121437400D01*
X124040336Y-121437400D01*
X124078999Y-121441208D01*
X124117662Y-121437400D01*
X137170130Y-121437400D01*
X137276525Y-121596632D01*
X137483368Y-121803475D01*
X137726589Y-121965990D01*
X137996842Y-122077932D01*
X138283740Y-122135000D01*
X138576260Y-122135000D01*
X138863158Y-122077932D01*
X139133411Y-121965990D01*
X139376632Y-121803475D01*
X139508487Y-121671620D01*
X139530498Y-121744180D01*
X139589463Y-121854494D01*
X139668815Y-121951185D01*
X139765506Y-122030537D01*
X139875820Y-122089502D01*
X139995518Y-122125812D01*
X140120000Y-122138072D01*
X140182600Y-122138072D01*
X140182601Y-142656928D01*
X140120000Y-142656928D01*
X139995518Y-142669188D01*
X139875820Y-142705498D01*
X139765506Y-142764463D01*
X139668815Y-142843815D01*
X139589463Y-142940506D01*
X139530498Y-143050820D01*
X139508487Y-143123380D01*
X139376632Y-142991525D01*
X139133411Y-142829010D01*
X138863158Y-142717068D01*
X138576260Y-142660000D01*
X138283740Y-142660000D01*
X137996842Y-142717068D01*
X137726589Y-142829010D01*
X137483368Y-142991525D01*
X137276525Y-143198368D01*
X137170130Y-143357600D01*
X124532151Y-143357600D01*
X124032623Y-142858072D01*
X124125000Y-142858072D01*
X124249482Y-142845812D01*
X124369180Y-142809502D01*
X124479494Y-142750537D01*
X124522796Y-142715000D01*
X125771928Y-142715000D01*
X125784188Y-142839482D01*
X125820498Y-142959180D01*
X125879463Y-143069494D01*
X125958815Y-143166185D01*
X126055506Y-143245537D01*
X126165820Y-143304502D01*
X126285518Y-143340812D01*
X126410000Y-143353072D01*
X126561750Y-143350000D01*
X126720500Y-143191250D01*
X126720500Y-142367000D01*
X125933750Y-142367000D01*
X125775000Y-142525750D01*
X125771928Y-142715000D01*
X124522796Y-142715000D01*
X124576185Y-142671185D01*
X124655537Y-142574494D01*
X124714502Y-142464180D01*
X124750812Y-142344482D01*
X124763072Y-142220000D01*
X124763072Y-140810000D01*
X125771928Y-140810000D01*
X125784188Y-140934482D01*
X125820498Y-141054180D01*
X125879463Y-141164494D01*
X125958815Y-141261185D01*
X125990880Y-141287500D01*
X125958815Y-141313815D01*
X125879463Y-141410506D01*
X125820498Y-141520820D01*
X125784188Y-141640518D01*
X125771928Y-141765000D01*
X125775000Y-141954250D01*
X125933750Y-142113000D01*
X126720500Y-142113000D01*
X126720500Y-141288750D01*
X126719250Y-141287500D01*
X126720500Y-141286250D01*
X126720500Y-140462000D01*
X125933750Y-140462000D01*
X125775000Y-140620750D01*
X125771928Y-140810000D01*
X124763072Y-140810000D01*
X124763072Y-140670000D01*
X124750812Y-140545518D01*
X124714502Y-140425820D01*
X124655537Y-140315506D01*
X124576185Y-140218815D01*
X124479494Y-140139463D01*
X124369180Y-140080498D01*
X124249482Y-140044188D01*
X124125000Y-140031928D01*
X123525000Y-140031928D01*
X123400518Y-140044188D01*
X123280820Y-140080498D01*
X123190000Y-140129043D01*
X123099180Y-140080498D01*
X122979482Y-140044188D01*
X122855000Y-140031928D01*
X122255000Y-140031928D01*
X122130518Y-140044188D01*
X122010820Y-140080498D01*
X121920000Y-140129043D01*
X121829180Y-140080498D01*
X121709482Y-140044188D01*
X121585000Y-140031928D01*
X121570750Y-140035000D01*
X121412000Y-140193750D01*
X121412000Y-141318000D01*
X121432000Y-141318000D01*
X121432000Y-141572000D01*
X121412000Y-141572000D01*
X121412000Y-141592000D01*
X121158000Y-141592000D01*
X121158000Y-141572000D01*
X121138000Y-141572000D01*
X121138000Y-141318000D01*
X121158000Y-141318000D01*
X121158000Y-140193750D01*
X120999250Y-140035000D01*
X120985000Y-140031928D01*
X120860518Y-140044188D01*
X120740820Y-140080498D01*
X120650000Y-140129043D01*
X120559180Y-140080498D01*
X120439482Y-140044188D01*
X120315000Y-140031928D01*
X119715000Y-140031928D01*
X119590518Y-140044188D01*
X119470820Y-140080498D01*
X119360506Y-140139463D01*
X119263815Y-140218815D01*
X119184463Y-140315506D01*
X119125498Y-140425820D01*
X119089188Y-140545518D01*
X119076928Y-140670000D01*
X119076928Y-142220000D01*
X119089188Y-142344482D01*
X119125498Y-142464180D01*
X119182114Y-142570100D01*
X117732656Y-142570100D01*
X117702115Y-142532885D01*
X117572275Y-142426329D01*
X117424142Y-142347150D01*
X117263408Y-142298392D01*
X117096250Y-142281928D01*
X116583750Y-142281928D01*
X116416592Y-142298392D01*
X116255858Y-142347150D01*
X116107725Y-142426329D01*
X115977885Y-142532885D01*
X115871329Y-142662725D01*
X115792150Y-142810858D01*
X115743392Y-142971592D01*
X115726928Y-143138750D01*
X115726928Y-143357021D01*
X115726349Y-143357600D01*
X115638072Y-143357600D01*
X115638072Y-142963750D01*
X115621128Y-142791715D01*
X115570947Y-142626291D01*
X115489458Y-142473836D01*
X115379792Y-142340208D01*
X115246164Y-142230542D01*
X115093709Y-142149053D01*
X114928285Y-142098872D01*
X114756250Y-142081928D01*
X113843750Y-142081928D01*
X113671715Y-142098872D01*
X113506291Y-142149053D01*
X113365734Y-142224183D01*
X111001551Y-139860000D01*
X125771928Y-139860000D01*
X125775000Y-140049250D01*
X125933750Y-140208000D01*
X126720500Y-140208000D01*
X126720500Y-139383750D01*
X126974500Y-139383750D01*
X126974500Y-140208000D01*
X126994500Y-140208000D01*
X126994500Y-140462000D01*
X126974500Y-140462000D01*
X126974500Y-141286250D01*
X126975750Y-141287500D01*
X126974500Y-141288750D01*
X126974500Y-142113000D01*
X126994500Y-142113000D01*
X126994500Y-142367000D01*
X126974500Y-142367000D01*
X126974500Y-143191250D01*
X127133250Y-143350000D01*
X127285000Y-143353072D01*
X127409482Y-143340812D01*
X127529180Y-143304502D01*
X127639494Y-143245537D01*
X127706070Y-143190900D01*
X127727725Y-143208671D01*
X127875858Y-143287850D01*
X128036592Y-143336608D01*
X128203750Y-143353072D01*
X128641250Y-143353072D01*
X128808408Y-143336608D01*
X128969142Y-143287850D01*
X129117275Y-143208671D01*
X129247115Y-143102115D01*
X129353671Y-142972275D01*
X129432850Y-142824142D01*
X129481608Y-142663408D01*
X129498072Y-142496250D01*
X129498072Y-141983750D01*
X129481608Y-141816592D01*
X129432850Y-141655858D01*
X129353671Y-141507725D01*
X129247115Y-141377885D01*
X129209900Y-141347344D01*
X129209900Y-141227656D01*
X129247115Y-141197115D01*
X129353671Y-141067275D01*
X129432850Y-140919142D01*
X129481608Y-140758408D01*
X129498072Y-140591250D01*
X129498072Y-140078750D01*
X129481608Y-139911592D01*
X129432850Y-139750858D01*
X129353671Y-139602725D01*
X129247115Y-139472885D01*
X129209900Y-139442344D01*
X129209900Y-139044554D01*
X129251836Y-138943312D01*
X129286000Y-138771559D01*
X129286000Y-138596441D01*
X129251836Y-138424688D01*
X129184821Y-138262901D01*
X129087531Y-138117296D01*
X128963704Y-137993469D01*
X128818099Y-137896179D01*
X128656312Y-137829164D01*
X128484559Y-137795000D01*
X128309441Y-137795000D01*
X128137688Y-137829164D01*
X127975901Y-137896179D01*
X127830296Y-137993469D01*
X127706469Y-138117296D01*
X127609179Y-138262901D01*
X127542164Y-138424688D01*
X127508000Y-138596441D01*
X127508000Y-138771559D01*
X127542164Y-138943312D01*
X127609179Y-139105099D01*
X127635101Y-139143894D01*
X127635101Y-139327115D01*
X127529180Y-139270498D01*
X127409482Y-139234188D01*
X127285000Y-139221928D01*
X127133250Y-139225000D01*
X126974500Y-139383750D01*
X126720500Y-139383750D01*
X126561750Y-139225000D01*
X126410000Y-139221928D01*
X126285518Y-139234188D01*
X126165820Y-139270498D01*
X126055506Y-139329463D01*
X125958815Y-139408815D01*
X125879463Y-139505506D01*
X125820498Y-139615820D01*
X125784188Y-139735518D01*
X125771928Y-139860000D01*
X111001551Y-139860000D01*
X110566128Y-139424578D01*
X110541469Y-139394531D01*
X110421572Y-139296134D01*
X110284783Y-139223018D01*
X110136357Y-139177994D01*
X110020673Y-139166600D01*
X110020663Y-139166600D01*
X109982000Y-139162792D01*
X109943337Y-139166600D01*
X107252162Y-139166600D01*
X107213499Y-139162792D01*
X107174836Y-139166600D01*
X107174827Y-139166600D01*
X107059143Y-139177994D01*
X106910717Y-139223018D01*
X106832400Y-139264880D01*
X106832400Y-124966400D01*
X106899494Y-124930537D01*
X106996185Y-124851185D01*
X107075537Y-124754494D01*
X107134502Y-124644180D01*
X107170812Y-124524482D01*
X107183072Y-124400000D01*
X107183072Y-121400000D01*
X107170812Y-121275518D01*
X107134502Y-121155820D01*
X107075537Y-121045506D01*
X106996185Y-120948815D01*
X106899494Y-120869463D01*
X106832400Y-120833600D01*
X106832400Y-101471400D01*
X106899494Y-101435537D01*
X106996185Y-101356185D01*
X107075537Y-101259494D01*
X107134502Y-101149180D01*
X107170812Y-101029482D01*
X107183072Y-100905000D01*
X107183072Y-97905000D01*
X107170812Y-97780518D01*
X107134502Y-97660820D01*
X107075537Y-97550506D01*
X106996185Y-97453815D01*
X106899494Y-97374463D01*
X106789180Y-97315498D01*
X106669482Y-97279188D01*
X106545000Y-97266928D01*
X105545000Y-97266928D01*
X105420518Y-97279188D01*
X105300820Y-97315498D01*
X105190506Y-97374463D01*
X105093815Y-97453815D01*
X105014463Y-97550506D01*
X104955498Y-97660820D01*
X104919188Y-97780518D01*
X104906928Y-97905000D01*
X104906928Y-100905000D01*
X104919188Y-101029482D01*
X104955498Y-101149180D01*
X105014463Y-101259494D01*
X105093815Y-101356185D01*
X105190506Y-101435537D01*
X105257601Y-101471401D01*
X105257600Y-119862600D01*
X98562453Y-119862600D01*
X98582932Y-119813158D01*
X98640000Y-119526260D01*
X98640000Y-119233740D01*
X98582932Y-118946842D01*
X98470990Y-118676589D01*
X98308475Y-118433368D01*
X98101632Y-118226525D01*
X97858411Y-118064010D01*
X97588158Y-117952068D01*
X97301260Y-117895000D01*
X97008740Y-117895000D01*
X96721842Y-117952068D01*
X96451589Y-118064010D01*
X96208368Y-118226525D01*
X96001525Y-118433368D01*
X95839010Y-118676589D01*
X95727068Y-118946842D01*
X95670000Y-119233740D01*
X95670000Y-119526260D01*
X95727068Y-119813158D01*
X95839010Y-120083411D01*
X96001525Y-120326632D01*
X96133380Y-120458487D01*
X96060820Y-120480498D01*
X95950506Y-120539463D01*
X95853815Y-120618815D01*
X95774463Y-120715506D01*
X95715498Y-120825820D01*
X95679188Y-120945518D01*
X95666928Y-121070000D01*
X82498043Y-121070000D01*
X82433475Y-120973368D01*
X82226632Y-120766525D01*
X82052240Y-120650000D01*
X82226632Y-120533475D01*
X82433475Y-120326632D01*
X82595990Y-120083411D01*
X82707932Y-119813158D01*
X82765000Y-119526260D01*
X82765000Y-119233740D01*
X82707932Y-118946842D01*
X82595990Y-118676589D01*
X82433475Y-118433368D01*
X82301620Y-118301513D01*
X82374180Y-118279502D01*
X82484494Y-118220537D01*
X82581185Y-118141185D01*
X82660537Y-118044494D01*
X82719502Y-117934180D01*
X82755812Y-117814482D01*
X82768072Y-117690000D01*
X82768072Y-115990000D01*
X82755812Y-115865518D01*
X82719502Y-115745820D01*
X82660537Y-115635506D01*
X82581185Y-115538815D01*
X82484494Y-115459463D01*
X82374180Y-115400498D01*
X82254482Y-115364188D01*
X82130000Y-115351928D01*
X81480214Y-115351928D01*
X93489433Y-103342712D01*
X93519469Y-103318062D01*
X93617866Y-103198165D01*
X93690982Y-103061376D01*
X93736006Y-102912950D01*
X93747400Y-102797266D01*
X93747400Y-102797257D01*
X93751208Y-102758594D01*
X93747400Y-102719931D01*
X93747400Y-101348072D01*
X94990000Y-101348072D01*
X95114482Y-101335812D01*
X95234180Y-101299502D01*
X95344494Y-101240537D01*
X95441185Y-101161185D01*
X95520537Y-101064494D01*
X95579502Y-100954180D01*
X95615812Y-100834482D01*
X95628072Y-100710000D01*
X95628072Y-97410000D01*
X95615812Y-97285518D01*
X95579502Y-97165820D01*
X95520537Y-97055506D01*
X95441185Y-96958815D01*
X95344494Y-96879463D01*
X95234180Y-96820498D01*
X95114482Y-96784188D01*
X94990000Y-96771928D01*
X90930000Y-96771928D01*
X90805518Y-96784188D01*
X90685820Y-96820498D01*
X90575506Y-96879463D01*
X90478815Y-96958815D01*
X90399463Y-97055506D01*
X90340498Y-97165820D01*
X90304188Y-97285518D01*
X90291928Y-97410000D01*
X90291928Y-100710000D01*
X90304188Y-100834482D01*
X90340498Y-100954180D01*
X90399463Y-101064494D01*
X90478815Y-101161185D01*
X90575506Y-101240537D01*
X90685820Y-101299502D01*
X90805518Y-101335812D01*
X90930000Y-101348072D01*
X92172601Y-101348072D01*
X92172601Y-102432440D01*
X87633072Y-106971969D01*
X87633072Y-103255000D01*
X87620812Y-103130518D01*
X87584502Y-103010820D01*
X87525537Y-102900506D01*
X87446185Y-102803815D01*
X87349494Y-102724463D01*
X87239180Y-102665498D01*
X87119482Y-102629188D01*
X86995000Y-102616928D01*
X84607400Y-102616928D01*
X84607400Y-94413072D01*
X86700000Y-94413072D01*
X86824482Y-94400812D01*
X86944180Y-94364502D01*
X87054494Y-94305537D01*
X87151185Y-94226185D01*
X87230537Y-94129494D01*
X87289502Y-94019180D01*
X87325812Y-93899482D01*
X87338072Y-93775000D01*
X87338072Y-89965000D01*
X87325812Y-89840518D01*
X87289502Y-89720820D01*
X87230537Y-89610506D01*
X87151185Y-89513815D01*
X87054494Y-89434463D01*
X86944180Y-89375498D01*
X86824482Y-89339188D01*
X86700000Y-89326928D01*
X80940000Y-89326928D01*
X80815518Y-89339188D01*
X80695820Y-89375498D01*
X80585506Y-89434463D01*
X80488815Y-89513815D01*
X80409463Y-89610506D01*
X80350498Y-89720820D01*
X80314188Y-89840518D01*
X80301928Y-89965000D01*
X80301928Y-93775000D01*
X80314188Y-93899482D01*
X80350498Y-94019180D01*
X80409463Y-94129494D01*
X80488815Y-94226185D01*
X80585506Y-94305537D01*
X80695820Y-94364502D01*
X80815518Y-94400812D01*
X80940000Y-94413072D01*
X83032600Y-94413072D01*
X83032601Y-102616928D01*
X80645000Y-102616928D01*
X80520518Y-102629188D01*
X80400820Y-102665498D01*
X80290506Y-102724463D01*
X80193815Y-102803815D01*
X80114463Y-102900506D01*
X80055498Y-103010820D01*
X80019188Y-103130518D01*
X80006928Y-103255000D01*
X80006928Y-107065000D01*
X80019188Y-107189482D01*
X80055498Y-107309180D01*
X80114463Y-107419494D01*
X80193815Y-107516185D01*
X80290506Y-107595537D01*
X80400820Y-107654502D01*
X80520518Y-107690812D01*
X80645000Y-107703072D01*
X83032600Y-107703072D01*
X83032601Y-110925848D01*
X78312156Y-115646294D01*
X78282109Y-115670953D01*
X78183712Y-115790851D01*
X78110596Y-115927640D01*
X78065572Y-116076066D01*
X78054178Y-116191750D01*
X78054178Y-116191759D01*
X78050370Y-116230422D01*
X76860000Y-116230422D01*
X76860000Y-86200000D01*
X80051928Y-86200000D01*
X80064188Y-86324482D01*
X80100498Y-86444180D01*
X80159463Y-86554494D01*
X80238815Y-86651185D01*
X80335506Y-86730537D01*
X80445820Y-86789502D01*
X80565518Y-86825812D01*
X80690000Y-86838072D01*
X80841750Y-86835000D01*
X81000500Y-86676250D01*
X81000500Y-85852000D01*
X80213750Y-85852000D01*
X80055000Y-86010750D01*
X80051928Y-86200000D01*
X76860000Y-86200000D01*
X76860000Y-85250000D01*
X80051928Y-85250000D01*
X80055000Y-85439250D01*
X80213750Y-85598000D01*
X81000500Y-85598000D01*
X81000500Y-84773750D01*
X81254500Y-84773750D01*
X81254500Y-85598000D01*
X81274500Y-85598000D01*
X81274500Y-85852000D01*
X81254500Y-85852000D01*
X81254500Y-86676250D01*
X81413250Y-86835000D01*
X81565000Y-86838072D01*
X81689482Y-86825812D01*
X81809180Y-86789502D01*
X81919494Y-86730537D01*
X81986070Y-86675900D01*
X82007725Y-86693671D01*
X82155858Y-86772850D01*
X82316592Y-86821608D01*
X82483750Y-86838072D01*
X82921250Y-86838072D01*
X83088408Y-86821608D01*
X83249142Y-86772850D01*
X83397275Y-86693671D01*
X83527115Y-86587115D01*
X83588431Y-86512400D01*
X83727139Y-86512400D01*
X83729053Y-86518709D01*
X83810542Y-86671164D01*
X83920208Y-86804792D01*
X84053836Y-86914458D01*
X84206291Y-86995947D01*
X84371715Y-87046128D01*
X84543750Y-87063072D01*
X85031250Y-87063072D01*
X85203285Y-87046128D01*
X85368709Y-86995947D01*
X85521164Y-86914458D01*
X85654792Y-86804792D01*
X85725000Y-86719244D01*
X85795208Y-86804792D01*
X85928836Y-86914458D01*
X86081291Y-86995947D01*
X86246715Y-87046128D01*
X86418750Y-87063072D01*
X86906250Y-87063072D01*
X87078285Y-87046128D01*
X87243709Y-86995947D01*
X87396164Y-86914458D01*
X87529792Y-86804792D01*
X87639458Y-86671164D01*
X87720947Y-86518709D01*
X87722861Y-86512400D01*
X87970271Y-86512400D01*
X87970901Y-86512821D01*
X88132688Y-86579836D01*
X88304441Y-86614000D01*
X88479559Y-86614000D01*
X88651312Y-86579836D01*
X88813099Y-86512821D01*
X88958704Y-86415531D01*
X89082531Y-86291704D01*
X89179821Y-86146099D01*
X89246836Y-85984312D01*
X89281000Y-85812559D01*
X89281000Y-85637441D01*
X89246836Y-85465688D01*
X89179821Y-85303901D01*
X89082531Y-85158296D01*
X88958704Y-85034469D01*
X88813099Y-84937179D01*
X88651312Y-84870164D01*
X88479559Y-84836000D01*
X88304441Y-84836000D01*
X88132688Y-84870164D01*
X87970901Y-84937179D01*
X87970271Y-84937600D01*
X87722861Y-84937600D01*
X87720947Y-84931291D01*
X87639458Y-84778836D01*
X87529792Y-84645208D01*
X87396164Y-84535542D01*
X87243709Y-84454053D01*
X87078285Y-84403872D01*
X86906250Y-84386928D01*
X86418750Y-84386928D01*
X86246715Y-84403872D01*
X86081291Y-84454053D01*
X85928836Y-84535542D01*
X85795208Y-84645208D01*
X85725000Y-84730756D01*
X85654792Y-84645208D01*
X85521164Y-84535542D01*
X85368709Y-84454053D01*
X85203285Y-84403872D01*
X85031250Y-84386928D01*
X84543750Y-84386928D01*
X84371715Y-84403872D01*
X84206291Y-84454053D01*
X84053836Y-84535542D01*
X83920208Y-84645208D01*
X83810542Y-84778836D01*
X83729053Y-84931291D01*
X83727139Y-84937600D01*
X83588431Y-84937600D01*
X83527115Y-84862885D01*
X83397275Y-84756329D01*
X83249142Y-84677150D01*
X83088408Y-84628392D01*
X82921250Y-84611928D01*
X82483750Y-84611928D01*
X82316592Y-84628392D01*
X82155858Y-84677150D01*
X82007725Y-84756329D01*
X81986070Y-84774100D01*
X81919494Y-84719463D01*
X81809180Y-84660498D01*
X81689482Y-84624188D01*
X81565000Y-84611928D01*
X81413250Y-84615000D01*
X81254500Y-84773750D01*
X81000500Y-84773750D01*
X80841750Y-84615000D01*
X80690000Y-84611928D01*
X80565518Y-84624188D01*
X80445820Y-84660498D01*
X80335506Y-84719463D01*
X80238815Y-84798815D01*
X80159463Y-84895506D01*
X80100498Y-85005820D01*
X80064188Y-85125518D01*
X80051928Y-85250000D01*
X76860000Y-85250000D01*
X76860000Y-82438212D01*
X195715000Y-82438212D01*
X195715000Y-82661788D01*
X195758617Y-82881067D01*
X195844176Y-83087624D01*
X195968388Y-83273520D01*
X196126480Y-83431612D01*
X196312376Y-83555824D01*
X196518933Y-83641383D01*
X196738212Y-83685000D01*
X196961788Y-83685000D01*
X197181067Y-83641383D01*
X197387624Y-83555824D01*
X197573520Y-83431612D01*
X197731612Y-83273520D01*
X197855824Y-83087624D01*
X197941383Y-82881067D01*
X197985000Y-82661788D01*
X197985000Y-82438212D01*
X197941383Y-82218933D01*
X197855824Y-82012376D01*
X197731612Y-81826480D01*
X197573520Y-81668388D01*
X197387624Y-81544176D01*
X197181067Y-81458617D01*
X196961788Y-81415000D01*
X196738212Y-81415000D01*
X196518933Y-81458617D01*
X196312376Y-81544176D01*
X196126480Y-81668388D01*
X195968388Y-81826480D01*
X195844176Y-82012376D01*
X195758617Y-82218933D01*
X195715000Y-82438212D01*
X76860000Y-82438212D01*
X76860000Y-79154872D01*
X77140000Y-79154872D01*
X77140000Y-79595128D01*
X77225890Y-80026925D01*
X77394369Y-80433669D01*
X77638962Y-80799729D01*
X77950271Y-81111038D01*
X78316331Y-81355631D01*
X78723075Y-81524110D01*
X79154872Y-81610000D01*
X79595128Y-81610000D01*
X80026925Y-81524110D01*
X80433669Y-81355631D01*
X80799729Y-81111038D01*
X81111038Y-80799729D01*
X81355631Y-80433669D01*
X81524110Y-80026925D01*
X81610000Y-79595128D01*
X81610000Y-79154872D01*
X197790000Y-79154872D01*
X197790000Y-79595128D01*
X197875890Y-80026925D01*
X198044369Y-80433669D01*
X198288962Y-80799729D01*
X198600271Y-81111038D01*
X198966331Y-81355631D01*
X199373075Y-81524110D01*
X199804872Y-81610000D01*
X200245128Y-81610000D01*
X200676925Y-81524110D01*
X201083669Y-81355631D01*
X201449729Y-81111038D01*
X201761038Y-80799729D01*
X202005631Y-80433669D01*
X202174110Y-80026925D01*
X202260000Y-79595128D01*
X202260000Y-79154872D01*
X202174110Y-78723075D01*
X202005631Y-78316331D01*
X201761038Y-77950271D01*
X201449729Y-77638962D01*
X201083669Y-77394369D01*
X200676925Y-77225890D01*
X200245128Y-77140000D01*
X199804872Y-77140000D01*
X199373075Y-77225890D01*
X198966331Y-77394369D01*
X198600271Y-77638962D01*
X198288962Y-77950271D01*
X198044369Y-78316331D01*
X197875890Y-78723075D01*
X197790000Y-79154872D01*
X81610000Y-79154872D01*
X81524110Y-78723075D01*
X81355631Y-78316331D01*
X81111038Y-77950271D01*
X80799729Y-77638962D01*
X80433669Y-77394369D01*
X80026925Y-77225890D01*
X79595128Y-77140000D01*
X79154872Y-77140000D01*
X78723075Y-77225890D01*
X78316331Y-77394369D01*
X77950271Y-77638962D01*
X77638962Y-77950271D01*
X77394369Y-78316331D01*
X77225890Y-78723075D01*
X77140000Y-79154872D01*
X76860000Y-79154872D01*
X76860000Y-78772279D01*
X76898909Y-78375455D01*
X77004780Y-78024792D01*
X77176744Y-77701375D01*
X77408254Y-77417516D01*
X77690486Y-77184035D01*
X78012695Y-77009817D01*
X78362614Y-76901498D01*
X78757443Y-76860000D01*
X200627721Y-76860000D01*
X201024545Y-76898909D01*
%TA.AperFunction,Conductor*%
D22*
G36*
X201024545Y-76898909D02*
G01*
X201375208Y-77004780D01*
X201698625Y-77176744D01*
X201982484Y-77408254D01*
X202215965Y-77690486D01*
X202390183Y-78012695D01*
X202498502Y-78362614D01*
X202540001Y-78757452D01*
X202540000Y-162527721D01*
X202501091Y-162924545D01*
X202395220Y-163275206D01*
X202223257Y-163598623D01*
X201991748Y-163882482D01*
X201709514Y-164115965D01*
X201387304Y-164290184D01*
X201037385Y-164398502D01*
X200642557Y-164440000D01*
X78772279Y-164440000D01*
X78375455Y-164401091D01*
X78024794Y-164295220D01*
X77701377Y-164123257D01*
X77417518Y-163891748D01*
X77184035Y-163609514D01*
X77009816Y-163287304D01*
X76901498Y-162937385D01*
X76860000Y-162542557D01*
X76860000Y-161704872D01*
X77140000Y-161704872D01*
X77140000Y-162145128D01*
X77225890Y-162576925D01*
X77394369Y-162983669D01*
X77638962Y-163349729D01*
X77950271Y-163661038D01*
X78316331Y-163905631D01*
X78723075Y-164074110D01*
X79154872Y-164160000D01*
X79595128Y-164160000D01*
X80026925Y-164074110D01*
X80433669Y-163905631D01*
X80799729Y-163661038D01*
X81111038Y-163349729D01*
X81355631Y-162983669D01*
X81524110Y-162576925D01*
X81610000Y-162145128D01*
X81610000Y-161704872D01*
X197790000Y-161704872D01*
X197790000Y-162145128D01*
X197875890Y-162576925D01*
X198044369Y-162983669D01*
X198288962Y-163349729D01*
X198600271Y-163661038D01*
X198966331Y-163905631D01*
X199373075Y-164074110D01*
X199804872Y-164160000D01*
X200245128Y-164160000D01*
X200676925Y-164074110D01*
X201083669Y-163905631D01*
X201449729Y-163661038D01*
X201761038Y-163349729D01*
X202005631Y-162983669D01*
X202174110Y-162576925D01*
X202260000Y-162145128D01*
X202260000Y-161704872D01*
X202174110Y-161273075D01*
X202005631Y-160866331D01*
X201761038Y-160500271D01*
X201449729Y-160188962D01*
X201083669Y-159944369D01*
X200676925Y-159775890D01*
X200245128Y-159690000D01*
X199804872Y-159690000D01*
X199373075Y-159775890D01*
X198966331Y-159944369D01*
X198600271Y-160188962D01*
X198288962Y-160500271D01*
X198044369Y-160866331D01*
X197875890Y-161273075D01*
X197790000Y-161704872D01*
X81610000Y-161704872D01*
X81524110Y-161273075D01*
X81355631Y-160866331D01*
X81111038Y-160500271D01*
X80799729Y-160188962D01*
X80433669Y-159944369D01*
X80026925Y-159775890D01*
X79595128Y-159690000D01*
X79154872Y-159690000D01*
X78723075Y-159775890D01*
X78316331Y-159944369D01*
X77950271Y-160188962D01*
X77638962Y-160500271D01*
X77394369Y-160866331D01*
X77225890Y-161273075D01*
X77140000Y-161704872D01*
X76860000Y-161704872D01*
X76860000Y-158003212D01*
X80780000Y-158003212D01*
X80780000Y-158226788D01*
X80823617Y-158446067D01*
X80909176Y-158652624D01*
X81033388Y-158838520D01*
X81191480Y-158996612D01*
X81377376Y-159120824D01*
X81583933Y-159206383D01*
X81803212Y-159250000D01*
X82026788Y-159250000D01*
X82246067Y-159206383D01*
X82452624Y-159120824D01*
X82638520Y-158996612D01*
X82796612Y-158838520D01*
X82920824Y-158652624D01*
X83006383Y-158446067D01*
X83050000Y-158226788D01*
X83050000Y-158003212D01*
X83006383Y-157783933D01*
X82920824Y-157577376D01*
X82796612Y-157391480D01*
X82638520Y-157233388D01*
X82452624Y-157109176D01*
X82246067Y-157023617D01*
X82026788Y-156980000D01*
X81803212Y-156980000D01*
X81583933Y-157023617D01*
X81377376Y-157109176D01*
X81191480Y-157233388D01*
X81033388Y-157391480D01*
X80909176Y-157577376D01*
X80823617Y-157783933D01*
X80780000Y-158003212D01*
X76860000Y-158003212D01*
X76860000Y-116230422D01*
X78050370Y-116230422D01*
X78054178Y-116269085D01*
X78054179Y-149592905D01*
X78050370Y-149631578D01*
X78065573Y-149785935D01*
X78110596Y-149934360D01*
X78156144Y-150019572D01*
X78183713Y-150071150D01*
X78282110Y-150191047D01*
X78312151Y-150215701D01*
X79963577Y-151867129D01*
X79940500Y-151983146D01*
X79940500Y-152256854D01*
X79993898Y-152525302D01*
X80098641Y-152778175D01*
X80250705Y-153005754D01*
X80444246Y-153199295D01*
X80671825Y-153351359D01*
X80924698Y-153456102D01*
X81193146Y-153509500D01*
X81466854Y-153509500D01*
X81735302Y-153456102D01*
X81988175Y-153351359D01*
X82215754Y-153199295D01*
X82409295Y-153005754D01*
X82561359Y-152778175D01*
X82666102Y-152525302D01*
X82719500Y-152256854D01*
X82719500Y-151983146D01*
X82666102Y-151714698D01*
X82561359Y-151461825D01*
X82409295Y-151234246D01*
X82215754Y-151040705D01*
X81988175Y-150888641D01*
X81894887Y-150850000D01*
X81988175Y-150811359D01*
X82215754Y-150659295D01*
X82409295Y-150465754D01*
X82561359Y-150238175D01*
X82666102Y-149985302D01*
X82719500Y-149716854D01*
X82719500Y-149443146D01*
X82666102Y-149174698D01*
X82561359Y-148921825D01*
X82409295Y-148694246D01*
X82215754Y-148500705D01*
X81988175Y-148348641D01*
X81894887Y-148310000D01*
X81988175Y-148271359D01*
X82215754Y-148119295D01*
X82409295Y-147925754D01*
X82561359Y-147698175D01*
X82666102Y-147445302D01*
X82719500Y-147176854D01*
X82719500Y-146903146D01*
X82666102Y-146634698D01*
X82561359Y-146381825D01*
X82409295Y-146154246D01*
X82215754Y-145960705D01*
X81988175Y-145808641D01*
X81735302Y-145703898D01*
X81466854Y-145650500D01*
X81193146Y-145650500D01*
X80924698Y-145703898D01*
X80671825Y-145808641D01*
X80444246Y-145960705D01*
X80250705Y-146154246D01*
X80098641Y-146381825D01*
X80086189Y-146411887D01*
X80086189Y-142588113D01*
X80098641Y-142618175D01*
X80250705Y-142845754D01*
X80444246Y-143039295D01*
X80671825Y-143191359D01*
X80924698Y-143296102D01*
X81193146Y-143349500D01*
X81466854Y-143349500D01*
X81735302Y-143296102D01*
X81988175Y-143191359D01*
X82215754Y-143039295D01*
X82409295Y-142845754D01*
X82561359Y-142618175D01*
X82666102Y-142365302D01*
X82719500Y-142096854D01*
X82719500Y-141823146D01*
X82666102Y-141554698D01*
X82561359Y-141301825D01*
X82409295Y-141074246D01*
X82215754Y-140880705D01*
X81988175Y-140728641D01*
X81899215Y-140691793D01*
X81930404Y-140680537D01*
X82044532Y-140619534D01*
X82110603Y-140380208D01*
X81330000Y-139599605D01*
X80549397Y-140380208D01*
X80615468Y-140619534D01*
X80765326Y-140689912D01*
X80671825Y-140728641D01*
X80444246Y-140880705D01*
X80250705Y-141074246D01*
X80098641Y-141301825D01*
X80086189Y-141331887D01*
X80086189Y-140051696D01*
X80130466Y-140134532D01*
X80369792Y-140200603D01*
X81150395Y-139420000D01*
X81509605Y-139420000D01*
X82290208Y-140200603D01*
X82529534Y-140134532D01*
X82645883Y-139886785D01*
X82711664Y-139621100D01*
X82724349Y-139347686D01*
X82683449Y-139077052D01*
X82590537Y-138819596D01*
X82529534Y-138705468D01*
X82290208Y-138639397D01*
X81509605Y-139420000D01*
X81150395Y-139420000D01*
X80369792Y-138639397D01*
X80130466Y-138705468D01*
X80086189Y-138799749D01*
X80086189Y-137508113D01*
X80098641Y-137538175D01*
X80250705Y-137765754D01*
X80444246Y-137959295D01*
X80671825Y-138111359D01*
X80760785Y-138148207D01*
X80729596Y-138159463D01*
X80615468Y-138220466D01*
X80549397Y-138459792D01*
X81330000Y-139240395D01*
X82110603Y-138459792D01*
X82044532Y-138220466D01*
X81894674Y-138150088D01*
X81988175Y-138111359D01*
X82215754Y-137959295D01*
X82409295Y-137765754D01*
X82561359Y-137538175D01*
X82666102Y-137285302D01*
X82719500Y-137016854D01*
X82719500Y-136743146D01*
X82666102Y-136474698D01*
X82561359Y-136221825D01*
X82409295Y-135994246D01*
X82215754Y-135800705D01*
X81988175Y-135648641D01*
X81894887Y-135610000D01*
X81988175Y-135571359D01*
X82215754Y-135419295D01*
X82409295Y-135225754D01*
X82561359Y-134998175D01*
X82666102Y-134745302D01*
X82719500Y-134476854D01*
X82719500Y-134203146D01*
X82666102Y-133934698D01*
X82561359Y-133681825D01*
X82409295Y-133454246D01*
X82215754Y-133260705D01*
X81988175Y-133108641D01*
X81735302Y-133003898D01*
X81466854Y-132950500D01*
X81193146Y-132950500D01*
X81077128Y-132973577D01*
X80543400Y-132439850D01*
X80543400Y-125741404D01*
X80648748Y-125804157D01*
X80923109Y-125901481D01*
X81153000Y-125780814D01*
X81153000Y-124587000D01*
X81407000Y-124587000D01*
X81407000Y-125780814D01*
X81636891Y-125901481D01*
X81911252Y-125804157D01*
X82161355Y-125655178D01*
X82377588Y-125460269D01*
X82551641Y-125226920D01*
X82676825Y-124964099D01*
X82721476Y-124816890D01*
X82600155Y-124587000D01*
X81407000Y-124587000D01*
X81153000Y-124587000D01*
X81133000Y-124587000D01*
X81133000Y-124333000D01*
X81153000Y-124333000D01*
X81153000Y-124313000D01*
X81407000Y-124313000D01*
X81407000Y-124333000D01*
X82600155Y-124333000D01*
X82721476Y-124103110D01*
X82676825Y-123955901D01*
X82551641Y-123693080D01*
X82377588Y-123459731D01*
X82161355Y-123264822D01*
X82044466Y-123195195D01*
X82226632Y-123073475D01*
X82433475Y-122866632D01*
X82595990Y-122623411D01*
X82707932Y-122353158D01*
X82765000Y-122066260D01*
X82765000Y-121773740D01*
X82707932Y-121486842D01*
X82595990Y-121216589D01*
X82498043Y-121070000D01*
X95666928Y-121070000D01*
X95666928Y-122770000D01*
X95679188Y-122894482D01*
X95715498Y-123014180D01*
X95774463Y-123124494D01*
X95853815Y-123221185D01*
X95950506Y-123300537D01*
X96060820Y-123359502D01*
X96180518Y-123395812D01*
X96305000Y-123408072D01*
X98005000Y-123408072D01*
X98129482Y-123395812D01*
X98249180Y-123359502D01*
X98359494Y-123300537D01*
X98456185Y-123221185D01*
X98535537Y-123124494D01*
X98594502Y-123014180D01*
X98630812Y-122894482D01*
X98643072Y-122770000D01*
X98643072Y-121437400D01*
X104906928Y-121437400D01*
X104906928Y-124400000D01*
X104919188Y-124524482D01*
X104955498Y-124644180D01*
X105014463Y-124754494D01*
X105093815Y-124851185D01*
X105190506Y-124930537D01*
X105257600Y-124966400D01*
X105257601Y-140008847D01*
X102884412Y-142382038D01*
X102819142Y-142347150D01*
X102658408Y-142298392D01*
X102491250Y-142281928D01*
X101978750Y-142281928D01*
X101811592Y-142298392D01*
X101650858Y-142347150D01*
X101502725Y-142426329D01*
X101372885Y-142532885D01*
X101266329Y-142662725D01*
X101187150Y-142810858D01*
X101138392Y-142971592D01*
X101121928Y-143138750D01*
X101121928Y-143576250D01*
X101138392Y-143743408D01*
X101187150Y-143904142D01*
X101266329Y-144052275D01*
X101342426Y-144145000D01*
X101266329Y-144237725D01*
X101187150Y-144385858D01*
X101138392Y-144546592D01*
X101121928Y-144713750D01*
X101121928Y-145151250D01*
X101138392Y-145318408D01*
X101187150Y-145479142D01*
X101266329Y-145627275D01*
X101372885Y-145757115D01*
X101502725Y-145863671D01*
X101650858Y-145942850D01*
X101811592Y-145991608D01*
X101978750Y-146008072D01*
X102491250Y-146008072D01*
X102658408Y-145991608D01*
X102819142Y-145942850D01*
X102967275Y-145863671D01*
X103097115Y-145757115D01*
X103203671Y-145627275D01*
X103282850Y-145479142D01*
X103331608Y-145318408D01*
X103348072Y-145151250D01*
X103348072Y-144932978D01*
X107446928Y-140834124D01*
X107446928Y-143395000D01*
X107459188Y-143519482D01*
X107495498Y-143639180D01*
X107554463Y-143749494D01*
X107633815Y-143846185D01*
X107730506Y-143925537D01*
X107804642Y-143965164D01*
X107808995Y-144009357D01*
X107854018Y-144157782D01*
X107896749Y-144237725D01*
X107927135Y-144294572D01*
X108025532Y-144414469D01*
X108055573Y-144439123D01*
X109986928Y-146370480D01*
X109986928Y-147548600D01*
X108312152Y-147548600D01*
X107183072Y-146419521D01*
X107183072Y-144895000D01*
X107170812Y-144770518D01*
X107134502Y-144650820D01*
X107075537Y-144540506D01*
X106996185Y-144443815D01*
X106899494Y-144364463D01*
X106789180Y-144305498D01*
X106669482Y-144269188D01*
X106545000Y-144256928D01*
X105545000Y-144256928D01*
X105420518Y-144269188D01*
X105300820Y-144305498D01*
X105190506Y-144364463D01*
X105093815Y-144443815D01*
X105014463Y-144540506D01*
X104955498Y-144650820D01*
X104919188Y-144770518D01*
X104906928Y-144895000D01*
X104906928Y-147895000D01*
X104919188Y-148019482D01*
X104955498Y-148139180D01*
X105014463Y-148249494D01*
X105093815Y-148346185D01*
X105190506Y-148425537D01*
X105300820Y-148484502D01*
X105420518Y-148520812D01*
X105545000Y-148533072D01*
X106545000Y-148533072D01*
X106669482Y-148520812D01*
X106789180Y-148484502D01*
X106899494Y-148425537D01*
X106933817Y-148397369D01*
X107401881Y-148865433D01*
X107426531Y-148895469D01*
X107456567Y-148920119D01*
X107456570Y-148920122D01*
X107529358Y-148979857D01*
X107546428Y-148993866D01*
X107683217Y-149066982D01*
X107831643Y-149112006D01*
X107947327Y-149123400D01*
X107947335Y-149123400D01*
X107986000Y-149127208D01*
X108024665Y-149123400D01*
X111771158Y-149123400D01*
X111809821Y-149127208D01*
X111848484Y-149123400D01*
X111848494Y-149123400D01*
X111964178Y-149112006D01*
X112112604Y-149066982D01*
X112249393Y-148993866D01*
X112369290Y-148895469D01*
X112393949Y-148865422D01*
X114829428Y-146429944D01*
X114859469Y-146405290D01*
X114925633Y-146324669D01*
X114957866Y-146285394D01*
X115023728Y-146162176D01*
X115093709Y-146140947D01*
X115246164Y-146059458D01*
X115379792Y-145949792D01*
X115445358Y-145869900D01*
X116119379Y-145869900D01*
X116255858Y-145942850D01*
X116416592Y-145991608D01*
X116583750Y-146008072D01*
X117096250Y-146008072D01*
X117263408Y-145991608D01*
X117424142Y-145942850D01*
X117572275Y-145863671D01*
X117702115Y-145757115D01*
X117732656Y-145719900D01*
X119182114Y-145719900D01*
X119125498Y-145825820D01*
X119089188Y-145945518D01*
X119076928Y-146070000D01*
X119076928Y-147620000D01*
X119089188Y-147744482D01*
X119125498Y-147864180D01*
X119184463Y-147974494D01*
X119263815Y-148071185D01*
X119360506Y-148150537D01*
X119470820Y-148209502D01*
X119590518Y-148245812D01*
X119715000Y-148258072D01*
X120315000Y-148258072D01*
X120439482Y-148245812D01*
X120559180Y-148209502D01*
X120650000Y-148160957D01*
X120740820Y-148209502D01*
X120860518Y-148245812D01*
X120985000Y-148258072D01*
X121585000Y-148258072D01*
X121709482Y-148245812D01*
X121767601Y-148228182D01*
X121767601Y-148422270D01*
X121767179Y-148422901D01*
X121700164Y-148584688D01*
X121666000Y-148756441D01*
X121666000Y-148931559D01*
X121700164Y-149103312D01*
X121767179Y-149265099D01*
X121864469Y-149410704D01*
X121988296Y-149534531D01*
X122133901Y-149631821D01*
X122295688Y-149698836D01*
X122467441Y-149733000D01*
X122642559Y-149733000D01*
X122814312Y-149698836D01*
X122976099Y-149631821D01*
X123121704Y-149534531D01*
X123245531Y-149410704D01*
X123342821Y-149265099D01*
X123409836Y-149103312D01*
X123444000Y-148931559D01*
X123444000Y-148814550D01*
X124002881Y-149373433D01*
X124027531Y-149403469D01*
X124057567Y-149428119D01*
X124057570Y-149428122D01*
X124147427Y-149501866D01*
X124208539Y-149534531D01*
X124284217Y-149574982D01*
X124432643Y-149620006D01*
X124548327Y-149631400D01*
X124548335Y-149631400D01*
X124587000Y-149635208D01*
X124625665Y-149631400D01*
X125986793Y-149631400D01*
X125984000Y-149645441D01*
X125984000Y-149820559D01*
X126018164Y-149992312D01*
X126085179Y-150154099D01*
X126182469Y-150299704D01*
X126306296Y-150423531D01*
X126451901Y-150520821D01*
X126613688Y-150587836D01*
X126785441Y-150622000D01*
X126960559Y-150622000D01*
X127132312Y-150587836D01*
X127294099Y-150520821D01*
X127439704Y-150423531D01*
X127563531Y-150299704D01*
X127635000Y-150192743D01*
X127706469Y-150299704D01*
X127830296Y-150423531D01*
X127975901Y-150520821D01*
X128137688Y-150587836D01*
X128309441Y-150622000D01*
X128484559Y-150622000D01*
X128656312Y-150587836D01*
X128818099Y-150520821D01*
X128963704Y-150423531D01*
X129087531Y-150299704D01*
X129184821Y-150154099D01*
X129251836Y-149992312D01*
X129286000Y-149820559D01*
X129286000Y-149645441D01*
X129251836Y-149473688D01*
X129209900Y-149372446D01*
X129209900Y-148847656D01*
X129247115Y-148817115D01*
X129353671Y-148687275D01*
X129432850Y-148539142D01*
X129481608Y-148378408D01*
X129498072Y-148211250D01*
X129498072Y-147698750D01*
X129481608Y-147531592D01*
X129432850Y-147370858D01*
X129353671Y-147222725D01*
X129247115Y-147092885D01*
X129209900Y-147062344D01*
X129209900Y-146942656D01*
X129247115Y-146912115D01*
X129353671Y-146782275D01*
X129432850Y-146634142D01*
X129481608Y-146473408D01*
X129498072Y-146306250D01*
X129498072Y-145793750D01*
X129481608Y-145626592D01*
X129432850Y-145465858D01*
X129353671Y-145317725D01*
X129247115Y-145187885D01*
X129117275Y-145081329D01*
X128969142Y-145002150D01*
X128808408Y-144953392D01*
X128641250Y-144936928D01*
X128203750Y-144936928D01*
X128036592Y-144953392D01*
X127875858Y-145002150D01*
X127727725Y-145081329D01*
X127635000Y-145157426D01*
X127542275Y-145081329D01*
X127394142Y-145002150D01*
X127233408Y-144953392D01*
X127066250Y-144936928D01*
X126628750Y-144936928D01*
X126461592Y-144953392D01*
X126300858Y-145002150D01*
X126152725Y-145081329D01*
X126022885Y-145187885D01*
X125916329Y-145317725D01*
X125837150Y-145465858D01*
X125788392Y-145626592D01*
X125771928Y-145793750D01*
X125771928Y-146306250D01*
X125788392Y-146473408D01*
X125837150Y-146634142D01*
X125916329Y-146782275D01*
X126022885Y-146912115D01*
X126060100Y-146942657D01*
X126060101Y-147062343D01*
X126022885Y-147092885D01*
X125916329Y-147222725D01*
X125837150Y-147370858D01*
X125788392Y-147531592D01*
X125771928Y-147698750D01*
X125771928Y-147993272D01*
X125708600Y-148056600D01*
X124913151Y-148056600D01*
X124715952Y-147859401D01*
X124750812Y-147744482D01*
X124763072Y-147620000D01*
X124763072Y-146070000D01*
X124750812Y-145945518D01*
X124714502Y-145825820D01*
X124655537Y-145715506D01*
X124576185Y-145618815D01*
X124479494Y-145539463D01*
X124369180Y-145480498D01*
X124249482Y-145444188D01*
X124125000Y-145431928D01*
X123525000Y-145431928D01*
X123400518Y-145444188D01*
X123280820Y-145480498D01*
X123190000Y-145529043D01*
X123099180Y-145480498D01*
X122979482Y-145444188D01*
X122855000Y-145431928D01*
X122255000Y-145431928D01*
X122130518Y-145444188D01*
X122020570Y-145477540D01*
X122015982Y-145462417D01*
X121942866Y-145325628D01*
X121890402Y-145261700D01*
X121869122Y-145235770D01*
X121869119Y-145235767D01*
X121844469Y-145205731D01*
X121814434Y-145181082D01*
X121036427Y-144403077D01*
X121011769Y-144373031D01*
X120891872Y-144274634D01*
X120755083Y-144201518D01*
X120606657Y-144156494D01*
X120490973Y-144145100D01*
X120490963Y-144145100D01*
X120488932Y-144144900D01*
X121683637Y-144144900D01*
X121722300Y-144148708D01*
X121760963Y-144144900D01*
X121760973Y-144144900D01*
X121876657Y-144133506D01*
X122025083Y-144088482D01*
X122161872Y-144015366D01*
X122281769Y-143916969D01*
X122306427Y-143886923D01*
X122570400Y-143622951D01*
X123621877Y-144674428D01*
X123646531Y-144704469D01*
X123676570Y-144729121D01*
X123766427Y-144802866D01*
X123903217Y-144875982D01*
X124051643Y-144921006D01*
X124167327Y-144932400D01*
X124167337Y-144932400D01*
X124206000Y-144936208D01*
X124244663Y-144932400D01*
X137170130Y-144932400D01*
X137276525Y-145091632D01*
X137483368Y-145298475D01*
X137726589Y-145460990D01*
X137996842Y-145572932D01*
X138283740Y-145630000D01*
X138576260Y-145630000D01*
X138863158Y-145572932D01*
X139133411Y-145460990D01*
X139376632Y-145298475D01*
X139508487Y-145166620D01*
X139530498Y-145239180D01*
X139589463Y-145349494D01*
X139668815Y-145446185D01*
X139765506Y-145525537D01*
X139875820Y-145584502D01*
X139995518Y-145620812D01*
X140120000Y-145633072D01*
X141820000Y-145633072D01*
X141944482Y-145620812D01*
X142064180Y-145584502D01*
X142174494Y-145525537D01*
X142271185Y-145446185D01*
X142350537Y-145349494D01*
X142409502Y-145239180D01*
X142445812Y-145119482D01*
X142458072Y-144995000D01*
X142458072Y-143295000D01*
X142445812Y-143170518D01*
X142409502Y-143050820D01*
X142350537Y-142940506D01*
X142271185Y-142843815D01*
X142174494Y-142764463D01*
X142064180Y-142705498D01*
X141944482Y-142669188D01*
X141820000Y-142656928D01*
X141757400Y-142656928D01*
X141757400Y-122138072D01*
X141820000Y-122138072D01*
X141944482Y-122125812D01*
X142064180Y-122089502D01*
X142174494Y-122030537D01*
X142271185Y-121951185D01*
X142350537Y-121854494D01*
X142409502Y-121744180D01*
X142445812Y-121624482D01*
X142458072Y-121500000D01*
X142458072Y-121437400D01*
X145622641Y-121437400D01*
X145581000Y-121646740D01*
X145581000Y-121939260D01*
X145638068Y-122226158D01*
X145750010Y-122496411D01*
X145912525Y-122739632D01*
X146119368Y-122946475D01*
X146362589Y-123108990D01*
X146632842Y-123220932D01*
X146919740Y-123278000D01*
X147212260Y-123278000D01*
X147499158Y-123220932D01*
X147769411Y-123108990D01*
X148012632Y-122946475D01*
X148219475Y-122739632D01*
X148381990Y-122496411D01*
X148493932Y-122226158D01*
X148551000Y-121939260D01*
X148551000Y-121646740D01*
X148493932Y-121359842D01*
X148381990Y-121089589D01*
X148219475Y-120846368D01*
X148087620Y-120714513D01*
X148160180Y-120692502D01*
X148270494Y-120633537D01*
X148367185Y-120554185D01*
X148446537Y-120457494D01*
X148505502Y-120347180D01*
X148541812Y-120227482D01*
X148554072Y-120103000D01*
X148554072Y-118403000D01*
X148541812Y-118278518D01*
X148505502Y-118158820D01*
X148446537Y-118048506D01*
X148367185Y-117951815D01*
X148270494Y-117872463D01*
X148160180Y-117813498D01*
X148040482Y-117777188D01*
X147916000Y-117764928D01*
X146216000Y-117764928D01*
X146091518Y-117777188D01*
X145971820Y-117813498D01*
X145861506Y-117872463D01*
X145764815Y-117951815D01*
X145685463Y-118048506D01*
X145626498Y-118158820D01*
X145590188Y-118278518D01*
X145577928Y-118403000D01*
X145577928Y-119627522D01*
X145342850Y-119862600D01*
X142458072Y-119862600D01*
X142458072Y-119800000D01*
X142445812Y-119675518D01*
X142409502Y-119555820D01*
X142350537Y-119445506D01*
X142271185Y-119348815D01*
X142174494Y-119269463D01*
X142064180Y-119210498D01*
X141944482Y-119174188D01*
X141820000Y-119161928D01*
X141757400Y-119161928D01*
X141757400Y-98643072D01*
X141820000Y-98643072D01*
X141944482Y-98630812D01*
X142064180Y-98594502D01*
X142174494Y-98535537D01*
X142271185Y-98456185D01*
X142350537Y-98359494D01*
X142409502Y-98249180D01*
X142445812Y-98129482D01*
X142458072Y-98005000D01*
X142458072Y-96305000D01*
X142445812Y-96180518D01*
X142409502Y-96060820D01*
X142350537Y-95950506D01*
X142271185Y-95853815D01*
X142174494Y-95774463D01*
X142064180Y-95715498D01*
X141944482Y-95679188D01*
X141820000Y-95666928D01*
X140120000Y-95666928D01*
X139995518Y-95679188D01*
X139875820Y-95715498D01*
X139765506Y-95774463D01*
X139668815Y-95853815D01*
X139589463Y-95950506D01*
X139530498Y-96060820D01*
X139508487Y-96133380D01*
X139376632Y-96001525D01*
X139133411Y-95839010D01*
X138863158Y-95727068D01*
X138576260Y-95670000D01*
X138283740Y-95670000D01*
X137996842Y-95727068D01*
X137726589Y-95839010D01*
X137483368Y-96001525D01*
X137276525Y-96208368D01*
X137170130Y-96367600D01*
X124501351Y-96367600D01*
X124001823Y-95868072D01*
X124125000Y-95868072D01*
X124249482Y-95855812D01*
X124369180Y-95819502D01*
X124479494Y-95760537D01*
X124522796Y-95725000D01*
X125771928Y-95725000D01*
X125784188Y-95849482D01*
X125820498Y-95969180D01*
X125879463Y-96079494D01*
X125958815Y-96176185D01*
X126055506Y-96255537D01*
X126165820Y-96314502D01*
X126285518Y-96350812D01*
X126410000Y-96363072D01*
X126561750Y-96360000D01*
X126720500Y-96201250D01*
X126720500Y-95377000D01*
X125933750Y-95377000D01*
X125775000Y-95535750D01*
X125771928Y-95725000D01*
X124522796Y-95725000D01*
X124576185Y-95681185D01*
X124655537Y-95584494D01*
X124714502Y-95474180D01*
X124750812Y-95354482D01*
X124763072Y-95230000D01*
X124763072Y-93820000D01*
X125771928Y-93820000D01*
X125784188Y-93944482D01*
X125820498Y-94064180D01*
X125879463Y-94174494D01*
X125958815Y-94271185D01*
X125990880Y-94297500D01*
X125958815Y-94323815D01*
X125879463Y-94420506D01*
X125820498Y-94530820D01*
X125784188Y-94650518D01*
X125771928Y-94775000D01*
X125775000Y-94964250D01*
X125933750Y-95123000D01*
X126720500Y-95123000D01*
X126720500Y-94298750D01*
X126719250Y-94297500D01*
X126720500Y-94296250D01*
X126720500Y-93472000D01*
X125933750Y-93472000D01*
X125775000Y-93630750D01*
X125771928Y-93820000D01*
X124763072Y-93820000D01*
X124763072Y-93680000D01*
X124750812Y-93555518D01*
X124714502Y-93435820D01*
X124655537Y-93325506D01*
X124576185Y-93228815D01*
X124479494Y-93149463D01*
X124369180Y-93090498D01*
X124249482Y-93054188D01*
X124125000Y-93041928D01*
X123525000Y-93041928D01*
X123400518Y-93054188D01*
X123280820Y-93090498D01*
X123190000Y-93139043D01*
X123099180Y-93090498D01*
X122979482Y-93054188D01*
X122855000Y-93041928D01*
X122255000Y-93041928D01*
X122130518Y-93054188D01*
X122010820Y-93090498D01*
X121920000Y-93139043D01*
X121829180Y-93090498D01*
X121709482Y-93054188D01*
X121585000Y-93041928D01*
X121570750Y-93045000D01*
X121412000Y-93203750D01*
X121412000Y-94328000D01*
X121432000Y-94328000D01*
X121432000Y-94582000D01*
X121412000Y-94582000D01*
X121412000Y-94602000D01*
X121158000Y-94602000D01*
X121158000Y-94582000D01*
X121138000Y-94582000D01*
X121138000Y-94328000D01*
X121158000Y-94328000D01*
X121158000Y-93203750D01*
X120999250Y-93045000D01*
X120985000Y-93041928D01*
X120860518Y-93054188D01*
X120740820Y-93090498D01*
X120650000Y-93139043D01*
X120559180Y-93090498D01*
X120439482Y-93054188D01*
X120315000Y-93041928D01*
X119715000Y-93041928D01*
X119590518Y-93054188D01*
X119470820Y-93090498D01*
X119360506Y-93149463D01*
X119263815Y-93228815D01*
X119184463Y-93325506D01*
X119125498Y-93435820D01*
X119089188Y-93555518D01*
X119076928Y-93680000D01*
X119076928Y-95230000D01*
X119089188Y-95354482D01*
X119125498Y-95474180D01*
X119182114Y-95580100D01*
X117732656Y-95580100D01*
X117702115Y-95542885D01*
X117572275Y-95436329D01*
X117424142Y-95357150D01*
X117263408Y-95308392D01*
X117096250Y-95291928D01*
X116583750Y-95291928D01*
X116416592Y-95308392D01*
X116255858Y-95357150D01*
X116107725Y-95436329D01*
X115977885Y-95542885D01*
X115871329Y-95672725D01*
X115792150Y-95820858D01*
X115743392Y-95981592D01*
X115726928Y-96148750D01*
X115726928Y-96412790D01*
X115413072Y-96412790D01*
X115413072Y-96148750D01*
X115396608Y-95981592D01*
X115347850Y-95820858D01*
X115268671Y-95672725D01*
X115162115Y-95542885D01*
X115087400Y-95481569D01*
X115087400Y-95417729D01*
X115087821Y-95417099D01*
X115154836Y-95255312D01*
X115189000Y-95083559D01*
X115189000Y-94908441D01*
X115154836Y-94736688D01*
X115087821Y-94574901D01*
X114990531Y-94429296D01*
X114866704Y-94305469D01*
X114721099Y-94208179D01*
X114559312Y-94141164D01*
X114387559Y-94107000D01*
X114212441Y-94107000D01*
X114040688Y-94141164D01*
X113878901Y-94208179D01*
X113733296Y-94305469D01*
X113609469Y-94429296D01*
X113512179Y-94574901D01*
X113445164Y-94736688D01*
X113411000Y-94908441D01*
X113411000Y-95083559D01*
X113445164Y-95255312D01*
X113512179Y-95417099D01*
X113512601Y-95417730D01*
X113512601Y-95481568D01*
X113437885Y-95542885D01*
X113331329Y-95672725D01*
X113252150Y-95820858D01*
X113203392Y-95981592D01*
X113186928Y-96148750D01*
X113186928Y-96586250D01*
X113203392Y-96753408D01*
X113252150Y-96914142D01*
X113331329Y-97062275D01*
X113407426Y-97155000D01*
X113331329Y-97247725D01*
X113252150Y-97395858D01*
X113203392Y-97556592D01*
X113186928Y-97723750D01*
X113186928Y-98161250D01*
X113203392Y-98328408D01*
X113252150Y-98489142D01*
X113320812Y-98617600D01*
X112263072Y-98617600D01*
X112263072Y-97905000D01*
X112250812Y-97780518D01*
X112214502Y-97660820D01*
X112155537Y-97550506D01*
X112076185Y-97453815D01*
X111979494Y-97374463D01*
X111869180Y-97315498D01*
X111749482Y-97279188D01*
X111625000Y-97266928D01*
X110625000Y-97266928D01*
X110500518Y-97279188D01*
X110380820Y-97315498D01*
X110270506Y-97374463D01*
X110236182Y-97402632D01*
X109605398Y-96771848D01*
X109615537Y-96759494D01*
X109674502Y-96649180D01*
X109710812Y-96529482D01*
X109723072Y-96405000D01*
X109723072Y-93405000D01*
X109710812Y-93280518D01*
X109674502Y-93160820D01*
X109615537Y-93050506D01*
X109536185Y-92953815D01*
X109439494Y-92874463D01*
X109431145Y-92870000D01*
X125771928Y-92870000D01*
X125775000Y-93059250D01*
X125933750Y-93218000D01*
X126720500Y-93218000D01*
X126720500Y-92393750D01*
X126974500Y-92393750D01*
X126974500Y-93218000D01*
X126994500Y-93218000D01*
X126994500Y-93472000D01*
X126974500Y-93472000D01*
X126974500Y-94296250D01*
X126975750Y-94297500D01*
X126974500Y-94298750D01*
X126974500Y-95123000D01*
X126994500Y-95123000D01*
X126994500Y-95377000D01*
X126974500Y-95377000D01*
X126974500Y-96201250D01*
X127133250Y-96360000D01*
X127285000Y-96363072D01*
X127409482Y-96350812D01*
X127529180Y-96314502D01*
X127639494Y-96255537D01*
X127706070Y-96200900D01*
X127727725Y-96218671D01*
X127875858Y-96297850D01*
X128036592Y-96346608D01*
X128203750Y-96363072D01*
X128641250Y-96363072D01*
X128808408Y-96346608D01*
X128969142Y-96297850D01*
X129117275Y-96218671D01*
X129247115Y-96112115D01*
X129353671Y-95982275D01*
X129432850Y-95834142D01*
X129481608Y-95673408D01*
X129498072Y-95506250D01*
X129498072Y-94993750D01*
X129481608Y-94826592D01*
X129432850Y-94665858D01*
X129353671Y-94517725D01*
X129247115Y-94387885D01*
X129209900Y-94357344D01*
X129209900Y-94237656D01*
X129247115Y-94207115D01*
X129353671Y-94077275D01*
X129432850Y-93929142D01*
X129481608Y-93768408D01*
X129498072Y-93601250D01*
X129498072Y-93088750D01*
X129481608Y-92921592D01*
X129432850Y-92760858D01*
X129353671Y-92612725D01*
X129247115Y-92482885D01*
X129209900Y-92452344D01*
X129209900Y-92054554D01*
X129251836Y-91953312D01*
X129286000Y-91781559D01*
X129286000Y-91606441D01*
X129251836Y-91434688D01*
X129184821Y-91272901D01*
X129087531Y-91127296D01*
X128963704Y-91003469D01*
X128818099Y-90906179D01*
X128656312Y-90839164D01*
X128484559Y-90805000D01*
X128309441Y-90805000D01*
X128137688Y-90839164D01*
X127975901Y-90906179D01*
X127830296Y-91003469D01*
X127706469Y-91127296D01*
X127609179Y-91272901D01*
X127542164Y-91434688D01*
X127508000Y-91606441D01*
X127508000Y-91781559D01*
X127542164Y-91953312D01*
X127609179Y-92115099D01*
X127635101Y-92153894D01*
X127635101Y-92337115D01*
X127529180Y-92280498D01*
X127409482Y-92244188D01*
X127285000Y-92231928D01*
X127133250Y-92235000D01*
X126974500Y-92393750D01*
X126720500Y-92393750D01*
X126561750Y-92235000D01*
X126410000Y-92231928D01*
X126285518Y-92244188D01*
X126165820Y-92280498D01*
X126055506Y-92339463D01*
X125958815Y-92418815D01*
X125879463Y-92515506D01*
X125820498Y-92625820D01*
X125784188Y-92745518D01*
X125771928Y-92870000D01*
X109431145Y-92870000D01*
X109329180Y-92815498D01*
X109209482Y-92779188D01*
X109085000Y-92766928D01*
X108085000Y-92766928D01*
X107960518Y-92779188D01*
X107840820Y-92815498D01*
X107730506Y-92874463D01*
X107633815Y-92953815D01*
X107554463Y-93050506D01*
X107495498Y-93160820D01*
X107459188Y-93280518D01*
X107446928Y-93405000D01*
X107446928Y-96405000D01*
X107459188Y-96529482D01*
X107495498Y-96649180D01*
X107554463Y-96759494D01*
X107633815Y-96856185D01*
X107730506Y-96935537D01*
X107804642Y-96975164D01*
X107808995Y-97019357D01*
X107854018Y-97167782D01*
X107871341Y-97200190D01*
X107927135Y-97304572D01*
X108025532Y-97424469D01*
X108055573Y-97449123D01*
X109986928Y-99380480D01*
X109986928Y-100905000D01*
X109999188Y-101029482D01*
X110035498Y-101149180D01*
X110094463Y-101259494D01*
X110173815Y-101356185D01*
X110270506Y-101435537D01*
X110380820Y-101494502D01*
X110500518Y-101530812D01*
X110625000Y-101543072D01*
X111625000Y-101543072D01*
X111749482Y-101530812D01*
X111869180Y-101494502D01*
X111979494Y-101435537D01*
X112076185Y-101356185D01*
X112155537Y-101259494D01*
X112214502Y-101149180D01*
X112250812Y-101029482D01*
X112263072Y-100905000D01*
X112263072Y-100192400D01*
X115338837Y-100192400D01*
X115377500Y-100196208D01*
X115416163Y-100192400D01*
X115416173Y-100192400D01*
X115531857Y-100181006D01*
X115680283Y-100135982D01*
X115817072Y-100062866D01*
X115936969Y-99964469D01*
X115961627Y-99934423D01*
X116877979Y-99018072D01*
X117096250Y-99018072D01*
X117263408Y-99001608D01*
X117424142Y-98952850D01*
X117572275Y-98873671D01*
X117702115Y-98767115D01*
X117732656Y-98729900D01*
X119182114Y-98729900D01*
X119125498Y-98835820D01*
X119089188Y-98955518D01*
X119076928Y-99080000D01*
X119076928Y-100630000D01*
X119089188Y-100754482D01*
X119125498Y-100874180D01*
X119184463Y-100984494D01*
X119263815Y-101081185D01*
X119360506Y-101160537D01*
X119470820Y-101219502D01*
X119590518Y-101255812D01*
X119715000Y-101268072D01*
X120315000Y-101268072D01*
X120439482Y-101255812D01*
X120559180Y-101219502D01*
X120650000Y-101170957D01*
X120740820Y-101219502D01*
X120860518Y-101255812D01*
X120985000Y-101268072D01*
X121585000Y-101268072D01*
X121709482Y-101255812D01*
X121829180Y-101219502D01*
X121920000Y-101170957D01*
X122010820Y-101219502D01*
X122130518Y-101255812D01*
X122255000Y-101268072D01*
X122855000Y-101268072D01*
X122979482Y-101255812D01*
X123037601Y-101238182D01*
X123037601Y-101307327D01*
X123033792Y-101346000D01*
X123048995Y-101500357D01*
X123094018Y-101648782D01*
X123150450Y-101754357D01*
X123167135Y-101785572D01*
X123265532Y-101905469D01*
X123295572Y-101930122D01*
X123494876Y-102129427D01*
X123519531Y-102159469D01*
X123639428Y-102257866D01*
X123776217Y-102330982D01*
X123924643Y-102376006D01*
X124040327Y-102387400D01*
X124040336Y-102387400D01*
X124078999Y-102391208D01*
X124117662Y-102387400D01*
X126060101Y-102387400D01*
X126060101Y-102509445D01*
X126018164Y-102610688D01*
X125984000Y-102782441D01*
X125984000Y-102957559D01*
X126018164Y-103129312D01*
X126085179Y-103291099D01*
X126182469Y-103436704D01*
X126306296Y-103560531D01*
X126451901Y-103657821D01*
X126613688Y-103724836D01*
X126785441Y-103759000D01*
X126960559Y-103759000D01*
X127132312Y-103724836D01*
X127294099Y-103657821D01*
X127439704Y-103560531D01*
X127563531Y-103436704D01*
X127635000Y-103329743D01*
X127706469Y-103436704D01*
X127830296Y-103560531D01*
X127975901Y-103657821D01*
X128137688Y-103724836D01*
X128309441Y-103759000D01*
X128484559Y-103759000D01*
X128656312Y-103724836D01*
X128818099Y-103657821D01*
X128963704Y-103560531D01*
X129087531Y-103436704D01*
X129184821Y-103291099D01*
X129251836Y-103129312D01*
X129286000Y-102957559D01*
X129286000Y-102782441D01*
X129251836Y-102610688D01*
X129209900Y-102509446D01*
X129209900Y-101857656D01*
X129247115Y-101827115D01*
X129353671Y-101697275D01*
X129432850Y-101549142D01*
X129481608Y-101388408D01*
X129498072Y-101221250D01*
X129498072Y-100708750D01*
X129481608Y-100541592D01*
X129432850Y-100380858D01*
X129353671Y-100232725D01*
X129247115Y-100102885D01*
X129209900Y-100072344D01*
X129209900Y-99952656D01*
X129247115Y-99922115D01*
X129353671Y-99792275D01*
X129432850Y-99644142D01*
X129481608Y-99483408D01*
X129498072Y-99316250D01*
X129498072Y-98803750D01*
X129481608Y-98636592D01*
X129432850Y-98475858D01*
X129353671Y-98327725D01*
X129247115Y-98197885D01*
X129117275Y-98091329D01*
X128969142Y-98012150D01*
X128808408Y-97963392D01*
X128641250Y-97946928D01*
X128203750Y-97946928D01*
X128036592Y-97963392D01*
X127875858Y-98012150D01*
X127727725Y-98091329D01*
X127635000Y-98167426D01*
X127542275Y-98091329D01*
X127394142Y-98012150D01*
X127233408Y-97963392D01*
X127066250Y-97946928D01*
X126628750Y-97946928D01*
X126461592Y-97963392D01*
X126300858Y-98012150D01*
X126152725Y-98091329D01*
X126022885Y-98197885D01*
X125916329Y-98327725D01*
X125837150Y-98475858D01*
X125788392Y-98636592D01*
X125771928Y-98803750D01*
X125771928Y-99316250D01*
X125788392Y-99483408D01*
X125837150Y-99644142D01*
X125916329Y-99792275D01*
X126022885Y-99922115D01*
X126060100Y-99952656D01*
X126060100Y-100072344D01*
X126022885Y-100102885D01*
X125916329Y-100232725D01*
X125837150Y-100380858D01*
X125788392Y-100541592D01*
X125771928Y-100708750D01*
X125771928Y-100812600D01*
X124733182Y-100812600D01*
X124750812Y-100754482D01*
X124763072Y-100630000D01*
X124763072Y-99080000D01*
X124750812Y-98955518D01*
X124714502Y-98835820D01*
X124655537Y-98725506D01*
X124576185Y-98628815D01*
X124479494Y-98549463D01*
X124369180Y-98490498D01*
X124249482Y-98454188D01*
X124125000Y-98441928D01*
X123525000Y-98441928D01*
X123400518Y-98454188D01*
X123290570Y-98487540D01*
X123285982Y-98472417D01*
X123212866Y-98335628D01*
X123170491Y-98283994D01*
X123139122Y-98245770D01*
X123139119Y-98245767D01*
X123114469Y-98215731D01*
X123084434Y-98191082D01*
X121999571Y-97106221D01*
X122025083Y-97098482D01*
X122161872Y-97025366D01*
X122281769Y-96926969D01*
X122306427Y-96896923D01*
X122555000Y-96648351D01*
X123591077Y-97684428D01*
X123615731Y-97714469D01*
X123645770Y-97739121D01*
X123735627Y-97812866D01*
X123872417Y-97885982D01*
X124020843Y-97931006D01*
X124136527Y-97942400D01*
X124136537Y-97942400D01*
X124175200Y-97946208D01*
X124213863Y-97942400D01*
X137170130Y-97942400D01*
X137276525Y-98101632D01*
X137483368Y-98308475D01*
X137726589Y-98470990D01*
X137996842Y-98582932D01*
X138283740Y-98640000D01*
X138576260Y-98640000D01*
X138863158Y-98582932D01*
X139133411Y-98470990D01*
X139376632Y-98308475D01*
X139508487Y-98176620D01*
X139530498Y-98249180D01*
X139589463Y-98359494D01*
X139668815Y-98456185D01*
X139765506Y-98535537D01*
X139875820Y-98594502D01*
X139995518Y-98630812D01*
X140120000Y-98643072D01*
X140182601Y-98643072D01*
X140182600Y-119161928D01*
X140120000Y-119161928D01*
X139995518Y-119174188D01*
X139875820Y-119210498D01*
X139765506Y-119269463D01*
X139668815Y-119348815D01*
X139589463Y-119445506D01*
X139530498Y-119555820D01*
X139508487Y-119628380D01*
X139376632Y-119496525D01*
X139133411Y-119334010D01*
X138863158Y-119222068D01*
X138576260Y-119165000D01*
X138283740Y-119165000D01*
X137996842Y-119222068D01*
X137726589Y-119334010D01*
X137483368Y-119496525D01*
X137276525Y-119703368D01*
X137170130Y-119862600D01*
X124405152Y-119862600D01*
X123905623Y-119363072D01*
X124125000Y-119363072D01*
X124249482Y-119350812D01*
X124369180Y-119314502D01*
X124479494Y-119255537D01*
X124522796Y-119220000D01*
X125771928Y-119220000D01*
X125784188Y-119344482D01*
X125820498Y-119464180D01*
X125879463Y-119574494D01*
X125958815Y-119671185D01*
X126055506Y-119750537D01*
X126165820Y-119809502D01*
X126285518Y-119845812D01*
X126410000Y-119858072D01*
X126561750Y-119855000D01*
X126720500Y-119696250D01*
X126720500Y-118872000D01*
X125933750Y-118872000D01*
X125775000Y-119030750D01*
X125771928Y-119220000D01*
X124522796Y-119220000D01*
X124576185Y-119176185D01*
X124655537Y-119079494D01*
X124714502Y-118969180D01*
X124750812Y-118849482D01*
X124763072Y-118725000D01*
X124763072Y-117315000D01*
X125771928Y-117315000D01*
X125784188Y-117439482D01*
X125820498Y-117559180D01*
X125879463Y-117669494D01*
X125958815Y-117766185D01*
X125990880Y-117792500D01*
X125958815Y-117818815D01*
X125879463Y-117915506D01*
X125820498Y-118025820D01*
X125784188Y-118145518D01*
X125771928Y-118270000D01*
X125775000Y-118459250D01*
X125933750Y-118618000D01*
X126720500Y-118618000D01*
X126720500Y-117793750D01*
X126719250Y-117792500D01*
X126720500Y-117791250D01*
X126720500Y-116967000D01*
X125933750Y-116967000D01*
X125775000Y-117125750D01*
X125771928Y-117315000D01*
X124763072Y-117315000D01*
X124763072Y-117175000D01*
X124750812Y-117050518D01*
X124714502Y-116930820D01*
X124655537Y-116820506D01*
X124576185Y-116723815D01*
X124479494Y-116644463D01*
X124369180Y-116585498D01*
X124249482Y-116549188D01*
X124125000Y-116536928D01*
X123525000Y-116536928D01*
X123400518Y-116549188D01*
X123280820Y-116585498D01*
X123190000Y-116634043D01*
X123099180Y-116585498D01*
X122979482Y-116549188D01*
X122855000Y-116536928D01*
X122255000Y-116536928D01*
X122130518Y-116549188D01*
X122010820Y-116585498D01*
X121920000Y-116634043D01*
X121829180Y-116585498D01*
X121709482Y-116549188D01*
X121585000Y-116536928D01*
X121570750Y-116540000D01*
X121412000Y-116698750D01*
X121412000Y-117823000D01*
X121432000Y-117823000D01*
X121432000Y-118077000D01*
X121412000Y-118077000D01*
X121412000Y-118097000D01*
X121158000Y-118097000D01*
X121158000Y-118077000D01*
X121138000Y-118077000D01*
X121138000Y-117823000D01*
X121158000Y-117823000D01*
X121158000Y-116698750D01*
X120999250Y-116540000D01*
X120985000Y-116536928D01*
X120860518Y-116549188D01*
X120740820Y-116585498D01*
X120650000Y-116634043D01*
X120559180Y-116585498D01*
X120439482Y-116549188D01*
X120315000Y-116536928D01*
X119715000Y-116536928D01*
X119590518Y-116549188D01*
X119470820Y-116585498D01*
X119360506Y-116644463D01*
X119263815Y-116723815D01*
X119184463Y-116820506D01*
X119125498Y-116930820D01*
X119089188Y-117050518D01*
X119076928Y-117175000D01*
X119076928Y-118725000D01*
X119089188Y-118849482D01*
X119125498Y-118969180D01*
X119182114Y-119075100D01*
X117732656Y-119075100D01*
X117702115Y-119037885D01*
X117572275Y-118931329D01*
X117424142Y-118852150D01*
X117263408Y-118803392D01*
X117096250Y-118786928D01*
X116583750Y-118786928D01*
X116416592Y-118803392D01*
X116255858Y-118852150D01*
X116107725Y-118931329D01*
X115977885Y-119037885D01*
X115947344Y-119075100D01*
X115192656Y-119075100D01*
X115162115Y-119037885D01*
X115032275Y-118931329D01*
X114884142Y-118852150D01*
X114723408Y-118803392D01*
X114556250Y-118786928D01*
X114043750Y-118786928D01*
X113876592Y-118803392D01*
X113715858Y-118852150D01*
X113567725Y-118931329D01*
X113437885Y-119037885D01*
X113331329Y-119167725D01*
X113252150Y-119315858D01*
X113203392Y-119476592D01*
X113186928Y-119643750D01*
X113186928Y-120081250D01*
X113203392Y-120248408D01*
X113252150Y-120409142D01*
X113331329Y-120557275D01*
X113407426Y-120650000D01*
X113407344Y-120650100D01*
X112626162Y-120650100D01*
X112587499Y-120646292D01*
X112548836Y-120650100D01*
X112548827Y-120650100D01*
X112433143Y-120661494D01*
X112284717Y-120706518D01*
X112147928Y-120779634D01*
X112121555Y-120801278D01*
X112058069Y-120853379D01*
X112058067Y-120853381D01*
X112028031Y-120878031D01*
X112012699Y-120896713D01*
X111979494Y-120869463D01*
X111869180Y-120810498D01*
X111749482Y-120774188D01*
X111625000Y-120761928D01*
X110625000Y-120761928D01*
X110500518Y-120774188D01*
X110380820Y-120810498D01*
X110270506Y-120869463D01*
X110236182Y-120897632D01*
X109605398Y-120266848D01*
X109615537Y-120254494D01*
X109674502Y-120144180D01*
X109710812Y-120024482D01*
X109723072Y-119900000D01*
X109723072Y-116900000D01*
X109710812Y-116775518D01*
X109674502Y-116655820D01*
X109615537Y-116545506D01*
X109536185Y-116448815D01*
X109439494Y-116369463D01*
X109431145Y-116365000D01*
X125771928Y-116365000D01*
X125775000Y-116554250D01*
X125933750Y-116713000D01*
X126720500Y-116713000D01*
X126720500Y-115888750D01*
X126974500Y-115888750D01*
X126974500Y-116713000D01*
X126994500Y-116713000D01*
X126994500Y-116967000D01*
X126974500Y-116967000D01*
X126974500Y-117791250D01*
X126975750Y-117792500D01*
X126974500Y-117793750D01*
X126974500Y-118618000D01*
X126994500Y-118618000D01*
X126994500Y-118872000D01*
X126974500Y-118872000D01*
X126974500Y-119696250D01*
X127133250Y-119855000D01*
X127285000Y-119858072D01*
X127409482Y-119845812D01*
X127529180Y-119809502D01*
X127639494Y-119750537D01*
X127706070Y-119695900D01*
X127727725Y-119713671D01*
X127875858Y-119792850D01*
X128036592Y-119841608D01*
X128203750Y-119858072D01*
X128641250Y-119858072D01*
X128808408Y-119841608D01*
X128969142Y-119792850D01*
X129117275Y-119713671D01*
X129247115Y-119607115D01*
X129353671Y-119477275D01*
X129432850Y-119329142D01*
X129481608Y-119168408D01*
X129498072Y-119001250D01*
X129498072Y-118488750D01*
X129481608Y-118321592D01*
X129432850Y-118160858D01*
X129353671Y-118012725D01*
X129247115Y-117882885D01*
X129209900Y-117852344D01*
X129209900Y-117732656D01*
X129247115Y-117702115D01*
X129353671Y-117572275D01*
X129432850Y-117424142D01*
X129481608Y-117263408D01*
X129498072Y-117096250D01*
X129498072Y-116583750D01*
X129481608Y-116416592D01*
X129432850Y-116255858D01*
X129353671Y-116107725D01*
X129247115Y-115977885D01*
X129209900Y-115947344D01*
X129209900Y-115295554D01*
X129251836Y-115194312D01*
X129286000Y-115022559D01*
X129286000Y-114847441D01*
X129251836Y-114675688D01*
X129184821Y-114513901D01*
X129087531Y-114368296D01*
X128963704Y-114244469D01*
X128818099Y-114147179D01*
X128656312Y-114080164D01*
X128484559Y-114046000D01*
X128309441Y-114046000D01*
X128137688Y-114080164D01*
X127975901Y-114147179D01*
X127830296Y-114244469D01*
X127706469Y-114368296D01*
X127609179Y-114513901D01*
X127542164Y-114675688D01*
X127508000Y-114847441D01*
X127508000Y-115022559D01*
X127542164Y-115194312D01*
X127609179Y-115356099D01*
X127635101Y-115394894D01*
X127635101Y-115832115D01*
X127529180Y-115775498D01*
X127409482Y-115739188D01*
X127285000Y-115726928D01*
X127133250Y-115730000D01*
X126974500Y-115888750D01*
X126720500Y-115888750D01*
X126561750Y-115730000D01*
X126410000Y-115726928D01*
X126285518Y-115739188D01*
X126165820Y-115775498D01*
X126055506Y-115834463D01*
X125958815Y-115913815D01*
X125879463Y-116010506D01*
X125820498Y-116120820D01*
X125784188Y-116240518D01*
X125771928Y-116365000D01*
X109431145Y-116365000D01*
X109329180Y-116310498D01*
X109209482Y-116274188D01*
X109085000Y-116261928D01*
X108085000Y-116261928D01*
X107960518Y-116274188D01*
X107840820Y-116310498D01*
X107730506Y-116369463D01*
X107633815Y-116448815D01*
X107554463Y-116545506D01*
X107495498Y-116655820D01*
X107459188Y-116775518D01*
X107446928Y-116900000D01*
X107446928Y-119900000D01*
X107459188Y-120024482D01*
X107495498Y-120144180D01*
X107554463Y-120254494D01*
X107633815Y-120351185D01*
X107730506Y-120430537D01*
X107804642Y-120470164D01*
X107808995Y-120514357D01*
X107854018Y-120662782D01*
X107895866Y-120741072D01*
X107927135Y-120799572D01*
X108025532Y-120919469D01*
X108055573Y-120944123D01*
X109986928Y-122875480D01*
X109986928Y-124400000D01*
X109999188Y-124524482D01*
X110035498Y-124644180D01*
X110094463Y-124754494D01*
X110173815Y-124851185D01*
X110270506Y-124930537D01*
X110380820Y-124989502D01*
X110500518Y-125025812D01*
X110625000Y-125038072D01*
X111625000Y-125038072D01*
X111749482Y-125025812D01*
X111869180Y-124989502D01*
X111979494Y-124930537D01*
X112076185Y-124851185D01*
X112155537Y-124754494D01*
X112214502Y-124644180D01*
X112250812Y-124524482D01*
X112263072Y-124400000D01*
X112263072Y-122875479D01*
X112913652Y-122224900D01*
X113407344Y-122224900D01*
X113437885Y-122262115D01*
X113567725Y-122368671D01*
X113715858Y-122447850D01*
X113876592Y-122496608D01*
X114043750Y-122513072D01*
X114556250Y-122513072D01*
X114723408Y-122496608D01*
X114884142Y-122447850D01*
X115032275Y-122368671D01*
X115162115Y-122262115D01*
X115192656Y-122224900D01*
X115947344Y-122224900D01*
X115977885Y-122262115D01*
X116107725Y-122368671D01*
X116255858Y-122447850D01*
X116416592Y-122496608D01*
X116583750Y-122513072D01*
X117096250Y-122513072D01*
X117263408Y-122496608D01*
X117424142Y-122447850D01*
X117572275Y-122368671D01*
X117702115Y-122262115D01*
X117732656Y-122224900D01*
X119182114Y-122224900D01*
X119125498Y-122330820D01*
X119089188Y-122450518D01*
X119076928Y-122575000D01*
X119076928Y-124125000D01*
X119089188Y-124249482D01*
X119125498Y-124369180D01*
X119184463Y-124479494D01*
X119263815Y-124576185D01*
X119360506Y-124655537D01*
X119470820Y-124714502D01*
X119590518Y-124750812D01*
X119715000Y-124763072D01*
X120315000Y-124763072D01*
X120439482Y-124750812D01*
X120559180Y-124714502D01*
X120650000Y-124665957D01*
X120740820Y-124714502D01*
X120860518Y-124750812D01*
X120985000Y-124763072D01*
X121585000Y-124763072D01*
X121709482Y-124750812D01*
X121767601Y-124733182D01*
X121767601Y-124927270D01*
X121767179Y-124927901D01*
X121700164Y-125089688D01*
X121666000Y-125261441D01*
X121666000Y-125436559D01*
X121700164Y-125608312D01*
X121767179Y-125770099D01*
X121864469Y-125915704D01*
X121988296Y-126039531D01*
X122133901Y-126136821D01*
X122295688Y-126203836D01*
X122467441Y-126238000D01*
X122642559Y-126238000D01*
X122814312Y-126203836D01*
X122976099Y-126136821D01*
X123121704Y-126039531D01*
X123245531Y-125915704D01*
X123342821Y-125770099D01*
X123409836Y-125608312D01*
X123442342Y-125444893D01*
X123621876Y-125624427D01*
X123646531Y-125654469D01*
X123766428Y-125752866D01*
X123903217Y-125825982D01*
X124051643Y-125871006D01*
X124167327Y-125882400D01*
X124167336Y-125882400D01*
X124205999Y-125886208D01*
X124244662Y-125882400D01*
X126085600Y-125882400D01*
X126085600Y-125943271D01*
X126085179Y-125943901D01*
X126018164Y-126105688D01*
X125984000Y-126277441D01*
X125984000Y-126452559D01*
X126018164Y-126624312D01*
X126085179Y-126786099D01*
X126182469Y-126931704D01*
X126306296Y-127055531D01*
X126451901Y-127152821D01*
X126613688Y-127219836D01*
X126785441Y-127254000D01*
X126960559Y-127254000D01*
X127132312Y-127219836D01*
X127294099Y-127152821D01*
X127439704Y-127055531D01*
X127563531Y-126931704D01*
X127635000Y-126824743D01*
X127706469Y-126931704D01*
X127830296Y-127055531D01*
X127975901Y-127152821D01*
X128137688Y-127219836D01*
X128309441Y-127254000D01*
X128484559Y-127254000D01*
X128656312Y-127219836D01*
X128818099Y-127152821D01*
X128963704Y-127055531D01*
X129087531Y-126931704D01*
X129184821Y-126786099D01*
X129251836Y-126624312D01*
X129286000Y-126452559D01*
X129286000Y-126277441D01*
X129251836Y-126105688D01*
X129209900Y-126004446D01*
X129209900Y-125352656D01*
X129247115Y-125322115D01*
X129353671Y-125192275D01*
X129432850Y-125044142D01*
X129481608Y-124883408D01*
X129498072Y-124716250D01*
X129498072Y-124203750D01*
X129481608Y-124036592D01*
X129432850Y-123875858D01*
X129353671Y-123727725D01*
X129247115Y-123597885D01*
X129209900Y-123567344D01*
X129209900Y-123447656D01*
X129247115Y-123417115D01*
X129353671Y-123287275D01*
X129432850Y-123139142D01*
X129481608Y-122978408D01*
X129498072Y-122811250D01*
X129498072Y-122298750D01*
X129481608Y-122131592D01*
X129432850Y-121970858D01*
X129353671Y-121822725D01*
X129247115Y-121692885D01*
X129117275Y-121586329D01*
X128969142Y-121507150D01*
X128808408Y-121458392D01*
X128641250Y-121441928D01*
X128203750Y-121441928D01*
X128036592Y-121458392D01*
X127875858Y-121507150D01*
X127727725Y-121586329D01*
X127635000Y-121662426D01*
X127542275Y-121586329D01*
X127394142Y-121507150D01*
X127233408Y-121458392D01*
X127066250Y-121441928D01*
X126628750Y-121441928D01*
X126461592Y-121458392D01*
X126300858Y-121507150D01*
X126152725Y-121586329D01*
X126022885Y-121692885D01*
X125916329Y-121822725D01*
X125837150Y-121970858D01*
X125788392Y-122131592D01*
X125771928Y-122298750D01*
X125771928Y-122811250D01*
X125788392Y-122978408D01*
X125837150Y-123139142D01*
X125916329Y-123287275D01*
X126022885Y-123417115D01*
X126060100Y-123447657D01*
X126060101Y-123567343D01*
X126022885Y-123597885D01*
X125916329Y-123727725D01*
X125837150Y-123875858D01*
X125788392Y-124036592D01*
X125771928Y-124203750D01*
X125771928Y-124307600D01*
X124733182Y-124307600D01*
X124750812Y-124249482D01*
X124763072Y-124125000D01*
X124763072Y-122575000D01*
X124750812Y-122450518D01*
X124714502Y-122330820D01*
X124655537Y-122220506D01*
X124576185Y-122123815D01*
X124479494Y-122044463D01*
X124369180Y-121985498D01*
X124249482Y-121949188D01*
X124125000Y-121936928D01*
X123525000Y-121936928D01*
X123400518Y-121949188D01*
X123280820Y-121985498D01*
X123190000Y-122034043D01*
X123099180Y-121985498D01*
X122979482Y-121949188D01*
X122855000Y-121936928D01*
X122255000Y-121936928D01*
X122130518Y-121949188D01*
X122010820Y-121985498D01*
X121920000Y-122034043D01*
X121829180Y-121985498D01*
X121709482Y-121949188D01*
X121585000Y-121936928D01*
X121339121Y-121936928D01*
X120310269Y-120908077D01*
X120285611Y-120878031D01*
X120165714Y-120779634D01*
X120028925Y-120706518D01*
X119880499Y-120661494D01*
X119764815Y-120650100D01*
X119764805Y-120650100D01*
X119762774Y-120649900D01*
X121779837Y-120649900D01*
X121818500Y-120653708D01*
X121857163Y-120649900D01*
X121857173Y-120649900D01*
X121972857Y-120638506D01*
X122121283Y-120593482D01*
X122258072Y-120520366D01*
X122377969Y-120421969D01*
X122402627Y-120391923D01*
X122555000Y-120239551D01*
X123494881Y-121179433D01*
X123519531Y-121209469D01*
X123549567Y-121234119D01*
X123549569Y-121234121D01*
X123600012Y-121275518D01*
X123639428Y-121307866D01*
X123776217Y-121380982D01*
X123924643Y-121426006D01*
X124040327Y-121437400D01*
X124040336Y-121437400D01*
X124078999Y-121441208D01*
X124117662Y-121437400D01*
X137170130Y-121437400D01*
X137276525Y-121596632D01*
X137483368Y-121803475D01*
X137726589Y-121965990D01*
X137996842Y-122077932D01*
X138283740Y-122135000D01*
X138576260Y-122135000D01*
X138863158Y-122077932D01*
X139133411Y-121965990D01*
X139376632Y-121803475D01*
X139508487Y-121671620D01*
X139530498Y-121744180D01*
X139589463Y-121854494D01*
X139668815Y-121951185D01*
X139765506Y-122030537D01*
X139875820Y-122089502D01*
X139995518Y-122125812D01*
X140120000Y-122138072D01*
X140182600Y-122138072D01*
X140182601Y-142656928D01*
X140120000Y-142656928D01*
X139995518Y-142669188D01*
X139875820Y-142705498D01*
X139765506Y-142764463D01*
X139668815Y-142843815D01*
X139589463Y-142940506D01*
X139530498Y-143050820D01*
X139508487Y-143123380D01*
X139376632Y-142991525D01*
X139133411Y-142829010D01*
X138863158Y-142717068D01*
X138576260Y-142660000D01*
X138283740Y-142660000D01*
X137996842Y-142717068D01*
X137726589Y-142829010D01*
X137483368Y-142991525D01*
X137276525Y-143198368D01*
X137170130Y-143357600D01*
X124532151Y-143357600D01*
X124032623Y-142858072D01*
X124125000Y-142858072D01*
X124249482Y-142845812D01*
X124369180Y-142809502D01*
X124479494Y-142750537D01*
X124522796Y-142715000D01*
X125771928Y-142715000D01*
X125784188Y-142839482D01*
X125820498Y-142959180D01*
X125879463Y-143069494D01*
X125958815Y-143166185D01*
X126055506Y-143245537D01*
X126165820Y-143304502D01*
X126285518Y-143340812D01*
X126410000Y-143353072D01*
X126561750Y-143350000D01*
X126720500Y-143191250D01*
X126720500Y-142367000D01*
X125933750Y-142367000D01*
X125775000Y-142525750D01*
X125771928Y-142715000D01*
X124522796Y-142715000D01*
X124576185Y-142671185D01*
X124655537Y-142574494D01*
X124714502Y-142464180D01*
X124750812Y-142344482D01*
X124763072Y-142220000D01*
X124763072Y-140810000D01*
X125771928Y-140810000D01*
X125784188Y-140934482D01*
X125820498Y-141054180D01*
X125879463Y-141164494D01*
X125958815Y-141261185D01*
X125990880Y-141287500D01*
X125958815Y-141313815D01*
X125879463Y-141410506D01*
X125820498Y-141520820D01*
X125784188Y-141640518D01*
X125771928Y-141765000D01*
X125775000Y-141954250D01*
X125933750Y-142113000D01*
X126720500Y-142113000D01*
X126720500Y-141288750D01*
X126719250Y-141287500D01*
X126720500Y-141286250D01*
X126720500Y-140462000D01*
X125933750Y-140462000D01*
X125775000Y-140620750D01*
X125771928Y-140810000D01*
X124763072Y-140810000D01*
X124763072Y-140670000D01*
X124750812Y-140545518D01*
X124714502Y-140425820D01*
X124655537Y-140315506D01*
X124576185Y-140218815D01*
X124479494Y-140139463D01*
X124369180Y-140080498D01*
X124249482Y-140044188D01*
X124125000Y-140031928D01*
X123525000Y-140031928D01*
X123400518Y-140044188D01*
X123280820Y-140080498D01*
X123190000Y-140129043D01*
X123099180Y-140080498D01*
X122979482Y-140044188D01*
X122855000Y-140031928D01*
X122255000Y-140031928D01*
X122130518Y-140044188D01*
X122010820Y-140080498D01*
X121920000Y-140129043D01*
X121829180Y-140080498D01*
X121709482Y-140044188D01*
X121585000Y-140031928D01*
X121570750Y-140035000D01*
X121412000Y-140193750D01*
X121412000Y-141318000D01*
X121432000Y-141318000D01*
X121432000Y-141572000D01*
X121412000Y-141572000D01*
X121412000Y-141592000D01*
X121158000Y-141592000D01*
X121158000Y-141572000D01*
X121138000Y-141572000D01*
X121138000Y-141318000D01*
X121158000Y-141318000D01*
X121158000Y-140193750D01*
X120999250Y-140035000D01*
X120985000Y-140031928D01*
X120860518Y-140044188D01*
X120740820Y-140080498D01*
X120650000Y-140129043D01*
X120559180Y-140080498D01*
X120439482Y-140044188D01*
X120315000Y-140031928D01*
X119715000Y-140031928D01*
X119590518Y-140044188D01*
X119470820Y-140080498D01*
X119360506Y-140139463D01*
X119263815Y-140218815D01*
X119184463Y-140315506D01*
X119125498Y-140425820D01*
X119089188Y-140545518D01*
X119076928Y-140670000D01*
X119076928Y-142220000D01*
X119089188Y-142344482D01*
X119125498Y-142464180D01*
X119182114Y-142570100D01*
X117732656Y-142570100D01*
X117702115Y-142532885D01*
X117572275Y-142426329D01*
X117424142Y-142347150D01*
X117263408Y-142298392D01*
X117096250Y-142281928D01*
X116583750Y-142281928D01*
X116416592Y-142298392D01*
X116255858Y-142347150D01*
X116107725Y-142426329D01*
X115977885Y-142532885D01*
X115871329Y-142662725D01*
X115792150Y-142810858D01*
X115743392Y-142971592D01*
X115726928Y-143138750D01*
X115726928Y-143357021D01*
X115726349Y-143357600D01*
X115638072Y-143357600D01*
X115638072Y-142963750D01*
X115621128Y-142791715D01*
X115570947Y-142626291D01*
X115489458Y-142473836D01*
X115379792Y-142340208D01*
X115246164Y-142230542D01*
X115093709Y-142149053D01*
X114928285Y-142098872D01*
X114756250Y-142081928D01*
X113843750Y-142081928D01*
X113671715Y-142098872D01*
X113506291Y-142149053D01*
X113365734Y-142224183D01*
X111001551Y-139860000D01*
X125771928Y-139860000D01*
X125775000Y-140049250D01*
X125933750Y-140208000D01*
X126720500Y-140208000D01*
X126720500Y-139383750D01*
X126974500Y-139383750D01*
X126974500Y-140208000D01*
X126994500Y-140208000D01*
X126994500Y-140462000D01*
X126974500Y-140462000D01*
X126974500Y-141286250D01*
X126975750Y-141287500D01*
X126974500Y-141288750D01*
X126974500Y-142113000D01*
X126994500Y-142113000D01*
X126994500Y-142367000D01*
X126974500Y-142367000D01*
X126974500Y-143191250D01*
X127133250Y-143350000D01*
X127285000Y-143353072D01*
X127409482Y-143340812D01*
X127529180Y-143304502D01*
X127639494Y-143245537D01*
X127706070Y-143190900D01*
X127727725Y-143208671D01*
X127875858Y-143287850D01*
X128036592Y-143336608D01*
X128203750Y-143353072D01*
X128641250Y-143353072D01*
X128808408Y-143336608D01*
X128969142Y-143287850D01*
X129117275Y-143208671D01*
X129247115Y-143102115D01*
X129353671Y-142972275D01*
X129432850Y-142824142D01*
X129481608Y-142663408D01*
X129498072Y-142496250D01*
X129498072Y-141983750D01*
X129481608Y-141816592D01*
X129432850Y-141655858D01*
X129353671Y-141507725D01*
X129247115Y-141377885D01*
X129209900Y-141347344D01*
X129209900Y-141227656D01*
X129247115Y-141197115D01*
X129353671Y-141067275D01*
X129432850Y-140919142D01*
X129481608Y-140758408D01*
X129498072Y-140591250D01*
X129498072Y-140078750D01*
X129481608Y-139911592D01*
X129432850Y-139750858D01*
X129353671Y-139602725D01*
X129247115Y-139472885D01*
X129209900Y-139442344D01*
X129209900Y-139044554D01*
X129251836Y-138943312D01*
X129286000Y-138771559D01*
X129286000Y-138596441D01*
X129251836Y-138424688D01*
X129184821Y-138262901D01*
X129087531Y-138117296D01*
X128963704Y-137993469D01*
X128818099Y-137896179D01*
X128656312Y-137829164D01*
X128484559Y-137795000D01*
X128309441Y-137795000D01*
X128137688Y-137829164D01*
X127975901Y-137896179D01*
X127830296Y-137993469D01*
X127706469Y-138117296D01*
X127609179Y-138262901D01*
X127542164Y-138424688D01*
X127508000Y-138596441D01*
X127508000Y-138771559D01*
X127542164Y-138943312D01*
X127609179Y-139105099D01*
X127635101Y-139143894D01*
X127635101Y-139327115D01*
X127529180Y-139270498D01*
X127409482Y-139234188D01*
X127285000Y-139221928D01*
X127133250Y-139225000D01*
X126974500Y-139383750D01*
X126720500Y-139383750D01*
X126561750Y-139225000D01*
X126410000Y-139221928D01*
X126285518Y-139234188D01*
X126165820Y-139270498D01*
X126055506Y-139329463D01*
X125958815Y-139408815D01*
X125879463Y-139505506D01*
X125820498Y-139615820D01*
X125784188Y-139735518D01*
X125771928Y-139860000D01*
X111001551Y-139860000D01*
X110566128Y-139424578D01*
X110541469Y-139394531D01*
X110421572Y-139296134D01*
X110284783Y-139223018D01*
X110136357Y-139177994D01*
X110020673Y-139166600D01*
X110020663Y-139166600D01*
X109982000Y-139162792D01*
X109943337Y-139166600D01*
X107252162Y-139166600D01*
X107213499Y-139162792D01*
X107174836Y-139166600D01*
X107174827Y-139166600D01*
X107059143Y-139177994D01*
X106910717Y-139223018D01*
X106832400Y-139264880D01*
X106832400Y-124966400D01*
X106899494Y-124930537D01*
X106996185Y-124851185D01*
X107075537Y-124754494D01*
X107134502Y-124644180D01*
X107170812Y-124524482D01*
X107183072Y-124400000D01*
X107183072Y-121400000D01*
X107170812Y-121275518D01*
X107134502Y-121155820D01*
X107075537Y-121045506D01*
X106996185Y-120948815D01*
X106899494Y-120869463D01*
X106832400Y-120833600D01*
X106832400Y-101471400D01*
X106899494Y-101435537D01*
X106996185Y-101356185D01*
X107075537Y-101259494D01*
X107134502Y-101149180D01*
X107170812Y-101029482D01*
X107183072Y-100905000D01*
X107183072Y-97905000D01*
X107170812Y-97780518D01*
X107134502Y-97660820D01*
X107075537Y-97550506D01*
X106996185Y-97453815D01*
X106899494Y-97374463D01*
X106789180Y-97315498D01*
X106669482Y-97279188D01*
X106545000Y-97266928D01*
X105545000Y-97266928D01*
X105420518Y-97279188D01*
X105300820Y-97315498D01*
X105190506Y-97374463D01*
X105093815Y-97453815D01*
X105014463Y-97550506D01*
X104955498Y-97660820D01*
X104919188Y-97780518D01*
X104906928Y-97905000D01*
X104906928Y-100905000D01*
X104919188Y-101029482D01*
X104955498Y-101149180D01*
X105014463Y-101259494D01*
X105093815Y-101356185D01*
X105190506Y-101435537D01*
X105257601Y-101471401D01*
X105257600Y-119862600D01*
X98562453Y-119862600D01*
X98582932Y-119813158D01*
X98640000Y-119526260D01*
X98640000Y-119233740D01*
X98582932Y-118946842D01*
X98470990Y-118676589D01*
X98308475Y-118433368D01*
X98101632Y-118226525D01*
X97858411Y-118064010D01*
X97588158Y-117952068D01*
X97301260Y-117895000D01*
X97008740Y-117895000D01*
X96721842Y-117952068D01*
X96451589Y-118064010D01*
X96208368Y-118226525D01*
X96001525Y-118433368D01*
X95839010Y-118676589D01*
X95727068Y-118946842D01*
X95670000Y-119233740D01*
X95670000Y-119526260D01*
X95727068Y-119813158D01*
X95839010Y-120083411D01*
X96001525Y-120326632D01*
X96133380Y-120458487D01*
X96060820Y-120480498D01*
X95950506Y-120539463D01*
X95853815Y-120618815D01*
X95774463Y-120715506D01*
X95715498Y-120825820D01*
X95679188Y-120945518D01*
X95666928Y-121070000D01*
X82498043Y-121070000D01*
X82433475Y-120973368D01*
X82226632Y-120766525D01*
X82052240Y-120650000D01*
X82226632Y-120533475D01*
X82433475Y-120326632D01*
X82595990Y-120083411D01*
X82707932Y-119813158D01*
X82765000Y-119526260D01*
X82765000Y-119233740D01*
X82707932Y-118946842D01*
X82595990Y-118676589D01*
X82433475Y-118433368D01*
X82301620Y-118301513D01*
X82374180Y-118279502D01*
X82484494Y-118220537D01*
X82581185Y-118141185D01*
X82660537Y-118044494D01*
X82719502Y-117934180D01*
X82755812Y-117814482D01*
X82768072Y-117690000D01*
X82768072Y-115990000D01*
X82755812Y-115865518D01*
X82719502Y-115745820D01*
X82660537Y-115635506D01*
X82581185Y-115538815D01*
X82484494Y-115459463D01*
X82374180Y-115400498D01*
X82254482Y-115364188D01*
X82130000Y-115351928D01*
X81480214Y-115351928D01*
X93489433Y-103342712D01*
X93519469Y-103318062D01*
X93617866Y-103198165D01*
X93690982Y-103061376D01*
X93736006Y-102912950D01*
X93747400Y-102797266D01*
X93747400Y-102797257D01*
X93751208Y-102758594D01*
X93747400Y-102719931D01*
X93747400Y-101348072D01*
X94990000Y-101348072D01*
X95114482Y-101335812D01*
X95234180Y-101299502D01*
X95344494Y-101240537D01*
X95441185Y-101161185D01*
X95520537Y-101064494D01*
X95579502Y-100954180D01*
X95615812Y-100834482D01*
X95628072Y-100710000D01*
X95628072Y-97410000D01*
X95615812Y-97285518D01*
X95579502Y-97165820D01*
X95520537Y-97055506D01*
X95441185Y-96958815D01*
X95344494Y-96879463D01*
X95234180Y-96820498D01*
X95114482Y-96784188D01*
X94990000Y-96771928D01*
X90930000Y-96771928D01*
X90805518Y-96784188D01*
X90685820Y-96820498D01*
X90575506Y-96879463D01*
X90478815Y-96958815D01*
X90399463Y-97055506D01*
X90340498Y-97165820D01*
X90304188Y-97285518D01*
X90291928Y-97410000D01*
X90291928Y-100710000D01*
X90304188Y-100834482D01*
X90340498Y-100954180D01*
X90399463Y-101064494D01*
X90478815Y-101161185D01*
X90575506Y-101240537D01*
X90685820Y-101299502D01*
X90805518Y-101335812D01*
X90930000Y-101348072D01*
X92172601Y-101348072D01*
X92172601Y-102432440D01*
X87633072Y-106971969D01*
X87633072Y-103255000D01*
X87620812Y-103130518D01*
X87584502Y-103010820D01*
X87525537Y-102900506D01*
X87446185Y-102803815D01*
X87349494Y-102724463D01*
X87239180Y-102665498D01*
X87119482Y-102629188D01*
X86995000Y-102616928D01*
X84607400Y-102616928D01*
X84607400Y-94413072D01*
X86700000Y-94413072D01*
X86824482Y-94400812D01*
X86944180Y-94364502D01*
X87054494Y-94305537D01*
X87151185Y-94226185D01*
X87230537Y-94129494D01*
X87289502Y-94019180D01*
X87325812Y-93899482D01*
X87338072Y-93775000D01*
X87338072Y-89965000D01*
X87325812Y-89840518D01*
X87289502Y-89720820D01*
X87230537Y-89610506D01*
X87151185Y-89513815D01*
X87054494Y-89434463D01*
X86944180Y-89375498D01*
X86824482Y-89339188D01*
X86700000Y-89326928D01*
X80940000Y-89326928D01*
X80815518Y-89339188D01*
X80695820Y-89375498D01*
X80585506Y-89434463D01*
X80488815Y-89513815D01*
X80409463Y-89610506D01*
X80350498Y-89720820D01*
X80314188Y-89840518D01*
X80301928Y-89965000D01*
X80301928Y-93775000D01*
X80314188Y-93899482D01*
X80350498Y-94019180D01*
X80409463Y-94129494D01*
X80488815Y-94226185D01*
X80585506Y-94305537D01*
X80695820Y-94364502D01*
X80815518Y-94400812D01*
X80940000Y-94413072D01*
X83032600Y-94413072D01*
X83032601Y-102616928D01*
X80645000Y-102616928D01*
X80520518Y-102629188D01*
X80400820Y-102665498D01*
X80290506Y-102724463D01*
X80193815Y-102803815D01*
X80114463Y-102900506D01*
X80055498Y-103010820D01*
X80019188Y-103130518D01*
X80006928Y-103255000D01*
X80006928Y-107065000D01*
X80019188Y-107189482D01*
X80055498Y-107309180D01*
X80114463Y-107419494D01*
X80193815Y-107516185D01*
X80290506Y-107595537D01*
X80400820Y-107654502D01*
X80520518Y-107690812D01*
X80645000Y-107703072D01*
X83032600Y-107703072D01*
X83032601Y-110925848D01*
X78312156Y-115646294D01*
X78282109Y-115670953D01*
X78183712Y-115790851D01*
X78110596Y-115927640D01*
X78065572Y-116076066D01*
X78054178Y-116191750D01*
X78054178Y-116191759D01*
X78050370Y-116230422D01*
X76860000Y-116230422D01*
X76860000Y-86200000D01*
X80051928Y-86200000D01*
X80064188Y-86324482D01*
X80100498Y-86444180D01*
X80159463Y-86554494D01*
X80238815Y-86651185D01*
X80335506Y-86730537D01*
X80445820Y-86789502D01*
X80565518Y-86825812D01*
X80690000Y-86838072D01*
X80841750Y-86835000D01*
X81000500Y-86676250D01*
X81000500Y-85852000D01*
X80213750Y-85852000D01*
X80055000Y-86010750D01*
X80051928Y-86200000D01*
X76860000Y-86200000D01*
X76860000Y-85250000D01*
X80051928Y-85250000D01*
X80055000Y-85439250D01*
X80213750Y-85598000D01*
X81000500Y-85598000D01*
X81000500Y-84773750D01*
X81254500Y-84773750D01*
X81254500Y-85598000D01*
X81274500Y-85598000D01*
X81274500Y-85852000D01*
X81254500Y-85852000D01*
X81254500Y-86676250D01*
X81413250Y-86835000D01*
X81565000Y-86838072D01*
X81689482Y-86825812D01*
X81809180Y-86789502D01*
X81919494Y-86730537D01*
X81986070Y-86675900D01*
X82007725Y-86693671D01*
X82155858Y-86772850D01*
X82316592Y-86821608D01*
X82483750Y-86838072D01*
X82921250Y-86838072D01*
X83088408Y-86821608D01*
X83249142Y-86772850D01*
X83397275Y-86693671D01*
X83527115Y-86587115D01*
X83588431Y-86512400D01*
X83727139Y-86512400D01*
X83729053Y-86518709D01*
X83810542Y-86671164D01*
X83920208Y-86804792D01*
X84053836Y-86914458D01*
X84206291Y-86995947D01*
X84371715Y-87046128D01*
X84543750Y-87063072D01*
X85031250Y-87063072D01*
X85203285Y-87046128D01*
X85368709Y-86995947D01*
X85521164Y-86914458D01*
X85654792Y-86804792D01*
X85725000Y-86719244D01*
X85795208Y-86804792D01*
X85928836Y-86914458D01*
X86081291Y-86995947D01*
X86246715Y-87046128D01*
X86418750Y-87063072D01*
X86906250Y-87063072D01*
X87078285Y-87046128D01*
X87243709Y-86995947D01*
X87396164Y-86914458D01*
X87529792Y-86804792D01*
X87639458Y-86671164D01*
X87720947Y-86518709D01*
X87722861Y-86512400D01*
X87970271Y-86512400D01*
X87970901Y-86512821D01*
X88132688Y-86579836D01*
X88304441Y-86614000D01*
X88479559Y-86614000D01*
X88651312Y-86579836D01*
X88813099Y-86512821D01*
X88958704Y-86415531D01*
X89082531Y-86291704D01*
X89179821Y-86146099D01*
X89246836Y-85984312D01*
X89281000Y-85812559D01*
X89281000Y-85637441D01*
X89246836Y-85465688D01*
X89179821Y-85303901D01*
X89082531Y-85158296D01*
X88958704Y-85034469D01*
X88813099Y-84937179D01*
X88651312Y-84870164D01*
X88479559Y-84836000D01*
X88304441Y-84836000D01*
X88132688Y-84870164D01*
X87970901Y-84937179D01*
X87970271Y-84937600D01*
X87722861Y-84937600D01*
X87720947Y-84931291D01*
X87639458Y-84778836D01*
X87529792Y-84645208D01*
X87396164Y-84535542D01*
X87243709Y-84454053D01*
X87078285Y-84403872D01*
X86906250Y-84386928D01*
X86418750Y-84386928D01*
X86246715Y-84403872D01*
X86081291Y-84454053D01*
X85928836Y-84535542D01*
X85795208Y-84645208D01*
X85725000Y-84730756D01*
X85654792Y-84645208D01*
X85521164Y-84535542D01*
X85368709Y-84454053D01*
X85203285Y-84403872D01*
X85031250Y-84386928D01*
X84543750Y-84386928D01*
X84371715Y-84403872D01*
X84206291Y-84454053D01*
X84053836Y-84535542D01*
X83920208Y-84645208D01*
X83810542Y-84778836D01*
X83729053Y-84931291D01*
X83727139Y-84937600D01*
X83588431Y-84937600D01*
X83527115Y-84862885D01*
X83397275Y-84756329D01*
X83249142Y-84677150D01*
X83088408Y-84628392D01*
X82921250Y-84611928D01*
X82483750Y-84611928D01*
X82316592Y-84628392D01*
X82155858Y-84677150D01*
X82007725Y-84756329D01*
X81986070Y-84774100D01*
X81919494Y-84719463D01*
X81809180Y-84660498D01*
X81689482Y-84624188D01*
X81565000Y-84611928D01*
X81413250Y-84615000D01*
X81254500Y-84773750D01*
X81000500Y-84773750D01*
X80841750Y-84615000D01*
X80690000Y-84611928D01*
X80565518Y-84624188D01*
X80445820Y-84660498D01*
X80335506Y-84719463D01*
X80238815Y-84798815D01*
X80159463Y-84895506D01*
X80100498Y-85005820D01*
X80064188Y-85125518D01*
X80051928Y-85250000D01*
X76860000Y-85250000D01*
X76860000Y-82438212D01*
X195715000Y-82438212D01*
X195715000Y-82661788D01*
X195758617Y-82881067D01*
X195844176Y-83087624D01*
X195968388Y-83273520D01*
X196126480Y-83431612D01*
X196312376Y-83555824D01*
X196518933Y-83641383D01*
X196738212Y-83685000D01*
X196961788Y-83685000D01*
X197181067Y-83641383D01*
X197387624Y-83555824D01*
X197573520Y-83431612D01*
X197731612Y-83273520D01*
X197855824Y-83087624D01*
X197941383Y-82881067D01*
X197985000Y-82661788D01*
X197985000Y-82438212D01*
X197941383Y-82218933D01*
X197855824Y-82012376D01*
X197731612Y-81826480D01*
X197573520Y-81668388D01*
X197387624Y-81544176D01*
X197181067Y-81458617D01*
X196961788Y-81415000D01*
X196738212Y-81415000D01*
X196518933Y-81458617D01*
X196312376Y-81544176D01*
X196126480Y-81668388D01*
X195968388Y-81826480D01*
X195844176Y-82012376D01*
X195758617Y-82218933D01*
X195715000Y-82438212D01*
X76860000Y-82438212D01*
X76860000Y-79154872D01*
X77140000Y-79154872D01*
X77140000Y-79595128D01*
X77225890Y-80026925D01*
X77394369Y-80433669D01*
X77638962Y-80799729D01*
X77950271Y-81111038D01*
X78316331Y-81355631D01*
X78723075Y-81524110D01*
X79154872Y-81610000D01*
X79595128Y-81610000D01*
X80026925Y-81524110D01*
X80433669Y-81355631D01*
X80799729Y-81111038D01*
X81111038Y-80799729D01*
X81355631Y-80433669D01*
X81524110Y-80026925D01*
X81610000Y-79595128D01*
X81610000Y-79154872D01*
X197790000Y-79154872D01*
X197790000Y-79595128D01*
X197875890Y-80026925D01*
X198044369Y-80433669D01*
X198288962Y-80799729D01*
X198600271Y-81111038D01*
X198966331Y-81355631D01*
X199373075Y-81524110D01*
X199804872Y-81610000D01*
X200245128Y-81610000D01*
X200676925Y-81524110D01*
X201083669Y-81355631D01*
X201449729Y-81111038D01*
X201761038Y-80799729D01*
X202005631Y-80433669D01*
X202174110Y-80026925D01*
X202260000Y-79595128D01*
X202260000Y-79154872D01*
X202174110Y-78723075D01*
X202005631Y-78316331D01*
X201761038Y-77950271D01*
X201449729Y-77638962D01*
X201083669Y-77394369D01*
X200676925Y-77225890D01*
X200245128Y-77140000D01*
X199804872Y-77140000D01*
X199373075Y-77225890D01*
X198966331Y-77394369D01*
X198600271Y-77638962D01*
X198288962Y-77950271D01*
X198044369Y-78316331D01*
X197875890Y-78723075D01*
X197790000Y-79154872D01*
X81610000Y-79154872D01*
X81524110Y-78723075D01*
X81355631Y-78316331D01*
X81111038Y-77950271D01*
X80799729Y-77638962D01*
X80433669Y-77394369D01*
X80026925Y-77225890D01*
X79595128Y-77140000D01*
X79154872Y-77140000D01*
X78723075Y-77225890D01*
X78316331Y-77394369D01*
X77950271Y-77638962D01*
X77638962Y-77950271D01*
X77394369Y-78316331D01*
X77225890Y-78723075D01*
X77140000Y-79154872D01*
X76860000Y-79154872D01*
X76860000Y-78772279D01*
X76898909Y-78375455D01*
X77004780Y-78024792D01*
X77176744Y-77701375D01*
X77408254Y-77417516D01*
X77690486Y-77184035D01*
X78012695Y-77009817D01*
X78362614Y-76901498D01*
X78757443Y-76860000D01*
X200627721Y-76860000D01*
X201024545Y-76898909D01*
G37*
%TD.AperFunction*%
%TD*%
M02*
