%TF.GenerationSoftware,KiCad,Pcbnew,(5.1.7)-1*%
%TF.CreationDate,2021-04-26T16:00:27-05:00*%
%TF.ProjectId,PID Demo Board,50494420-4465-46d6-9f20-426f6172642e,1.0*%
%TF.SameCoordinates,Original*%
%TF.FileFunction,Paste,Top*%
%TF.FilePolarity,Positive*%
%FSLAX46Y46*%
G04 Gerber Fmt 4.6, Leading zero omitted, Abs format (unit mm)*
G04 Created by KiCad (PCBNEW (5.1.7)-1) date 2021-04-26 16:00:27*
%MOMM*%
%LPD*%
G01*
G04 APERTURE LIST*
%ADD10R,4.060000X3.300000*%
%ADD11R,5.760000X3.810000*%
%ADD12R,6.350000X3.810000*%
%ADD13R,1.000000X3.000000*%
%ADD14R,0.600000X1.550000*%
G04 APERTURE END LIST*
%TO.C,C1*%
G36*
G01*
X127285000Y-140078750D02*
X127285000Y-140591250D01*
G75*
G02*
X127066250Y-140810000I-218750J0D01*
G01*
X126628750Y-140810000D01*
G75*
G02*
X126410000Y-140591250I0J218750D01*
G01*
X126410000Y-140078750D01*
G75*
G02*
X126628750Y-139860000I218750J0D01*
G01*
X127066250Y-139860000D01*
G75*
G02*
X127285000Y-140078750I0J-218750D01*
G01*
G37*
G36*
G01*
X128860000Y-140078750D02*
X128860000Y-140591250D01*
G75*
G02*
X128641250Y-140810000I-218750J0D01*
G01*
X128203750Y-140810000D01*
G75*
G02*
X127985000Y-140591250I0J218750D01*
G01*
X127985000Y-140078750D01*
G75*
G02*
X128203750Y-139860000I218750J0D01*
G01*
X128641250Y-139860000D01*
G75*
G02*
X128860000Y-140078750I0J-218750D01*
G01*
G37*
%TD*%
%TO.C,C2*%
G36*
G01*
X127285000Y-141983750D02*
X127285000Y-142496250D01*
G75*
G02*
X127066250Y-142715000I-218750J0D01*
G01*
X126628750Y-142715000D01*
G75*
G02*
X126410000Y-142496250I0J218750D01*
G01*
X126410000Y-141983750D01*
G75*
G02*
X126628750Y-141765000I218750J0D01*
G01*
X127066250Y-141765000D01*
G75*
G02*
X127285000Y-141983750I0J-218750D01*
G01*
G37*
G36*
G01*
X128860000Y-141983750D02*
X128860000Y-142496250D01*
G75*
G02*
X128641250Y-142715000I-218750J0D01*
G01*
X128203750Y-142715000D01*
G75*
G02*
X127985000Y-142496250I0J218750D01*
G01*
X127985000Y-141983750D01*
G75*
G02*
X128203750Y-141765000I218750J0D01*
G01*
X128641250Y-141765000D01*
G75*
G02*
X128860000Y-141983750I0J-218750D01*
G01*
G37*
%TD*%
%TO.C,C3*%
G36*
G01*
X128860000Y-145793750D02*
X128860000Y-146306250D01*
G75*
G02*
X128641250Y-146525000I-218750J0D01*
G01*
X128203750Y-146525000D01*
G75*
G02*
X127985000Y-146306250I0J218750D01*
G01*
X127985000Y-145793750D01*
G75*
G02*
X128203750Y-145575000I218750J0D01*
G01*
X128641250Y-145575000D01*
G75*
G02*
X128860000Y-145793750I0J-218750D01*
G01*
G37*
G36*
G01*
X127285000Y-145793750D02*
X127285000Y-146306250D01*
G75*
G02*
X127066250Y-146525000I-218750J0D01*
G01*
X126628750Y-146525000D01*
G75*
G02*
X126410000Y-146306250I0J218750D01*
G01*
X126410000Y-145793750D01*
G75*
G02*
X126628750Y-145575000I218750J0D01*
G01*
X127066250Y-145575000D01*
G75*
G02*
X127285000Y-145793750I0J-218750D01*
G01*
G37*
%TD*%
%TO.C,C4*%
G36*
G01*
X128860000Y-147698750D02*
X128860000Y-148211250D01*
G75*
G02*
X128641250Y-148430000I-218750J0D01*
G01*
X128203750Y-148430000D01*
G75*
G02*
X127985000Y-148211250I0J218750D01*
G01*
X127985000Y-147698750D01*
G75*
G02*
X128203750Y-147480000I218750J0D01*
G01*
X128641250Y-147480000D01*
G75*
G02*
X128860000Y-147698750I0J-218750D01*
G01*
G37*
G36*
G01*
X127285000Y-147698750D02*
X127285000Y-148211250D01*
G75*
G02*
X127066250Y-148430000I-218750J0D01*
G01*
X126628750Y-148430000D01*
G75*
G02*
X126410000Y-148211250I0J218750D01*
G01*
X126410000Y-147698750D01*
G75*
G02*
X126628750Y-147480000I218750J0D01*
G01*
X127066250Y-147480000D01*
G75*
G02*
X127285000Y-147698750I0J-218750D01*
G01*
G37*
%TD*%
%TO.C,C5*%
G36*
G01*
X128860000Y-118488750D02*
X128860000Y-119001250D01*
G75*
G02*
X128641250Y-119220000I-218750J0D01*
G01*
X128203750Y-119220000D01*
G75*
G02*
X127985000Y-119001250I0J218750D01*
G01*
X127985000Y-118488750D01*
G75*
G02*
X128203750Y-118270000I218750J0D01*
G01*
X128641250Y-118270000D01*
G75*
G02*
X128860000Y-118488750I0J-218750D01*
G01*
G37*
G36*
G01*
X127285000Y-118488750D02*
X127285000Y-119001250D01*
G75*
G02*
X127066250Y-119220000I-218750J0D01*
G01*
X126628750Y-119220000D01*
G75*
G02*
X126410000Y-119001250I0J218750D01*
G01*
X126410000Y-118488750D01*
G75*
G02*
X126628750Y-118270000I218750J0D01*
G01*
X127066250Y-118270000D01*
G75*
G02*
X127285000Y-118488750I0J-218750D01*
G01*
G37*
%TD*%
%TO.C,C6*%
G36*
G01*
X127285000Y-116583750D02*
X127285000Y-117096250D01*
G75*
G02*
X127066250Y-117315000I-218750J0D01*
G01*
X126628750Y-117315000D01*
G75*
G02*
X126410000Y-117096250I0J218750D01*
G01*
X126410000Y-116583750D01*
G75*
G02*
X126628750Y-116365000I218750J0D01*
G01*
X127066250Y-116365000D01*
G75*
G02*
X127285000Y-116583750I0J-218750D01*
G01*
G37*
G36*
G01*
X128860000Y-116583750D02*
X128860000Y-117096250D01*
G75*
G02*
X128641250Y-117315000I-218750J0D01*
G01*
X128203750Y-117315000D01*
G75*
G02*
X127985000Y-117096250I0J218750D01*
G01*
X127985000Y-116583750D01*
G75*
G02*
X128203750Y-116365000I218750J0D01*
G01*
X128641250Y-116365000D01*
G75*
G02*
X128860000Y-116583750I0J-218750D01*
G01*
G37*
%TD*%
%TO.C,C7*%
G36*
G01*
X128860000Y-124203750D02*
X128860000Y-124716250D01*
G75*
G02*
X128641250Y-124935000I-218750J0D01*
G01*
X128203750Y-124935000D01*
G75*
G02*
X127985000Y-124716250I0J218750D01*
G01*
X127985000Y-124203750D01*
G75*
G02*
X128203750Y-123985000I218750J0D01*
G01*
X128641250Y-123985000D01*
G75*
G02*
X128860000Y-124203750I0J-218750D01*
G01*
G37*
G36*
G01*
X127285000Y-124203750D02*
X127285000Y-124716250D01*
G75*
G02*
X127066250Y-124935000I-218750J0D01*
G01*
X126628750Y-124935000D01*
G75*
G02*
X126410000Y-124716250I0J218750D01*
G01*
X126410000Y-124203750D01*
G75*
G02*
X126628750Y-123985000I218750J0D01*
G01*
X127066250Y-123985000D01*
G75*
G02*
X127285000Y-124203750I0J-218750D01*
G01*
G37*
%TD*%
%TO.C,C8*%
G36*
G01*
X127285000Y-122298750D02*
X127285000Y-122811250D01*
G75*
G02*
X127066250Y-123030000I-218750J0D01*
G01*
X126628750Y-123030000D01*
G75*
G02*
X126410000Y-122811250I0J218750D01*
G01*
X126410000Y-122298750D01*
G75*
G02*
X126628750Y-122080000I218750J0D01*
G01*
X127066250Y-122080000D01*
G75*
G02*
X127285000Y-122298750I0J-218750D01*
G01*
G37*
G36*
G01*
X128860000Y-122298750D02*
X128860000Y-122811250D01*
G75*
G02*
X128641250Y-123030000I-218750J0D01*
G01*
X128203750Y-123030000D01*
G75*
G02*
X127985000Y-122811250I0J218750D01*
G01*
X127985000Y-122298750D01*
G75*
G02*
X128203750Y-122080000I218750J0D01*
G01*
X128641250Y-122080000D01*
G75*
G02*
X128860000Y-122298750I0J-218750D01*
G01*
G37*
%TD*%
%TO.C,C9*%
G36*
G01*
X127285000Y-93088750D02*
X127285000Y-93601250D01*
G75*
G02*
X127066250Y-93820000I-218750J0D01*
G01*
X126628750Y-93820000D01*
G75*
G02*
X126410000Y-93601250I0J218750D01*
G01*
X126410000Y-93088750D01*
G75*
G02*
X126628750Y-92870000I218750J0D01*
G01*
X127066250Y-92870000D01*
G75*
G02*
X127285000Y-93088750I0J-218750D01*
G01*
G37*
G36*
G01*
X128860000Y-93088750D02*
X128860000Y-93601250D01*
G75*
G02*
X128641250Y-93820000I-218750J0D01*
G01*
X128203750Y-93820000D01*
G75*
G02*
X127985000Y-93601250I0J218750D01*
G01*
X127985000Y-93088750D01*
G75*
G02*
X128203750Y-92870000I218750J0D01*
G01*
X128641250Y-92870000D01*
G75*
G02*
X128860000Y-93088750I0J-218750D01*
G01*
G37*
%TD*%
%TO.C,C10*%
G36*
G01*
X127285000Y-94993750D02*
X127285000Y-95506250D01*
G75*
G02*
X127066250Y-95725000I-218750J0D01*
G01*
X126628750Y-95725000D01*
G75*
G02*
X126410000Y-95506250I0J218750D01*
G01*
X126410000Y-94993750D01*
G75*
G02*
X126628750Y-94775000I218750J0D01*
G01*
X127066250Y-94775000D01*
G75*
G02*
X127285000Y-94993750I0J-218750D01*
G01*
G37*
G36*
G01*
X128860000Y-94993750D02*
X128860000Y-95506250D01*
G75*
G02*
X128641250Y-95725000I-218750J0D01*
G01*
X128203750Y-95725000D01*
G75*
G02*
X127985000Y-95506250I0J218750D01*
G01*
X127985000Y-94993750D01*
G75*
G02*
X128203750Y-94775000I218750J0D01*
G01*
X128641250Y-94775000D01*
G75*
G02*
X128860000Y-94993750I0J-218750D01*
G01*
G37*
%TD*%
%TO.C,C11*%
G36*
G01*
X128860000Y-98803750D02*
X128860000Y-99316250D01*
G75*
G02*
X128641250Y-99535000I-218750J0D01*
G01*
X128203750Y-99535000D01*
G75*
G02*
X127985000Y-99316250I0J218750D01*
G01*
X127985000Y-98803750D01*
G75*
G02*
X128203750Y-98585000I218750J0D01*
G01*
X128641250Y-98585000D01*
G75*
G02*
X128860000Y-98803750I0J-218750D01*
G01*
G37*
G36*
G01*
X127285000Y-98803750D02*
X127285000Y-99316250D01*
G75*
G02*
X127066250Y-99535000I-218750J0D01*
G01*
X126628750Y-99535000D01*
G75*
G02*
X126410000Y-99316250I0J218750D01*
G01*
X126410000Y-98803750D01*
G75*
G02*
X126628750Y-98585000I218750J0D01*
G01*
X127066250Y-98585000D01*
G75*
G02*
X127285000Y-98803750I0J-218750D01*
G01*
G37*
%TD*%
%TO.C,C12*%
G36*
G01*
X128860000Y-100708750D02*
X128860000Y-101221250D01*
G75*
G02*
X128641250Y-101440000I-218750J0D01*
G01*
X128203750Y-101440000D01*
G75*
G02*
X127985000Y-101221250I0J218750D01*
G01*
X127985000Y-100708750D01*
G75*
G02*
X128203750Y-100490000I218750J0D01*
G01*
X128641250Y-100490000D01*
G75*
G02*
X128860000Y-100708750I0J-218750D01*
G01*
G37*
G36*
G01*
X127285000Y-100708750D02*
X127285000Y-101221250D01*
G75*
G02*
X127066250Y-101440000I-218750J0D01*
G01*
X126628750Y-101440000D01*
G75*
G02*
X126410000Y-101221250I0J218750D01*
G01*
X126410000Y-100708750D01*
G75*
G02*
X126628750Y-100490000I218750J0D01*
G01*
X127066250Y-100490000D01*
G75*
G02*
X127285000Y-100708750I0J-218750D01*
G01*
G37*
%TD*%
%TO.C,C13*%
G36*
G01*
X114756250Y-145570000D02*
X113843750Y-145570000D01*
G75*
G02*
X113600000Y-145326250I0J243750D01*
G01*
X113600000Y-144838750D01*
G75*
G02*
X113843750Y-144595000I243750J0D01*
G01*
X114756250Y-144595000D01*
G75*
G02*
X115000000Y-144838750I0J-243750D01*
G01*
X115000000Y-145326250D01*
G75*
G02*
X114756250Y-145570000I-243750J0D01*
G01*
G37*
G36*
G01*
X114756250Y-143695000D02*
X113843750Y-143695000D01*
G75*
G02*
X113600000Y-143451250I0J243750D01*
G01*
X113600000Y-142963750D01*
G75*
G02*
X113843750Y-142720000I243750J0D01*
G01*
X114756250Y-142720000D01*
G75*
G02*
X115000000Y-142963750I0J-243750D01*
G01*
X115000000Y-143451250D01*
G75*
G02*
X114756250Y-143695000I-243750J0D01*
G01*
G37*
%TD*%
%TO.C,C14*%
G36*
G01*
X116583750Y-142920000D02*
X117096250Y-142920000D01*
G75*
G02*
X117315000Y-143138750I0J-218750D01*
G01*
X117315000Y-143576250D01*
G75*
G02*
X117096250Y-143795000I-218750J0D01*
G01*
X116583750Y-143795000D01*
G75*
G02*
X116365000Y-143576250I0J218750D01*
G01*
X116365000Y-143138750D01*
G75*
G02*
X116583750Y-142920000I218750J0D01*
G01*
G37*
G36*
G01*
X116583750Y-144495000D02*
X117096250Y-144495000D01*
G75*
G02*
X117315000Y-144713750I0J-218750D01*
G01*
X117315000Y-145151250D01*
G75*
G02*
X117096250Y-145370000I-218750J0D01*
G01*
X116583750Y-145370000D01*
G75*
G02*
X116365000Y-145151250I0J218750D01*
G01*
X116365000Y-144713750D01*
G75*
G02*
X116583750Y-144495000I218750J0D01*
G01*
G37*
%TD*%
%TO.C,C15*%
G36*
G01*
X116583750Y-119425000D02*
X117096250Y-119425000D01*
G75*
G02*
X117315000Y-119643750I0J-218750D01*
G01*
X117315000Y-120081250D01*
G75*
G02*
X117096250Y-120300000I-218750J0D01*
G01*
X116583750Y-120300000D01*
G75*
G02*
X116365000Y-120081250I0J218750D01*
G01*
X116365000Y-119643750D01*
G75*
G02*
X116583750Y-119425000I218750J0D01*
G01*
G37*
G36*
G01*
X116583750Y-121000000D02*
X117096250Y-121000000D01*
G75*
G02*
X117315000Y-121218750I0J-218750D01*
G01*
X117315000Y-121656250D01*
G75*
G02*
X117096250Y-121875000I-218750J0D01*
G01*
X116583750Y-121875000D01*
G75*
G02*
X116365000Y-121656250I0J218750D01*
G01*
X116365000Y-121218750D01*
G75*
G02*
X116583750Y-121000000I218750J0D01*
G01*
G37*
%TD*%
D10*
%TO.C,CON1*%
X92960000Y-99060000D03*
D11*
X83820000Y-91870000D03*
D12*
X83820000Y-105160000D03*
%TD*%
%TO.C,D1*%
G36*
G01*
X87150000Y-85268750D02*
X87150000Y-86181250D01*
G75*
G02*
X86906250Y-86425000I-243750J0D01*
G01*
X86418750Y-86425000D01*
G75*
G02*
X86175000Y-86181250I0J243750D01*
G01*
X86175000Y-85268750D01*
G75*
G02*
X86418750Y-85025000I243750J0D01*
G01*
X86906250Y-85025000D01*
G75*
G02*
X87150000Y-85268750I0J-243750D01*
G01*
G37*
G36*
G01*
X85275000Y-85268750D02*
X85275000Y-86181250D01*
G75*
G02*
X85031250Y-86425000I-243750J0D01*
G01*
X84543750Y-86425000D01*
G75*
G02*
X84300000Y-86181250I0J243750D01*
G01*
X84300000Y-85268750D01*
G75*
G02*
X84543750Y-85025000I243750J0D01*
G01*
X85031250Y-85025000D01*
G75*
G02*
X85275000Y-85268750I0J-243750D01*
G01*
G37*
%TD*%
%TO.C,R1*%
G36*
G01*
X83140000Y-85468750D02*
X83140000Y-85981250D01*
G75*
G02*
X82921250Y-86200000I-218750J0D01*
G01*
X82483750Y-86200000D01*
G75*
G02*
X82265000Y-85981250I0J218750D01*
G01*
X82265000Y-85468750D01*
G75*
G02*
X82483750Y-85250000I218750J0D01*
G01*
X82921250Y-85250000D01*
G75*
G02*
X83140000Y-85468750I0J-218750D01*
G01*
G37*
G36*
G01*
X81565000Y-85468750D02*
X81565000Y-85981250D01*
G75*
G02*
X81346250Y-86200000I-218750J0D01*
G01*
X80908750Y-86200000D01*
G75*
G02*
X80690000Y-85981250I0J218750D01*
G01*
X80690000Y-85468750D01*
G75*
G02*
X80908750Y-85250000I218750J0D01*
G01*
X81346250Y-85250000D01*
G75*
G02*
X81565000Y-85468750I0J-218750D01*
G01*
G37*
%TD*%
%TO.C,R2*%
G36*
G01*
X102491250Y-145370000D02*
X101978750Y-145370000D01*
G75*
G02*
X101760000Y-145151250I0J218750D01*
G01*
X101760000Y-144713750D01*
G75*
G02*
X101978750Y-144495000I218750J0D01*
G01*
X102491250Y-144495000D01*
G75*
G02*
X102710000Y-144713750I0J-218750D01*
G01*
X102710000Y-145151250D01*
G75*
G02*
X102491250Y-145370000I-218750J0D01*
G01*
G37*
G36*
G01*
X102491250Y-143795000D02*
X101978750Y-143795000D01*
G75*
G02*
X101760000Y-143576250I0J218750D01*
G01*
X101760000Y-143138750D01*
G75*
G02*
X101978750Y-142920000I218750J0D01*
G01*
X102491250Y-142920000D01*
G75*
G02*
X102710000Y-143138750I0J-218750D01*
G01*
X102710000Y-143576250D01*
G75*
G02*
X102491250Y-143795000I-218750J0D01*
G01*
G37*
%TD*%
%TO.C,R3*%
G36*
G01*
X114556250Y-98380000D02*
X114043750Y-98380000D01*
G75*
G02*
X113825000Y-98161250I0J218750D01*
G01*
X113825000Y-97723750D01*
G75*
G02*
X114043750Y-97505000I218750J0D01*
G01*
X114556250Y-97505000D01*
G75*
G02*
X114775000Y-97723750I0J-218750D01*
G01*
X114775000Y-98161250D01*
G75*
G02*
X114556250Y-98380000I-218750J0D01*
G01*
G37*
G36*
G01*
X114556250Y-96805000D02*
X114043750Y-96805000D01*
G75*
G02*
X113825000Y-96586250I0J218750D01*
G01*
X113825000Y-96148750D01*
G75*
G02*
X114043750Y-95930000I218750J0D01*
G01*
X114556250Y-95930000D01*
G75*
G02*
X114775000Y-96148750I0J-218750D01*
G01*
X114775000Y-96586250D01*
G75*
G02*
X114556250Y-96805000I-218750J0D01*
G01*
G37*
%TD*%
%TO.C,R4*%
G36*
G01*
X116583750Y-95930000D02*
X117096250Y-95930000D01*
G75*
G02*
X117315000Y-96148750I0J-218750D01*
G01*
X117315000Y-96586250D01*
G75*
G02*
X117096250Y-96805000I-218750J0D01*
G01*
X116583750Y-96805000D01*
G75*
G02*
X116365000Y-96586250I0J218750D01*
G01*
X116365000Y-96148750D01*
G75*
G02*
X116583750Y-95930000I218750J0D01*
G01*
G37*
G36*
G01*
X116583750Y-97505000D02*
X117096250Y-97505000D01*
G75*
G02*
X117315000Y-97723750I0J-218750D01*
G01*
X117315000Y-98161250D01*
G75*
G02*
X117096250Y-98380000I-218750J0D01*
G01*
X116583750Y-98380000D01*
G75*
G02*
X116365000Y-98161250I0J218750D01*
G01*
X116365000Y-97723750D01*
G75*
G02*
X116583750Y-97505000I218750J0D01*
G01*
G37*
%TD*%
%TO.C,R5*%
G36*
G01*
X114043750Y-119425000D02*
X114556250Y-119425000D01*
G75*
G02*
X114775000Y-119643750I0J-218750D01*
G01*
X114775000Y-120081250D01*
G75*
G02*
X114556250Y-120300000I-218750J0D01*
G01*
X114043750Y-120300000D01*
G75*
G02*
X113825000Y-120081250I0J218750D01*
G01*
X113825000Y-119643750D01*
G75*
G02*
X114043750Y-119425000I218750J0D01*
G01*
G37*
G36*
G01*
X114043750Y-121000000D02*
X114556250Y-121000000D01*
G75*
G02*
X114775000Y-121218750I0J-218750D01*
G01*
X114775000Y-121656250D01*
G75*
G02*
X114556250Y-121875000I-218750J0D01*
G01*
X114043750Y-121875000D01*
G75*
G02*
X113825000Y-121656250I0J218750D01*
G01*
X113825000Y-121218750D01*
G75*
G02*
X114043750Y-121000000I218750J0D01*
G01*
G37*
%TD*%
D13*
%TO.C,RV1*%
X106045000Y-122900000D03*
X108585000Y-118400000D03*
X111125000Y-122900000D03*
%TD*%
%TO.C,RV2*%
X111125000Y-99405000D03*
X108585000Y-94905000D03*
X106045000Y-99405000D03*
%TD*%
%TO.C,RV3*%
X111125000Y-146395000D03*
X108585000Y-141895000D03*
X106045000Y-146395000D03*
%TD*%
D14*
%TO.C,U1*%
X120015000Y-146845000D03*
X121285000Y-146845000D03*
X122555000Y-146845000D03*
X123825000Y-146845000D03*
X123825000Y-141445000D03*
X122555000Y-141445000D03*
X121285000Y-141445000D03*
X120015000Y-141445000D03*
%TD*%
%TO.C,U2*%
X120015000Y-117950000D03*
X121285000Y-117950000D03*
X122555000Y-117950000D03*
X123825000Y-117950000D03*
X123825000Y-123350000D03*
X122555000Y-123350000D03*
X121285000Y-123350000D03*
X120015000Y-123350000D03*
%TD*%
%TO.C,U3*%
X120015000Y-94455000D03*
X121285000Y-94455000D03*
X122555000Y-94455000D03*
X123825000Y-94455000D03*
X123825000Y-99855000D03*
X122555000Y-99855000D03*
X121285000Y-99855000D03*
X120015000Y-99855000D03*
%TD*%
M02*
