%TF.GenerationSoftware,KiCad,Pcbnew,(5.1.7)-1*%
%TF.CreationDate,2021-04-26T16:00:27-05:00*%
%TF.ProjectId,PID Demo Board,50494420-4465-46d6-9f20-426f6172642e,1.0*%
%TF.SameCoordinates,Original*%
%TF.FileFunction,Legend,Top*%
%TF.FilePolarity,Positive*%
%FSLAX46Y46*%
G04 Gerber Fmt 4.6, Leading zero omitted, Abs format (unit mm)*
G04 Created by KiCad (PCBNEW (5.1.7)-1) date 2021-04-26 16:00:27*
%MOMM*%
%LPD*%
G01*
G04 APERTURE LIST*
%ADD10C,0.150000*%
%ADD11C,0.539750*%
%ADD12C,0.120000*%
%ADD13C,0.889000*%
%ADD14C,0.330200*%
%ADD15C,0.010000*%
%ADD16C,0.100000*%
G04 APERTURE END LIST*
D10*
X144915190Y-115911380D02*
X145105666Y-115911380D01*
X145200904Y-115959000D01*
X145296142Y-116054238D01*
X145343761Y-116244714D01*
X145343761Y-116578047D01*
X145296142Y-116768523D01*
X145200904Y-116863761D01*
X145105666Y-116911380D01*
X144915190Y-116911380D01*
X144819952Y-116863761D01*
X144724714Y-116768523D01*
X144677095Y-116578047D01*
X144677095Y-116244714D01*
X144724714Y-116054238D01*
X144819952Y-115959000D01*
X144915190Y-115911380D01*
X146200904Y-116244714D02*
X146200904Y-116911380D01*
X145772333Y-116244714D02*
X145772333Y-116768523D01*
X145819952Y-116863761D01*
X145915190Y-116911380D01*
X146058047Y-116911380D01*
X146153285Y-116863761D01*
X146200904Y-116816142D01*
X146534238Y-116244714D02*
X146915190Y-116244714D01*
X146677095Y-115911380D02*
X146677095Y-116768523D01*
X146724714Y-116863761D01*
X146819952Y-116911380D01*
X146915190Y-116911380D01*
X147248523Y-116244714D02*
X147248523Y-117244714D01*
X147248523Y-116292333D02*
X147343761Y-116244714D01*
X147534238Y-116244714D01*
X147629476Y-116292333D01*
X147677095Y-116339952D01*
X147724714Y-116435190D01*
X147724714Y-116720904D01*
X147677095Y-116816142D01*
X147629476Y-116863761D01*
X147534238Y-116911380D01*
X147343761Y-116911380D01*
X147248523Y-116863761D01*
X148581857Y-116244714D02*
X148581857Y-116911380D01*
X148153285Y-116244714D02*
X148153285Y-116768523D01*
X148200904Y-116863761D01*
X148296142Y-116911380D01*
X148439000Y-116911380D01*
X148534238Y-116863761D01*
X148581857Y-116816142D01*
X148915190Y-116244714D02*
X149296142Y-116244714D01*
X149058047Y-115911380D02*
X149058047Y-116768523D01*
X149105666Y-116863761D01*
X149200904Y-116911380D01*
X149296142Y-116911380D01*
X146304095Y-123960000D02*
X146208857Y-123912380D01*
X146066000Y-123912380D01*
X145923142Y-123960000D01*
X145827904Y-124055238D01*
X145780285Y-124150476D01*
X145732666Y-124340952D01*
X145732666Y-124483809D01*
X145780285Y-124674285D01*
X145827904Y-124769523D01*
X145923142Y-124864761D01*
X146066000Y-124912380D01*
X146161238Y-124912380D01*
X146304095Y-124864761D01*
X146351714Y-124817142D01*
X146351714Y-124483809D01*
X146161238Y-124483809D01*
X146780285Y-124912380D02*
X146780285Y-123912380D01*
X147351714Y-124912380D01*
X147351714Y-123912380D01*
X147827904Y-124912380D02*
X147827904Y-123912380D01*
X148066000Y-123912380D01*
X148208857Y-123960000D01*
X148304095Y-124055238D01*
X148351714Y-124150476D01*
X148399333Y-124340952D01*
X148399333Y-124483809D01*
X148351714Y-124674285D01*
X148304095Y-124769523D01*
X148208857Y-124864761D01*
X148066000Y-124912380D01*
X147827904Y-124912380D01*
X91448142Y-119832380D02*
X91448142Y-118832380D01*
X91924333Y-119165714D02*
X91924333Y-119832380D01*
X91924333Y-119260952D02*
X91971952Y-119213333D01*
X92067190Y-119165714D01*
X92210047Y-119165714D01*
X92305285Y-119213333D01*
X92352904Y-119308571D01*
X92352904Y-119832380D01*
X92829095Y-119165714D02*
X92829095Y-120165714D01*
X92829095Y-119213333D02*
X92924333Y-119165714D01*
X93114809Y-119165714D01*
X93210047Y-119213333D01*
X93257666Y-119260952D01*
X93305285Y-119356190D01*
X93305285Y-119641904D01*
X93257666Y-119737142D01*
X93210047Y-119784761D01*
X93114809Y-119832380D01*
X92924333Y-119832380D01*
X92829095Y-119784761D01*
X94162428Y-119165714D02*
X94162428Y-119832380D01*
X93733857Y-119165714D02*
X93733857Y-119689523D01*
X93781476Y-119784761D01*
X93876714Y-119832380D01*
X94019571Y-119832380D01*
X94114809Y-119784761D01*
X94162428Y-119737142D01*
X94495761Y-119165714D02*
X94876714Y-119165714D01*
X94638619Y-118832380D02*
X94638619Y-119689523D01*
X94686238Y-119784761D01*
X94781476Y-119832380D01*
X94876714Y-119832380D01*
X92837095Y-121420000D02*
X92741857Y-121372380D01*
X92599000Y-121372380D01*
X92456142Y-121420000D01*
X92360904Y-121515238D01*
X92313285Y-121610476D01*
X92265666Y-121800952D01*
X92265666Y-121943809D01*
X92313285Y-122134285D01*
X92360904Y-122229523D01*
X92456142Y-122324761D01*
X92599000Y-122372380D01*
X92694238Y-122372380D01*
X92837095Y-122324761D01*
X92884714Y-122277142D01*
X92884714Y-121943809D01*
X92694238Y-121943809D01*
X93313285Y-122372380D02*
X93313285Y-121372380D01*
X93884714Y-122372380D01*
X93884714Y-121372380D01*
X94360904Y-122372380D02*
X94360904Y-121372380D01*
X94599000Y-121372380D01*
X94741857Y-121420000D01*
X94837095Y-121515238D01*
X94884714Y-121610476D01*
X94932333Y-121800952D01*
X94932333Y-121943809D01*
X94884714Y-122134285D01*
X94837095Y-122229523D01*
X94741857Y-122324761D01*
X94599000Y-122372380D01*
X94360904Y-122372380D01*
X83550285Y-116911428D02*
X84312190Y-116911428D01*
X83931238Y-117292380D02*
X83931238Y-116530476D01*
X85264571Y-116292380D02*
X84788380Y-116292380D01*
X84740761Y-116768571D01*
X84788380Y-116720952D01*
X84883619Y-116673333D01*
X85121714Y-116673333D01*
X85216952Y-116720952D01*
X85264571Y-116768571D01*
X85312190Y-116863809D01*
X85312190Y-117101904D01*
X85264571Y-117197142D01*
X85216952Y-117244761D01*
X85121714Y-117292380D01*
X84883619Y-117292380D01*
X84788380Y-117244761D01*
X84740761Y-117197142D01*
X85597904Y-116292380D02*
X85931238Y-117292380D01*
X86264571Y-116292380D01*
X84074095Y-118880000D02*
X83978857Y-118832380D01*
X83836000Y-118832380D01*
X83693142Y-118880000D01*
X83597904Y-118975238D01*
X83550285Y-119070476D01*
X83502666Y-119260952D01*
X83502666Y-119403809D01*
X83550285Y-119594285D01*
X83597904Y-119689523D01*
X83693142Y-119784761D01*
X83836000Y-119832380D01*
X83931238Y-119832380D01*
X84074095Y-119784761D01*
X84121714Y-119737142D01*
X84121714Y-119403809D01*
X83931238Y-119403809D01*
X84550285Y-119832380D02*
X84550285Y-118832380D01*
X85121714Y-119832380D01*
X85121714Y-118832380D01*
X85597904Y-119832380D02*
X85597904Y-118832380D01*
X85836000Y-118832380D01*
X85978857Y-118880000D01*
X86074095Y-118975238D01*
X86121714Y-119070476D01*
X86169333Y-119260952D01*
X86169333Y-119403809D01*
X86121714Y-119594285D01*
X86074095Y-119689523D01*
X85978857Y-119784761D01*
X85836000Y-119832380D01*
X85597904Y-119832380D01*
X84074095Y-121420000D02*
X83978857Y-121372380D01*
X83836000Y-121372380D01*
X83693142Y-121420000D01*
X83597904Y-121515238D01*
X83550285Y-121610476D01*
X83502666Y-121800952D01*
X83502666Y-121943809D01*
X83550285Y-122134285D01*
X83597904Y-122229523D01*
X83693142Y-122324761D01*
X83836000Y-122372380D01*
X83931238Y-122372380D01*
X84074095Y-122324761D01*
X84121714Y-122277142D01*
X84121714Y-121943809D01*
X83931238Y-121943809D01*
X84550285Y-122372380D02*
X84550285Y-121372380D01*
X85121714Y-122372380D01*
X85121714Y-121372380D01*
X85597904Y-122372380D02*
X85597904Y-121372380D01*
X85836000Y-121372380D01*
X85978857Y-121420000D01*
X86074095Y-121515238D01*
X86121714Y-121610476D01*
X86169333Y-121800952D01*
X86169333Y-121943809D01*
X86121714Y-122134285D01*
X86074095Y-122229523D01*
X85978857Y-122324761D01*
X85836000Y-122372380D01*
X85597904Y-122372380D01*
X83550285Y-124531428D02*
X84312190Y-124531428D01*
X85264571Y-123912380D02*
X84788380Y-123912380D01*
X84740761Y-124388571D01*
X84788380Y-124340952D01*
X84883619Y-124293333D01*
X85121714Y-124293333D01*
X85216952Y-124340952D01*
X85264571Y-124388571D01*
X85312190Y-124483809D01*
X85312190Y-124721904D01*
X85264571Y-124817142D01*
X85216952Y-124864761D01*
X85121714Y-124912380D01*
X84883619Y-124912380D01*
X84788380Y-124864761D01*
X84740761Y-124817142D01*
X85597904Y-123912380D02*
X85931238Y-124912380D01*
X86264571Y-123912380D01*
D11*
X121040071Y-163536690D02*
X120011976Y-163536690D01*
X120011976Y-161377690D01*
X122582214Y-163433880D02*
X122376595Y-163536690D01*
X121965357Y-163536690D01*
X121759738Y-163433880D01*
X121656928Y-163228261D01*
X121656928Y-162405785D01*
X121759738Y-162200166D01*
X121965357Y-162097357D01*
X122376595Y-162097357D01*
X122582214Y-162200166D01*
X122685023Y-162405785D01*
X122685023Y-162611404D01*
X121656928Y-162817023D01*
X124432785Y-163433880D02*
X124227166Y-163536690D01*
X123815928Y-163536690D01*
X123610309Y-163433880D01*
X123507500Y-163228261D01*
X123507500Y-162405785D01*
X123610309Y-162200166D01*
X123815928Y-162097357D01*
X124227166Y-162097357D01*
X124432785Y-162200166D01*
X124535595Y-162405785D01*
X124535595Y-162611404D01*
X123507500Y-162817023D01*
X125460880Y-163536690D02*
X125460880Y-162097357D01*
X125460880Y-162302976D02*
X125563690Y-162200166D01*
X125769309Y-162097357D01*
X126077738Y-162097357D01*
X126283357Y-162200166D01*
X126386166Y-162405785D01*
X126386166Y-163536690D01*
X126386166Y-162405785D02*
X126488976Y-162200166D01*
X126694595Y-162097357D01*
X127003023Y-162097357D01*
X127208642Y-162200166D01*
X127311452Y-162405785D01*
X127311452Y-163536690D01*
X129264833Y-163536690D02*
X129264833Y-162405785D01*
X129162023Y-162200166D01*
X128956404Y-162097357D01*
X128545166Y-162097357D01*
X128339547Y-162200166D01*
X129264833Y-163433880D02*
X129059214Y-163536690D01*
X128545166Y-163536690D01*
X128339547Y-163433880D01*
X128236738Y-163228261D01*
X128236738Y-163022642D01*
X128339547Y-162817023D01*
X128545166Y-162714214D01*
X129059214Y-162714214D01*
X129264833Y-162611404D01*
X130292928Y-162097357D02*
X130292928Y-163536690D01*
X130292928Y-162302976D02*
X130395738Y-162200166D01*
X130601357Y-162097357D01*
X130909785Y-162097357D01*
X131115404Y-162200166D01*
X131218214Y-162405785D01*
X131218214Y-163536690D01*
X135022166Y-161480500D02*
X134816547Y-161377690D01*
X134508119Y-161377690D01*
X134199690Y-161480500D01*
X133994071Y-161686119D01*
X133891261Y-161891738D01*
X133788452Y-162302976D01*
X133788452Y-162611404D01*
X133891261Y-163022642D01*
X133994071Y-163228261D01*
X134199690Y-163433880D01*
X134508119Y-163536690D01*
X134713738Y-163536690D01*
X135022166Y-163433880D01*
X135124976Y-163331071D01*
X135124976Y-162611404D01*
X134713738Y-162611404D01*
X136872738Y-163433880D02*
X136667119Y-163536690D01*
X136255880Y-163536690D01*
X136050261Y-163433880D01*
X135947452Y-163228261D01*
X135947452Y-162405785D01*
X136050261Y-162200166D01*
X136255880Y-162097357D01*
X136667119Y-162097357D01*
X136872738Y-162200166D01*
X136975547Y-162405785D01*
X136975547Y-162611404D01*
X135947452Y-162817023D01*
X138209261Y-163536690D02*
X138003642Y-163433880D01*
X137900833Y-163331071D01*
X137798023Y-163125452D01*
X137798023Y-162508595D01*
X137900833Y-162302976D01*
X138003642Y-162200166D01*
X138209261Y-162097357D01*
X138517690Y-162097357D01*
X138723309Y-162200166D01*
X138826119Y-162302976D01*
X138928928Y-162508595D01*
X138928928Y-163125452D01*
X138826119Y-163331071D01*
X138723309Y-163433880D01*
X138517690Y-163536690D01*
X138209261Y-163536690D01*
X139854214Y-162097357D02*
X139854214Y-164256357D01*
X139854214Y-162200166D02*
X140059833Y-162097357D01*
X140471071Y-162097357D01*
X140676690Y-162200166D01*
X140779500Y-162302976D01*
X140882309Y-162508595D01*
X140882309Y-163125452D01*
X140779500Y-163331071D01*
X140676690Y-163433880D01*
X140471071Y-163536690D01*
X140059833Y-163536690D01*
X139854214Y-163433880D01*
X141807595Y-163536690D02*
X141807595Y-161377690D01*
X142732880Y-163536690D02*
X142732880Y-162405785D01*
X142630071Y-162200166D01*
X142424452Y-162097357D01*
X142116023Y-162097357D01*
X141910404Y-162200166D01*
X141807595Y-162302976D01*
X143555357Y-162097357D02*
X144069404Y-163536690D01*
X144583452Y-162097357D02*
X144069404Y-163536690D01*
X143863785Y-164050738D01*
X143760976Y-164153547D01*
X143555357Y-164256357D01*
X145303119Y-163433880D02*
X145508738Y-163536690D01*
X145919976Y-163536690D01*
X146125595Y-163433880D01*
X146228404Y-163228261D01*
X146228404Y-163125452D01*
X146125595Y-162919833D01*
X145919976Y-162817023D01*
X145611547Y-162817023D01*
X145405928Y-162714214D01*
X145303119Y-162508595D01*
X145303119Y-162405785D01*
X145405928Y-162200166D01*
X145611547Y-162097357D01*
X145919976Y-162097357D01*
X146125595Y-162200166D01*
X147153690Y-163536690D02*
X147153690Y-162097357D01*
X147153690Y-161377690D02*
X147050880Y-161480500D01*
X147153690Y-161583309D01*
X147256500Y-161480500D01*
X147153690Y-161377690D01*
X147153690Y-161583309D01*
X149107071Y-163433880D02*
X148901452Y-163536690D01*
X148490214Y-163536690D01*
X148284595Y-163433880D01*
X148181785Y-163331071D01*
X148078976Y-163125452D01*
X148078976Y-162508595D01*
X148181785Y-162302976D01*
X148284595Y-162200166D01*
X148490214Y-162097357D01*
X148901452Y-162097357D01*
X149107071Y-162200166D01*
X150957642Y-163536690D02*
X150957642Y-162405785D01*
X150854833Y-162200166D01*
X150649214Y-162097357D01*
X150237976Y-162097357D01*
X150032357Y-162200166D01*
X150957642Y-163433880D02*
X150752023Y-163536690D01*
X150237976Y-163536690D01*
X150032357Y-163433880D01*
X149929547Y-163228261D01*
X149929547Y-163022642D01*
X150032357Y-162817023D01*
X150237976Y-162714214D01*
X150752023Y-162714214D01*
X150957642Y-162611404D01*
X152294166Y-163536690D02*
X152088547Y-163433880D01*
X151985738Y-163228261D01*
X151985738Y-161377690D01*
X155789690Y-163536690D02*
X154761595Y-163536690D01*
X154761595Y-161377690D01*
X157537452Y-163536690D02*
X156509357Y-163536690D01*
X156509357Y-161377690D01*
X159490833Y-163331071D02*
X159388023Y-163433880D01*
X159079595Y-163536690D01*
X158873976Y-163536690D01*
X158565547Y-163433880D01*
X158359928Y-163228261D01*
X158257119Y-163022642D01*
X158154309Y-162611404D01*
X158154309Y-162302976D01*
X158257119Y-161891738D01*
X158359928Y-161686119D01*
X158565547Y-161480500D01*
X158873976Y-161377690D01*
X159079595Y-161377690D01*
X159388023Y-161480500D01*
X159490833Y-161583309D01*
D12*
X120015000Y-83185000D02*
X119380000Y-83185000D01*
X156845000Y-83185000D02*
X120015000Y-83185000D01*
D13*
X120371809Y-82598380D02*
X120371809Y-78280380D01*
X122016761Y-78280380D01*
X122428000Y-78486000D01*
X122633619Y-78691619D01*
X122839238Y-79102857D01*
X122839238Y-79719714D01*
X122633619Y-80130952D01*
X122428000Y-80336571D01*
X122016761Y-80542190D01*
X120371809Y-80542190D01*
X124689809Y-82598380D02*
X124689809Y-78280380D01*
X126746000Y-82598380D02*
X126746000Y-78280380D01*
X127774095Y-78280380D01*
X128390952Y-78486000D01*
X128802190Y-78897238D01*
X129007809Y-79308476D01*
X129213428Y-80130952D01*
X129213428Y-80747809D01*
X129007809Y-81570285D01*
X128802190Y-81981523D01*
X128390952Y-82392761D01*
X127774095Y-82598380D01*
X126746000Y-82598380D01*
X136821333Y-82187142D02*
X136615714Y-82392761D01*
X135998857Y-82598380D01*
X135587619Y-82598380D01*
X134970761Y-82392761D01*
X134559523Y-81981523D01*
X134353904Y-81570285D01*
X134148285Y-80747809D01*
X134148285Y-80130952D01*
X134353904Y-79308476D01*
X134559523Y-78897238D01*
X134970761Y-78486000D01*
X135587619Y-78280380D01*
X135998857Y-78280380D01*
X136615714Y-78486000D01*
X136821333Y-78691619D01*
X139288761Y-82598380D02*
X138877523Y-82392761D01*
X138671904Y-82187142D01*
X138466285Y-81775904D01*
X138466285Y-80542190D01*
X138671904Y-80130952D01*
X138877523Y-79925333D01*
X139288761Y-79719714D01*
X139905619Y-79719714D01*
X140316857Y-79925333D01*
X140522476Y-80130952D01*
X140728095Y-80542190D01*
X140728095Y-81775904D01*
X140522476Y-82187142D01*
X140316857Y-82392761D01*
X139905619Y-82598380D01*
X139288761Y-82598380D01*
X142578666Y-79719714D02*
X142578666Y-82598380D01*
X142578666Y-80130952D02*
X142784285Y-79925333D01*
X143195523Y-79719714D01*
X143812380Y-79719714D01*
X144223619Y-79925333D01*
X144429238Y-80336571D01*
X144429238Y-82598380D01*
X145868571Y-79719714D02*
X147513523Y-79719714D01*
X146485428Y-78280380D02*
X146485428Y-81981523D01*
X146691047Y-82392761D01*
X147102285Y-82598380D01*
X147513523Y-82598380D01*
X148952857Y-82598380D02*
X148952857Y-79719714D01*
X148952857Y-80542190D02*
X149158476Y-80130952D01*
X149364095Y-79925333D01*
X149775333Y-79719714D01*
X150186571Y-79719714D01*
X152242761Y-82598380D02*
X151831523Y-82392761D01*
X151625904Y-82187142D01*
X151420285Y-81775904D01*
X151420285Y-80542190D01*
X151625904Y-80130952D01*
X151831523Y-79925333D01*
X152242761Y-79719714D01*
X152859619Y-79719714D01*
X153270857Y-79925333D01*
X153476476Y-80130952D01*
X153682095Y-80542190D01*
X153682095Y-81775904D01*
X153476476Y-82187142D01*
X153270857Y-82392761D01*
X152859619Y-82598380D01*
X152242761Y-82598380D01*
X156149523Y-82598380D02*
X155738285Y-82392761D01*
X155532666Y-81981523D01*
X155532666Y-78280380D01*
D12*
X123952000Y-90170000D02*
X107442000Y-90170000D01*
D14*
X107780666Y-89704333D02*
X107780666Y-87926333D01*
X108458000Y-87926333D01*
X108627333Y-88011000D01*
X108712000Y-88095666D01*
X108796666Y-88265000D01*
X108796666Y-88519000D01*
X108712000Y-88688333D01*
X108627333Y-88773000D01*
X108458000Y-88857666D01*
X107780666Y-88857666D01*
X109558666Y-89704333D02*
X109558666Y-88519000D01*
X109558666Y-88857666D02*
X109643333Y-88688333D01*
X109728000Y-88603666D01*
X109897333Y-88519000D01*
X110066666Y-88519000D01*
X110913333Y-89704333D02*
X110744000Y-89619666D01*
X110659333Y-89535000D01*
X110574666Y-89365666D01*
X110574666Y-88857666D01*
X110659333Y-88688333D01*
X110744000Y-88603666D01*
X110913333Y-88519000D01*
X111167333Y-88519000D01*
X111336666Y-88603666D01*
X111421333Y-88688333D01*
X111506000Y-88857666D01*
X111506000Y-89365666D01*
X111421333Y-89535000D01*
X111336666Y-89619666D01*
X111167333Y-89704333D01*
X110913333Y-89704333D01*
X112268000Y-88519000D02*
X112268000Y-90297000D01*
X112268000Y-88603666D02*
X112437333Y-88519000D01*
X112776000Y-88519000D01*
X112945333Y-88603666D01*
X113030000Y-88688333D01*
X113114666Y-88857666D01*
X113114666Y-89365666D01*
X113030000Y-89535000D01*
X112945333Y-89619666D01*
X112776000Y-89704333D01*
X112437333Y-89704333D01*
X112268000Y-89619666D01*
X114130666Y-89704333D02*
X113961333Y-89619666D01*
X113876666Y-89535000D01*
X113792000Y-89365666D01*
X113792000Y-88857666D01*
X113876666Y-88688333D01*
X113961333Y-88603666D01*
X114130666Y-88519000D01*
X114384666Y-88519000D01*
X114554000Y-88603666D01*
X114638666Y-88688333D01*
X114723333Y-88857666D01*
X114723333Y-89365666D01*
X114638666Y-89535000D01*
X114554000Y-89619666D01*
X114384666Y-89704333D01*
X114130666Y-89704333D01*
X115485333Y-89704333D02*
X115485333Y-88519000D01*
X115485333Y-88857666D02*
X115570000Y-88688333D01*
X115654666Y-88603666D01*
X115824000Y-88519000D01*
X115993333Y-88519000D01*
X116332000Y-88519000D02*
X117009333Y-88519000D01*
X116586000Y-87926333D02*
X116586000Y-89450333D01*
X116670666Y-89619666D01*
X116840000Y-89704333D01*
X117009333Y-89704333D01*
X117602000Y-89704333D02*
X117602000Y-88519000D01*
X117602000Y-87926333D02*
X117517333Y-88011000D01*
X117602000Y-88095666D01*
X117686666Y-88011000D01*
X117602000Y-87926333D01*
X117602000Y-88095666D01*
X118702666Y-89704333D02*
X118533333Y-89619666D01*
X118448666Y-89535000D01*
X118364000Y-89365666D01*
X118364000Y-88857666D01*
X118448666Y-88688333D01*
X118533333Y-88603666D01*
X118702666Y-88519000D01*
X118956666Y-88519000D01*
X119126000Y-88603666D01*
X119210666Y-88688333D01*
X119295333Y-88857666D01*
X119295333Y-89365666D01*
X119210666Y-89535000D01*
X119126000Y-89619666D01*
X118956666Y-89704333D01*
X118702666Y-89704333D01*
X120057333Y-88519000D02*
X120057333Y-89704333D01*
X120057333Y-88688333D02*
X120142000Y-88603666D01*
X120311333Y-88519000D01*
X120565333Y-88519000D01*
X120734666Y-88603666D01*
X120819333Y-88773000D01*
X120819333Y-89704333D01*
X122428000Y-89704333D02*
X122428000Y-88773000D01*
X122343333Y-88603666D01*
X122174000Y-88519000D01*
X121835333Y-88519000D01*
X121666000Y-88603666D01*
X122428000Y-89619666D02*
X122258666Y-89704333D01*
X121835333Y-89704333D01*
X121666000Y-89619666D01*
X121581333Y-89450333D01*
X121581333Y-89281000D01*
X121666000Y-89111666D01*
X121835333Y-89027000D01*
X122258666Y-89027000D01*
X122428000Y-88942333D01*
X123528666Y-89704333D02*
X123359333Y-89619666D01*
X123274666Y-89450333D01*
X123274666Y-87926333D01*
D12*
X120904000Y-113665000D02*
X110490000Y-113665000D01*
D14*
X110871000Y-113199333D02*
X110871000Y-111421333D01*
X111717666Y-112014000D02*
X111717666Y-113199333D01*
X111717666Y-112183333D02*
X111802333Y-112098666D01*
X111971666Y-112014000D01*
X112225666Y-112014000D01*
X112395000Y-112098666D01*
X112479666Y-112268000D01*
X112479666Y-113199333D01*
X113072333Y-112014000D02*
X113749666Y-112014000D01*
X113326333Y-111421333D02*
X113326333Y-112945333D01*
X113411000Y-113114666D01*
X113580333Y-113199333D01*
X113749666Y-113199333D01*
X115019666Y-113114666D02*
X114850333Y-113199333D01*
X114511666Y-113199333D01*
X114342333Y-113114666D01*
X114257666Y-112945333D01*
X114257666Y-112268000D01*
X114342333Y-112098666D01*
X114511666Y-112014000D01*
X114850333Y-112014000D01*
X115019666Y-112098666D01*
X115104333Y-112268000D01*
X115104333Y-112437333D01*
X114257666Y-112606666D01*
X116628333Y-112014000D02*
X116628333Y-113453333D01*
X116543666Y-113622666D01*
X116459000Y-113707333D01*
X116289666Y-113792000D01*
X116035666Y-113792000D01*
X115866333Y-113707333D01*
X116628333Y-113114666D02*
X116459000Y-113199333D01*
X116120333Y-113199333D01*
X115951000Y-113114666D01*
X115866333Y-113030000D01*
X115781666Y-112860666D01*
X115781666Y-112352666D01*
X115866333Y-112183333D01*
X115951000Y-112098666D01*
X116120333Y-112014000D01*
X116459000Y-112014000D01*
X116628333Y-112098666D01*
X117475000Y-113199333D02*
X117475000Y-112014000D01*
X117475000Y-112352666D02*
X117559666Y-112183333D01*
X117644333Y-112098666D01*
X117813666Y-112014000D01*
X117983000Y-112014000D01*
X119337666Y-113199333D02*
X119337666Y-112268000D01*
X119253000Y-112098666D01*
X119083666Y-112014000D01*
X118745000Y-112014000D01*
X118575666Y-112098666D01*
X119337666Y-113114666D02*
X119168333Y-113199333D01*
X118745000Y-113199333D01*
X118575666Y-113114666D01*
X118491000Y-112945333D01*
X118491000Y-112776000D01*
X118575666Y-112606666D01*
X118745000Y-112522000D01*
X119168333Y-112522000D01*
X119337666Y-112437333D01*
X120438333Y-113199333D02*
X120269000Y-113114666D01*
X120184333Y-112945333D01*
X120184333Y-111421333D01*
D12*
X123063000Y-137033000D02*
X108077000Y-137033000D01*
D14*
X108585000Y-136694333D02*
X108585000Y-134916333D01*
X109008333Y-134916333D01*
X109262333Y-135001000D01*
X109431666Y-135170333D01*
X109516333Y-135339666D01*
X109601000Y-135678333D01*
X109601000Y-135932333D01*
X109516333Y-136271000D01*
X109431666Y-136440333D01*
X109262333Y-136609666D01*
X109008333Y-136694333D01*
X108585000Y-136694333D01*
X110363000Y-136694333D02*
X110363000Y-135509000D01*
X110363000Y-134916333D02*
X110278333Y-135001000D01*
X110363000Y-135085666D01*
X110447666Y-135001000D01*
X110363000Y-134916333D01*
X110363000Y-135085666D01*
X110955666Y-135509000D02*
X111633000Y-135509000D01*
X111209666Y-136694333D02*
X111209666Y-135170333D01*
X111294333Y-135001000D01*
X111463666Y-134916333D01*
X111633000Y-134916333D01*
X111971666Y-135509000D02*
X112649000Y-135509000D01*
X112225666Y-136694333D02*
X112225666Y-135170333D01*
X112310333Y-135001000D01*
X112479666Y-134916333D01*
X112649000Y-134916333D01*
X113919000Y-136609666D02*
X113749666Y-136694333D01*
X113411000Y-136694333D01*
X113241666Y-136609666D01*
X113157000Y-136440333D01*
X113157000Y-135763000D01*
X113241666Y-135593666D01*
X113411000Y-135509000D01*
X113749666Y-135509000D01*
X113919000Y-135593666D01*
X114003666Y-135763000D01*
X114003666Y-135932333D01*
X113157000Y-136101666D01*
X114765666Y-136694333D02*
X114765666Y-135509000D01*
X114765666Y-135847666D02*
X114850333Y-135678333D01*
X114935000Y-135593666D01*
X115104333Y-135509000D01*
X115273666Y-135509000D01*
X116543666Y-136609666D02*
X116374333Y-136694333D01*
X116035666Y-136694333D01*
X115866333Y-136609666D01*
X115781666Y-136440333D01*
X115781666Y-135763000D01*
X115866333Y-135593666D01*
X116035666Y-135509000D01*
X116374333Y-135509000D01*
X116543666Y-135593666D01*
X116628333Y-135763000D01*
X116628333Y-135932333D01*
X115781666Y-136101666D01*
X117390333Y-135509000D02*
X117390333Y-136694333D01*
X117390333Y-135678333D02*
X117475000Y-135593666D01*
X117644333Y-135509000D01*
X117898333Y-135509000D01*
X118067666Y-135593666D01*
X118152333Y-135763000D01*
X118152333Y-136694333D01*
X118745000Y-135509000D02*
X119422333Y-135509000D01*
X118999000Y-134916333D02*
X118999000Y-136440333D01*
X119083666Y-136609666D01*
X119253000Y-136694333D01*
X119422333Y-136694333D01*
X120015000Y-136694333D02*
X120015000Y-135509000D01*
X120015000Y-134916333D02*
X119930333Y-135001000D01*
X120015000Y-135085666D01*
X120099666Y-135001000D01*
X120015000Y-134916333D01*
X120015000Y-135085666D01*
X121623666Y-136694333D02*
X121623666Y-135763000D01*
X121539000Y-135593666D01*
X121369666Y-135509000D01*
X121031000Y-135509000D01*
X120861666Y-135593666D01*
X121623666Y-136609666D02*
X121454333Y-136694333D01*
X121031000Y-136694333D01*
X120861666Y-136609666D01*
X120777000Y-136440333D01*
X120777000Y-136271000D01*
X120861666Y-136101666D01*
X121031000Y-136017000D01*
X121454333Y-136017000D01*
X121623666Y-135932333D01*
X122724333Y-136694333D02*
X122555000Y-136609666D01*
X122470333Y-136440333D01*
X122470333Y-134916333D01*
D15*
%TO.C,G\u002A\u002A\u002A*%
G36*
X186105800Y-139446000D02*
G01*
X186108132Y-139864195D01*
X186123016Y-140119422D01*
X186162286Y-140251911D01*
X186237773Y-140301894D01*
X186359800Y-140309600D01*
X186550772Y-140342101D01*
X186613800Y-140404503D01*
X186574012Y-140565851D01*
X186472684Y-140828147D01*
X186336864Y-141133647D01*
X186193603Y-141424609D01*
X186069949Y-141643290D01*
X185992953Y-141731948D01*
X185991931Y-141732000D01*
X185922009Y-141648481D01*
X185796757Y-141434681D01*
X185643984Y-141145729D01*
X185491497Y-140836756D01*
X185367105Y-140562895D01*
X185298617Y-140379276D01*
X185293000Y-140346347D01*
X185381481Y-140320522D01*
X185594600Y-140309602D01*
X185597800Y-140309600D01*
X185902600Y-140309600D01*
X185902600Y-138785600D01*
X181229000Y-138785600D01*
X181229000Y-140509225D01*
X181230517Y-141141518D01*
X181237228Y-141600765D01*
X181252369Y-141917111D01*
X181279175Y-142120700D01*
X181320882Y-142241677D01*
X181380728Y-142310186D01*
X181425319Y-142337917D01*
X181617736Y-142517519D01*
X181687428Y-142650270D01*
X181737801Y-142753113D01*
X181837510Y-142812169D01*
X182031059Y-142836426D01*
X182362952Y-142834871D01*
X182568397Y-142828177D01*
X183383577Y-142798800D01*
X183572894Y-142299274D01*
X183697705Y-141997388D01*
X183809049Y-141773738D01*
X183855161Y-141706798D01*
X183935508Y-141746044D01*
X184058767Y-141956119D01*
X184211039Y-142312759D01*
X184228523Y-142358724D01*
X184431233Y-142903459D01*
X184573545Y-143270044D01*
X184675685Y-143466846D01*
X184757882Y-143502234D01*
X184840363Y-143384577D01*
X184943355Y-143122244D01*
X185087086Y-142723604D01*
X185090177Y-142715215D01*
X185248839Y-142308600D01*
X185392661Y-141982372D01*
X185502267Y-141778293D01*
X185547000Y-141730672D01*
X185624136Y-141810025D01*
X185749564Y-142040773D01*
X185903107Y-142382995D01*
X186004146Y-142635138D01*
X186160380Y-143028810D01*
X186293144Y-143339251D01*
X186384405Y-143525563D01*
X186412289Y-143560800D01*
X186467763Y-143472049D01*
X186570058Y-143235471D01*
X186700450Y-142895577D01*
X186750789Y-142756141D01*
X186939436Y-142239462D01*
X187082197Y-141907377D01*
X187196447Y-141751377D01*
X187299564Y-141762954D01*
X187408922Y-141933601D01*
X187541899Y-142254809D01*
X187578348Y-142350939D01*
X187730911Y-142754440D01*
X187870681Y-143121188D01*
X187970076Y-143378843D01*
X187978114Y-143399337D01*
X188094492Y-143695074D01*
X188373524Y-142849600D01*
X194437000Y-142849600D01*
X194437000Y-151970229D01*
X194691000Y-152136657D01*
X194873754Y-152302508D01*
X194945000Y-152453142D01*
X194977795Y-152519200D01*
X195097030Y-152563194D01*
X195333979Y-152589140D01*
X195719916Y-152601054D01*
X196113400Y-152603200D01*
X196633285Y-152611668D01*
X197015877Y-152635653D01*
X197236639Y-152673019D01*
X197281800Y-152704800D01*
X197184595Y-152750505D01*
X196910083Y-152783993D01*
X196483913Y-152802953D01*
X196153422Y-152806400D01*
X195658775Y-152808750D01*
X195325513Y-152821131D01*
X195111832Y-152851537D01*
X194975925Y-152907964D01*
X194875987Y-152998405D01*
X194825248Y-153060400D01*
X194587654Y-153255696D01*
X194373974Y-153314400D01*
X194131510Y-153242011D01*
X193893460Y-153067169D01*
X193887098Y-153060400D01*
X193763178Y-152942195D01*
X193625330Y-152867684D01*
X193425775Y-152826875D01*
X193116735Y-152809778D01*
X192672392Y-152806400D01*
X191693087Y-152806400D01*
X186015250Y-155645673D01*
X185016517Y-156143650D01*
X184071800Y-156611879D01*
X183196680Y-157042821D01*
X182406741Y-157428937D01*
X181717565Y-157762690D01*
X181144734Y-158036539D01*
X180703831Y-158242947D01*
X180410437Y-158374373D01*
X180280136Y-158423280D01*
X180275207Y-158422740D01*
X180252621Y-158303736D01*
X180233696Y-158020300D01*
X180220076Y-157611191D01*
X180213402Y-157115167D01*
X180213000Y-156955066D01*
X180213000Y-155549600D01*
X177673000Y-155549600D01*
X177673000Y-156768800D01*
X178384200Y-156768800D01*
X178734739Y-156779097D01*
X178988748Y-156806196D01*
X179094839Y-156844406D01*
X179095400Y-156847542D01*
X179027518Y-156947369D01*
X178844006Y-157155583D01*
X178575063Y-157439068D01*
X178333491Y-157683108D01*
X177571583Y-158439932D01*
X176860291Y-157734090D01*
X176557019Y-157420684D01*
X176318148Y-157150120D01*
X176184641Y-156972000D01*
X176511541Y-156972000D01*
X177063400Y-157530800D01*
X177324667Y-157794516D01*
X177521077Y-157991176D01*
X177617747Y-158085900D01*
X177622200Y-158089600D01*
X177691224Y-158023024D01*
X177867947Y-157846551D01*
X178117487Y-157595064D01*
X178181000Y-157530800D01*
X178732858Y-156972000D01*
X176511541Y-156972000D01*
X176184641Y-156972000D01*
X176175369Y-156959630D01*
X176149000Y-156898524D01*
X176223188Y-156821111D01*
X176459758Y-156779357D01*
X176804757Y-156768800D01*
X177460515Y-156768800D01*
X177490557Y-156083000D01*
X177520600Y-155397200D01*
X180213000Y-155340502D01*
X180213000Y-152653804D01*
X180619400Y-152653804D01*
X180620363Y-153663500D01*
X180623128Y-154609087D01*
X180627511Y-155471611D01*
X180633325Y-156232117D01*
X180640385Y-156871652D01*
X180648507Y-157371262D01*
X180657503Y-157711994D01*
X180667190Y-157874892D01*
X180670590Y-157886400D01*
X180768331Y-157842222D01*
X181031438Y-157715070D01*
X181443615Y-157513013D01*
X181988567Y-157244121D01*
X182649998Y-156916463D01*
X183411612Y-156538108D01*
X184257113Y-156117127D01*
X185170205Y-155661588D01*
X185914148Y-155289824D01*
X186865807Y-154813039D01*
X187759861Y-154363398D01*
X188580347Y-153949047D01*
X189311300Y-153578131D01*
X189936754Y-153258794D01*
X190440745Y-152999183D01*
X190807308Y-152807441D01*
X191020478Y-152691714D01*
X191069958Y-152659417D01*
X190974891Y-152609054D01*
X190714242Y-152476111D01*
X190304243Y-152268747D01*
X189761127Y-151995124D01*
X189101125Y-151663401D01*
X188340470Y-151281739D01*
X187495394Y-150858297D01*
X186582129Y-150401236D01*
X185826400Y-150023397D01*
X180619400Y-147421209D01*
X180619400Y-152653804D01*
X180213000Y-152653804D01*
X180213000Y-149961600D01*
X178548285Y-149961600D01*
X177932222Y-149962347D01*
X177487477Y-149967539D01*
X177182164Y-149981596D01*
X176984401Y-150008943D01*
X176862304Y-150054001D01*
X176783989Y-150121194D01*
X176717573Y-150214943D01*
X176717142Y-150215600D01*
X176519225Y-150409183D01*
X176228809Y-150469324D01*
X176199800Y-150469600D01*
X175898644Y-150418152D01*
X175696510Y-150236467D01*
X175682457Y-150215600D01*
X175516029Y-149961600D01*
X171780200Y-149961600D01*
X171780200Y-151126425D01*
X171776591Y-151637279D01*
X171762197Y-151981898D01*
X171731662Y-152197173D01*
X171679634Y-152319994D01*
X171600759Y-152387255D01*
X171596925Y-152389336D01*
X171468662Y-152447173D01*
X171368940Y-152453471D01*
X171294542Y-152387975D01*
X171242253Y-152230430D01*
X171208855Y-151960582D01*
X171191133Y-151558176D01*
X171185870Y-151002957D01*
X171189850Y-150274670D01*
X171194152Y-149852861D01*
X171221400Y-147370800D01*
X171729400Y-147370800D01*
X171786648Y-149758400D01*
X173659449Y-149758400D01*
X174321796Y-149757093D01*
X174809745Y-149751266D01*
X175152094Y-149738063D01*
X175377639Y-149714623D01*
X175515175Y-149678090D01*
X175593499Y-149625604D01*
X175637317Y-149562080D01*
X175814836Y-149370449D01*
X175945692Y-149301234D01*
X176002295Y-149276794D01*
X176047287Y-149229145D01*
X176081998Y-149136948D01*
X176107760Y-148978862D01*
X176125905Y-148733547D01*
X176137764Y-148379664D01*
X176144670Y-147895872D01*
X176147953Y-147260832D01*
X176148945Y-146453203D01*
X176149000Y-146043153D01*
X176149000Y-143052800D01*
X176352200Y-143052800D01*
X176352200Y-149164430D01*
X176649184Y-149461415D01*
X176946169Y-149758400D01*
X180213000Y-149758400D01*
X180213000Y-148392796D01*
X180219800Y-147885649D01*
X180238432Y-147454792D01*
X180266246Y-147139422D01*
X180300590Y-146978738D01*
X180309398Y-146967614D01*
X180414798Y-147001469D01*
X180685841Y-147119423D01*
X181106825Y-147313899D01*
X181662047Y-147577318D01*
X182335806Y-147902105D01*
X183112401Y-148280680D01*
X183976129Y-148705468D01*
X184911289Y-149168891D01*
X185902179Y-149663371D01*
X186075198Y-149750054D01*
X191744600Y-152592072D01*
X192728353Y-152597636D01*
X193186171Y-152596494D01*
X193480617Y-152581948D01*
X193651424Y-152546689D01*
X193738330Y-152483413D01*
X193774950Y-152405197D01*
X193918469Y-152210160D01*
X194035797Y-152144350D01*
X194082950Y-152123379D01*
X194121958Y-152081259D01*
X194153592Y-152000157D01*
X194178625Y-151862241D01*
X194197827Y-151649678D01*
X194211969Y-151344637D01*
X194221824Y-150929285D01*
X194228162Y-150385791D01*
X194231756Y-149696321D01*
X194233375Y-148843043D01*
X194233792Y-147808126D01*
X194233800Y-147567153D01*
X194233800Y-143052800D01*
X188571412Y-143052800D01*
X188375387Y-143568696D01*
X188250332Y-143858245D01*
X188137589Y-144053200D01*
X188084079Y-144102096D01*
X188011032Y-144020642D01*
X187890822Y-143787128D01*
X187742616Y-143441560D01*
X187640409Y-143175968D01*
X187486861Y-142787402D01*
X187351057Y-142493260D01*
X187251075Y-142330067D01*
X187212932Y-142312368D01*
X187143625Y-142439285D01*
X187027776Y-142707799D01*
X186886524Y-143067912D01*
X186835416Y-143205200D01*
X186685943Y-143573923D01*
X186545037Y-143855326D01*
X186436063Y-144004944D01*
X186408302Y-144018000D01*
X186320368Y-143928823D01*
X186186802Y-143688547D01*
X186028562Y-143338051D01*
X185921985Y-143069381D01*
X185564355Y-142120763D01*
X185190178Y-143120181D01*
X185028219Y-143531603D01*
X184883551Y-143860783D01*
X184774560Y-144068040D01*
X184727146Y-144119600D01*
X184654449Y-144031009D01*
X184534082Y-143793669D01*
X184386615Y-143450233D01*
X184310642Y-143256000D01*
X184160338Y-142862079D01*
X184034985Y-142537680D01*
X183953627Y-142331906D01*
X183936309Y-142290800D01*
X183875703Y-142312982D01*
X183773854Y-142483389D01*
X183712301Y-142621000D01*
X183534976Y-143052800D01*
X182676054Y-143052800D01*
X182240373Y-143059115D01*
X181950619Y-143086392D01*
X181749700Y-143147123D01*
X181580520Y-143253801D01*
X181515271Y-143306800D01*
X181282490Y-143472205D01*
X181091554Y-143557610D01*
X181064186Y-143560800D01*
X180896018Y-143493527D01*
X180684055Y-143329307D01*
X180660963Y-143306800D01*
X180570265Y-143220494D01*
X180475439Y-143156356D01*
X180346933Y-143111095D01*
X180155193Y-143081422D01*
X179870664Y-143064045D01*
X179463792Y-143055674D01*
X178905023Y-143053019D01*
X178379581Y-143052800D01*
X176352200Y-143052800D01*
X176149000Y-143052800D01*
X176149000Y-142849600D01*
X180294279Y-142849600D01*
X180660039Y-142483840D01*
X181025800Y-142118080D01*
X181025800Y-138582400D01*
X186105800Y-138582400D01*
X186105800Y-139446000D01*
G37*
X186105800Y-139446000D02*
X186108132Y-139864195D01*
X186123016Y-140119422D01*
X186162286Y-140251911D01*
X186237773Y-140301894D01*
X186359800Y-140309600D01*
X186550772Y-140342101D01*
X186613800Y-140404503D01*
X186574012Y-140565851D01*
X186472684Y-140828147D01*
X186336864Y-141133647D01*
X186193603Y-141424609D01*
X186069949Y-141643290D01*
X185992953Y-141731948D01*
X185991931Y-141732000D01*
X185922009Y-141648481D01*
X185796757Y-141434681D01*
X185643984Y-141145729D01*
X185491497Y-140836756D01*
X185367105Y-140562895D01*
X185298617Y-140379276D01*
X185293000Y-140346347D01*
X185381481Y-140320522D01*
X185594600Y-140309602D01*
X185597800Y-140309600D01*
X185902600Y-140309600D01*
X185902600Y-138785600D01*
X181229000Y-138785600D01*
X181229000Y-140509225D01*
X181230517Y-141141518D01*
X181237228Y-141600765D01*
X181252369Y-141917111D01*
X181279175Y-142120700D01*
X181320882Y-142241677D01*
X181380728Y-142310186D01*
X181425319Y-142337917D01*
X181617736Y-142517519D01*
X181687428Y-142650270D01*
X181737801Y-142753113D01*
X181837510Y-142812169D01*
X182031059Y-142836426D01*
X182362952Y-142834871D01*
X182568397Y-142828177D01*
X183383577Y-142798800D01*
X183572894Y-142299274D01*
X183697705Y-141997388D01*
X183809049Y-141773738D01*
X183855161Y-141706798D01*
X183935508Y-141746044D01*
X184058767Y-141956119D01*
X184211039Y-142312759D01*
X184228523Y-142358724D01*
X184431233Y-142903459D01*
X184573545Y-143270044D01*
X184675685Y-143466846D01*
X184757882Y-143502234D01*
X184840363Y-143384577D01*
X184943355Y-143122244D01*
X185087086Y-142723604D01*
X185090177Y-142715215D01*
X185248839Y-142308600D01*
X185392661Y-141982372D01*
X185502267Y-141778293D01*
X185547000Y-141730672D01*
X185624136Y-141810025D01*
X185749564Y-142040773D01*
X185903107Y-142382995D01*
X186004146Y-142635138D01*
X186160380Y-143028810D01*
X186293144Y-143339251D01*
X186384405Y-143525563D01*
X186412289Y-143560800D01*
X186467763Y-143472049D01*
X186570058Y-143235471D01*
X186700450Y-142895577D01*
X186750789Y-142756141D01*
X186939436Y-142239462D01*
X187082197Y-141907377D01*
X187196447Y-141751377D01*
X187299564Y-141762954D01*
X187408922Y-141933601D01*
X187541899Y-142254809D01*
X187578348Y-142350939D01*
X187730911Y-142754440D01*
X187870681Y-143121188D01*
X187970076Y-143378843D01*
X187978114Y-143399337D01*
X188094492Y-143695074D01*
X188373524Y-142849600D01*
X194437000Y-142849600D01*
X194437000Y-151970229D01*
X194691000Y-152136657D01*
X194873754Y-152302508D01*
X194945000Y-152453142D01*
X194977795Y-152519200D01*
X195097030Y-152563194D01*
X195333979Y-152589140D01*
X195719916Y-152601054D01*
X196113400Y-152603200D01*
X196633285Y-152611668D01*
X197015877Y-152635653D01*
X197236639Y-152673019D01*
X197281800Y-152704800D01*
X197184595Y-152750505D01*
X196910083Y-152783993D01*
X196483913Y-152802953D01*
X196153422Y-152806400D01*
X195658775Y-152808750D01*
X195325513Y-152821131D01*
X195111832Y-152851537D01*
X194975925Y-152907964D01*
X194875987Y-152998405D01*
X194825248Y-153060400D01*
X194587654Y-153255696D01*
X194373974Y-153314400D01*
X194131510Y-153242011D01*
X193893460Y-153067169D01*
X193887098Y-153060400D01*
X193763178Y-152942195D01*
X193625330Y-152867684D01*
X193425775Y-152826875D01*
X193116735Y-152809778D01*
X192672392Y-152806400D01*
X191693087Y-152806400D01*
X186015250Y-155645673D01*
X185016517Y-156143650D01*
X184071800Y-156611879D01*
X183196680Y-157042821D01*
X182406741Y-157428937D01*
X181717565Y-157762690D01*
X181144734Y-158036539D01*
X180703831Y-158242947D01*
X180410437Y-158374373D01*
X180280136Y-158423280D01*
X180275207Y-158422740D01*
X180252621Y-158303736D01*
X180233696Y-158020300D01*
X180220076Y-157611191D01*
X180213402Y-157115167D01*
X180213000Y-156955066D01*
X180213000Y-155549600D01*
X177673000Y-155549600D01*
X177673000Y-156768800D01*
X178384200Y-156768800D01*
X178734739Y-156779097D01*
X178988748Y-156806196D01*
X179094839Y-156844406D01*
X179095400Y-156847542D01*
X179027518Y-156947369D01*
X178844006Y-157155583D01*
X178575063Y-157439068D01*
X178333491Y-157683108D01*
X177571583Y-158439932D01*
X176860291Y-157734090D01*
X176557019Y-157420684D01*
X176318148Y-157150120D01*
X176184641Y-156972000D01*
X176511541Y-156972000D01*
X177063400Y-157530800D01*
X177324667Y-157794516D01*
X177521077Y-157991176D01*
X177617747Y-158085900D01*
X177622200Y-158089600D01*
X177691224Y-158023024D01*
X177867947Y-157846551D01*
X178117487Y-157595064D01*
X178181000Y-157530800D01*
X178732858Y-156972000D01*
X176511541Y-156972000D01*
X176184641Y-156972000D01*
X176175369Y-156959630D01*
X176149000Y-156898524D01*
X176223188Y-156821111D01*
X176459758Y-156779357D01*
X176804757Y-156768800D01*
X177460515Y-156768800D01*
X177490557Y-156083000D01*
X177520600Y-155397200D01*
X180213000Y-155340502D01*
X180213000Y-152653804D01*
X180619400Y-152653804D01*
X180620363Y-153663500D01*
X180623128Y-154609087D01*
X180627511Y-155471611D01*
X180633325Y-156232117D01*
X180640385Y-156871652D01*
X180648507Y-157371262D01*
X180657503Y-157711994D01*
X180667190Y-157874892D01*
X180670590Y-157886400D01*
X180768331Y-157842222D01*
X181031438Y-157715070D01*
X181443615Y-157513013D01*
X181988567Y-157244121D01*
X182649998Y-156916463D01*
X183411612Y-156538108D01*
X184257113Y-156117127D01*
X185170205Y-155661588D01*
X185914148Y-155289824D01*
X186865807Y-154813039D01*
X187759861Y-154363398D01*
X188580347Y-153949047D01*
X189311300Y-153578131D01*
X189936754Y-153258794D01*
X190440745Y-152999183D01*
X190807308Y-152807441D01*
X191020478Y-152691714D01*
X191069958Y-152659417D01*
X190974891Y-152609054D01*
X190714242Y-152476111D01*
X190304243Y-152268747D01*
X189761127Y-151995124D01*
X189101125Y-151663401D01*
X188340470Y-151281739D01*
X187495394Y-150858297D01*
X186582129Y-150401236D01*
X185826400Y-150023397D01*
X180619400Y-147421209D01*
X180619400Y-152653804D01*
X180213000Y-152653804D01*
X180213000Y-149961600D01*
X178548285Y-149961600D01*
X177932222Y-149962347D01*
X177487477Y-149967539D01*
X177182164Y-149981596D01*
X176984401Y-150008943D01*
X176862304Y-150054001D01*
X176783989Y-150121194D01*
X176717573Y-150214943D01*
X176717142Y-150215600D01*
X176519225Y-150409183D01*
X176228809Y-150469324D01*
X176199800Y-150469600D01*
X175898644Y-150418152D01*
X175696510Y-150236467D01*
X175682457Y-150215600D01*
X175516029Y-149961600D01*
X171780200Y-149961600D01*
X171780200Y-151126425D01*
X171776591Y-151637279D01*
X171762197Y-151981898D01*
X171731662Y-152197173D01*
X171679634Y-152319994D01*
X171600759Y-152387255D01*
X171596925Y-152389336D01*
X171468662Y-152447173D01*
X171368940Y-152453471D01*
X171294542Y-152387975D01*
X171242253Y-152230430D01*
X171208855Y-151960582D01*
X171191133Y-151558176D01*
X171185870Y-151002957D01*
X171189850Y-150274670D01*
X171194152Y-149852861D01*
X171221400Y-147370800D01*
X171729400Y-147370800D01*
X171786648Y-149758400D01*
X173659449Y-149758400D01*
X174321796Y-149757093D01*
X174809745Y-149751266D01*
X175152094Y-149738063D01*
X175377639Y-149714623D01*
X175515175Y-149678090D01*
X175593499Y-149625604D01*
X175637317Y-149562080D01*
X175814836Y-149370449D01*
X175945692Y-149301234D01*
X176002295Y-149276794D01*
X176047287Y-149229145D01*
X176081998Y-149136948D01*
X176107760Y-148978862D01*
X176125905Y-148733547D01*
X176137764Y-148379664D01*
X176144670Y-147895872D01*
X176147953Y-147260832D01*
X176148945Y-146453203D01*
X176149000Y-146043153D01*
X176149000Y-143052800D01*
X176352200Y-143052800D01*
X176352200Y-149164430D01*
X176649184Y-149461415D01*
X176946169Y-149758400D01*
X180213000Y-149758400D01*
X180213000Y-148392796D01*
X180219800Y-147885649D01*
X180238432Y-147454792D01*
X180266246Y-147139422D01*
X180300590Y-146978738D01*
X180309398Y-146967614D01*
X180414798Y-147001469D01*
X180685841Y-147119423D01*
X181106825Y-147313899D01*
X181662047Y-147577318D01*
X182335806Y-147902105D01*
X183112401Y-148280680D01*
X183976129Y-148705468D01*
X184911289Y-149168891D01*
X185902179Y-149663371D01*
X186075198Y-149750054D01*
X191744600Y-152592072D01*
X192728353Y-152597636D01*
X193186171Y-152596494D01*
X193480617Y-152581948D01*
X193651424Y-152546689D01*
X193738330Y-152483413D01*
X193774950Y-152405197D01*
X193918469Y-152210160D01*
X194035797Y-152144350D01*
X194082950Y-152123379D01*
X194121958Y-152081259D01*
X194153592Y-152000157D01*
X194178625Y-151862241D01*
X194197827Y-151649678D01*
X194211969Y-151344637D01*
X194221824Y-150929285D01*
X194228162Y-150385791D01*
X194231756Y-149696321D01*
X194233375Y-148843043D01*
X194233792Y-147808126D01*
X194233800Y-147567153D01*
X194233800Y-143052800D01*
X188571412Y-143052800D01*
X188375387Y-143568696D01*
X188250332Y-143858245D01*
X188137589Y-144053200D01*
X188084079Y-144102096D01*
X188011032Y-144020642D01*
X187890822Y-143787128D01*
X187742616Y-143441560D01*
X187640409Y-143175968D01*
X187486861Y-142787402D01*
X187351057Y-142493260D01*
X187251075Y-142330067D01*
X187212932Y-142312368D01*
X187143625Y-142439285D01*
X187027776Y-142707799D01*
X186886524Y-143067912D01*
X186835416Y-143205200D01*
X186685943Y-143573923D01*
X186545037Y-143855326D01*
X186436063Y-144004944D01*
X186408302Y-144018000D01*
X186320368Y-143928823D01*
X186186802Y-143688547D01*
X186028562Y-143338051D01*
X185921985Y-143069381D01*
X185564355Y-142120763D01*
X185190178Y-143120181D01*
X185028219Y-143531603D01*
X184883551Y-143860783D01*
X184774560Y-144068040D01*
X184727146Y-144119600D01*
X184654449Y-144031009D01*
X184534082Y-143793669D01*
X184386615Y-143450233D01*
X184310642Y-143256000D01*
X184160338Y-142862079D01*
X184034985Y-142537680D01*
X183953627Y-142331906D01*
X183936309Y-142290800D01*
X183875703Y-142312982D01*
X183773854Y-142483389D01*
X183712301Y-142621000D01*
X183534976Y-143052800D01*
X182676054Y-143052800D01*
X182240373Y-143059115D01*
X181950619Y-143086392D01*
X181749700Y-143147123D01*
X181580520Y-143253801D01*
X181515271Y-143306800D01*
X181282490Y-143472205D01*
X181091554Y-143557610D01*
X181064186Y-143560800D01*
X180896018Y-143493527D01*
X180684055Y-143329307D01*
X180660963Y-143306800D01*
X180570265Y-143220494D01*
X180475439Y-143156356D01*
X180346933Y-143111095D01*
X180155193Y-143081422D01*
X179870664Y-143064045D01*
X179463792Y-143055674D01*
X178905023Y-143053019D01*
X178379581Y-143052800D01*
X176352200Y-143052800D01*
X176149000Y-143052800D01*
X176149000Y-142849600D01*
X180294279Y-142849600D01*
X180660039Y-142483840D01*
X181025800Y-142118080D01*
X181025800Y-138582400D01*
X186105800Y-138582400D01*
X186105800Y-139446000D01*
G36*
X179290732Y-153629192D02*
G01*
X179458667Y-153671477D01*
X179469733Y-153764514D01*
X179346861Y-153926764D01*
X179337686Y-153936943D01*
X179228394Y-154088847D01*
X179268385Y-154208419D01*
X179337686Y-154282400D01*
X179480852Y-154551946D01*
X179471597Y-154860349D01*
X179342142Y-155085142D01*
X179138904Y-155195286D01*
X178868815Y-155244438D01*
X178630939Y-155221051D01*
X178553533Y-155177066D01*
X178489800Y-155023052D01*
X178485800Y-154973005D01*
X178517358Y-154889106D01*
X178645336Y-154937054D01*
X178689351Y-154963797D01*
X178911965Y-155037576D01*
X179070351Y-154978985D01*
X179226657Y-154786104D01*
X179211088Y-154563078D01*
X179044600Y-154392273D01*
X178867745Y-154293566D01*
X178799689Y-154254822D01*
X178827761Y-154172160D01*
X178942436Y-154026222D01*
X179052048Y-153892069D01*
X179027686Y-153835270D01*
X178838866Y-153822577D01*
X178755546Y-153822400D01*
X178514324Y-153797889D01*
X178389127Y-153737297D01*
X178384200Y-153720800D01*
X178476062Y-153665160D01*
X178713029Y-153628256D01*
X178943000Y-153619200D01*
X179290732Y-153629192D01*
G37*
X179290732Y-153629192D02*
X179458667Y-153671477D01*
X179469733Y-153764514D01*
X179346861Y-153926764D01*
X179337686Y-153936943D01*
X179228394Y-154088847D01*
X179268385Y-154208419D01*
X179337686Y-154282400D01*
X179480852Y-154551946D01*
X179471597Y-154860349D01*
X179342142Y-155085142D01*
X179138904Y-155195286D01*
X178868815Y-155244438D01*
X178630939Y-155221051D01*
X178553533Y-155177066D01*
X178489800Y-155023052D01*
X178485800Y-154973005D01*
X178517358Y-154889106D01*
X178645336Y-154937054D01*
X178689351Y-154963797D01*
X178911965Y-155037576D01*
X179070351Y-154978985D01*
X179226657Y-154786104D01*
X179211088Y-154563078D01*
X179044600Y-154392273D01*
X178867745Y-154293566D01*
X178799689Y-154254822D01*
X178827761Y-154172160D01*
X178942436Y-154026222D01*
X179052048Y-153892069D01*
X179027686Y-153835270D01*
X178838866Y-153822577D01*
X178755546Y-153822400D01*
X178514324Y-153797889D01*
X178389127Y-153737297D01*
X178384200Y-153720800D01*
X178476062Y-153665160D01*
X178713029Y-153628256D01*
X178943000Y-153619200D01*
X179290732Y-153629192D01*
G36*
X169940364Y-147372948D02*
G01*
X170022202Y-147496956D01*
X170080478Y-147719663D01*
X170119023Y-148062429D01*
X170141666Y-148546618D01*
X170152239Y-149193590D01*
X170154600Y-149922961D01*
X170152743Y-150675357D01*
X170146049Y-151250145D01*
X170132830Y-151672893D01*
X170111398Y-151969168D01*
X170080065Y-152164538D01*
X170037145Y-152284572D01*
X169994942Y-152341942D01*
X169862105Y-152466579D01*
X169817142Y-152498510D01*
X169727042Y-152452132D01*
X169621200Y-152391861D01*
X169543113Y-152320708D01*
X169491453Y-152191086D01*
X169461057Y-151966219D01*
X169446764Y-151609330D01*
X169443400Y-151124951D01*
X169443400Y-149961600D01*
X165176200Y-149961600D01*
X165176200Y-151180800D01*
X159283400Y-151180800D01*
X159283400Y-149961600D01*
X157556200Y-149961600D01*
X156882535Y-149955772D01*
X156362493Y-149938866D01*
X156010777Y-149911747D01*
X155842090Y-149875279D01*
X155829000Y-149860000D01*
X155928057Y-149820331D01*
X156215388Y-149789718D01*
X156676231Y-149769034D01*
X157295825Y-149759148D01*
X157551129Y-149758400D01*
X159273259Y-149758400D01*
X159303729Y-149174200D01*
X159315652Y-148945600D01*
X159588200Y-148945600D01*
X159588200Y-150774400D01*
X164871400Y-150774400D01*
X164871400Y-148945600D01*
X159588200Y-148945600D01*
X159315652Y-148945600D01*
X159334200Y-148590000D01*
X165125400Y-148590000D01*
X165186340Y-149758400D01*
X169436951Y-149758400D01*
X169465575Y-148565827D01*
X169480585Y-148054742D01*
X169500742Y-147711936D01*
X169532436Y-147502491D01*
X169582055Y-147391490D01*
X169655989Y-147344015D01*
X169690684Y-147335579D01*
X169831135Y-147326276D01*
X169940364Y-147372948D01*
G37*
X169940364Y-147372948D02*
X170022202Y-147496956D01*
X170080478Y-147719663D01*
X170119023Y-148062429D01*
X170141666Y-148546618D01*
X170152239Y-149193590D01*
X170154600Y-149922961D01*
X170152743Y-150675357D01*
X170146049Y-151250145D01*
X170132830Y-151672893D01*
X170111398Y-151969168D01*
X170080065Y-152164538D01*
X170037145Y-152284572D01*
X169994942Y-152341942D01*
X169862105Y-152466579D01*
X169817142Y-152498510D01*
X169727042Y-152452132D01*
X169621200Y-152391861D01*
X169543113Y-152320708D01*
X169491453Y-152191086D01*
X169461057Y-151966219D01*
X169446764Y-151609330D01*
X169443400Y-151124951D01*
X169443400Y-149961600D01*
X165176200Y-149961600D01*
X165176200Y-151180800D01*
X159283400Y-151180800D01*
X159283400Y-149961600D01*
X157556200Y-149961600D01*
X156882535Y-149955772D01*
X156362493Y-149938866D01*
X156010777Y-149911747D01*
X155842090Y-149875279D01*
X155829000Y-149860000D01*
X155928057Y-149820331D01*
X156215388Y-149789718D01*
X156676231Y-149769034D01*
X157295825Y-149759148D01*
X157551129Y-149758400D01*
X159273259Y-149758400D01*
X159303729Y-149174200D01*
X159315652Y-148945600D01*
X159588200Y-148945600D01*
X159588200Y-150774400D01*
X164871400Y-150774400D01*
X164871400Y-148945600D01*
X159588200Y-148945600D01*
X159315652Y-148945600D01*
X159334200Y-148590000D01*
X165125400Y-148590000D01*
X165186340Y-149758400D01*
X169436951Y-149758400D01*
X169465575Y-148565827D01*
X169480585Y-148054742D01*
X169500742Y-147711936D01*
X169532436Y-147502491D01*
X169582055Y-147391490D01*
X169655989Y-147344015D01*
X169690684Y-147335579D01*
X169831135Y-147326276D01*
X169940364Y-147372948D01*
G36*
X198087209Y-150822247D02*
G01*
X198235292Y-150909786D01*
X198394768Y-151042122D01*
X198474178Y-151213086D01*
X198499840Y-151493027D01*
X198501000Y-151620022D01*
X198479121Y-151947413D01*
X198423166Y-152197521D01*
X198379080Y-152278080D01*
X198153997Y-152387636D01*
X197865609Y-152396081D01*
X197605228Y-152312050D01*
X197483149Y-152193341D01*
X197422116Y-151967776D01*
X197400269Y-151659819D01*
X197588729Y-151659819D01*
X197660511Y-151928677D01*
X197810835Y-152121608D01*
X198023381Y-152177828D01*
X198025274Y-152177565D01*
X198165328Y-152125350D01*
X198239744Y-151983945D01*
X198275791Y-151698500D01*
X198277704Y-151669813D01*
X198280644Y-151358667D01*
X198225399Y-151182929D01*
X198106960Y-151085815D01*
X197902499Y-151036908D01*
X197746055Y-151137458D01*
X197611804Y-151375818D01*
X197588729Y-151659819D01*
X197400269Y-151659819D01*
X197399172Y-151644361D01*
X197403374Y-151510826D01*
X197445351Y-151192935D01*
X197541859Y-151004111D01*
X197701892Y-150885329D01*
X197914166Y-150792868D01*
X198087209Y-150822247D01*
G37*
X198087209Y-150822247D02*
X198235292Y-150909786D01*
X198394768Y-151042122D01*
X198474178Y-151213086D01*
X198499840Y-151493027D01*
X198501000Y-151620022D01*
X198479121Y-151947413D01*
X198423166Y-152197521D01*
X198379080Y-152278080D01*
X198153997Y-152387636D01*
X197865609Y-152396081D01*
X197605228Y-152312050D01*
X197483149Y-152193341D01*
X197422116Y-151967776D01*
X197400269Y-151659819D01*
X197588729Y-151659819D01*
X197660511Y-151928677D01*
X197810835Y-152121608D01*
X198023381Y-152177828D01*
X198025274Y-152177565D01*
X198165328Y-152125350D01*
X198239744Y-151983945D01*
X198275791Y-151698500D01*
X198277704Y-151669813D01*
X198280644Y-151358667D01*
X198225399Y-151182929D01*
X198106960Y-151085815D01*
X197902499Y-151036908D01*
X197746055Y-151137458D01*
X197611804Y-151375818D01*
X197588729Y-151659819D01*
X197400269Y-151659819D01*
X197399172Y-151644361D01*
X197403374Y-151510826D01*
X197445351Y-151192935D01*
X197541859Y-151004111D01*
X197701892Y-150885329D01*
X197914166Y-150792868D01*
X198087209Y-150822247D01*
G36*
X199876411Y-150954146D02*
G01*
X199908941Y-151216023D01*
X199922437Y-151546994D01*
X199915233Y-151880308D01*
X199885663Y-152149217D01*
X199861729Y-152239290D01*
X199723814Y-152352662D01*
X199480040Y-152398683D01*
X199217640Y-152373289D01*
X199029320Y-152278080D01*
X198965709Y-152119078D01*
X198925285Y-151836699D01*
X198909213Y-151498435D01*
X198918659Y-151171780D01*
X198954786Y-150924227D01*
X199004287Y-150828112D01*
X199059338Y-150888148D01*
X199104320Y-151116037D01*
X199131287Y-151457116D01*
X199151756Y-151821650D01*
X199185408Y-152027937D01*
X199250755Y-152120862D01*
X199366308Y-152145308D01*
X199415400Y-152146000D01*
X199550345Y-152133703D01*
X199629326Y-152066889D01*
X199670855Y-151900675D01*
X199693441Y-151590178D01*
X199699512Y-151457116D01*
X199728258Y-151102124D01*
X199773872Y-150881312D01*
X199826512Y-150828112D01*
X199876411Y-150954146D01*
G37*
X199876411Y-150954146D02*
X199908941Y-151216023D01*
X199922437Y-151546994D01*
X199915233Y-151880308D01*
X199885663Y-152149217D01*
X199861729Y-152239290D01*
X199723814Y-152352662D01*
X199480040Y-152398683D01*
X199217640Y-152373289D01*
X199029320Y-152278080D01*
X198965709Y-152119078D01*
X198925285Y-151836699D01*
X198909213Y-151498435D01*
X198918659Y-151171780D01*
X198954786Y-150924227D01*
X199004287Y-150828112D01*
X199059338Y-150888148D01*
X199104320Y-151116037D01*
X199131287Y-151457116D01*
X199151756Y-151821650D01*
X199185408Y-152027937D01*
X199250755Y-152120862D01*
X199366308Y-152145308D01*
X199415400Y-152146000D01*
X199550345Y-152133703D01*
X199629326Y-152066889D01*
X199670855Y-151900675D01*
X199693441Y-151590178D01*
X199699512Y-151457116D01*
X199728258Y-151102124D01*
X199773872Y-150881312D01*
X199826512Y-150828112D01*
X199876411Y-150954146D01*
G36*
X200966548Y-150795442D02*
G01*
X201159378Y-150848432D01*
X201193400Y-150876000D01*
X201157429Y-150951338D01*
X200996196Y-150977600D01*
X200860388Y-150987368D01*
X200782666Y-151046210D01*
X200746834Y-151198428D01*
X200736695Y-151488327D01*
X200736200Y-151688800D01*
X200722775Y-152053628D01*
X200686795Y-152305721D01*
X200634698Y-152399999D01*
X200634600Y-152400000D01*
X200582481Y-152306028D01*
X200546468Y-152054165D01*
X200533000Y-151689490D01*
X200533000Y-151688800D01*
X200524037Y-151302393D01*
X200491810Y-151081240D01*
X200428311Y-150987969D01*
X200380600Y-150977600D01*
X200245393Y-150922738D01*
X200228200Y-150876000D01*
X200318935Y-150815072D01*
X200548191Y-150778807D01*
X200679403Y-150774400D01*
X200966548Y-150795442D01*
G37*
X200966548Y-150795442D02*
X201159378Y-150848432D01*
X201193400Y-150876000D01*
X201157429Y-150951338D01*
X200996196Y-150977600D01*
X200860388Y-150987368D01*
X200782666Y-151046210D01*
X200746834Y-151198428D01*
X200736695Y-151488327D01*
X200736200Y-151688800D01*
X200722775Y-152053628D01*
X200686795Y-152305721D01*
X200634698Y-152399999D01*
X200634600Y-152400000D01*
X200582481Y-152306028D01*
X200546468Y-152054165D01*
X200533000Y-151689490D01*
X200533000Y-151688800D01*
X200524037Y-151302393D01*
X200491810Y-151081240D01*
X200428311Y-150987969D01*
X200380600Y-150977600D01*
X200245393Y-150922738D01*
X200228200Y-150876000D01*
X200318935Y-150815072D01*
X200548191Y-150778807D01*
X200679403Y-150774400D01*
X200966548Y-150795442D01*
G36*
X154050514Y-148126259D02*
G01*
X154085872Y-148385783D01*
X154101461Y-148771288D01*
X154101800Y-148844000D01*
X154099466Y-149264118D01*
X154088502Y-149513748D01*
X154062963Y-149625582D01*
X154016906Y-149632313D01*
X153966333Y-149589066D01*
X153925566Y-149454811D01*
X153903339Y-149192753D01*
X153898354Y-148862545D01*
X153909315Y-148523841D01*
X153934925Y-148236296D01*
X153973888Y-148059561D01*
X154000200Y-148031200D01*
X154050514Y-148126259D01*
G37*
X154050514Y-148126259D02*
X154085872Y-148385783D01*
X154101461Y-148771288D01*
X154101800Y-148844000D01*
X154099466Y-149264118D01*
X154088502Y-149513748D01*
X154062963Y-149625582D01*
X154016906Y-149632313D01*
X153966333Y-149589066D01*
X153925566Y-149454811D01*
X153903339Y-149192753D01*
X153898354Y-148862545D01*
X153909315Y-148523841D01*
X153934925Y-148236296D01*
X153973888Y-148059561D01*
X154000200Y-148031200D01*
X154050514Y-148126259D01*
G36*
X155574514Y-148126259D02*
G01*
X155609872Y-148385783D01*
X155625461Y-148771288D01*
X155625800Y-148844000D01*
X155615963Y-149221450D01*
X155589823Y-149505686D01*
X155552434Y-149648635D01*
X155540347Y-149656800D01*
X155449591Y-149574878D01*
X155300774Y-149362220D01*
X155159347Y-149123400D01*
X154863800Y-148590000D01*
X154833090Y-149123400D01*
X154796882Y-149473928D01*
X154746809Y-149635487D01*
X154693097Y-149620871D01*
X154645973Y-149442877D01*
X154615663Y-149114302D01*
X154609800Y-148844000D01*
X154620529Y-148466558D01*
X154649041Y-148182325D01*
X154689824Y-148039369D01*
X154703013Y-148031200D01*
X154799546Y-148112299D01*
X154956166Y-148323014D01*
X155107172Y-148564600D01*
X155418117Y-149098000D01*
X155420358Y-148564600D01*
X155439066Y-148266574D01*
X155484717Y-148072972D01*
X155524200Y-148031200D01*
X155574514Y-148126259D01*
G37*
X155574514Y-148126259D02*
X155609872Y-148385783D01*
X155625461Y-148771288D01*
X155625800Y-148844000D01*
X155615963Y-149221450D01*
X155589823Y-149505686D01*
X155552434Y-149648635D01*
X155540347Y-149656800D01*
X155449591Y-149574878D01*
X155300774Y-149362220D01*
X155159347Y-149123400D01*
X154863800Y-148590000D01*
X154833090Y-149123400D01*
X154796882Y-149473928D01*
X154746809Y-149635487D01*
X154693097Y-149620871D01*
X154645973Y-149442877D01*
X154615663Y-149114302D01*
X154609800Y-148844000D01*
X154620529Y-148466558D01*
X154649041Y-148182325D01*
X154689824Y-148039369D01*
X154703013Y-148031200D01*
X154799546Y-148112299D01*
X154956166Y-148323014D01*
X155107172Y-148564600D01*
X155418117Y-149098000D01*
X155420358Y-148564600D01*
X155439066Y-148266574D01*
X155484717Y-148072972D01*
X155524200Y-148031200D01*
X155574514Y-148126259D01*
G36*
X182528851Y-141724681D02*
G01*
X182550747Y-142102257D01*
X182586279Y-142319372D01*
X182649043Y-142418766D01*
X182752638Y-142443178D01*
X182757451Y-142443200D01*
X182920115Y-142486599D01*
X182956200Y-142544800D01*
X182864823Y-142602757D01*
X182631189Y-142639543D01*
X182448200Y-142646400D01*
X182158414Y-142628124D01*
X181974482Y-142581397D01*
X181940200Y-142544800D01*
X182025294Y-142462251D01*
X182143400Y-142443200D01*
X182271426Y-142412593D01*
X182331282Y-142286090D01*
X182346580Y-142011662D01*
X182346600Y-141995511D01*
X182337298Y-141720682D01*
X182290941Y-141601383D01*
X182179848Y-141590160D01*
X182118000Y-141603604D01*
X181989493Y-141625221D01*
X181981652Y-141578239D01*
X182103394Y-141430966D01*
X182194200Y-141332774D01*
X182499000Y-141006163D01*
X182528851Y-141724681D01*
G37*
X182528851Y-141724681D02*
X182550747Y-142102257D01*
X182586279Y-142319372D01*
X182649043Y-142418766D01*
X182752638Y-142443178D01*
X182757451Y-142443200D01*
X182920115Y-142486599D01*
X182956200Y-142544800D01*
X182864823Y-142602757D01*
X182631189Y-142639543D01*
X182448200Y-142646400D01*
X182158414Y-142628124D01*
X181974482Y-142581397D01*
X181940200Y-142544800D01*
X182025294Y-142462251D01*
X182143400Y-142443200D01*
X182271426Y-142412593D01*
X182331282Y-142286090D01*
X182346580Y-142011662D01*
X182346600Y-141995511D01*
X182337298Y-141720682D01*
X182290941Y-141601383D01*
X182179848Y-141590160D01*
X182118000Y-141603604D01*
X181989493Y-141625221D01*
X181981652Y-141578239D01*
X182103394Y-141430966D01*
X182194200Y-141332774D01*
X182499000Y-141006163D01*
X182528851Y-141724681D01*
G36*
X189784248Y-141033231D02*
G01*
X189931353Y-141085810D01*
X189923840Y-141201465D01*
X189816105Y-141363393D01*
X189724345Y-141529527D01*
X189780915Y-141660392D01*
X189819336Y-141700851D01*
X189936877Y-141932150D01*
X189958521Y-142226825D01*
X189881020Y-142479251D01*
X189844680Y-142524479D01*
X189666020Y-142606450D01*
X189400184Y-142644254D01*
X189146754Y-142631362D01*
X189018333Y-142578666D01*
X188954213Y-142454779D01*
X189075667Y-142390758D01*
X189331600Y-142380811D01*
X189582449Y-142373074D01*
X189689967Y-142304575D01*
X189712600Y-142141400D01*
X189624775Y-141886171D01*
X189498446Y-141783633D01*
X189354095Y-141687781D01*
X189362369Y-141569099D01*
X189434638Y-141450433D01*
X189523787Y-141293926D01*
X189476548Y-141233757D01*
X189267792Y-141224000D01*
X189048484Y-141195632D01*
X188950910Y-141126908D01*
X188950600Y-141122400D01*
X189041976Y-141064442D01*
X189275610Y-141027656D01*
X189458600Y-141020800D01*
X189784248Y-141033231D01*
G37*
X189784248Y-141033231D02*
X189931353Y-141085810D01*
X189923840Y-141201465D01*
X189816105Y-141363393D01*
X189724345Y-141529527D01*
X189780915Y-141660392D01*
X189819336Y-141700851D01*
X189936877Y-141932150D01*
X189958521Y-142226825D01*
X189881020Y-142479251D01*
X189844680Y-142524479D01*
X189666020Y-142606450D01*
X189400184Y-142644254D01*
X189146754Y-142631362D01*
X189018333Y-142578666D01*
X188954213Y-142454779D01*
X189075667Y-142390758D01*
X189331600Y-142380811D01*
X189582449Y-142373074D01*
X189689967Y-142304575D01*
X189712600Y-142141400D01*
X189624775Y-141886171D01*
X189498446Y-141783633D01*
X189354095Y-141687781D01*
X189362369Y-141569099D01*
X189434638Y-141450433D01*
X189523787Y-141293926D01*
X189476548Y-141233757D01*
X189267792Y-141224000D01*
X189048484Y-141195632D01*
X188950910Y-141126908D01*
X188950600Y-141122400D01*
X189041976Y-141064442D01*
X189275610Y-141027656D01*
X189458600Y-141020800D01*
X189784248Y-141033231D01*
G36*
X185653439Y-138979062D02*
G01*
X185690343Y-139216029D01*
X185699400Y-139446000D01*
X185694321Y-139752115D01*
X185681222Y-139955085D01*
X185668530Y-140004800D01*
X185586843Y-139938321D01*
X185412412Y-139768616D01*
X185287530Y-139640860D01*
X184962191Y-139327312D01*
X184724026Y-139165518D01*
X184542510Y-139141594D01*
X184394133Y-139234524D01*
X184286838Y-139391211D01*
X184332580Y-139560283D01*
X184362225Y-139609936D01*
X184445777Y-139809320D01*
X184399842Y-139888894D01*
X184245883Y-139817535D01*
X184228655Y-139803637D01*
X184092253Y-139574464D01*
X184106328Y-139295180D01*
X184259600Y-139055346D01*
X184489658Y-138912976D01*
X184727460Y-138925792D01*
X185015699Y-139100955D01*
X185137064Y-139202524D01*
X185496200Y-139517849D01*
X185496200Y-139202524D01*
X185524722Y-138984008D01*
X185593766Y-138887447D01*
X185597800Y-138887200D01*
X185653439Y-138979062D01*
G37*
X185653439Y-138979062D02*
X185690343Y-139216029D01*
X185699400Y-139446000D01*
X185694321Y-139752115D01*
X185681222Y-139955085D01*
X185668530Y-140004800D01*
X185586843Y-139938321D01*
X185412412Y-139768616D01*
X185287530Y-139640860D01*
X184962191Y-139327312D01*
X184724026Y-139165518D01*
X184542510Y-139141594D01*
X184394133Y-139234524D01*
X184286838Y-139391211D01*
X184332580Y-139560283D01*
X184362225Y-139609936D01*
X184445777Y-139809320D01*
X184399842Y-139888894D01*
X184245883Y-139817535D01*
X184228655Y-139803637D01*
X184092253Y-139574464D01*
X184106328Y-139295180D01*
X184259600Y-139055346D01*
X184489658Y-138912976D01*
X184727460Y-138925792D01*
X185015699Y-139100955D01*
X185137064Y-139202524D01*
X185496200Y-139517849D01*
X185496200Y-139202524D01*
X185524722Y-138984008D01*
X185593766Y-138887447D01*
X185597800Y-138887200D01*
X185653439Y-138979062D01*
G36*
X186971138Y-106836331D02*
G01*
X187052810Y-106982693D01*
X187098958Y-107263830D01*
X187118738Y-107705113D01*
X187121800Y-108113270D01*
X187121800Y-109321600D01*
X194437000Y-109321600D01*
X194437000Y-114219955D01*
X194691000Y-114419751D01*
X194894721Y-114672431D01*
X194945000Y-114965431D01*
X194891074Y-115266744D01*
X194702080Y-115470376D01*
X194691000Y-115477742D01*
X194437000Y-115644170D01*
X194437000Y-124030229D01*
X194691000Y-124196657D01*
X194873754Y-124362508D01*
X194945000Y-124513142D01*
X194977795Y-124579200D01*
X195097030Y-124623194D01*
X195333979Y-124649140D01*
X195719916Y-124661054D01*
X196113400Y-124663200D01*
X196633285Y-124671668D01*
X197015877Y-124695653D01*
X197236639Y-124733019D01*
X197281800Y-124764800D01*
X197184595Y-124810505D01*
X196910083Y-124843993D01*
X196483913Y-124862953D01*
X196153422Y-124866400D01*
X195658775Y-124868750D01*
X195325513Y-124881131D01*
X195111832Y-124911537D01*
X194975925Y-124967964D01*
X194875987Y-125058405D01*
X194825248Y-125120400D01*
X194587654Y-125315696D01*
X194373974Y-125374400D01*
X194131510Y-125302011D01*
X193893460Y-125127169D01*
X193887098Y-125120400D01*
X193763178Y-125002195D01*
X193625330Y-124927684D01*
X193425775Y-124886875D01*
X193116735Y-124869778D01*
X192672392Y-124866400D01*
X191693087Y-124866400D01*
X186015250Y-127705673D01*
X185016517Y-128203650D01*
X184071800Y-128671879D01*
X183196680Y-129102821D01*
X182406741Y-129488937D01*
X181717565Y-129822690D01*
X181144734Y-130096539D01*
X180703831Y-130302947D01*
X180410437Y-130434373D01*
X180280136Y-130483280D01*
X180275207Y-130482740D01*
X180252621Y-130363736D01*
X180233696Y-130080300D01*
X180220076Y-129671191D01*
X180213402Y-129175167D01*
X180213000Y-129015066D01*
X180213000Y-127609600D01*
X177673000Y-127609600D01*
X177673000Y-128828800D01*
X178384200Y-128828800D01*
X178734739Y-128839097D01*
X178988748Y-128866196D01*
X179094839Y-128904406D01*
X179095400Y-128907542D01*
X179027518Y-129007369D01*
X178844006Y-129215583D01*
X178575063Y-129499068D01*
X178333491Y-129743108D01*
X177571583Y-130499932D01*
X176860291Y-129794090D01*
X176557019Y-129480684D01*
X176318148Y-129210120D01*
X176184641Y-129032000D01*
X176511541Y-129032000D01*
X177063400Y-129590800D01*
X177324667Y-129854516D01*
X177521077Y-130051176D01*
X177617747Y-130145900D01*
X177622200Y-130149600D01*
X177691224Y-130083024D01*
X177867947Y-129906551D01*
X178117487Y-129655064D01*
X178181000Y-129590800D01*
X178732858Y-129032000D01*
X176511541Y-129032000D01*
X176184641Y-129032000D01*
X176175369Y-129019630D01*
X176149000Y-128958524D01*
X176223188Y-128881111D01*
X176459758Y-128839357D01*
X176804757Y-128828800D01*
X177460515Y-128828800D01*
X177490557Y-128143000D01*
X177520600Y-127457200D01*
X180213000Y-127400502D01*
X180213000Y-124713804D01*
X180619400Y-124713804D01*
X180620363Y-125723500D01*
X180623128Y-126669087D01*
X180627511Y-127531611D01*
X180633325Y-128292117D01*
X180640385Y-128931652D01*
X180648507Y-129431262D01*
X180657503Y-129771994D01*
X180667190Y-129934892D01*
X180670590Y-129946400D01*
X180768331Y-129902222D01*
X181031438Y-129775070D01*
X181443615Y-129573013D01*
X181988567Y-129304121D01*
X182649998Y-128976463D01*
X183411612Y-128598108D01*
X184257113Y-128177127D01*
X185170205Y-127721588D01*
X185914148Y-127349824D01*
X186865807Y-126873039D01*
X187759861Y-126423398D01*
X188580347Y-126009047D01*
X189311300Y-125638131D01*
X189936754Y-125318794D01*
X190440745Y-125059183D01*
X190807308Y-124867441D01*
X191020478Y-124751714D01*
X191069958Y-124719417D01*
X190974891Y-124669054D01*
X190714242Y-124536111D01*
X190304243Y-124328747D01*
X189761127Y-124055124D01*
X189101125Y-123723401D01*
X188340470Y-123341739D01*
X187495394Y-122918297D01*
X186582129Y-122461236D01*
X185826400Y-122083397D01*
X180619400Y-119481209D01*
X180619400Y-124713804D01*
X180213000Y-124713804D01*
X180213000Y-122021600D01*
X178548285Y-122021600D01*
X177932222Y-122022347D01*
X177487477Y-122027539D01*
X177182164Y-122041596D01*
X176984401Y-122068943D01*
X176862304Y-122114001D01*
X176783989Y-122181194D01*
X176717573Y-122274943D01*
X176717142Y-122275600D01*
X176519225Y-122469183D01*
X176228809Y-122529324D01*
X176199800Y-122529600D01*
X175898644Y-122478152D01*
X175696510Y-122296467D01*
X175682457Y-122275600D01*
X175600990Y-122165435D01*
X175502113Y-122092827D01*
X175345532Y-122049958D01*
X175090951Y-122029015D01*
X174698076Y-122022180D01*
X174372921Y-122021600D01*
X173229812Y-122021600D01*
X173029186Y-122549606D01*
X172900979Y-122846768D01*
X172783010Y-123053569D01*
X172723768Y-123112543D01*
X172646245Y-123038990D01*
X172522834Y-122812734D01*
X172373458Y-122473322D01*
X172278593Y-122228936D01*
X172126522Y-121835942D01*
X171994687Y-121526905D01*
X171901427Y-121343221D01*
X171871662Y-121310400D01*
X171811009Y-121399527D01*
X171702187Y-121639179D01*
X171563211Y-121987759D01*
X171474011Y-122228650D01*
X171317934Y-122627367D01*
X171176506Y-122927042D01*
X171068382Y-123090693D01*
X171029752Y-123109284D01*
X170945538Y-123003115D01*
X170815844Y-122750851D01*
X170662971Y-122397958D01*
X170591796Y-122216433D01*
X170443346Y-121825848D01*
X170321605Y-121506089D01*
X170245145Y-121305911D01*
X170230564Y-121268103D01*
X170182590Y-121316311D01*
X170081990Y-121520240D01*
X169945074Y-121844458D01*
X169835572Y-122126101D01*
X169674089Y-122531389D01*
X169527467Y-122858215D01*
X169415791Y-123063886D01*
X169371593Y-123112335D01*
X169293803Y-123038870D01*
X169170182Y-122812685D01*
X169020681Y-122473314D01*
X168925793Y-122228936D01*
X168773253Y-121835880D01*
X168640211Y-121526817D01*
X168545222Y-121343165D01*
X168514283Y-121310400D01*
X168439498Y-121396668D01*
X168345252Y-121609769D01*
X168325800Y-121666000D01*
X168249849Y-121867035D01*
X168153131Y-121973043D01*
X167976220Y-122014427D01*
X167659694Y-122021594D01*
X167630812Y-122021600D01*
X167291849Y-122032240D01*
X167097848Y-122077131D01*
X166991109Y-122175730D01*
X166952892Y-122250200D01*
X166769044Y-122448412D01*
X166490825Y-122525538D01*
X166188570Y-122479501D01*
X165932614Y-122308219D01*
X165909829Y-122281038D01*
X165705755Y-122021600D01*
X160767377Y-122021600D01*
X159497762Y-122019521D01*
X158410611Y-122013333D01*
X157509311Y-122003104D01*
X156797246Y-121988904D01*
X156277804Y-121970802D01*
X155954369Y-121948870D01*
X155830328Y-121923175D01*
X155829000Y-121920000D01*
X155930015Y-121893837D01*
X156230793Y-121871441D01*
X156727929Y-121852881D01*
X157418018Y-121838230D01*
X158297657Y-121827555D01*
X159363441Y-121820929D01*
X160611965Y-121818421D01*
X160748784Y-121818400D01*
X165668569Y-121818400D01*
X165981184Y-121505784D01*
X166293800Y-121193169D01*
X166293800Y-117652800D01*
X170764200Y-117652800D01*
X170764200Y-118516400D01*
X170766373Y-118934566D01*
X170780995Y-119189772D01*
X170820220Y-119322253D01*
X170896202Y-119372250D01*
X171021094Y-119379999D01*
X171025046Y-119380000D01*
X171209075Y-119405738D01*
X171238388Y-119519655D01*
X171215088Y-119608600D01*
X171126855Y-119839351D01*
X170994025Y-120130598D01*
X170845856Y-120425016D01*
X170711600Y-120665281D01*
X170620514Y-120794070D01*
X170605839Y-120802400D01*
X170547265Y-120718570D01*
X170433795Y-120504220D01*
X170291829Y-120215061D01*
X170147764Y-119906803D01*
X170028001Y-119635154D01*
X169958937Y-119455825D01*
X169951400Y-119421329D01*
X170039873Y-119392285D01*
X170252976Y-119380002D01*
X170256200Y-119380000D01*
X170561000Y-119380000D01*
X170561000Y-117856000D01*
X166497000Y-117856000D01*
X166497000Y-119546599D01*
X166499169Y-120178940D01*
X166507663Y-120638708D01*
X166525463Y-120956503D01*
X166555549Y-121162923D01*
X166600901Y-121288568D01*
X166664498Y-121364037D01*
X166674800Y-121372168D01*
X166858311Y-121486512D01*
X166958684Y-121460454D01*
X166999400Y-121270767D01*
X167005000Y-121045529D01*
X166990448Y-120755624D01*
X166938877Y-120632906D01*
X166862532Y-120632129D01*
X166696237Y-120654210D01*
X166673247Y-120557306D01*
X166796603Y-120369457D01*
X166830070Y-120332892D01*
X167007809Y-120167407D01*
X167128730Y-120093220D01*
X167132000Y-120092955D01*
X167169549Y-120185047D01*
X167196762Y-120429062D01*
X167208138Y-120773776D01*
X167208200Y-120802400D01*
X167213682Y-121176157D01*
X167238404Y-121390277D01*
X167294781Y-121488209D01*
X167395225Y-121513401D01*
X167411400Y-121513600D01*
X167588354Y-121547546D01*
X167599069Y-121624326D01*
X167463912Y-121706349D01*
X167284400Y-121747995D01*
X167193179Y-121769224D01*
X167285768Y-121780440D01*
X167502229Y-121779832D01*
X168050258Y-121767600D01*
X168252435Y-121234200D01*
X168374996Y-120943311D01*
X168480196Y-120749574D01*
X168530147Y-120700800D01*
X168594708Y-120789979D01*
X168706609Y-121029733D01*
X168847387Y-121378385D01*
X168936190Y-121617392D01*
X169085915Y-122016897D01*
X169217134Y-122338559D01*
X169311168Y-122537960D01*
X169340973Y-122579888D01*
X169405397Y-122511378D01*
X169518731Y-122289828D01*
X169662513Y-121953903D01*
X169759523Y-121703348D01*
X169916234Y-121309409D01*
X170057842Y-120999782D01*
X170164431Y-120815765D01*
X170203469Y-120782830D01*
X170278405Y-120872776D01*
X170401884Y-121114094D01*
X170554734Y-121466571D01*
X170671295Y-121764170D01*
X171039453Y-122743584D01*
X171422577Y-121722192D01*
X171585307Y-121306128D01*
X171728771Y-120971752D01*
X171835342Y-120758247D01*
X171882091Y-120700800D01*
X171947022Y-120789984D01*
X172059217Y-121029752D01*
X172200171Y-121378422D01*
X172288990Y-121617392D01*
X172438690Y-122016875D01*
X172569849Y-122338497D01*
X172663799Y-122537850D01*
X172693553Y-122579752D01*
X172771422Y-122523919D01*
X172880430Y-122329518D01*
X172926130Y-122221960D01*
X173084653Y-121818400D01*
X174308452Y-121818400D01*
X174830358Y-121815528D01*
X175185625Y-121803315D01*
X175410775Y-121776365D01*
X175542331Y-121729284D01*
X175616815Y-121656675D01*
X175637317Y-121622080D01*
X175814836Y-121430449D01*
X175945692Y-121361234D01*
X176005541Y-121335112D01*
X176052328Y-121284044D01*
X176087660Y-121185257D01*
X176113142Y-121015981D01*
X176130379Y-120753444D01*
X176140977Y-120374875D01*
X176146542Y-119857504D01*
X176148679Y-119178559D01*
X176149000Y-118477860D01*
X176149000Y-115659013D01*
X176109807Y-115630036D01*
X176352200Y-115630036D01*
X176352200Y-121224430D01*
X176649184Y-121521415D01*
X176946169Y-121818400D01*
X180213000Y-121818400D01*
X180213000Y-120452796D01*
X180219800Y-119945649D01*
X180238432Y-119514792D01*
X180266246Y-119199422D01*
X180300590Y-119038738D01*
X180309398Y-119027614D01*
X180414798Y-119061469D01*
X180685841Y-119179423D01*
X181106825Y-119373899D01*
X181662047Y-119637318D01*
X182335806Y-119962105D01*
X183112401Y-120340680D01*
X183976129Y-120765468D01*
X184911289Y-121228891D01*
X185902179Y-121723371D01*
X186075198Y-121810054D01*
X191744600Y-124652072D01*
X192718891Y-124657636D01*
X193170723Y-124657645D01*
X193461941Y-124644967D01*
X193635110Y-124609899D01*
X193732795Y-124542741D01*
X193797560Y-124433791D01*
X193808913Y-124409200D01*
X193945253Y-124221402D01*
X194079221Y-124155200D01*
X194117531Y-124136075D01*
X194149047Y-124066992D01*
X194174414Y-123930388D01*
X194194273Y-123708700D01*
X194209266Y-123384365D01*
X194220038Y-122939820D01*
X194227230Y-122357502D01*
X194231486Y-121619847D01*
X194233447Y-120709293D01*
X194233800Y-119930984D01*
X194233800Y-115706769D01*
X193936815Y-115409784D01*
X193639830Y-115112800D01*
X188950600Y-115112800D01*
X188950600Y-116233469D01*
X185978800Y-116206534D01*
X183007000Y-116179600D01*
X182945580Y-115112800D01*
X176869436Y-115112800D01*
X176352200Y-115630036D01*
X176109807Y-115630036D01*
X175844200Y-115433665D01*
X175602057Y-115174543D01*
X175539400Y-114957358D01*
X175604823Y-114720749D01*
X175761843Y-114485122D01*
X175951585Y-114326662D01*
X176047400Y-114300000D01*
X176081985Y-114199939D01*
X176109793Y-113905709D01*
X176130459Y-113426243D01*
X176143619Y-112770469D01*
X176148908Y-111947319D01*
X176149000Y-111810800D01*
X176149000Y-109321600D01*
X184778551Y-109321600D01*
X184807175Y-108138650D01*
X184824725Y-107611684D01*
X184850830Y-107252779D01*
X184890880Y-107026824D01*
X184950264Y-106898704D01*
X185005083Y-106849142D01*
X185205100Y-106802850D01*
X185335283Y-106876132D01*
X185387454Y-106943326D01*
X185427233Y-107063679D01*
X185456217Y-107261995D01*
X185476007Y-107563080D01*
X185488201Y-107991738D01*
X185494397Y-108572774D01*
X185496196Y-109330992D01*
X185496200Y-109372400D01*
X185494572Y-110139775D01*
X185488624Y-110728774D01*
X185476755Y-111164201D01*
X185457368Y-111470860D01*
X185428863Y-111673556D01*
X185389641Y-111797095D01*
X185338103Y-111866280D01*
X185335283Y-111868667D01*
X185139595Y-111947299D01*
X185005083Y-111895672D01*
X184927626Y-111811985D01*
X184874143Y-111652041D01*
X184838910Y-111380028D01*
X184816201Y-110960136D01*
X184807072Y-110656964D01*
X184778344Y-109524800D01*
X176352200Y-109524800D01*
X176352200Y-114209256D01*
X176911000Y-114909594D01*
X179928529Y-114909597D01*
X182946059Y-114909600D01*
X182976529Y-114325400D01*
X182993751Y-113995200D01*
X183362600Y-113995200D01*
X183362600Y-115925600D01*
X188544200Y-115925600D01*
X188544200Y-113995200D01*
X183362600Y-113995200D01*
X182993751Y-113995200D01*
X183007000Y-113741200D01*
X188950600Y-113687330D01*
X188950600Y-114909600D01*
X191331353Y-114909600D01*
X192086856Y-114908905D01*
X192664034Y-114905442D01*
X193087761Y-114897142D01*
X193382911Y-114881938D01*
X193574357Y-114857761D01*
X193686974Y-114822544D01*
X193745635Y-114774218D01*
X193775214Y-114710715D01*
X193776634Y-114706292D01*
X193917395Y-114490853D01*
X194037480Y-114397917D01*
X194099836Y-114354180D01*
X194147404Y-114281506D01*
X194182176Y-114154646D01*
X194206143Y-113948352D01*
X194221298Y-113637374D01*
X194229630Y-113196464D01*
X194233132Y-112600375D01*
X194233800Y-111908825D01*
X194233800Y-109524800D01*
X187121800Y-109524800D01*
X187121800Y-110687203D01*
X187113168Y-111183654D01*
X187089308Y-111577951D01*
X187053270Y-111833615D01*
X187019290Y-111912961D01*
X186846723Y-111937222D01*
X186714490Y-111912111D01*
X186651359Y-111883977D01*
X186602931Y-111828473D01*
X186567263Y-111721215D01*
X186542408Y-111537818D01*
X186526421Y-111253899D01*
X186517357Y-110845073D01*
X186513271Y-110286958D01*
X186512218Y-109555169D01*
X186512200Y-109376423D01*
X186513768Y-108590428D01*
X186519399Y-107984552D01*
X186530482Y-107535732D01*
X186548407Y-107220906D01*
X186574562Y-107017011D01*
X186610337Y-106900983D01*
X186657121Y-106849760D01*
X186664600Y-106846458D01*
X186844787Y-106799376D01*
X186971138Y-106836331D01*
G37*
X186971138Y-106836331D02*
X187052810Y-106982693D01*
X187098958Y-107263830D01*
X187118738Y-107705113D01*
X187121800Y-108113270D01*
X187121800Y-109321600D01*
X194437000Y-109321600D01*
X194437000Y-114219955D01*
X194691000Y-114419751D01*
X194894721Y-114672431D01*
X194945000Y-114965431D01*
X194891074Y-115266744D01*
X194702080Y-115470376D01*
X194691000Y-115477742D01*
X194437000Y-115644170D01*
X194437000Y-124030229D01*
X194691000Y-124196657D01*
X194873754Y-124362508D01*
X194945000Y-124513142D01*
X194977795Y-124579200D01*
X195097030Y-124623194D01*
X195333979Y-124649140D01*
X195719916Y-124661054D01*
X196113400Y-124663200D01*
X196633285Y-124671668D01*
X197015877Y-124695653D01*
X197236639Y-124733019D01*
X197281800Y-124764800D01*
X197184595Y-124810505D01*
X196910083Y-124843993D01*
X196483913Y-124862953D01*
X196153422Y-124866400D01*
X195658775Y-124868750D01*
X195325513Y-124881131D01*
X195111832Y-124911537D01*
X194975925Y-124967964D01*
X194875987Y-125058405D01*
X194825248Y-125120400D01*
X194587654Y-125315696D01*
X194373974Y-125374400D01*
X194131510Y-125302011D01*
X193893460Y-125127169D01*
X193887098Y-125120400D01*
X193763178Y-125002195D01*
X193625330Y-124927684D01*
X193425775Y-124886875D01*
X193116735Y-124869778D01*
X192672392Y-124866400D01*
X191693087Y-124866400D01*
X186015250Y-127705673D01*
X185016517Y-128203650D01*
X184071800Y-128671879D01*
X183196680Y-129102821D01*
X182406741Y-129488937D01*
X181717565Y-129822690D01*
X181144734Y-130096539D01*
X180703831Y-130302947D01*
X180410437Y-130434373D01*
X180280136Y-130483280D01*
X180275207Y-130482740D01*
X180252621Y-130363736D01*
X180233696Y-130080300D01*
X180220076Y-129671191D01*
X180213402Y-129175167D01*
X180213000Y-129015066D01*
X180213000Y-127609600D01*
X177673000Y-127609600D01*
X177673000Y-128828800D01*
X178384200Y-128828800D01*
X178734739Y-128839097D01*
X178988748Y-128866196D01*
X179094839Y-128904406D01*
X179095400Y-128907542D01*
X179027518Y-129007369D01*
X178844006Y-129215583D01*
X178575063Y-129499068D01*
X178333491Y-129743108D01*
X177571583Y-130499932D01*
X176860291Y-129794090D01*
X176557019Y-129480684D01*
X176318148Y-129210120D01*
X176184641Y-129032000D01*
X176511541Y-129032000D01*
X177063400Y-129590800D01*
X177324667Y-129854516D01*
X177521077Y-130051176D01*
X177617747Y-130145900D01*
X177622200Y-130149600D01*
X177691224Y-130083024D01*
X177867947Y-129906551D01*
X178117487Y-129655064D01*
X178181000Y-129590800D01*
X178732858Y-129032000D01*
X176511541Y-129032000D01*
X176184641Y-129032000D01*
X176175369Y-129019630D01*
X176149000Y-128958524D01*
X176223188Y-128881111D01*
X176459758Y-128839357D01*
X176804757Y-128828800D01*
X177460515Y-128828800D01*
X177490557Y-128143000D01*
X177520600Y-127457200D01*
X180213000Y-127400502D01*
X180213000Y-124713804D01*
X180619400Y-124713804D01*
X180620363Y-125723500D01*
X180623128Y-126669087D01*
X180627511Y-127531611D01*
X180633325Y-128292117D01*
X180640385Y-128931652D01*
X180648507Y-129431262D01*
X180657503Y-129771994D01*
X180667190Y-129934892D01*
X180670590Y-129946400D01*
X180768331Y-129902222D01*
X181031438Y-129775070D01*
X181443615Y-129573013D01*
X181988567Y-129304121D01*
X182649998Y-128976463D01*
X183411612Y-128598108D01*
X184257113Y-128177127D01*
X185170205Y-127721588D01*
X185914148Y-127349824D01*
X186865807Y-126873039D01*
X187759861Y-126423398D01*
X188580347Y-126009047D01*
X189311300Y-125638131D01*
X189936754Y-125318794D01*
X190440745Y-125059183D01*
X190807308Y-124867441D01*
X191020478Y-124751714D01*
X191069958Y-124719417D01*
X190974891Y-124669054D01*
X190714242Y-124536111D01*
X190304243Y-124328747D01*
X189761127Y-124055124D01*
X189101125Y-123723401D01*
X188340470Y-123341739D01*
X187495394Y-122918297D01*
X186582129Y-122461236D01*
X185826400Y-122083397D01*
X180619400Y-119481209D01*
X180619400Y-124713804D01*
X180213000Y-124713804D01*
X180213000Y-122021600D01*
X178548285Y-122021600D01*
X177932222Y-122022347D01*
X177487477Y-122027539D01*
X177182164Y-122041596D01*
X176984401Y-122068943D01*
X176862304Y-122114001D01*
X176783989Y-122181194D01*
X176717573Y-122274943D01*
X176717142Y-122275600D01*
X176519225Y-122469183D01*
X176228809Y-122529324D01*
X176199800Y-122529600D01*
X175898644Y-122478152D01*
X175696510Y-122296467D01*
X175682457Y-122275600D01*
X175600990Y-122165435D01*
X175502113Y-122092827D01*
X175345532Y-122049958D01*
X175090951Y-122029015D01*
X174698076Y-122022180D01*
X174372921Y-122021600D01*
X173229812Y-122021600D01*
X173029186Y-122549606D01*
X172900979Y-122846768D01*
X172783010Y-123053569D01*
X172723768Y-123112543D01*
X172646245Y-123038990D01*
X172522834Y-122812734D01*
X172373458Y-122473322D01*
X172278593Y-122228936D01*
X172126522Y-121835942D01*
X171994687Y-121526905D01*
X171901427Y-121343221D01*
X171871662Y-121310400D01*
X171811009Y-121399527D01*
X171702187Y-121639179D01*
X171563211Y-121987759D01*
X171474011Y-122228650D01*
X171317934Y-122627367D01*
X171176506Y-122927042D01*
X171068382Y-123090693D01*
X171029752Y-123109284D01*
X170945538Y-123003115D01*
X170815844Y-122750851D01*
X170662971Y-122397958D01*
X170591796Y-122216433D01*
X170443346Y-121825848D01*
X170321605Y-121506089D01*
X170245145Y-121305911D01*
X170230564Y-121268103D01*
X170182590Y-121316311D01*
X170081990Y-121520240D01*
X169945074Y-121844458D01*
X169835572Y-122126101D01*
X169674089Y-122531389D01*
X169527467Y-122858215D01*
X169415791Y-123063886D01*
X169371593Y-123112335D01*
X169293803Y-123038870D01*
X169170182Y-122812685D01*
X169020681Y-122473314D01*
X168925793Y-122228936D01*
X168773253Y-121835880D01*
X168640211Y-121526817D01*
X168545222Y-121343165D01*
X168514283Y-121310400D01*
X168439498Y-121396668D01*
X168345252Y-121609769D01*
X168325800Y-121666000D01*
X168249849Y-121867035D01*
X168153131Y-121973043D01*
X167976220Y-122014427D01*
X167659694Y-122021594D01*
X167630812Y-122021600D01*
X167291849Y-122032240D01*
X167097848Y-122077131D01*
X166991109Y-122175730D01*
X166952892Y-122250200D01*
X166769044Y-122448412D01*
X166490825Y-122525538D01*
X166188570Y-122479501D01*
X165932614Y-122308219D01*
X165909829Y-122281038D01*
X165705755Y-122021600D01*
X160767377Y-122021600D01*
X159497762Y-122019521D01*
X158410611Y-122013333D01*
X157509311Y-122003104D01*
X156797246Y-121988904D01*
X156277804Y-121970802D01*
X155954369Y-121948870D01*
X155830328Y-121923175D01*
X155829000Y-121920000D01*
X155930015Y-121893837D01*
X156230793Y-121871441D01*
X156727929Y-121852881D01*
X157418018Y-121838230D01*
X158297657Y-121827555D01*
X159363441Y-121820929D01*
X160611965Y-121818421D01*
X160748784Y-121818400D01*
X165668569Y-121818400D01*
X165981184Y-121505784D01*
X166293800Y-121193169D01*
X166293800Y-117652800D01*
X170764200Y-117652800D01*
X170764200Y-118516400D01*
X170766373Y-118934566D01*
X170780995Y-119189772D01*
X170820220Y-119322253D01*
X170896202Y-119372250D01*
X171021094Y-119379999D01*
X171025046Y-119380000D01*
X171209075Y-119405738D01*
X171238388Y-119519655D01*
X171215088Y-119608600D01*
X171126855Y-119839351D01*
X170994025Y-120130598D01*
X170845856Y-120425016D01*
X170711600Y-120665281D01*
X170620514Y-120794070D01*
X170605839Y-120802400D01*
X170547265Y-120718570D01*
X170433795Y-120504220D01*
X170291829Y-120215061D01*
X170147764Y-119906803D01*
X170028001Y-119635154D01*
X169958937Y-119455825D01*
X169951400Y-119421329D01*
X170039873Y-119392285D01*
X170252976Y-119380002D01*
X170256200Y-119380000D01*
X170561000Y-119380000D01*
X170561000Y-117856000D01*
X166497000Y-117856000D01*
X166497000Y-119546599D01*
X166499169Y-120178940D01*
X166507663Y-120638708D01*
X166525463Y-120956503D01*
X166555549Y-121162923D01*
X166600901Y-121288568D01*
X166664498Y-121364037D01*
X166674800Y-121372168D01*
X166858311Y-121486512D01*
X166958684Y-121460454D01*
X166999400Y-121270767D01*
X167005000Y-121045529D01*
X166990448Y-120755624D01*
X166938877Y-120632906D01*
X166862532Y-120632129D01*
X166696237Y-120654210D01*
X166673247Y-120557306D01*
X166796603Y-120369457D01*
X166830070Y-120332892D01*
X167007809Y-120167407D01*
X167128730Y-120093220D01*
X167132000Y-120092955D01*
X167169549Y-120185047D01*
X167196762Y-120429062D01*
X167208138Y-120773776D01*
X167208200Y-120802400D01*
X167213682Y-121176157D01*
X167238404Y-121390277D01*
X167294781Y-121488209D01*
X167395225Y-121513401D01*
X167411400Y-121513600D01*
X167588354Y-121547546D01*
X167599069Y-121624326D01*
X167463912Y-121706349D01*
X167284400Y-121747995D01*
X167193179Y-121769224D01*
X167285768Y-121780440D01*
X167502229Y-121779832D01*
X168050258Y-121767600D01*
X168252435Y-121234200D01*
X168374996Y-120943311D01*
X168480196Y-120749574D01*
X168530147Y-120700800D01*
X168594708Y-120789979D01*
X168706609Y-121029733D01*
X168847387Y-121378385D01*
X168936190Y-121617392D01*
X169085915Y-122016897D01*
X169217134Y-122338559D01*
X169311168Y-122537960D01*
X169340973Y-122579888D01*
X169405397Y-122511378D01*
X169518731Y-122289828D01*
X169662513Y-121953903D01*
X169759523Y-121703348D01*
X169916234Y-121309409D01*
X170057842Y-120999782D01*
X170164431Y-120815765D01*
X170203469Y-120782830D01*
X170278405Y-120872776D01*
X170401884Y-121114094D01*
X170554734Y-121466571D01*
X170671295Y-121764170D01*
X171039453Y-122743584D01*
X171422577Y-121722192D01*
X171585307Y-121306128D01*
X171728771Y-120971752D01*
X171835342Y-120758247D01*
X171882091Y-120700800D01*
X171947022Y-120789984D01*
X172059217Y-121029752D01*
X172200171Y-121378422D01*
X172288990Y-121617392D01*
X172438690Y-122016875D01*
X172569849Y-122338497D01*
X172663799Y-122537850D01*
X172693553Y-122579752D01*
X172771422Y-122523919D01*
X172880430Y-122329518D01*
X172926130Y-122221960D01*
X173084653Y-121818400D01*
X174308452Y-121818400D01*
X174830358Y-121815528D01*
X175185625Y-121803315D01*
X175410775Y-121776365D01*
X175542331Y-121729284D01*
X175616815Y-121656675D01*
X175637317Y-121622080D01*
X175814836Y-121430449D01*
X175945692Y-121361234D01*
X176005541Y-121335112D01*
X176052328Y-121284044D01*
X176087660Y-121185257D01*
X176113142Y-121015981D01*
X176130379Y-120753444D01*
X176140977Y-120374875D01*
X176146542Y-119857504D01*
X176148679Y-119178559D01*
X176149000Y-118477860D01*
X176149000Y-115659013D01*
X176109807Y-115630036D01*
X176352200Y-115630036D01*
X176352200Y-121224430D01*
X176649184Y-121521415D01*
X176946169Y-121818400D01*
X180213000Y-121818400D01*
X180213000Y-120452796D01*
X180219800Y-119945649D01*
X180238432Y-119514792D01*
X180266246Y-119199422D01*
X180300590Y-119038738D01*
X180309398Y-119027614D01*
X180414798Y-119061469D01*
X180685841Y-119179423D01*
X181106825Y-119373899D01*
X181662047Y-119637318D01*
X182335806Y-119962105D01*
X183112401Y-120340680D01*
X183976129Y-120765468D01*
X184911289Y-121228891D01*
X185902179Y-121723371D01*
X186075198Y-121810054D01*
X191744600Y-124652072D01*
X192718891Y-124657636D01*
X193170723Y-124657645D01*
X193461941Y-124644967D01*
X193635110Y-124609899D01*
X193732795Y-124542741D01*
X193797560Y-124433791D01*
X193808913Y-124409200D01*
X193945253Y-124221402D01*
X194079221Y-124155200D01*
X194117531Y-124136075D01*
X194149047Y-124066992D01*
X194174414Y-123930388D01*
X194194273Y-123708700D01*
X194209266Y-123384365D01*
X194220038Y-122939820D01*
X194227230Y-122357502D01*
X194231486Y-121619847D01*
X194233447Y-120709293D01*
X194233800Y-119930984D01*
X194233800Y-115706769D01*
X193936815Y-115409784D01*
X193639830Y-115112800D01*
X188950600Y-115112800D01*
X188950600Y-116233469D01*
X185978800Y-116206534D01*
X183007000Y-116179600D01*
X182945580Y-115112800D01*
X176869436Y-115112800D01*
X176352200Y-115630036D01*
X176109807Y-115630036D01*
X175844200Y-115433665D01*
X175602057Y-115174543D01*
X175539400Y-114957358D01*
X175604823Y-114720749D01*
X175761843Y-114485122D01*
X175951585Y-114326662D01*
X176047400Y-114300000D01*
X176081985Y-114199939D01*
X176109793Y-113905709D01*
X176130459Y-113426243D01*
X176143619Y-112770469D01*
X176148908Y-111947319D01*
X176149000Y-111810800D01*
X176149000Y-109321600D01*
X184778551Y-109321600D01*
X184807175Y-108138650D01*
X184824725Y-107611684D01*
X184850830Y-107252779D01*
X184890880Y-107026824D01*
X184950264Y-106898704D01*
X185005083Y-106849142D01*
X185205100Y-106802850D01*
X185335283Y-106876132D01*
X185387454Y-106943326D01*
X185427233Y-107063679D01*
X185456217Y-107261995D01*
X185476007Y-107563080D01*
X185488201Y-107991738D01*
X185494397Y-108572774D01*
X185496196Y-109330992D01*
X185496200Y-109372400D01*
X185494572Y-110139775D01*
X185488624Y-110728774D01*
X185476755Y-111164201D01*
X185457368Y-111470860D01*
X185428863Y-111673556D01*
X185389641Y-111797095D01*
X185338103Y-111866280D01*
X185335283Y-111868667D01*
X185139595Y-111947299D01*
X185005083Y-111895672D01*
X184927626Y-111811985D01*
X184874143Y-111652041D01*
X184838910Y-111380028D01*
X184816201Y-110960136D01*
X184807072Y-110656964D01*
X184778344Y-109524800D01*
X176352200Y-109524800D01*
X176352200Y-114209256D01*
X176911000Y-114909594D01*
X179928529Y-114909597D01*
X182946059Y-114909600D01*
X182976529Y-114325400D01*
X182993751Y-113995200D01*
X183362600Y-113995200D01*
X183362600Y-115925600D01*
X188544200Y-115925600D01*
X188544200Y-113995200D01*
X183362600Y-113995200D01*
X182993751Y-113995200D01*
X183007000Y-113741200D01*
X188950600Y-113687330D01*
X188950600Y-114909600D01*
X191331353Y-114909600D01*
X192086856Y-114908905D01*
X192664034Y-114905442D01*
X193087761Y-114897142D01*
X193382911Y-114881938D01*
X193574357Y-114857761D01*
X193686974Y-114822544D01*
X193745635Y-114774218D01*
X193775214Y-114710715D01*
X193776634Y-114706292D01*
X193917395Y-114490853D01*
X194037480Y-114397917D01*
X194099836Y-114354180D01*
X194147404Y-114281506D01*
X194182176Y-114154646D01*
X194206143Y-113948352D01*
X194221298Y-113637374D01*
X194229630Y-113196464D01*
X194233132Y-112600375D01*
X194233800Y-111908825D01*
X194233800Y-109524800D01*
X187121800Y-109524800D01*
X187121800Y-110687203D01*
X187113168Y-111183654D01*
X187089308Y-111577951D01*
X187053270Y-111833615D01*
X187019290Y-111912961D01*
X186846723Y-111937222D01*
X186714490Y-111912111D01*
X186651359Y-111883977D01*
X186602931Y-111828473D01*
X186567263Y-111721215D01*
X186542408Y-111537818D01*
X186526421Y-111253899D01*
X186517357Y-110845073D01*
X186513271Y-110286958D01*
X186512218Y-109555169D01*
X186512200Y-109376423D01*
X186513768Y-108590428D01*
X186519399Y-107984552D01*
X186530482Y-107535732D01*
X186548407Y-107220906D01*
X186574562Y-107017011D01*
X186610337Y-106900983D01*
X186657121Y-106849760D01*
X186664600Y-106846458D01*
X186844787Y-106799376D01*
X186971138Y-106836331D01*
G36*
X179290732Y-125689192D02*
G01*
X179458667Y-125731477D01*
X179469733Y-125824514D01*
X179346861Y-125986764D01*
X179337686Y-125996943D01*
X179228394Y-126148847D01*
X179268385Y-126268419D01*
X179337686Y-126342400D01*
X179480852Y-126611946D01*
X179471597Y-126920349D01*
X179342142Y-127145142D01*
X179138904Y-127255286D01*
X178868815Y-127304438D01*
X178630939Y-127281051D01*
X178553533Y-127237066D01*
X178489800Y-127083052D01*
X178485800Y-127033005D01*
X178517358Y-126949106D01*
X178645336Y-126997054D01*
X178689351Y-127023797D01*
X178911965Y-127097576D01*
X179070351Y-127038985D01*
X179226657Y-126846104D01*
X179211088Y-126623078D01*
X179044600Y-126452273D01*
X178867745Y-126353566D01*
X178799689Y-126314822D01*
X178827761Y-126232160D01*
X178942436Y-126086222D01*
X179052048Y-125952069D01*
X179027686Y-125895270D01*
X178838866Y-125882577D01*
X178755546Y-125882400D01*
X178514324Y-125857889D01*
X178389127Y-125797297D01*
X178384200Y-125780800D01*
X178476062Y-125725160D01*
X178713029Y-125688256D01*
X178943000Y-125679200D01*
X179290732Y-125689192D01*
G37*
X179290732Y-125689192D02*
X179458667Y-125731477D01*
X179469733Y-125824514D01*
X179346861Y-125986764D01*
X179337686Y-125996943D01*
X179228394Y-126148847D01*
X179268385Y-126268419D01*
X179337686Y-126342400D01*
X179480852Y-126611946D01*
X179471597Y-126920349D01*
X179342142Y-127145142D01*
X179138904Y-127255286D01*
X178868815Y-127304438D01*
X178630939Y-127281051D01*
X178553533Y-127237066D01*
X178489800Y-127083052D01*
X178485800Y-127033005D01*
X178517358Y-126949106D01*
X178645336Y-126997054D01*
X178689351Y-127023797D01*
X178911965Y-127097576D01*
X179070351Y-127038985D01*
X179226657Y-126846104D01*
X179211088Y-126623078D01*
X179044600Y-126452273D01*
X178867745Y-126353566D01*
X178799689Y-126314822D01*
X178827761Y-126232160D01*
X178942436Y-126086222D01*
X179052048Y-125952069D01*
X179027686Y-125895270D01*
X178838866Y-125882577D01*
X178755546Y-125882400D01*
X178514324Y-125857889D01*
X178389127Y-125797297D01*
X178384200Y-125780800D01*
X178476062Y-125725160D01*
X178713029Y-125688256D01*
X178943000Y-125679200D01*
X179290732Y-125689192D01*
G36*
X198087209Y-122882247D02*
G01*
X198235292Y-122969786D01*
X198394768Y-123102122D01*
X198474178Y-123273086D01*
X198499840Y-123553027D01*
X198501000Y-123680022D01*
X198479121Y-124007413D01*
X198423166Y-124257521D01*
X198379080Y-124338080D01*
X198153997Y-124447636D01*
X197865609Y-124456081D01*
X197605228Y-124372050D01*
X197483149Y-124253341D01*
X197422116Y-124027776D01*
X197400269Y-123719819D01*
X197588729Y-123719819D01*
X197660511Y-123988677D01*
X197810835Y-124181608D01*
X198023381Y-124237828D01*
X198025274Y-124237565D01*
X198165328Y-124185350D01*
X198239744Y-124043945D01*
X198275791Y-123758500D01*
X198277704Y-123729813D01*
X198280644Y-123418667D01*
X198225399Y-123242929D01*
X198106960Y-123145815D01*
X197902499Y-123096908D01*
X197746055Y-123197458D01*
X197611804Y-123435818D01*
X197588729Y-123719819D01*
X197400269Y-123719819D01*
X197399172Y-123704361D01*
X197403374Y-123570826D01*
X197445351Y-123252935D01*
X197541859Y-123064111D01*
X197701892Y-122945329D01*
X197914166Y-122852868D01*
X198087209Y-122882247D01*
G37*
X198087209Y-122882247D02*
X198235292Y-122969786D01*
X198394768Y-123102122D01*
X198474178Y-123273086D01*
X198499840Y-123553027D01*
X198501000Y-123680022D01*
X198479121Y-124007413D01*
X198423166Y-124257521D01*
X198379080Y-124338080D01*
X198153997Y-124447636D01*
X197865609Y-124456081D01*
X197605228Y-124372050D01*
X197483149Y-124253341D01*
X197422116Y-124027776D01*
X197400269Y-123719819D01*
X197588729Y-123719819D01*
X197660511Y-123988677D01*
X197810835Y-124181608D01*
X198023381Y-124237828D01*
X198025274Y-124237565D01*
X198165328Y-124185350D01*
X198239744Y-124043945D01*
X198275791Y-123758500D01*
X198277704Y-123729813D01*
X198280644Y-123418667D01*
X198225399Y-123242929D01*
X198106960Y-123145815D01*
X197902499Y-123096908D01*
X197746055Y-123197458D01*
X197611804Y-123435818D01*
X197588729Y-123719819D01*
X197400269Y-123719819D01*
X197399172Y-123704361D01*
X197403374Y-123570826D01*
X197445351Y-123252935D01*
X197541859Y-123064111D01*
X197701892Y-122945329D01*
X197914166Y-122852868D01*
X198087209Y-122882247D01*
G36*
X199876411Y-123014146D02*
G01*
X199908941Y-123276023D01*
X199922437Y-123606994D01*
X199915233Y-123940308D01*
X199885663Y-124209217D01*
X199861729Y-124299290D01*
X199723814Y-124412662D01*
X199480040Y-124458683D01*
X199217640Y-124433289D01*
X199029320Y-124338080D01*
X198965709Y-124179078D01*
X198925285Y-123896699D01*
X198909213Y-123558435D01*
X198918659Y-123231780D01*
X198954786Y-122984227D01*
X199004287Y-122888112D01*
X199059338Y-122948148D01*
X199104320Y-123176037D01*
X199131287Y-123517116D01*
X199151756Y-123881650D01*
X199185408Y-124087937D01*
X199250755Y-124180862D01*
X199366308Y-124205308D01*
X199415400Y-124206000D01*
X199550345Y-124193703D01*
X199629326Y-124126889D01*
X199670855Y-123960675D01*
X199693441Y-123650178D01*
X199699512Y-123517116D01*
X199728258Y-123162124D01*
X199773872Y-122941312D01*
X199826512Y-122888112D01*
X199876411Y-123014146D01*
G37*
X199876411Y-123014146D02*
X199908941Y-123276023D01*
X199922437Y-123606994D01*
X199915233Y-123940308D01*
X199885663Y-124209217D01*
X199861729Y-124299290D01*
X199723814Y-124412662D01*
X199480040Y-124458683D01*
X199217640Y-124433289D01*
X199029320Y-124338080D01*
X198965709Y-124179078D01*
X198925285Y-123896699D01*
X198909213Y-123558435D01*
X198918659Y-123231780D01*
X198954786Y-122984227D01*
X199004287Y-122888112D01*
X199059338Y-122948148D01*
X199104320Y-123176037D01*
X199131287Y-123517116D01*
X199151756Y-123881650D01*
X199185408Y-124087937D01*
X199250755Y-124180862D01*
X199366308Y-124205308D01*
X199415400Y-124206000D01*
X199550345Y-124193703D01*
X199629326Y-124126889D01*
X199670855Y-123960675D01*
X199693441Y-123650178D01*
X199699512Y-123517116D01*
X199728258Y-123162124D01*
X199773872Y-122941312D01*
X199826512Y-122888112D01*
X199876411Y-123014146D01*
G36*
X200966548Y-122855442D02*
G01*
X201159378Y-122908432D01*
X201193400Y-122936000D01*
X201157429Y-123011338D01*
X200996196Y-123037600D01*
X200860388Y-123047368D01*
X200782666Y-123106210D01*
X200746834Y-123258428D01*
X200736695Y-123548327D01*
X200736200Y-123748800D01*
X200722775Y-124113628D01*
X200686795Y-124365721D01*
X200634698Y-124459999D01*
X200634600Y-124460000D01*
X200582481Y-124366028D01*
X200546468Y-124114165D01*
X200533000Y-123749490D01*
X200533000Y-123748800D01*
X200524037Y-123362393D01*
X200491810Y-123141240D01*
X200428311Y-123047969D01*
X200380600Y-123037600D01*
X200245393Y-122982738D01*
X200228200Y-122936000D01*
X200318935Y-122875072D01*
X200548191Y-122838807D01*
X200679403Y-122834400D01*
X200966548Y-122855442D01*
G37*
X200966548Y-122855442D02*
X201159378Y-122908432D01*
X201193400Y-122936000D01*
X201157429Y-123011338D01*
X200996196Y-123037600D01*
X200860388Y-123047368D01*
X200782666Y-123106210D01*
X200746834Y-123258428D01*
X200736695Y-123548327D01*
X200736200Y-123748800D01*
X200722775Y-124113628D01*
X200686795Y-124365721D01*
X200634698Y-124459999D01*
X200634600Y-124460000D01*
X200582481Y-124366028D01*
X200546468Y-124114165D01*
X200533000Y-123749490D01*
X200533000Y-123748800D01*
X200524037Y-123362393D01*
X200491810Y-123141240D01*
X200428311Y-123047969D01*
X200380600Y-123037600D01*
X200245393Y-122982738D01*
X200228200Y-122936000D01*
X200318935Y-122875072D01*
X200548191Y-122838807D01*
X200679403Y-122834400D01*
X200966548Y-122855442D01*
G36*
X154050514Y-120186259D02*
G01*
X154085872Y-120445783D01*
X154101461Y-120831288D01*
X154101800Y-120904000D01*
X154099466Y-121324118D01*
X154088502Y-121573748D01*
X154062963Y-121685582D01*
X154016906Y-121692313D01*
X153966333Y-121649066D01*
X153925566Y-121514811D01*
X153903339Y-121252753D01*
X153898354Y-120922545D01*
X153909315Y-120583841D01*
X153934925Y-120296296D01*
X153973888Y-120119561D01*
X154000200Y-120091200D01*
X154050514Y-120186259D01*
G37*
X154050514Y-120186259D02*
X154085872Y-120445783D01*
X154101461Y-120831288D01*
X154101800Y-120904000D01*
X154099466Y-121324118D01*
X154088502Y-121573748D01*
X154062963Y-121685582D01*
X154016906Y-121692313D01*
X153966333Y-121649066D01*
X153925566Y-121514811D01*
X153903339Y-121252753D01*
X153898354Y-120922545D01*
X153909315Y-120583841D01*
X153934925Y-120296296D01*
X153973888Y-120119561D01*
X154000200Y-120091200D01*
X154050514Y-120186259D01*
G36*
X155574514Y-120186259D02*
G01*
X155609872Y-120445783D01*
X155625461Y-120831288D01*
X155625800Y-120904000D01*
X155615963Y-121281450D01*
X155589823Y-121565686D01*
X155552434Y-121708635D01*
X155540347Y-121716800D01*
X155449591Y-121634878D01*
X155300774Y-121422220D01*
X155159347Y-121183400D01*
X154863800Y-120650000D01*
X154833090Y-121183400D01*
X154796882Y-121533928D01*
X154746809Y-121695487D01*
X154693097Y-121680871D01*
X154645973Y-121502877D01*
X154615663Y-121174302D01*
X154609800Y-120904000D01*
X154620529Y-120526558D01*
X154649041Y-120242325D01*
X154689824Y-120099369D01*
X154703013Y-120091200D01*
X154799546Y-120172299D01*
X154956166Y-120383014D01*
X155107172Y-120624600D01*
X155418117Y-121158000D01*
X155420358Y-120624600D01*
X155439066Y-120326574D01*
X155484717Y-120132972D01*
X155524200Y-120091200D01*
X155574514Y-120186259D01*
G37*
X155574514Y-120186259D02*
X155609872Y-120445783D01*
X155625461Y-120831288D01*
X155625800Y-120904000D01*
X155615963Y-121281450D01*
X155589823Y-121565686D01*
X155552434Y-121708635D01*
X155540347Y-121716800D01*
X155449591Y-121634878D01*
X155300774Y-121422220D01*
X155159347Y-121183400D01*
X154863800Y-120650000D01*
X154833090Y-121183400D01*
X154796882Y-121533928D01*
X154746809Y-121695487D01*
X154693097Y-121680871D01*
X154645973Y-121502877D01*
X154615663Y-121174302D01*
X154609800Y-120904000D01*
X154620529Y-120526558D01*
X154649041Y-120242325D01*
X154689824Y-120099369D01*
X154703013Y-120091200D01*
X154799546Y-120172299D01*
X154956166Y-120383014D01*
X155107172Y-120624600D01*
X155418117Y-121158000D01*
X155420358Y-120624600D01*
X155439066Y-120326574D01*
X155484717Y-120132972D01*
X155524200Y-120091200D01*
X155574514Y-120186259D01*
G36*
X174413935Y-120101135D02*
G01*
X174581708Y-120143469D01*
X174592298Y-120236988D01*
X174468485Y-120400483D01*
X174456853Y-120413399D01*
X174344473Y-120568219D01*
X174380153Y-120694408D01*
X174456853Y-120785000D01*
X174609146Y-121073476D01*
X174588708Y-121358556D01*
X174420030Y-121587927D01*
X174127606Y-121709278D01*
X174020583Y-121716800D01*
X173770483Y-121671227D01*
X173622321Y-121580451D01*
X173552402Y-121427887D01*
X173632304Y-121371766D01*
X173820317Y-121440658D01*
X173823504Y-121442638D01*
X174044634Y-121509485D01*
X174193551Y-121450985D01*
X174349857Y-121258104D01*
X174334288Y-121035078D01*
X174167800Y-120864273D01*
X173990945Y-120765566D01*
X173922889Y-120726822D01*
X173950961Y-120644160D01*
X174065636Y-120498222D01*
X174175248Y-120364069D01*
X174150886Y-120307270D01*
X173962066Y-120294577D01*
X173878746Y-120294400D01*
X173637524Y-120269889D01*
X173512327Y-120209297D01*
X173507400Y-120192800D01*
X173599262Y-120137160D01*
X173836229Y-120100256D01*
X174066200Y-120091200D01*
X174413935Y-120101135D01*
G37*
X174413935Y-120101135D02*
X174581708Y-120143469D01*
X174592298Y-120236988D01*
X174468485Y-120400483D01*
X174456853Y-120413399D01*
X174344473Y-120568219D01*
X174380153Y-120694408D01*
X174456853Y-120785000D01*
X174609146Y-121073476D01*
X174588708Y-121358556D01*
X174420030Y-121587927D01*
X174127606Y-121709278D01*
X174020583Y-121716800D01*
X173770483Y-121671227D01*
X173622321Y-121580451D01*
X173552402Y-121427887D01*
X173632304Y-121371766D01*
X173820317Y-121440658D01*
X173823504Y-121442638D01*
X174044634Y-121509485D01*
X174193551Y-121450985D01*
X174349857Y-121258104D01*
X174334288Y-121035078D01*
X174167800Y-120864273D01*
X173990945Y-120765566D01*
X173922889Y-120726822D01*
X173950961Y-120644160D01*
X174065636Y-120498222D01*
X174175248Y-120364069D01*
X174150886Y-120307270D01*
X173962066Y-120294577D01*
X173878746Y-120294400D01*
X173637524Y-120269889D01*
X173512327Y-120209297D01*
X173507400Y-120192800D01*
X173599262Y-120137160D01*
X173836229Y-120100256D01*
X174066200Y-120091200D01*
X174413935Y-120101135D01*
G36*
X170314157Y-118048976D02*
G01*
X170350943Y-118282610D01*
X170357800Y-118465600D01*
X170346130Y-118755457D01*
X170316296Y-118939382D01*
X170292961Y-118973600D01*
X170189253Y-118910005D01*
X169986932Y-118745201D01*
X169787232Y-118567200D01*
X169525972Y-118347550D01*
X169306472Y-118199981D01*
X169202540Y-118160800D01*
X169042507Y-118247165D01*
X168971908Y-118470014D01*
X168997304Y-118727673D01*
X169030218Y-118929387D01*
X168973383Y-118953803D01*
X168854119Y-118851680D01*
X168736941Y-118615203D01*
X168757379Y-118342164D01*
X168889082Y-118102833D01*
X169105694Y-117967477D01*
X169189439Y-117957600D01*
X169413715Y-118022856D01*
X169688505Y-118187204D01*
X169795464Y-118272924D01*
X170154600Y-118588249D01*
X170154600Y-118272924D01*
X170183122Y-118054408D01*
X170252166Y-117957847D01*
X170256200Y-117957600D01*
X170314157Y-118048976D01*
G37*
X170314157Y-118048976D02*
X170350943Y-118282610D01*
X170357800Y-118465600D01*
X170346130Y-118755457D01*
X170316296Y-118939382D01*
X170292961Y-118973600D01*
X170189253Y-118910005D01*
X169986932Y-118745201D01*
X169787232Y-118567200D01*
X169525972Y-118347550D01*
X169306472Y-118199981D01*
X169202540Y-118160800D01*
X169042507Y-118247165D01*
X168971908Y-118470014D01*
X168997304Y-118727673D01*
X169030218Y-118929387D01*
X168973383Y-118953803D01*
X168854119Y-118851680D01*
X168736941Y-118615203D01*
X168757379Y-118342164D01*
X168889082Y-118102833D01*
X169105694Y-117967477D01*
X169189439Y-117957600D01*
X169413715Y-118022856D01*
X169688505Y-118187204D01*
X169795464Y-118272924D01*
X170154600Y-118588249D01*
X170154600Y-118272924D01*
X170183122Y-118054408D01*
X170252166Y-117957847D01*
X170256200Y-117957600D01*
X170314157Y-118048976D01*
G36*
X188960740Y-84124800D02*
G01*
X194437000Y-84124800D01*
X194437000Y-93253169D01*
X194749615Y-93565784D01*
X194893067Y-93702751D01*
X195025901Y-93792412D01*
X195193716Y-93844789D01*
X195442112Y-93869904D01*
X195816688Y-93877779D01*
X196172015Y-93878400D01*
X196673851Y-93887290D01*
X197040764Y-93912363D01*
X197246558Y-93951219D01*
X197281800Y-93980000D01*
X197184519Y-94025505D01*
X196909475Y-94058905D01*
X196481865Y-94077963D01*
X196137492Y-94081600D01*
X195640027Y-94083852D01*
X195307623Y-94095280D01*
X195102150Y-94122886D01*
X194985481Y-94173672D01*
X194919487Y-94254643D01*
X194892892Y-94310200D01*
X194709044Y-94508412D01*
X194430825Y-94585538D01*
X194128570Y-94539501D01*
X193872614Y-94368219D01*
X193849829Y-94341038D01*
X193739507Y-94217831D01*
X193612807Y-94141352D01*
X193421549Y-94100535D01*
X193117554Y-94084314D01*
X192720221Y-94081600D01*
X191794687Y-94081600D01*
X186105800Y-96926400D01*
X185106459Y-97425866D01*
X184161948Y-97897414D01*
X183287760Y-98333341D01*
X182499389Y-98725946D01*
X181812327Y-99067528D01*
X181242069Y-99350386D01*
X180804108Y-99566817D01*
X180513937Y-99709120D01*
X180387050Y-99769595D01*
X180382689Y-99771200D01*
X180290795Y-99713175D01*
X180280733Y-99703466D01*
X180255701Y-99582012D01*
X180234846Y-99297143D01*
X180220062Y-98888628D01*
X180213243Y-98396241D01*
X180213000Y-98281066D01*
X180213000Y-96926400D01*
X177673000Y-96926400D01*
X177673000Y-98145600D01*
X178384200Y-98145600D01*
X178734739Y-98155921D01*
X178988748Y-98183082D01*
X179094839Y-98221381D01*
X179095400Y-98224524D01*
X179026163Y-98333326D01*
X178844817Y-98538717D01*
X178590910Y-98802041D01*
X178303991Y-99084645D01*
X178023605Y-99347875D01*
X177789302Y-99553076D01*
X177640629Y-99661593D01*
X177616925Y-99669600D01*
X177507472Y-99601610D01*
X177299439Y-99423551D01*
X177032164Y-99174288D01*
X176744983Y-98892687D01*
X176477231Y-98617613D01*
X176268246Y-98387931D01*
X176238410Y-98348800D01*
X176511541Y-98348800D01*
X177063400Y-98907600D01*
X177324667Y-99171316D01*
X177521077Y-99367976D01*
X177617747Y-99462700D01*
X177622200Y-99466400D01*
X177691224Y-99399824D01*
X177867947Y-99223351D01*
X178117487Y-98971864D01*
X178181000Y-98907600D01*
X178732858Y-98348800D01*
X176511541Y-98348800D01*
X176238410Y-98348800D01*
X176157363Y-98242507D01*
X176149000Y-98219250D01*
X176241680Y-98181741D01*
X176484171Y-98155214D01*
X176809400Y-98145600D01*
X177469800Y-98145600D01*
X177469800Y-96723200D01*
X180213000Y-96723200D01*
X180213000Y-94030995D01*
X180619400Y-94030995D01*
X180619400Y-99263590D01*
X185826400Y-96661402D01*
X186781898Y-96183629D01*
X187681976Y-95733057D01*
X188510402Y-95317844D01*
X189250943Y-94946153D01*
X189887368Y-94626141D01*
X190403444Y-94365970D01*
X190782939Y-94173801D01*
X191009621Y-94057792D01*
X191069958Y-94025382D01*
X190988047Y-93976391D01*
X190743765Y-93846684D01*
X190356656Y-93646081D01*
X189846264Y-93384407D01*
X189232130Y-93071485D01*
X188533799Y-92717136D01*
X187770813Y-92331185D01*
X186962717Y-91923454D01*
X186129053Y-91503766D01*
X185289364Y-91081944D01*
X184463195Y-90667811D01*
X183670087Y-90271190D01*
X182929585Y-89901904D01*
X182261232Y-89569775D01*
X181684571Y-89284627D01*
X181219145Y-89056283D01*
X180884497Y-88894565D01*
X180700172Y-88809297D01*
X180670590Y-88798399D01*
X180660712Y-88896840D01*
X180651462Y-89179527D01*
X180643024Y-89627505D01*
X180635583Y-90221820D01*
X180629327Y-90943520D01*
X180624439Y-91773650D01*
X180621106Y-92693255D01*
X180619512Y-93683383D01*
X180619400Y-94030995D01*
X180213000Y-94030995D01*
X180213000Y-91338400D01*
X178525822Y-91338400D01*
X177904711Y-91339201D01*
X177454574Y-91344496D01*
X177143184Y-91358624D01*
X176938314Y-91385922D01*
X176807739Y-91430728D01*
X176719232Y-91497379D01*
X176640566Y-91590215D01*
X176638848Y-91592400D01*
X176369315Y-91802799D01*
X176064921Y-91822328D01*
X175760161Y-91651111D01*
X175697522Y-91588973D01*
X175584838Y-91477374D01*
X175465938Y-91405028D01*
X175298140Y-91364856D01*
X175038763Y-91349779D01*
X174645125Y-91352718D01*
X174319255Y-91360373D01*
X173179563Y-91389200D01*
X172980781Y-91922600D01*
X172859042Y-92213820D01*
X172752745Y-92407560D01*
X172701108Y-92456000D01*
X172632027Y-92367212D01*
X172519012Y-92130908D01*
X172382882Y-91792179D01*
X172337510Y-91668600D01*
X172151362Y-91152396D01*
X172016843Y-90820301D01*
X171912679Y-90666754D01*
X171817597Y-90686191D01*
X171710323Y-90873050D01*
X171569582Y-91221768D01*
X171483756Y-91445368D01*
X171320277Y-91844010D01*
X171173010Y-92156265D01*
X171061483Y-92343210D01*
X171015451Y-92378759D01*
X170940785Y-92278146D01*
X170817457Y-92027454D01*
X170664646Y-91668150D01*
X170548492Y-91369112D01*
X170381661Y-90934449D01*
X170266595Y-90669329D01*
X170189486Y-90550964D01*
X170136524Y-90556569D01*
X170102711Y-90633552D01*
X169975025Y-91011950D01*
X169823044Y-91420075D01*
X169665344Y-91813222D01*
X169520503Y-92146689D01*
X169407097Y-92375772D01*
X169345365Y-92456000D01*
X169278766Y-92366790D01*
X169165248Y-92126961D01*
X169023497Y-91778210D01*
X168934609Y-91539407D01*
X168785006Y-91140009D01*
X168654080Y-90818541D01*
X168560455Y-90619376D01*
X168530901Y-90577575D01*
X168457995Y-90634897D01*
X168361615Y-90832603D01*
X168324688Y-90935367D01*
X168191675Y-91338400D01*
X167638360Y-91338400D01*
X167293720Y-91353436D01*
X167079213Y-91414708D01*
X166922966Y-91546454D01*
X166885248Y-91592400D01*
X166615498Y-91802703D01*
X166310791Y-91822515D01*
X166006899Y-91651835D01*
X165947098Y-91592400D01*
X165711698Y-91338400D01*
X160770349Y-91338400D01*
X159500298Y-91336322D01*
X158412722Y-91330138D01*
X157511005Y-91319914D01*
X156798528Y-91305723D01*
X156278676Y-91287632D01*
X155954831Y-91265711D01*
X155830376Y-91240031D01*
X155829000Y-91236800D01*
X155930023Y-91210733D01*
X156230850Y-91188404D01*
X156728119Y-91169881D01*
X157418467Y-91155234D01*
X158298533Y-91144532D01*
X159364952Y-91137842D01*
X160614363Y-91135235D01*
X160791091Y-91135199D01*
X165753183Y-91135199D01*
X165868913Y-90881199D01*
X166005253Y-90693402D01*
X166139221Y-90627199D01*
X166194986Y-90602709D01*
X166235793Y-90511775D01*
X166263854Y-90328201D01*
X166281386Y-90025792D01*
X166290601Y-89578352D01*
X166293714Y-88959684D01*
X166293800Y-88798400D01*
X166293800Y-86969600D01*
X170764200Y-86969600D01*
X170764200Y-87782400D01*
X170766906Y-88185515D01*
X170783664Y-88426892D01*
X170827428Y-88547990D01*
X170911154Y-88590268D01*
X171018200Y-88595200D01*
X171209376Y-88621331D01*
X171272491Y-88671400D01*
X171231793Y-88840043D01*
X171127324Y-89106891D01*
X170986676Y-89414918D01*
X170837445Y-89707094D01*
X170707222Y-89926394D01*
X170623601Y-90015788D01*
X170621958Y-90015866D01*
X170524574Y-89928805D01*
X170389458Y-89705716D01*
X170284286Y-89482466D01*
X170109951Y-89070044D01*
X170011277Y-88810339D01*
X169986718Y-88668108D01*
X170034725Y-88608108D01*
X170153751Y-88595096D01*
X170245329Y-88595200D01*
X170561000Y-88595200D01*
X170561000Y-87884000D01*
X170547575Y-87519171D01*
X170511595Y-87267078D01*
X170459498Y-87172800D01*
X170459400Y-87172800D01*
X170403760Y-87264662D01*
X170366856Y-87501629D01*
X170357800Y-87731600D01*
X170347000Y-88037680D01*
X170319143Y-88240650D01*
X170292136Y-88290400D01*
X170190101Y-88226021D01*
X169986183Y-88057367D01*
X169728595Y-87824694D01*
X169449854Y-87576893D01*
X169268968Y-87457499D01*
X169145943Y-87445631D01*
X169078542Y-87485283D01*
X168972837Y-87694534D01*
X168989755Y-87900189D01*
X168997436Y-88113217D01*
X168929856Y-88190901D01*
X168829892Y-88105247D01*
X168793870Y-88028090D01*
X168740044Y-87681532D01*
X168876264Y-87386353D01*
X168900346Y-87358600D01*
X168960167Y-87282123D01*
X168957271Y-87230143D01*
X168863274Y-87197939D01*
X168649795Y-87180793D01*
X168288448Y-87173987D01*
X167782746Y-87172800D01*
X169344784Y-87172800D01*
X169724292Y-87525650D01*
X169944375Y-87726557D01*
X170093457Y-87855652D01*
X170129200Y-87881250D01*
X170145989Y-87793739D01*
X170154381Y-87574999D01*
X170154600Y-87528400D01*
X170142210Y-87300431D01*
X170065917Y-87199332D01*
X169867033Y-87173562D01*
X169749692Y-87172800D01*
X169344784Y-87172800D01*
X167782746Y-87172800D01*
X166497000Y-87172800D01*
X166497000Y-88845625D01*
X166498598Y-89467382D01*
X166505652Y-89916602D01*
X166521550Y-90223937D01*
X166549679Y-90420040D01*
X166593428Y-90535563D01*
X166656185Y-90601158D01*
X166693520Y-90623625D01*
X166876772Y-90707676D01*
X166969057Y-90681180D01*
X167001404Y-90510018D01*
X167005000Y-90281111D01*
X166995698Y-90006282D01*
X166949341Y-89886983D01*
X166838248Y-89875760D01*
X166776400Y-89889204D01*
X166647893Y-89910821D01*
X166640052Y-89863839D01*
X166761794Y-89716566D01*
X166852600Y-89618374D01*
X167157400Y-89291763D01*
X167187251Y-90010281D01*
X167209147Y-90387857D01*
X167244679Y-90604972D01*
X167307443Y-90704366D01*
X167411038Y-90728778D01*
X167415851Y-90728800D01*
X167578515Y-90772199D01*
X167614600Y-90830400D01*
X167526312Y-90901736D01*
X167313592Y-90931992D01*
X167309800Y-90932000D01*
X167095789Y-90961429D01*
X167005023Y-91032335D01*
X167005000Y-91033600D01*
X167096302Y-91091904D01*
X167329430Y-91128652D01*
X167505899Y-91135200D01*
X168006799Y-91135200D01*
X168204166Y-90606110D01*
X168330392Y-90308437D01*
X168446736Y-90101390D01*
X168505318Y-90042427D01*
X168588593Y-90112894D01*
X168712396Y-90330830D01*
X168851783Y-90651341D01*
X168869866Y-90698516D01*
X169018274Y-91091503D01*
X169154188Y-91451229D01*
X169245981Y-91694000D01*
X169300125Y-91822688D01*
X169349902Y-91866314D01*
X169411840Y-91801419D01*
X169502471Y-91604543D01*
X169638324Y-91252225D01*
X169729208Y-91008200D01*
X169890873Y-90598360D01*
X170037948Y-90271166D01*
X170151347Y-90066600D01*
X170202042Y-90017674D01*
X170278577Y-90107140D01*
X170401112Y-90348319D01*
X170550412Y-90700475D01*
X170656624Y-90980382D01*
X170806100Y-91378496D01*
X170931808Y-91688338D01*
X171017615Y-91871569D01*
X171045272Y-91903994D01*
X171095759Y-91797885D01*
X171199042Y-91545301D01*
X171337385Y-91190333D01*
X171420843Y-90970487D01*
X171577393Y-90578190D01*
X171719027Y-90265584D01*
X171824896Y-90076787D01*
X171859646Y-90041917D01*
X171942180Y-90112631D01*
X172065439Y-90330748D01*
X172204586Y-90651338D01*
X172222666Y-90698516D01*
X172371421Y-91091557D01*
X172508202Y-91451317D01*
X172601125Y-91694000D01*
X172718820Y-91998800D01*
X172867577Y-91567000D01*
X173016333Y-91135199D01*
X174212854Y-91135200D01*
X175409376Y-91135200D01*
X175779188Y-90786422D01*
X176149000Y-90437645D01*
X176149000Y-84328000D01*
X176352200Y-84328000D01*
X176352200Y-90504110D01*
X176646962Y-90819655D01*
X176941725Y-91135200D01*
X180213000Y-91135200D01*
X180213000Y-89718796D01*
X180218174Y-89203942D01*
X180232378Y-88765982D01*
X180253629Y-88442923D01*
X180279948Y-88272772D01*
X180289200Y-88256776D01*
X180391028Y-88293064D01*
X180658573Y-88413295D01*
X181076154Y-88609837D01*
X181628095Y-88875056D01*
X182298716Y-89201318D01*
X183072339Y-89580990D01*
X183933286Y-90006439D01*
X184865877Y-90470031D01*
X185854434Y-90964133D01*
X186004200Y-91039217D01*
X191643000Y-93867274D01*
X192625784Y-93872837D01*
X193081563Y-93872780D01*
X193384289Y-93858471D01*
X193584096Y-93818028D01*
X193731118Y-93739567D01*
X193875489Y-93611204D01*
X193921184Y-93565784D01*
X194233800Y-93253169D01*
X194233800Y-84328000D01*
X188960740Y-84328000D01*
X188899800Y-85496400D01*
X183007000Y-85496400D01*
X182976529Y-84912200D01*
X182946059Y-84328000D01*
X176352200Y-84328000D01*
X176149000Y-84328000D01*
X176149000Y-84124800D01*
X182946059Y-84124800D01*
X182976529Y-83540600D01*
X182988452Y-83312000D01*
X183362600Y-83312000D01*
X183362600Y-85140800D01*
X188544200Y-85140800D01*
X188544200Y-83312000D01*
X183362600Y-83312000D01*
X182988452Y-83312000D01*
X183007000Y-82956400D01*
X188899800Y-82956400D01*
X188960740Y-84124800D01*
G37*
X188960740Y-84124800D02*
X194437000Y-84124800D01*
X194437000Y-93253169D01*
X194749615Y-93565784D01*
X194893067Y-93702751D01*
X195025901Y-93792412D01*
X195193716Y-93844789D01*
X195442112Y-93869904D01*
X195816688Y-93877779D01*
X196172015Y-93878400D01*
X196673851Y-93887290D01*
X197040764Y-93912363D01*
X197246558Y-93951219D01*
X197281800Y-93980000D01*
X197184519Y-94025505D01*
X196909475Y-94058905D01*
X196481865Y-94077963D01*
X196137492Y-94081600D01*
X195640027Y-94083852D01*
X195307623Y-94095280D01*
X195102150Y-94122886D01*
X194985481Y-94173672D01*
X194919487Y-94254643D01*
X194892892Y-94310200D01*
X194709044Y-94508412D01*
X194430825Y-94585538D01*
X194128570Y-94539501D01*
X193872614Y-94368219D01*
X193849829Y-94341038D01*
X193739507Y-94217831D01*
X193612807Y-94141352D01*
X193421549Y-94100535D01*
X193117554Y-94084314D01*
X192720221Y-94081600D01*
X191794687Y-94081600D01*
X186105800Y-96926400D01*
X185106459Y-97425866D01*
X184161948Y-97897414D01*
X183287760Y-98333341D01*
X182499389Y-98725946D01*
X181812327Y-99067528D01*
X181242069Y-99350386D01*
X180804108Y-99566817D01*
X180513937Y-99709120D01*
X180387050Y-99769595D01*
X180382689Y-99771200D01*
X180290795Y-99713175D01*
X180280733Y-99703466D01*
X180255701Y-99582012D01*
X180234846Y-99297143D01*
X180220062Y-98888628D01*
X180213243Y-98396241D01*
X180213000Y-98281066D01*
X180213000Y-96926400D01*
X177673000Y-96926400D01*
X177673000Y-98145600D01*
X178384200Y-98145600D01*
X178734739Y-98155921D01*
X178988748Y-98183082D01*
X179094839Y-98221381D01*
X179095400Y-98224524D01*
X179026163Y-98333326D01*
X178844817Y-98538717D01*
X178590910Y-98802041D01*
X178303991Y-99084645D01*
X178023605Y-99347875D01*
X177789302Y-99553076D01*
X177640629Y-99661593D01*
X177616925Y-99669600D01*
X177507472Y-99601610D01*
X177299439Y-99423551D01*
X177032164Y-99174288D01*
X176744983Y-98892687D01*
X176477231Y-98617613D01*
X176268246Y-98387931D01*
X176238410Y-98348800D01*
X176511541Y-98348800D01*
X177063400Y-98907600D01*
X177324667Y-99171316D01*
X177521077Y-99367976D01*
X177617747Y-99462700D01*
X177622200Y-99466400D01*
X177691224Y-99399824D01*
X177867947Y-99223351D01*
X178117487Y-98971864D01*
X178181000Y-98907600D01*
X178732858Y-98348800D01*
X176511541Y-98348800D01*
X176238410Y-98348800D01*
X176157363Y-98242507D01*
X176149000Y-98219250D01*
X176241680Y-98181741D01*
X176484171Y-98155214D01*
X176809400Y-98145600D01*
X177469800Y-98145600D01*
X177469800Y-96723200D01*
X180213000Y-96723200D01*
X180213000Y-94030995D01*
X180619400Y-94030995D01*
X180619400Y-99263590D01*
X185826400Y-96661402D01*
X186781898Y-96183629D01*
X187681976Y-95733057D01*
X188510402Y-95317844D01*
X189250943Y-94946153D01*
X189887368Y-94626141D01*
X190403444Y-94365970D01*
X190782939Y-94173801D01*
X191009621Y-94057792D01*
X191069958Y-94025382D01*
X190988047Y-93976391D01*
X190743765Y-93846684D01*
X190356656Y-93646081D01*
X189846264Y-93384407D01*
X189232130Y-93071485D01*
X188533799Y-92717136D01*
X187770813Y-92331185D01*
X186962717Y-91923454D01*
X186129053Y-91503766D01*
X185289364Y-91081944D01*
X184463195Y-90667811D01*
X183670087Y-90271190D01*
X182929585Y-89901904D01*
X182261232Y-89569775D01*
X181684571Y-89284627D01*
X181219145Y-89056283D01*
X180884497Y-88894565D01*
X180700172Y-88809297D01*
X180670590Y-88798399D01*
X180660712Y-88896840D01*
X180651462Y-89179527D01*
X180643024Y-89627505D01*
X180635583Y-90221820D01*
X180629327Y-90943520D01*
X180624439Y-91773650D01*
X180621106Y-92693255D01*
X180619512Y-93683383D01*
X180619400Y-94030995D01*
X180213000Y-94030995D01*
X180213000Y-91338400D01*
X178525822Y-91338400D01*
X177904711Y-91339201D01*
X177454574Y-91344496D01*
X177143184Y-91358624D01*
X176938314Y-91385922D01*
X176807739Y-91430728D01*
X176719232Y-91497379D01*
X176640566Y-91590215D01*
X176638848Y-91592400D01*
X176369315Y-91802799D01*
X176064921Y-91822328D01*
X175760161Y-91651111D01*
X175697522Y-91588973D01*
X175584838Y-91477374D01*
X175465938Y-91405028D01*
X175298140Y-91364856D01*
X175038763Y-91349779D01*
X174645125Y-91352718D01*
X174319255Y-91360373D01*
X173179563Y-91389200D01*
X172980781Y-91922600D01*
X172859042Y-92213820D01*
X172752745Y-92407560D01*
X172701108Y-92456000D01*
X172632027Y-92367212D01*
X172519012Y-92130908D01*
X172382882Y-91792179D01*
X172337510Y-91668600D01*
X172151362Y-91152396D01*
X172016843Y-90820301D01*
X171912679Y-90666754D01*
X171817597Y-90686191D01*
X171710323Y-90873050D01*
X171569582Y-91221768D01*
X171483756Y-91445368D01*
X171320277Y-91844010D01*
X171173010Y-92156265D01*
X171061483Y-92343210D01*
X171015451Y-92378759D01*
X170940785Y-92278146D01*
X170817457Y-92027454D01*
X170664646Y-91668150D01*
X170548492Y-91369112D01*
X170381661Y-90934449D01*
X170266595Y-90669329D01*
X170189486Y-90550964D01*
X170136524Y-90556569D01*
X170102711Y-90633552D01*
X169975025Y-91011950D01*
X169823044Y-91420075D01*
X169665344Y-91813222D01*
X169520503Y-92146689D01*
X169407097Y-92375772D01*
X169345365Y-92456000D01*
X169278766Y-92366790D01*
X169165248Y-92126961D01*
X169023497Y-91778210D01*
X168934609Y-91539407D01*
X168785006Y-91140009D01*
X168654080Y-90818541D01*
X168560455Y-90619376D01*
X168530901Y-90577575D01*
X168457995Y-90634897D01*
X168361615Y-90832603D01*
X168324688Y-90935367D01*
X168191675Y-91338400D01*
X167638360Y-91338400D01*
X167293720Y-91353436D01*
X167079213Y-91414708D01*
X166922966Y-91546454D01*
X166885248Y-91592400D01*
X166615498Y-91802703D01*
X166310791Y-91822515D01*
X166006899Y-91651835D01*
X165947098Y-91592400D01*
X165711698Y-91338400D01*
X160770349Y-91338400D01*
X159500298Y-91336322D01*
X158412722Y-91330138D01*
X157511005Y-91319914D01*
X156798528Y-91305723D01*
X156278676Y-91287632D01*
X155954831Y-91265711D01*
X155830376Y-91240031D01*
X155829000Y-91236800D01*
X155930023Y-91210733D01*
X156230850Y-91188404D01*
X156728119Y-91169881D01*
X157418467Y-91155234D01*
X158298533Y-91144532D01*
X159364952Y-91137842D01*
X160614363Y-91135235D01*
X160791091Y-91135199D01*
X165753183Y-91135199D01*
X165868913Y-90881199D01*
X166005253Y-90693402D01*
X166139221Y-90627199D01*
X166194986Y-90602709D01*
X166235793Y-90511775D01*
X166263854Y-90328201D01*
X166281386Y-90025792D01*
X166290601Y-89578352D01*
X166293714Y-88959684D01*
X166293800Y-88798400D01*
X166293800Y-86969600D01*
X170764200Y-86969600D01*
X170764200Y-87782400D01*
X170766906Y-88185515D01*
X170783664Y-88426892D01*
X170827428Y-88547990D01*
X170911154Y-88590268D01*
X171018200Y-88595200D01*
X171209376Y-88621331D01*
X171272491Y-88671400D01*
X171231793Y-88840043D01*
X171127324Y-89106891D01*
X170986676Y-89414918D01*
X170837445Y-89707094D01*
X170707222Y-89926394D01*
X170623601Y-90015788D01*
X170621958Y-90015866D01*
X170524574Y-89928805D01*
X170389458Y-89705716D01*
X170284286Y-89482466D01*
X170109951Y-89070044D01*
X170011277Y-88810339D01*
X169986718Y-88668108D01*
X170034725Y-88608108D01*
X170153751Y-88595096D01*
X170245329Y-88595200D01*
X170561000Y-88595200D01*
X170561000Y-87884000D01*
X170547575Y-87519171D01*
X170511595Y-87267078D01*
X170459498Y-87172800D01*
X170459400Y-87172800D01*
X170403760Y-87264662D01*
X170366856Y-87501629D01*
X170357800Y-87731600D01*
X170347000Y-88037680D01*
X170319143Y-88240650D01*
X170292136Y-88290400D01*
X170190101Y-88226021D01*
X169986183Y-88057367D01*
X169728595Y-87824694D01*
X169449854Y-87576893D01*
X169268968Y-87457499D01*
X169145943Y-87445631D01*
X169078542Y-87485283D01*
X168972837Y-87694534D01*
X168989755Y-87900189D01*
X168997436Y-88113217D01*
X168929856Y-88190901D01*
X168829892Y-88105247D01*
X168793870Y-88028090D01*
X168740044Y-87681532D01*
X168876264Y-87386353D01*
X168900346Y-87358600D01*
X168960167Y-87282123D01*
X168957271Y-87230143D01*
X168863274Y-87197939D01*
X168649795Y-87180793D01*
X168288448Y-87173987D01*
X167782746Y-87172800D01*
X169344784Y-87172800D01*
X169724292Y-87525650D01*
X169944375Y-87726557D01*
X170093457Y-87855652D01*
X170129200Y-87881250D01*
X170145989Y-87793739D01*
X170154381Y-87574999D01*
X170154600Y-87528400D01*
X170142210Y-87300431D01*
X170065917Y-87199332D01*
X169867033Y-87173562D01*
X169749692Y-87172800D01*
X169344784Y-87172800D01*
X167782746Y-87172800D01*
X166497000Y-87172800D01*
X166497000Y-88845625D01*
X166498598Y-89467382D01*
X166505652Y-89916602D01*
X166521550Y-90223937D01*
X166549679Y-90420040D01*
X166593428Y-90535563D01*
X166656185Y-90601158D01*
X166693520Y-90623625D01*
X166876772Y-90707676D01*
X166969057Y-90681180D01*
X167001404Y-90510018D01*
X167005000Y-90281111D01*
X166995698Y-90006282D01*
X166949341Y-89886983D01*
X166838248Y-89875760D01*
X166776400Y-89889204D01*
X166647893Y-89910821D01*
X166640052Y-89863839D01*
X166761794Y-89716566D01*
X166852600Y-89618374D01*
X167157400Y-89291763D01*
X167187251Y-90010281D01*
X167209147Y-90387857D01*
X167244679Y-90604972D01*
X167307443Y-90704366D01*
X167411038Y-90728778D01*
X167415851Y-90728800D01*
X167578515Y-90772199D01*
X167614600Y-90830400D01*
X167526312Y-90901736D01*
X167313592Y-90931992D01*
X167309800Y-90932000D01*
X167095789Y-90961429D01*
X167005023Y-91032335D01*
X167005000Y-91033600D01*
X167096302Y-91091904D01*
X167329430Y-91128652D01*
X167505899Y-91135200D01*
X168006799Y-91135200D01*
X168204166Y-90606110D01*
X168330392Y-90308437D01*
X168446736Y-90101390D01*
X168505318Y-90042427D01*
X168588593Y-90112894D01*
X168712396Y-90330830D01*
X168851783Y-90651341D01*
X168869866Y-90698516D01*
X169018274Y-91091503D01*
X169154188Y-91451229D01*
X169245981Y-91694000D01*
X169300125Y-91822688D01*
X169349902Y-91866314D01*
X169411840Y-91801419D01*
X169502471Y-91604543D01*
X169638324Y-91252225D01*
X169729208Y-91008200D01*
X169890873Y-90598360D01*
X170037948Y-90271166D01*
X170151347Y-90066600D01*
X170202042Y-90017674D01*
X170278577Y-90107140D01*
X170401112Y-90348319D01*
X170550412Y-90700475D01*
X170656624Y-90980382D01*
X170806100Y-91378496D01*
X170931808Y-91688338D01*
X171017615Y-91871569D01*
X171045272Y-91903994D01*
X171095759Y-91797885D01*
X171199042Y-91545301D01*
X171337385Y-91190333D01*
X171420843Y-90970487D01*
X171577393Y-90578190D01*
X171719027Y-90265584D01*
X171824896Y-90076787D01*
X171859646Y-90041917D01*
X171942180Y-90112631D01*
X172065439Y-90330748D01*
X172204586Y-90651338D01*
X172222666Y-90698516D01*
X172371421Y-91091557D01*
X172508202Y-91451317D01*
X172601125Y-91694000D01*
X172718820Y-91998800D01*
X172867577Y-91567000D01*
X173016333Y-91135199D01*
X174212854Y-91135200D01*
X175409376Y-91135200D01*
X175779188Y-90786422D01*
X176149000Y-90437645D01*
X176149000Y-84328000D01*
X176352200Y-84328000D01*
X176352200Y-90504110D01*
X176646962Y-90819655D01*
X176941725Y-91135200D01*
X180213000Y-91135200D01*
X180213000Y-89718796D01*
X180218174Y-89203942D01*
X180232378Y-88765982D01*
X180253629Y-88442923D01*
X180279948Y-88272772D01*
X180289200Y-88256776D01*
X180391028Y-88293064D01*
X180658573Y-88413295D01*
X181076154Y-88609837D01*
X181628095Y-88875056D01*
X182298716Y-89201318D01*
X183072339Y-89580990D01*
X183933286Y-90006439D01*
X184865877Y-90470031D01*
X185854434Y-90964133D01*
X186004200Y-91039217D01*
X191643000Y-93867274D01*
X192625784Y-93872837D01*
X193081563Y-93872780D01*
X193384289Y-93858471D01*
X193584096Y-93818028D01*
X193731118Y-93739567D01*
X193875489Y-93611204D01*
X193921184Y-93565784D01*
X194233800Y-93253169D01*
X194233800Y-84328000D01*
X188960740Y-84328000D01*
X188899800Y-85496400D01*
X183007000Y-85496400D01*
X182976529Y-84912200D01*
X182946059Y-84328000D01*
X176352200Y-84328000D01*
X176149000Y-84328000D01*
X176149000Y-84124800D01*
X182946059Y-84124800D01*
X182976529Y-83540600D01*
X182988452Y-83312000D01*
X183362600Y-83312000D01*
X183362600Y-85140800D01*
X188544200Y-85140800D01*
X188544200Y-83312000D01*
X183362600Y-83312000D01*
X182988452Y-83312000D01*
X183007000Y-82956400D01*
X188899800Y-82956400D01*
X188960740Y-84124800D01*
G36*
X179339209Y-94922378D02*
G01*
X179434423Y-94962489D01*
X179435982Y-95087003D01*
X179353519Y-95257972D01*
X179258778Y-95438911D01*
X179294150Y-95553922D01*
X179353162Y-95608722D01*
X179471435Y-95818218D01*
X179494150Y-96101423D01*
X179417668Y-96350825D01*
X179379880Y-96398080D01*
X179205846Y-96483840D01*
X178955869Y-96519703D01*
X178704612Y-96507061D01*
X178526741Y-96447305D01*
X178485800Y-96381411D01*
X178571735Y-96282017D01*
X178837162Y-96253709D01*
X178866800Y-96254411D01*
X179124512Y-96242703D01*
X179243700Y-96164806D01*
X179280244Y-96037563D01*
X179247687Y-95840493D01*
X179053326Y-95710634D01*
X179038236Y-95704780D01*
X178854017Y-95619423D01*
X178839020Y-95530813D01*
X178929591Y-95417216D01*
X179070016Y-95230557D01*
X179046330Y-95133241D01*
X178842631Y-95099311D01*
X178733803Y-95097600D01*
X178502626Y-95073533D01*
X178429096Y-95009868D01*
X178435000Y-94996000D01*
X178566370Y-94936247D01*
X178816375Y-94902198D01*
X179101745Y-94896644D01*
X179339209Y-94922378D01*
G37*
X179339209Y-94922378D02*
X179434423Y-94962489D01*
X179435982Y-95087003D01*
X179353519Y-95257972D01*
X179258778Y-95438911D01*
X179294150Y-95553922D01*
X179353162Y-95608722D01*
X179471435Y-95818218D01*
X179494150Y-96101423D01*
X179417668Y-96350825D01*
X179379880Y-96398080D01*
X179205846Y-96483840D01*
X178955869Y-96519703D01*
X178704612Y-96507061D01*
X178526741Y-96447305D01*
X178485800Y-96381411D01*
X178571735Y-96282017D01*
X178837162Y-96253709D01*
X178866800Y-96254411D01*
X179124512Y-96242703D01*
X179243700Y-96164806D01*
X179280244Y-96037563D01*
X179247687Y-95840493D01*
X179053326Y-95710634D01*
X179038236Y-95704780D01*
X178854017Y-95619423D01*
X178839020Y-95530813D01*
X178929591Y-95417216D01*
X179070016Y-95230557D01*
X179046330Y-95133241D01*
X178842631Y-95099311D01*
X178733803Y-95097600D01*
X178502626Y-95073533D01*
X178429096Y-95009868D01*
X178435000Y-94996000D01*
X178566370Y-94936247D01*
X178816375Y-94902198D01*
X179101745Y-94896644D01*
X179339209Y-94922378D01*
G36*
X198202377Y-92208527D02*
G01*
X198304479Y-92256374D01*
X198432174Y-92425493D01*
X198502076Y-92717349D01*
X198513204Y-93059582D01*
X198464574Y-93379834D01*
X198355204Y-93605745D01*
X198323200Y-93635368D01*
X198016644Y-93763021D01*
X197713362Y-93713401D01*
X197551546Y-93590999D01*
X197425671Y-93333866D01*
X197381178Y-92993297D01*
X197589360Y-92993297D01*
X197640902Y-93253070D01*
X197746257Y-93413942D01*
X197939731Y-93556735D01*
X198096706Y-93522789D01*
X198190315Y-93428290D01*
X198275421Y-93201334D01*
X198275847Y-92897051D01*
X198202949Y-92605948D01*
X198068082Y-92418532D01*
X198063249Y-92415489D01*
X197875836Y-92386591D01*
X197723361Y-92507979D01*
X197622357Y-92727574D01*
X197589360Y-92993297D01*
X197381178Y-92993297D01*
X197380394Y-92987302D01*
X197414535Y-92636394D01*
X197526912Y-92366228D01*
X197569200Y-92319346D01*
X197866617Y-92164760D01*
X198202377Y-92208527D01*
G37*
X198202377Y-92208527D02*
X198304479Y-92256374D01*
X198432174Y-92425493D01*
X198502076Y-92717349D01*
X198513204Y-93059582D01*
X198464574Y-93379834D01*
X198355204Y-93605745D01*
X198323200Y-93635368D01*
X198016644Y-93763021D01*
X197713362Y-93713401D01*
X197551546Y-93590999D01*
X197425671Y-93333866D01*
X197381178Y-92993297D01*
X197589360Y-92993297D01*
X197640902Y-93253070D01*
X197746257Y-93413942D01*
X197939731Y-93556735D01*
X198096706Y-93522789D01*
X198190315Y-93428290D01*
X198275421Y-93201334D01*
X198275847Y-92897051D01*
X198202949Y-92605948D01*
X198068082Y-92418532D01*
X198063249Y-92415489D01*
X197875836Y-92386591D01*
X197723361Y-92507979D01*
X197622357Y-92727574D01*
X197589360Y-92993297D01*
X197381178Y-92993297D01*
X197380394Y-92987302D01*
X197414535Y-92636394D01*
X197526912Y-92366228D01*
X197569200Y-92319346D01*
X197866617Y-92164760D01*
X198202377Y-92208527D01*
G36*
X199878971Y-92242045D02*
G01*
X199912391Y-92474542D01*
X199922872Y-92788634D01*
X199911224Y-93124262D01*
X199878260Y-93421369D01*
X199824790Y-93619896D01*
X199801480Y-93654880D01*
X199564831Y-93765226D01*
X199278657Y-93741720D01*
X199067057Y-93617142D01*
X198989712Y-93453287D01*
X198935166Y-93177593D01*
X198905794Y-92850002D01*
X198903970Y-92530460D01*
X198932068Y-92278910D01*
X198992461Y-92155297D01*
X199009000Y-92151200D01*
X199063377Y-92243537D01*
X199100151Y-92483833D01*
X199110600Y-92748359D01*
X199144067Y-93182566D01*
X199239137Y-93454302D01*
X199387816Y-93550915D01*
X199567800Y-93472000D01*
X199671689Y-93277932D01*
X199717358Y-92908115D01*
X199720200Y-92748359D01*
X199735910Y-92428753D01*
X199776793Y-92212612D01*
X199821800Y-92151200D01*
X199878971Y-92242045D01*
G37*
X199878971Y-92242045D02*
X199912391Y-92474542D01*
X199922872Y-92788634D01*
X199911224Y-93124262D01*
X199878260Y-93421369D01*
X199824790Y-93619896D01*
X199801480Y-93654880D01*
X199564831Y-93765226D01*
X199278657Y-93741720D01*
X199067057Y-93617142D01*
X198989712Y-93453287D01*
X198935166Y-93177593D01*
X198905794Y-92850002D01*
X198903970Y-92530460D01*
X198932068Y-92278910D01*
X198992461Y-92155297D01*
X199009000Y-92151200D01*
X199063377Y-92243537D01*
X199100151Y-92483833D01*
X199110600Y-92748359D01*
X199144067Y-93182566D01*
X199239137Y-93454302D01*
X199387816Y-93550915D01*
X199567800Y-93472000D01*
X199671689Y-93277932D01*
X199717358Y-92908115D01*
X199720200Y-92748359D01*
X199735910Y-92428753D01*
X199776793Y-92212612D01*
X199821800Y-92151200D01*
X199878971Y-92242045D01*
G36*
X201025985Y-92169475D02*
G01*
X201209917Y-92216202D01*
X201244200Y-92252800D01*
X201157390Y-92329666D01*
X200994651Y-92354400D01*
X200864326Y-92366540D01*
X200786952Y-92432224D01*
X200745502Y-92595349D01*
X200722948Y-92899810D01*
X200715251Y-93074684D01*
X200691142Y-93414368D01*
X200655126Y-93644731D01*
X200614462Y-93721719D01*
X200609200Y-93718151D01*
X200569482Y-93583155D01*
X200541917Y-93307991D01*
X200533000Y-92997866D01*
X200522356Y-92632870D01*
X200484417Y-92432196D01*
X200410169Y-92357791D01*
X200380600Y-92354400D01*
X200245393Y-92299538D01*
X200228200Y-92252800D01*
X200319576Y-92194842D01*
X200553210Y-92158056D01*
X200736200Y-92151200D01*
X201025985Y-92169475D01*
G37*
X201025985Y-92169475D02*
X201209917Y-92216202D01*
X201244200Y-92252800D01*
X201157390Y-92329666D01*
X200994651Y-92354400D01*
X200864326Y-92366540D01*
X200786952Y-92432224D01*
X200745502Y-92595349D01*
X200722948Y-92899810D01*
X200715251Y-93074684D01*
X200691142Y-93414368D01*
X200655126Y-93644731D01*
X200614462Y-93721719D01*
X200609200Y-93718151D01*
X200569482Y-93583155D01*
X200541917Y-93307991D01*
X200533000Y-92997866D01*
X200522356Y-92632870D01*
X200484417Y-92432196D01*
X200410169Y-92357791D01*
X200380600Y-92354400D01*
X200245393Y-92299538D01*
X200228200Y-92252800D01*
X200319576Y-92194842D01*
X200553210Y-92158056D01*
X200736200Y-92151200D01*
X201025985Y-92169475D01*
G36*
X154054339Y-89416810D02*
G01*
X154088864Y-89663839D01*
X154101758Y-90083269D01*
X154101800Y-90113203D01*
X154089997Y-90517879D01*
X154057745Y-90802517D01*
X154009777Y-90928975D01*
X154000200Y-90932000D01*
X153948899Y-90837513D01*
X153913178Y-90582024D01*
X153898675Y-90207485D01*
X153898600Y-90175996D01*
X153911356Y-89802479D01*
X153945035Y-89513257D01*
X153992750Y-89363830D01*
X154000200Y-89357200D01*
X154054339Y-89416810D01*
G37*
X154054339Y-89416810D02*
X154088864Y-89663839D01*
X154101758Y-90083269D01*
X154101800Y-90113203D01*
X154089997Y-90517879D01*
X154057745Y-90802517D01*
X154009777Y-90928975D01*
X154000200Y-90932000D01*
X153948899Y-90837513D01*
X153913178Y-90582024D01*
X153898675Y-90207485D01*
X153898600Y-90175996D01*
X153911356Y-89802479D01*
X153945035Y-89513257D01*
X153992750Y-89363830D01*
X154000200Y-89357200D01*
X154054339Y-89416810D01*
G36*
X155578339Y-89416810D02*
G01*
X155612864Y-89663839D01*
X155625758Y-90083269D01*
X155625800Y-90113203D01*
X155615146Y-90492178D01*
X155586818Y-90778119D01*
X155546270Y-90923135D01*
X155532586Y-90932000D01*
X155436053Y-90850900D01*
X155279433Y-90640185D01*
X155128427Y-90398600D01*
X154817482Y-89865200D01*
X154815241Y-90398600D01*
X154796533Y-90696625D01*
X154750882Y-90890227D01*
X154711400Y-90932000D01*
X154659903Y-90837633D01*
X154624111Y-90582990D01*
X154609844Y-90210752D01*
X154609800Y-90186933D01*
X154618778Y-89814816D01*
X154642450Y-89525952D01*
X154675923Y-89377069D01*
X154680128Y-89371537D01*
X154765035Y-89413034D01*
X154916983Y-89590821D01*
X155084233Y-89837204D01*
X155418010Y-90373200D01*
X155420305Y-89896596D01*
X155441627Y-89601404D01*
X155493013Y-89399343D01*
X155524200Y-89357200D01*
X155578339Y-89416810D01*
G37*
X155578339Y-89416810D02*
X155612864Y-89663839D01*
X155625758Y-90083269D01*
X155625800Y-90113203D01*
X155615146Y-90492178D01*
X155586818Y-90778119D01*
X155546270Y-90923135D01*
X155532586Y-90932000D01*
X155436053Y-90850900D01*
X155279433Y-90640185D01*
X155128427Y-90398600D01*
X154817482Y-89865200D01*
X154815241Y-90398600D01*
X154796533Y-90696625D01*
X154750882Y-90890227D01*
X154711400Y-90932000D01*
X154659903Y-90837633D01*
X154624111Y-90582990D01*
X154609844Y-90210752D01*
X154609800Y-90186933D01*
X154618778Y-89814816D01*
X154642450Y-89525952D01*
X154675923Y-89377069D01*
X154680128Y-89371537D01*
X154765035Y-89413034D01*
X154916983Y-89590821D01*
X155084233Y-89837204D01*
X155418010Y-90373200D01*
X155420305Y-89896596D01*
X155441627Y-89601404D01*
X155493013Y-89399343D01*
X155524200Y-89357200D01*
X155578339Y-89416810D01*
G36*
X174457502Y-89330492D02*
G01*
X174551978Y-89368845D01*
X174550808Y-89490002D01*
X174473828Y-89648245D01*
X174385648Y-89840512D01*
X174440105Y-90006828D01*
X174479116Y-90062418D01*
X174607119Y-90355283D01*
X174596974Y-90647549D01*
X174503080Y-90810080D01*
X174330231Y-90886561D01*
X174058976Y-90926958D01*
X173782098Y-90925850D01*
X173592379Y-90877821D01*
X173575133Y-90864266D01*
X173511314Y-90747284D01*
X173620784Y-90684383D01*
X173916125Y-90668823D01*
X173939200Y-90669231D01*
X174210992Y-90663197D01*
X174336039Y-90609196D01*
X174370143Y-90475534D01*
X174371000Y-90424000D01*
X174315095Y-90214622D01*
X174142400Y-90137533D01*
X173967847Y-90099544D01*
X173931182Y-90019761D01*
X174023212Y-89844408D01*
X174077885Y-89760025D01*
X174241970Y-89509600D01*
X173868688Y-89509600D01*
X173631312Y-89486201D01*
X173551964Y-89423955D01*
X173558200Y-89408000D01*
X173688294Y-89349428D01*
X173937140Y-89314795D01*
X174221342Y-89307388D01*
X174457502Y-89330492D01*
G37*
X174457502Y-89330492D02*
X174551978Y-89368845D01*
X174550808Y-89490002D01*
X174473828Y-89648245D01*
X174385648Y-89840512D01*
X174440105Y-90006828D01*
X174479116Y-90062418D01*
X174607119Y-90355283D01*
X174596974Y-90647549D01*
X174503080Y-90810080D01*
X174330231Y-90886561D01*
X174058976Y-90926958D01*
X173782098Y-90925850D01*
X173592379Y-90877821D01*
X173575133Y-90864266D01*
X173511314Y-90747284D01*
X173620784Y-90684383D01*
X173916125Y-90668823D01*
X173939200Y-90669231D01*
X174210992Y-90663197D01*
X174336039Y-90609196D01*
X174370143Y-90475534D01*
X174371000Y-90424000D01*
X174315095Y-90214622D01*
X174142400Y-90137533D01*
X173967847Y-90099544D01*
X173931182Y-90019761D01*
X174023212Y-89844408D01*
X174077885Y-89760025D01*
X174241970Y-89509600D01*
X173868688Y-89509600D01*
X173631312Y-89486201D01*
X173551964Y-89423955D01*
X173558200Y-89408000D01*
X173688294Y-89349428D01*
X173937140Y-89314795D01*
X174221342Y-89307388D01*
X174457502Y-89330492D01*
G36*
X181914975Y-155026947D02*
G01*
X181940200Y-155194000D01*
X181973004Y-155375526D01*
X182112454Y-155441934D01*
X182245000Y-155448000D01*
X182459010Y-155477429D01*
X182549776Y-155548335D01*
X182549800Y-155549600D01*
X182461512Y-155620936D01*
X182248792Y-155651192D01*
X182245000Y-155651200D01*
X182027167Y-155678537D01*
X181947479Y-155794745D01*
X181940200Y-155905200D01*
X181905421Y-156096137D01*
X181838600Y-156159200D01*
X181762224Y-156072252D01*
X181737000Y-155905200D01*
X181695036Y-155711853D01*
X181529808Y-155652272D01*
X181483000Y-155651200D01*
X181292062Y-155616421D01*
X181229000Y-155549600D01*
X181315947Y-155473224D01*
X181483000Y-155448000D01*
X181676346Y-155406036D01*
X181735927Y-155240808D01*
X181737000Y-155194000D01*
X181771778Y-155003062D01*
X181838600Y-154940000D01*
X181914975Y-155026947D01*
G37*
X181914975Y-155026947D02*
X181940200Y-155194000D01*
X181973004Y-155375526D01*
X182112454Y-155441934D01*
X182245000Y-155448000D01*
X182459010Y-155477429D01*
X182549776Y-155548335D01*
X182549800Y-155549600D01*
X182461512Y-155620936D01*
X182248792Y-155651192D01*
X182245000Y-155651200D01*
X182027167Y-155678537D01*
X181947479Y-155794745D01*
X181940200Y-155905200D01*
X181905421Y-156096137D01*
X181838600Y-156159200D01*
X181762224Y-156072252D01*
X181737000Y-155905200D01*
X181695036Y-155711853D01*
X181529808Y-155652272D01*
X181483000Y-155651200D01*
X181292062Y-155616421D01*
X181229000Y-155549600D01*
X181315947Y-155473224D01*
X181483000Y-155448000D01*
X181676346Y-155406036D01*
X181735927Y-155240808D01*
X181737000Y-155194000D01*
X181771778Y-155003062D01*
X181838600Y-154940000D01*
X181914975Y-155026947D01*
G36*
X182234498Y-149874355D02*
G01*
X182470771Y-149912382D01*
X182549800Y-149961600D01*
X182456490Y-150014692D01*
X182209312Y-150051041D01*
X181889400Y-150063200D01*
X181544301Y-150048844D01*
X181308028Y-150010817D01*
X181229000Y-149961600D01*
X181322309Y-149908507D01*
X181569487Y-149872158D01*
X181889400Y-149860000D01*
X182234498Y-149874355D01*
G37*
X182234498Y-149874355D02*
X182470771Y-149912382D01*
X182549800Y-149961600D01*
X182456490Y-150014692D01*
X182209312Y-150051041D01*
X181889400Y-150063200D01*
X181544301Y-150048844D01*
X181308028Y-150010817D01*
X181229000Y-149961600D01*
X181322309Y-149908507D01*
X181569487Y-149872158D01*
X181889400Y-149860000D01*
X182234498Y-149874355D01*
G36*
X193029908Y-150834661D02*
G01*
X193074385Y-150956402D01*
X193105541Y-151221717D01*
X193116200Y-151542396D01*
X193126536Y-151910907D01*
X193163438Y-152114954D01*
X193235748Y-152192500D01*
X193268600Y-152196800D01*
X193403806Y-152251661D01*
X193421000Y-152298400D01*
X193329562Y-152356068D01*
X193095508Y-152392882D01*
X192907003Y-152400000D01*
X192600968Y-152382389D01*
X192457813Y-152333444D01*
X192455800Y-152298400D01*
X192599103Y-152213049D01*
X192715796Y-152196800D01*
X192840418Y-152164160D01*
X192898620Y-152032040D01*
X192912999Y-151749137D01*
X192913000Y-151749111D01*
X192902497Y-151473914D01*
X192855021Y-151354991D01*
X192746620Y-151345834D01*
X192709800Y-151354561D01*
X192547221Y-151372208D01*
X192506600Y-151345822D01*
X192570495Y-151212418D01*
X192719342Y-151040229D01*
X192888879Y-150892024D01*
X193014846Y-150830572D01*
X193029908Y-150834661D01*
G37*
X193029908Y-150834661D02*
X193074385Y-150956402D01*
X193105541Y-151221717D01*
X193116200Y-151542396D01*
X193126536Y-151910907D01*
X193163438Y-152114954D01*
X193235748Y-152192500D01*
X193268600Y-152196800D01*
X193403806Y-152251661D01*
X193421000Y-152298400D01*
X193329562Y-152356068D01*
X193095508Y-152392882D01*
X192907003Y-152400000D01*
X192600968Y-152382389D01*
X192457813Y-152333444D01*
X192455800Y-152298400D01*
X192599103Y-152213049D01*
X192715796Y-152196800D01*
X192840418Y-152164160D01*
X192898620Y-152032040D01*
X192912999Y-151749137D01*
X192913000Y-151749111D01*
X192902497Y-151473914D01*
X192855021Y-151354991D01*
X192746620Y-151345834D01*
X192709800Y-151354561D01*
X192547221Y-151372208D01*
X192506600Y-151345822D01*
X192570495Y-151212418D01*
X192719342Y-151040229D01*
X192888879Y-150892024D01*
X193014846Y-150830572D01*
X193029908Y-150834661D01*
G36*
X179256819Y-148094667D02*
G01*
X179396625Y-148227720D01*
X179480079Y-148424490D01*
X179471623Y-148593283D01*
X179352602Y-148792375D01*
X179134377Y-149046907D01*
X178766955Y-149453600D01*
X179134377Y-149453600D01*
X179374072Y-149478354D01*
X179497370Y-149539468D01*
X179501800Y-149555200D01*
X179412613Y-149609421D01*
X179193246Y-149644025D01*
X178915987Y-149656607D01*
X178653125Y-149644765D01*
X178476949Y-149606095D01*
X178452933Y-149590066D01*
X178482829Y-149488672D01*
X178625264Y-149286812D01*
X178849461Y-149028071D01*
X178850906Y-149026526D01*
X179098357Y-148748123D01*
X179217381Y-148567487D01*
X179228866Y-148444561D01*
X179189316Y-148377542D01*
X178980065Y-148271837D01*
X178774410Y-148288755D01*
X178561382Y-148296436D01*
X178483698Y-148228856D01*
X178569352Y-148128892D01*
X178646509Y-148092870D01*
X178977860Y-148031111D01*
X179256819Y-148094667D01*
G37*
X179256819Y-148094667D02*
X179396625Y-148227720D01*
X179480079Y-148424490D01*
X179471623Y-148593283D01*
X179352602Y-148792375D01*
X179134377Y-149046907D01*
X178766955Y-149453600D01*
X179134377Y-149453600D01*
X179374072Y-149478354D01*
X179497370Y-149539468D01*
X179501800Y-149555200D01*
X179412613Y-149609421D01*
X179193246Y-149644025D01*
X178915987Y-149656607D01*
X178653125Y-149644765D01*
X178476949Y-149606095D01*
X178452933Y-149590066D01*
X178482829Y-149488672D01*
X178625264Y-149286812D01*
X178849461Y-149028071D01*
X178850906Y-149026526D01*
X179098357Y-148748123D01*
X179217381Y-148567487D01*
X179228866Y-148444561D01*
X179189316Y-148377542D01*
X178980065Y-148271837D01*
X178774410Y-148288755D01*
X178561382Y-148296436D01*
X178483698Y-148228856D01*
X178569352Y-148128892D01*
X178646509Y-148092870D01*
X178977860Y-148031111D01*
X179256819Y-148094667D01*
G36*
X181914975Y-127086947D02*
G01*
X181940200Y-127254000D01*
X181973004Y-127435526D01*
X182112454Y-127501934D01*
X182245000Y-127508000D01*
X182459010Y-127537429D01*
X182549776Y-127608335D01*
X182549800Y-127609600D01*
X182461512Y-127680936D01*
X182248792Y-127711192D01*
X182245000Y-127711200D01*
X182027167Y-127738537D01*
X181947479Y-127854745D01*
X181940200Y-127965200D01*
X181905421Y-128156137D01*
X181838600Y-128219200D01*
X181762224Y-128132252D01*
X181737000Y-127965200D01*
X181695036Y-127771853D01*
X181529808Y-127712272D01*
X181483000Y-127711200D01*
X181292062Y-127676421D01*
X181229000Y-127609600D01*
X181315947Y-127533224D01*
X181483000Y-127508000D01*
X181676346Y-127466036D01*
X181735927Y-127300808D01*
X181737000Y-127254000D01*
X181771778Y-127063062D01*
X181838600Y-127000000D01*
X181914975Y-127086947D01*
G37*
X181914975Y-127086947D02*
X181940200Y-127254000D01*
X181973004Y-127435526D01*
X182112454Y-127501934D01*
X182245000Y-127508000D01*
X182459010Y-127537429D01*
X182549776Y-127608335D01*
X182549800Y-127609600D01*
X182461512Y-127680936D01*
X182248792Y-127711192D01*
X182245000Y-127711200D01*
X182027167Y-127738537D01*
X181947479Y-127854745D01*
X181940200Y-127965200D01*
X181905421Y-128156137D01*
X181838600Y-128219200D01*
X181762224Y-128132252D01*
X181737000Y-127965200D01*
X181695036Y-127771853D01*
X181529808Y-127712272D01*
X181483000Y-127711200D01*
X181292062Y-127676421D01*
X181229000Y-127609600D01*
X181315947Y-127533224D01*
X181483000Y-127508000D01*
X181676346Y-127466036D01*
X181735927Y-127300808D01*
X181737000Y-127254000D01*
X181771778Y-127063062D01*
X181838600Y-127000000D01*
X181914975Y-127086947D01*
G36*
X182234498Y-121934355D02*
G01*
X182470771Y-121972382D01*
X182549800Y-122021600D01*
X182456490Y-122074692D01*
X182209312Y-122111041D01*
X181889400Y-122123200D01*
X181544301Y-122108844D01*
X181308028Y-122070817D01*
X181229000Y-122021600D01*
X181322309Y-121968507D01*
X181569487Y-121932158D01*
X181889400Y-121920000D01*
X182234498Y-121934355D01*
G37*
X182234498Y-121934355D02*
X182470771Y-121972382D01*
X182549800Y-122021600D01*
X182456490Y-122074692D01*
X182209312Y-122111041D01*
X181889400Y-122123200D01*
X181544301Y-122108844D01*
X181308028Y-122070817D01*
X181229000Y-122021600D01*
X181322309Y-121968507D01*
X181569487Y-121932158D01*
X181889400Y-121920000D01*
X182234498Y-121934355D01*
G36*
X193047537Y-122901204D02*
G01*
X193083281Y-123031651D01*
X193108115Y-123303255D01*
X193116200Y-123613333D01*
X193126843Y-123978329D01*
X193164782Y-124179003D01*
X193239030Y-124253408D01*
X193268600Y-124256800D01*
X193403806Y-124311661D01*
X193421000Y-124358400D01*
X193329562Y-124416068D01*
X193095508Y-124452882D01*
X192907003Y-124460000D01*
X192600968Y-124442389D01*
X192457813Y-124393444D01*
X192455800Y-124358400D01*
X192599103Y-124273049D01*
X192715796Y-124256800D01*
X192840418Y-124224160D01*
X192898620Y-124092040D01*
X192912999Y-123809137D01*
X192913000Y-123809111D01*
X192902497Y-123533914D01*
X192855021Y-123414991D01*
X192746620Y-123405834D01*
X192709800Y-123414561D01*
X192547862Y-123418831D01*
X192506600Y-123371960D01*
X192572026Y-123236356D01*
X192724584Y-123073122D01*
X192898695Y-122939329D01*
X193028779Y-122892047D01*
X193047537Y-122901204D01*
G37*
X193047537Y-122901204D02*
X193083281Y-123031651D01*
X193108115Y-123303255D01*
X193116200Y-123613333D01*
X193126843Y-123978329D01*
X193164782Y-124179003D01*
X193239030Y-124253408D01*
X193268600Y-124256800D01*
X193403806Y-124311661D01*
X193421000Y-124358400D01*
X193329562Y-124416068D01*
X193095508Y-124452882D01*
X192907003Y-124460000D01*
X192600968Y-124442389D01*
X192457813Y-124393444D01*
X192455800Y-124358400D01*
X192599103Y-124273049D01*
X192715796Y-124256800D01*
X192840418Y-124224160D01*
X192898620Y-124092040D01*
X192912999Y-123809137D01*
X192913000Y-123809111D01*
X192902497Y-123533914D01*
X192855021Y-123414991D01*
X192746620Y-123405834D01*
X192709800Y-123414561D01*
X192547862Y-123418831D01*
X192506600Y-123371960D01*
X192572026Y-123236356D01*
X192724584Y-123073122D01*
X192898695Y-122939329D01*
X193028779Y-122892047D01*
X193047537Y-122901204D01*
G36*
X179256819Y-120154667D02*
G01*
X179396625Y-120287720D01*
X179480079Y-120484490D01*
X179471623Y-120653283D01*
X179352602Y-120852375D01*
X179134377Y-121106907D01*
X178766955Y-121513600D01*
X179134377Y-121513600D01*
X179374072Y-121538354D01*
X179497370Y-121599468D01*
X179501800Y-121615200D01*
X179412613Y-121669421D01*
X179193246Y-121704025D01*
X178915987Y-121716607D01*
X178653125Y-121704765D01*
X178476949Y-121666095D01*
X178452933Y-121650066D01*
X178482829Y-121548672D01*
X178625264Y-121346812D01*
X178849461Y-121088071D01*
X178850906Y-121086526D01*
X179098357Y-120808123D01*
X179217381Y-120627487D01*
X179228866Y-120504561D01*
X179189316Y-120437542D01*
X178980065Y-120331837D01*
X178774410Y-120348755D01*
X178561382Y-120356436D01*
X178483698Y-120288856D01*
X178569352Y-120188892D01*
X178646509Y-120152870D01*
X178977860Y-120091111D01*
X179256819Y-120154667D01*
G37*
X179256819Y-120154667D02*
X179396625Y-120287720D01*
X179480079Y-120484490D01*
X179471623Y-120653283D01*
X179352602Y-120852375D01*
X179134377Y-121106907D01*
X178766955Y-121513600D01*
X179134377Y-121513600D01*
X179374072Y-121538354D01*
X179497370Y-121599468D01*
X179501800Y-121615200D01*
X179412613Y-121669421D01*
X179193246Y-121704025D01*
X178915987Y-121716607D01*
X178653125Y-121704765D01*
X178476949Y-121666095D01*
X178452933Y-121650066D01*
X178482829Y-121548672D01*
X178625264Y-121346812D01*
X178849461Y-121088071D01*
X178850906Y-121086526D01*
X179098357Y-120808123D01*
X179217381Y-120627487D01*
X179228866Y-120504561D01*
X179189316Y-120437542D01*
X178980065Y-120331837D01*
X178774410Y-120348755D01*
X178561382Y-120356436D01*
X178483698Y-120288856D01*
X178569352Y-120188892D01*
X178646509Y-120152870D01*
X178977860Y-120091111D01*
X179256819Y-120154667D01*
G36*
X181910555Y-96305701D02*
G01*
X181940150Y-96503371D01*
X181940200Y-96514003D01*
X181963984Y-96732562D01*
X182078487Y-96814313D01*
X182250996Y-96824800D01*
X182454104Y-96852316D01*
X182501003Y-96922914D01*
X182499000Y-96926400D01*
X182358552Y-97005857D01*
X182194952Y-97028000D01*
X182002339Y-97080997D01*
X181923828Y-97274293D01*
X181921548Y-97291747D01*
X181874425Y-97458654D01*
X181813200Y-97478014D01*
X181747508Y-97319048D01*
X181737000Y-97214266D01*
X181657113Y-97056567D01*
X181539796Y-97028000D01*
X181345298Y-96981346D01*
X181279800Y-96926400D01*
X181315770Y-96851061D01*
X181477003Y-96824800D01*
X181673805Y-96784619D01*
X181735660Y-96626777D01*
X181737000Y-96576796D01*
X181774461Y-96361668D01*
X181838600Y-96266000D01*
X181910555Y-96305701D01*
G37*
X181910555Y-96305701D02*
X181940150Y-96503371D01*
X181940200Y-96514003D01*
X181963984Y-96732562D01*
X182078487Y-96814313D01*
X182250996Y-96824800D01*
X182454104Y-96852316D01*
X182501003Y-96922914D01*
X182499000Y-96926400D01*
X182358552Y-97005857D01*
X182194952Y-97028000D01*
X182002339Y-97080997D01*
X181923828Y-97274293D01*
X181921548Y-97291747D01*
X181874425Y-97458654D01*
X181813200Y-97478014D01*
X181747508Y-97319048D01*
X181737000Y-97214266D01*
X181657113Y-97056567D01*
X181539796Y-97028000D01*
X181345298Y-96981346D01*
X181279800Y-96926400D01*
X181315770Y-96851061D01*
X181477003Y-96824800D01*
X181673805Y-96784619D01*
X181735660Y-96626777D01*
X181737000Y-96576796D01*
X181774461Y-96361668D01*
X181838600Y-96266000D01*
X181910555Y-96305701D01*
G36*
X182262835Y-91250625D02*
G01*
X182468482Y-91289988D01*
X182499000Y-91338400D01*
X182369881Y-91395187D01*
X182105603Y-91432063D01*
X181889400Y-91440000D01*
X181572974Y-91422530D01*
X181346779Y-91377660D01*
X181279800Y-91338400D01*
X181335628Y-91280681D01*
X181574658Y-91245932D01*
X181889400Y-91236800D01*
X182262835Y-91250625D01*
G37*
X182262835Y-91250625D02*
X182468482Y-91289988D01*
X182499000Y-91338400D01*
X182369881Y-91395187D01*
X182105603Y-91432063D01*
X181889400Y-91440000D01*
X181572974Y-91422530D01*
X181346779Y-91377660D01*
X181279800Y-91338400D01*
X181335628Y-91280681D01*
X181574658Y-91245932D01*
X181889400Y-91236800D01*
X182262835Y-91250625D01*
G36*
X193073657Y-92244200D02*
G01*
X193103619Y-92488946D01*
X193116133Y-92834051D01*
X193116200Y-92862400D01*
X193125162Y-93248806D01*
X193157389Y-93469959D01*
X193220888Y-93563230D01*
X193268600Y-93573600D01*
X193403806Y-93628461D01*
X193421000Y-93675200D01*
X193330264Y-93736127D01*
X193101008Y-93772392D01*
X192969796Y-93776800D01*
X192682651Y-93755757D01*
X192489821Y-93702767D01*
X192455800Y-93675200D01*
X192491770Y-93599861D01*
X192653003Y-93573600D01*
X192805848Y-93558444D01*
X192882951Y-93478655D01*
X192910033Y-93282751D01*
X192913000Y-93053159D01*
X192905786Y-92754629D01*
X192874865Y-92623830D01*
X192806314Y-92625527D01*
X192758144Y-92661237D01*
X192603470Y-92738350D01*
X192537610Y-92724077D01*
X192556772Y-92620067D01*
X192675108Y-92449044D01*
X192836908Y-92275522D01*
X192986460Y-92164018D01*
X193032310Y-92151200D01*
X193073657Y-92244200D01*
G37*
X193073657Y-92244200D02*
X193103619Y-92488946D01*
X193116133Y-92834051D01*
X193116200Y-92862400D01*
X193125162Y-93248806D01*
X193157389Y-93469959D01*
X193220888Y-93563230D01*
X193268600Y-93573600D01*
X193403806Y-93628461D01*
X193421000Y-93675200D01*
X193330264Y-93736127D01*
X193101008Y-93772392D01*
X192969796Y-93776800D01*
X192682651Y-93755757D01*
X192489821Y-93702767D01*
X192455800Y-93675200D01*
X192491770Y-93599861D01*
X192653003Y-93573600D01*
X192805848Y-93558444D01*
X192882951Y-93478655D01*
X192910033Y-93282751D01*
X192913000Y-93053159D01*
X192905786Y-92754629D01*
X192874865Y-92623830D01*
X192806314Y-92625527D01*
X192758144Y-92661237D01*
X192603470Y-92738350D01*
X192537610Y-92724077D01*
X192556772Y-92620067D01*
X192675108Y-92449044D01*
X192836908Y-92275522D01*
X192986460Y-92164018D01*
X193032310Y-92151200D01*
X193073657Y-92244200D01*
G36*
X179093819Y-89338928D02*
G01*
X179333653Y-89492200D01*
X179476023Y-89722258D01*
X179463207Y-89960060D01*
X179288044Y-90248299D01*
X179186475Y-90369664D01*
X178871150Y-90728800D01*
X179186475Y-90728800D01*
X179404991Y-90757322D01*
X179501552Y-90826366D01*
X179501800Y-90830400D01*
X179409855Y-90885640D01*
X179172320Y-90922540D01*
X178933584Y-90932000D01*
X178365369Y-90932000D01*
X178831984Y-90413011D01*
X179099193Y-90108575D01*
X179242637Y-89911652D01*
X179277672Y-89781652D01*
X179219658Y-89677985D01*
X179137949Y-89604353D01*
X178972172Y-89522538D01*
X178783202Y-89592306D01*
X178772456Y-89598952D01*
X178576051Y-89679575D01*
X178500295Y-89629436D01*
X178576775Y-89471784D01*
X178585362Y-89461255D01*
X178814535Y-89324853D01*
X179093819Y-89338928D01*
G37*
X179093819Y-89338928D02*
X179333653Y-89492200D01*
X179476023Y-89722258D01*
X179463207Y-89960060D01*
X179288044Y-90248299D01*
X179186475Y-90369664D01*
X178871150Y-90728800D01*
X179186475Y-90728800D01*
X179404991Y-90757322D01*
X179501552Y-90826366D01*
X179501800Y-90830400D01*
X179409855Y-90885640D01*
X179172320Y-90922540D01*
X178933584Y-90932000D01*
X178365369Y-90932000D01*
X178831984Y-90413011D01*
X179099193Y-90108575D01*
X179242637Y-89911652D01*
X179277672Y-89781652D01*
X179219658Y-89677985D01*
X179137949Y-89604353D01*
X178972172Y-89522538D01*
X178783202Y-89592306D01*
X178772456Y-89598952D01*
X178576051Y-89679575D01*
X178500295Y-89629436D01*
X178576775Y-89471784D01*
X178585362Y-89461255D01*
X178814535Y-89324853D01*
X179093819Y-89338928D01*
G36*
X140024021Y-147559060D02*
G01*
X140280234Y-147563908D01*
X140485481Y-147572980D01*
X140656600Y-147587466D01*
X140810430Y-147608556D01*
X140963812Y-147637440D01*
X141026744Y-147650985D01*
X141775665Y-147857282D01*
X142483917Y-148134957D01*
X143147684Y-148481032D01*
X143763147Y-148892532D01*
X144326488Y-149366480D01*
X144833890Y-149899900D01*
X145281533Y-150489817D01*
X145665600Y-151133253D01*
X145775963Y-151353119D01*
X145906664Y-151642451D01*
X146030741Y-151948279D01*
X146140072Y-152248217D01*
X146226531Y-152519876D01*
X146281994Y-152740869D01*
X146284722Y-152755014D01*
X146313422Y-152908000D01*
X140250333Y-152908000D01*
X140250333Y-153244306D01*
X140246919Y-153422582D01*
X140233259Y-153540312D01*
X140204227Y-153621462D01*
X140155083Y-153689552D01*
X140002246Y-153803847D01*
X139816407Y-153848249D01*
X139670913Y-153831865D01*
X139529827Y-153770932D01*
X139435566Y-153668646D01*
X139381701Y-153512737D01*
X139361804Y-153290935D01*
X139361333Y-153240957D01*
X139361333Y-152908000D01*
X133059773Y-152908000D01*
X133159144Y-152536684D01*
X133392220Y-151826087D01*
X133699048Y-151152829D01*
X134075271Y-150521574D01*
X134516533Y-149936987D01*
X135018479Y-149403731D01*
X135576752Y-148926470D01*
X136186996Y-148509868D01*
X136844855Y-148158590D01*
X137494288Y-147895062D01*
X137825312Y-147784996D01*
X138119309Y-147700814D01*
X138396944Y-147639353D01*
X138678880Y-147597447D01*
X138985780Y-147571931D01*
X139338308Y-147559641D01*
X139700000Y-147557248D01*
X140024021Y-147559060D01*
G37*
X140024021Y-147559060D02*
X140280234Y-147563908D01*
X140485481Y-147572980D01*
X140656600Y-147587466D01*
X140810430Y-147608556D01*
X140963812Y-147637440D01*
X141026744Y-147650985D01*
X141775665Y-147857282D01*
X142483917Y-148134957D01*
X143147684Y-148481032D01*
X143763147Y-148892532D01*
X144326488Y-149366480D01*
X144833890Y-149899900D01*
X145281533Y-150489817D01*
X145665600Y-151133253D01*
X145775963Y-151353119D01*
X145906664Y-151642451D01*
X146030741Y-151948279D01*
X146140072Y-152248217D01*
X146226531Y-152519876D01*
X146281994Y-152740869D01*
X146284722Y-152755014D01*
X146313422Y-152908000D01*
X140250333Y-152908000D01*
X140250333Y-153244306D01*
X140246919Y-153422582D01*
X140233259Y-153540312D01*
X140204227Y-153621462D01*
X140155083Y-153689552D01*
X140002246Y-153803847D01*
X139816407Y-153848249D01*
X139670913Y-153831865D01*
X139529827Y-153770932D01*
X139435566Y-153668646D01*
X139381701Y-153512737D01*
X139361804Y-153290935D01*
X139361333Y-153240957D01*
X139361333Y-152908000D01*
X133059773Y-152908000D01*
X133159144Y-152536684D01*
X133392220Y-151826087D01*
X133699048Y-151152829D01*
X134075271Y-150521574D01*
X134516533Y-149936987D01*
X135018479Y-149403731D01*
X135576752Y-148926470D01*
X136186996Y-148509868D01*
X136844855Y-148158590D01*
X137494288Y-147895062D01*
X137825312Y-147784996D01*
X138119309Y-147700814D01*
X138396944Y-147639353D01*
X138678880Y-147597447D01*
X138985780Y-147571931D01*
X139338308Y-147559641D01*
X139700000Y-147557248D01*
X140024021Y-147559060D01*
G36*
X143816126Y-153881667D02*
G01*
X146484837Y-153881667D01*
X146461839Y-154506083D01*
X146435037Y-154966479D01*
X146387786Y-155374280D01*
X146314912Y-155760170D01*
X146211244Y-156154831D01*
X146150841Y-156350738D01*
X145883079Y-157050902D01*
X145544104Y-157710158D01*
X145138930Y-158324089D01*
X144672571Y-158888278D01*
X144150042Y-159398309D01*
X143576357Y-159849765D01*
X142956530Y-160238231D01*
X142295576Y-160559290D01*
X141598508Y-160808525D01*
X140899071Y-160976292D01*
X140689747Y-161005546D01*
X140420916Y-161029418D01*
X140114539Y-161047272D01*
X139792577Y-161058477D01*
X139476988Y-161062399D01*
X139189734Y-161058404D01*
X138952773Y-161045859D01*
X138853333Y-161035290D01*
X138119889Y-160895269D01*
X137417643Y-160681921D01*
X136750746Y-160399880D01*
X136123349Y-160053779D01*
X135539605Y-159648251D01*
X135003665Y-159187930D01*
X134519681Y-158677447D01*
X134091804Y-158121438D01*
X133724187Y-157524534D01*
X133420981Y-156891370D01*
X133301652Y-156553287D01*
X134882805Y-156553287D01*
X134943803Y-156782740D01*
X135060873Y-157046929D01*
X135397502Y-157620841D01*
X135798245Y-158141631D01*
X136258238Y-158605271D01*
X136772613Y-159007733D01*
X137336505Y-159344986D01*
X137945048Y-159613004D01*
X138303000Y-159731197D01*
X138820039Y-159848687D01*
X139377949Y-159914728D01*
X139949098Y-159927628D01*
X140505853Y-159885697D01*
X140603444Y-159872039D01*
X141244844Y-159733400D01*
X141858263Y-159517407D01*
X142437517Y-159228515D01*
X142976422Y-158871184D01*
X143468793Y-158449870D01*
X143908447Y-157969031D01*
X144289198Y-157433126D01*
X144498531Y-157064429D01*
X144614075Y-156819143D01*
X144678359Y-156623559D01*
X144694340Y-156462348D01*
X144664977Y-156320181D01*
X144649393Y-156282488D01*
X144557677Y-156167116D01*
X144417589Y-156079257D01*
X144265245Y-156040934D01*
X144252783Y-156040667D01*
X144125904Y-156055384D01*
X144016138Y-156106707D01*
X143912214Y-156205395D01*
X143802859Y-156362203D01*
X143676803Y-156587890D01*
X143674204Y-156592855D01*
X143353663Y-157120107D01*
X142978111Y-157587381D01*
X142553770Y-157992096D01*
X142086861Y-158331671D01*
X141583607Y-158603525D01*
X141050230Y-158805075D01*
X140492952Y-158933743D01*
X139917995Y-158986945D01*
X139331580Y-158962102D01*
X138739930Y-158856632D01*
X138430000Y-158768335D01*
X137865027Y-158543558D01*
X137349112Y-158249986D01*
X136883457Y-157888668D01*
X136469261Y-157460653D01*
X136107727Y-156966990D01*
X135853475Y-156518055D01*
X135710349Y-156277004D01*
X135563255Y-156118834D01*
X135408828Y-156041765D01*
X135243704Y-156044014D01*
X135085222Y-156111163D01*
X134953369Y-156223063D01*
X134885945Y-156368583D01*
X134882805Y-156553287D01*
X133301652Y-156553287D01*
X133186337Y-156226578D01*
X133069396Y-155726988D01*
X137160158Y-155726988D01*
X137191643Y-155895991D01*
X137279262Y-156101166D01*
X137412231Y-156326815D01*
X137579770Y-156557240D01*
X137771094Y-156776743D01*
X137975421Y-156969624D01*
X138059936Y-157036979D01*
X138297760Y-157205158D01*
X138513278Y-157329719D01*
X138742019Y-157428880D01*
X138980333Y-157508943D01*
X139249260Y-157567111D01*
X139567290Y-157597493D01*
X139906051Y-157600488D01*
X140237169Y-157576490D01*
X140532270Y-157525899D01*
X140673667Y-157485252D01*
X141048957Y-157321965D01*
X141410092Y-157103730D01*
X141725095Y-156850374D01*
X141774333Y-156802667D01*
X141953653Y-156602140D01*
X142117138Y-156380136D01*
X142253068Y-156156033D01*
X142349721Y-155949210D01*
X142395375Y-155779045D01*
X142395775Y-155775303D01*
X142380598Y-155573593D01*
X142294969Y-155412203D01*
X142145337Y-155301235D01*
X142076826Y-155275510D01*
X141887890Y-155254022D01*
X141720981Y-155311126D01*
X141573111Y-155448562D01*
X141456833Y-155636404D01*
X141247868Y-155961961D01*
X140982947Y-156232310D01*
X140673318Y-156442629D01*
X140330227Y-156588094D01*
X139964921Y-156663884D01*
X139588646Y-156665175D01*
X139228209Y-156592057D01*
X138894782Y-156454686D01*
X138605822Y-156260062D01*
X138351637Y-155999831D01*
X138122539Y-155665638D01*
X138091690Y-155612074D01*
X137997999Y-155458992D01*
X137917823Y-155364608D01*
X137832478Y-155309312D01*
X137786336Y-155291601D01*
X137591724Y-155265313D01*
X137416118Y-155310561D01*
X137275335Y-155416348D01*
X137185193Y-155571676D01*
X137160158Y-155726988D01*
X133069396Y-155726988D01*
X133024407Y-155534792D01*
X132939344Y-154820644D01*
X132926828Y-154421417D01*
X132926667Y-153881667D01*
X135696530Y-153881667D01*
X138466394Y-153881666D01*
X138560301Y-154069699D01*
X138734014Y-154324923D01*
X138979080Y-154543673D01*
X139192000Y-154672561D01*
X139318688Y-154732020D01*
X139432712Y-154767857D01*
X139563586Y-154785807D01*
X139740827Y-154791606D01*
X139805833Y-154791833D01*
X140002151Y-154788521D01*
X140143433Y-154774759D01*
X140259179Y-154744804D01*
X140378889Y-154692918D01*
X140419667Y-154672381D01*
X140654284Y-154532252D01*
X140832397Y-154373573D01*
X140981813Y-154170050D01*
X141020890Y-154103917D01*
X141147415Y-153881666D01*
X143816126Y-153881667D01*
G37*
X143816126Y-153881667D02*
X146484837Y-153881667D01*
X146461839Y-154506083D01*
X146435037Y-154966479D01*
X146387786Y-155374280D01*
X146314912Y-155760170D01*
X146211244Y-156154831D01*
X146150841Y-156350738D01*
X145883079Y-157050902D01*
X145544104Y-157710158D01*
X145138930Y-158324089D01*
X144672571Y-158888278D01*
X144150042Y-159398309D01*
X143576357Y-159849765D01*
X142956530Y-160238231D01*
X142295576Y-160559290D01*
X141598508Y-160808525D01*
X140899071Y-160976292D01*
X140689747Y-161005546D01*
X140420916Y-161029418D01*
X140114539Y-161047272D01*
X139792577Y-161058477D01*
X139476988Y-161062399D01*
X139189734Y-161058404D01*
X138952773Y-161045859D01*
X138853333Y-161035290D01*
X138119889Y-160895269D01*
X137417643Y-160681921D01*
X136750746Y-160399880D01*
X136123349Y-160053779D01*
X135539605Y-159648251D01*
X135003665Y-159187930D01*
X134519681Y-158677447D01*
X134091804Y-158121438D01*
X133724187Y-157524534D01*
X133420981Y-156891370D01*
X133301652Y-156553287D01*
X134882805Y-156553287D01*
X134943803Y-156782740D01*
X135060873Y-157046929D01*
X135397502Y-157620841D01*
X135798245Y-158141631D01*
X136258238Y-158605271D01*
X136772613Y-159007733D01*
X137336505Y-159344986D01*
X137945048Y-159613004D01*
X138303000Y-159731197D01*
X138820039Y-159848687D01*
X139377949Y-159914728D01*
X139949098Y-159927628D01*
X140505853Y-159885697D01*
X140603444Y-159872039D01*
X141244844Y-159733400D01*
X141858263Y-159517407D01*
X142437517Y-159228515D01*
X142976422Y-158871184D01*
X143468793Y-158449870D01*
X143908447Y-157969031D01*
X144289198Y-157433126D01*
X144498531Y-157064429D01*
X144614075Y-156819143D01*
X144678359Y-156623559D01*
X144694340Y-156462348D01*
X144664977Y-156320181D01*
X144649393Y-156282488D01*
X144557677Y-156167116D01*
X144417589Y-156079257D01*
X144265245Y-156040934D01*
X144252783Y-156040667D01*
X144125904Y-156055384D01*
X144016138Y-156106707D01*
X143912214Y-156205395D01*
X143802859Y-156362203D01*
X143676803Y-156587890D01*
X143674204Y-156592855D01*
X143353663Y-157120107D01*
X142978111Y-157587381D01*
X142553770Y-157992096D01*
X142086861Y-158331671D01*
X141583607Y-158603525D01*
X141050230Y-158805075D01*
X140492952Y-158933743D01*
X139917995Y-158986945D01*
X139331580Y-158962102D01*
X138739930Y-158856632D01*
X138430000Y-158768335D01*
X137865027Y-158543558D01*
X137349112Y-158249986D01*
X136883457Y-157888668D01*
X136469261Y-157460653D01*
X136107727Y-156966990D01*
X135853475Y-156518055D01*
X135710349Y-156277004D01*
X135563255Y-156118834D01*
X135408828Y-156041765D01*
X135243704Y-156044014D01*
X135085222Y-156111163D01*
X134953369Y-156223063D01*
X134885945Y-156368583D01*
X134882805Y-156553287D01*
X133301652Y-156553287D01*
X133186337Y-156226578D01*
X133069396Y-155726988D01*
X137160158Y-155726988D01*
X137191643Y-155895991D01*
X137279262Y-156101166D01*
X137412231Y-156326815D01*
X137579770Y-156557240D01*
X137771094Y-156776743D01*
X137975421Y-156969624D01*
X138059936Y-157036979D01*
X138297760Y-157205158D01*
X138513278Y-157329719D01*
X138742019Y-157428880D01*
X138980333Y-157508943D01*
X139249260Y-157567111D01*
X139567290Y-157597493D01*
X139906051Y-157600488D01*
X140237169Y-157576490D01*
X140532270Y-157525899D01*
X140673667Y-157485252D01*
X141048957Y-157321965D01*
X141410092Y-157103730D01*
X141725095Y-156850374D01*
X141774333Y-156802667D01*
X141953653Y-156602140D01*
X142117138Y-156380136D01*
X142253068Y-156156033D01*
X142349721Y-155949210D01*
X142395375Y-155779045D01*
X142395775Y-155775303D01*
X142380598Y-155573593D01*
X142294969Y-155412203D01*
X142145337Y-155301235D01*
X142076826Y-155275510D01*
X141887890Y-155254022D01*
X141720981Y-155311126D01*
X141573111Y-155448562D01*
X141456833Y-155636404D01*
X141247868Y-155961961D01*
X140982947Y-156232310D01*
X140673318Y-156442629D01*
X140330227Y-156588094D01*
X139964921Y-156663884D01*
X139588646Y-156665175D01*
X139228209Y-156592057D01*
X138894782Y-156454686D01*
X138605822Y-156260062D01*
X138351637Y-155999831D01*
X138122539Y-155665638D01*
X138091690Y-155612074D01*
X137997999Y-155458992D01*
X137917823Y-155364608D01*
X137832478Y-155309312D01*
X137786336Y-155291601D01*
X137591724Y-155265313D01*
X137416118Y-155310561D01*
X137275335Y-155416348D01*
X137185193Y-155571676D01*
X137160158Y-155726988D01*
X133069396Y-155726988D01*
X133024407Y-155534792D01*
X132939344Y-154820644D01*
X132926828Y-154421417D01*
X132926667Y-153881667D01*
X135696530Y-153881667D01*
X138466394Y-153881666D01*
X138560301Y-154069699D01*
X138734014Y-154324923D01*
X138979080Y-154543673D01*
X139192000Y-154672561D01*
X139318688Y-154732020D01*
X139432712Y-154767857D01*
X139563586Y-154785807D01*
X139740827Y-154791606D01*
X139805833Y-154791833D01*
X140002151Y-154788521D01*
X140143433Y-154774759D01*
X140259179Y-154744804D01*
X140378889Y-154692918D01*
X140419667Y-154672381D01*
X140654284Y-154532252D01*
X140832397Y-154373573D01*
X140981813Y-154170050D01*
X141020890Y-154103917D01*
X141147415Y-153881666D01*
X143816126Y-153881667D01*
D12*
%TO.C,C1*%
X127797779Y-140845000D02*
X127472221Y-140845000D01*
X127797779Y-139825000D02*
X127472221Y-139825000D01*
%TO.C,C2*%
X127797779Y-141730000D02*
X127472221Y-141730000D01*
X127797779Y-142750000D02*
X127472221Y-142750000D01*
%TO.C,C3*%
X127797779Y-146560000D02*
X127472221Y-146560000D01*
X127797779Y-145540000D02*
X127472221Y-145540000D01*
%TO.C,C4*%
X127797779Y-147445000D02*
X127472221Y-147445000D01*
X127797779Y-148465000D02*
X127472221Y-148465000D01*
%TO.C,C5*%
X127797779Y-118235000D02*
X127472221Y-118235000D01*
X127797779Y-119255000D02*
X127472221Y-119255000D01*
%TO.C,C6*%
X127797779Y-116330000D02*
X127472221Y-116330000D01*
X127797779Y-117350000D02*
X127472221Y-117350000D01*
%TO.C,C7*%
X127797779Y-124970000D02*
X127472221Y-124970000D01*
X127797779Y-123950000D02*
X127472221Y-123950000D01*
%TO.C,C8*%
X127797779Y-123065000D02*
X127472221Y-123065000D01*
X127797779Y-122045000D02*
X127472221Y-122045000D01*
%TO.C,C9*%
X127797779Y-93855000D02*
X127472221Y-93855000D01*
X127797779Y-92835000D02*
X127472221Y-92835000D01*
%TO.C,C10*%
X127797779Y-94740000D02*
X127472221Y-94740000D01*
X127797779Y-95760000D02*
X127472221Y-95760000D01*
%TO.C,C11*%
X127797779Y-99570000D02*
X127472221Y-99570000D01*
X127797779Y-98550000D02*
X127472221Y-98550000D01*
%TO.C,C12*%
X127797779Y-100455000D02*
X127472221Y-100455000D01*
X127797779Y-101475000D02*
X127472221Y-101475000D01*
%TO.C,C13*%
X113590000Y-144403578D02*
X113590000Y-143886422D01*
X115010000Y-144403578D02*
X115010000Y-143886422D01*
%TO.C,C14*%
X117350000Y-143982221D02*
X117350000Y-144307779D01*
X116330000Y-143982221D02*
X116330000Y-144307779D01*
%TO.C,C15*%
X117350000Y-120487221D02*
X117350000Y-120812779D01*
X116330000Y-120487221D02*
X116330000Y-120812779D01*
D10*
%TO.C,CON1*%
X77060000Y-93460000D02*
X80170000Y-93460000D01*
X77060000Y-103510000D02*
X80170000Y-103510000D01*
X87570000Y-93460000D02*
X91020000Y-93460000D01*
X91020000Y-93510000D02*
X91020000Y-94360000D01*
X91020000Y-103510000D02*
X87570000Y-103510000D01*
X77060000Y-93460000D02*
X77054000Y-103510000D01*
X91020000Y-94360000D02*
X91020000Y-96560000D01*
X91020000Y-101560000D02*
X91020000Y-103510000D01*
D12*
%TO.C,D1*%
X84725000Y-86685000D02*
X87410000Y-86685000D01*
X87410000Y-86685000D02*
X87410000Y-84765000D01*
X87410000Y-84765000D02*
X84725000Y-84765000D01*
%TO.C,J1*%
X79950000Y-125790000D02*
X82610000Y-125790000D01*
X79950000Y-118110000D02*
X79950000Y-125790000D01*
X82610000Y-118110000D02*
X82610000Y-125790000D01*
X79950000Y-118110000D02*
X82610000Y-118110000D01*
X79950000Y-116840000D02*
X79950000Y-115510000D01*
X79950000Y-115510000D02*
X81280000Y-115510000D01*
%TO.C,J2*%
X98485000Y-123250000D02*
X97155000Y-123250000D01*
X98485000Y-121920000D02*
X98485000Y-123250000D01*
X98485000Y-120650000D02*
X95825000Y-120650000D01*
X95825000Y-120650000D02*
X95825000Y-118050000D01*
X98485000Y-120650000D02*
X98485000Y-118050000D01*
X98485000Y-118050000D02*
X95825000Y-118050000D01*
%TO.C,J3*%
X137100000Y-142815000D02*
X137100000Y-145475000D01*
X139700000Y-142815000D02*
X137100000Y-142815000D01*
X139700000Y-145475000D02*
X137100000Y-145475000D01*
X139700000Y-142815000D02*
X139700000Y-145475000D01*
X140970000Y-142815000D02*
X142300000Y-142815000D01*
X142300000Y-142815000D02*
X142300000Y-144145000D01*
%TO.C,J4*%
X142300000Y-119320000D02*
X142300000Y-120650000D01*
X140970000Y-119320000D02*
X142300000Y-119320000D01*
X139700000Y-119320000D02*
X139700000Y-121980000D01*
X139700000Y-121980000D02*
X137100000Y-121980000D01*
X139700000Y-119320000D02*
X137100000Y-119320000D01*
X137100000Y-119320000D02*
X137100000Y-121980000D01*
%TO.C,J5*%
X137100000Y-95825000D02*
X137100000Y-98485000D01*
X139700000Y-95825000D02*
X137100000Y-95825000D01*
X139700000Y-98485000D02*
X137100000Y-98485000D01*
X139700000Y-95825000D02*
X139700000Y-98485000D01*
X140970000Y-95825000D02*
X142300000Y-95825000D01*
X142300000Y-95825000D02*
X142300000Y-97155000D01*
%TO.C,J6*%
X145736000Y-123123000D02*
X148396000Y-123123000D01*
X145736000Y-120523000D02*
X145736000Y-123123000D01*
X148396000Y-120523000D02*
X148396000Y-123123000D01*
X145736000Y-120523000D02*
X148396000Y-120523000D01*
X145736000Y-119253000D02*
X145736000Y-117923000D01*
X145736000Y-117923000D02*
X147066000Y-117923000D01*
%TO.C,R1*%
X82077779Y-86235000D02*
X81752221Y-86235000D01*
X82077779Y-85215000D02*
X81752221Y-85215000D01*
%TO.C,R2*%
X101725000Y-144307779D02*
X101725000Y-143982221D01*
X102745000Y-144307779D02*
X102745000Y-143982221D01*
%TO.C,R3*%
X113790000Y-97317779D02*
X113790000Y-96992221D01*
X114810000Y-97317779D02*
X114810000Y-96992221D01*
%TO.C,R4*%
X117350000Y-96992221D02*
X117350000Y-97317779D01*
X116330000Y-96992221D02*
X116330000Y-97317779D01*
%TO.C,R5*%
X114810000Y-120487221D02*
X114810000Y-120812779D01*
X113790000Y-120487221D02*
X113790000Y-120812779D01*
D16*
%TO.C,RV1*%
X109235000Y-118150000D02*
X112035000Y-118150000D01*
X112035000Y-118150000D02*
X112035000Y-118200000D01*
X105185000Y-118150000D02*
X107885000Y-118150000D01*
X105235000Y-123150000D02*
X105185000Y-123150000D01*
X105235000Y-123150000D02*
X105435000Y-123150000D01*
X111785000Y-123150000D02*
X112035000Y-123150000D01*
X112035000Y-123150000D02*
X112035000Y-118200000D01*
X106735000Y-123150000D02*
X110485000Y-123150000D01*
X105160000Y-118150000D02*
X105160000Y-123150000D01*
%TO.C,RV2*%
X105160000Y-94655000D02*
X105160000Y-99655000D01*
X106735000Y-99655000D02*
X110485000Y-99655000D01*
X112035000Y-99655000D02*
X112035000Y-94705000D01*
X111785000Y-99655000D02*
X112035000Y-99655000D01*
X105235000Y-99655000D02*
X105435000Y-99655000D01*
X105235000Y-99655000D02*
X105185000Y-99655000D01*
X105185000Y-94655000D02*
X107885000Y-94655000D01*
X112035000Y-94655000D02*
X112035000Y-94705000D01*
X109235000Y-94655000D02*
X112035000Y-94655000D01*
%TO.C,RV3*%
X105160000Y-141645000D02*
X105160000Y-146645000D01*
X106735000Y-146645000D02*
X110485000Y-146645000D01*
X112035000Y-146645000D02*
X112035000Y-141695000D01*
X111785000Y-146645000D02*
X112035000Y-146645000D01*
X105235000Y-146645000D02*
X105435000Y-146645000D01*
X105235000Y-146645000D02*
X105185000Y-146645000D01*
X105185000Y-141645000D02*
X107885000Y-141645000D01*
X112035000Y-141645000D02*
X112035000Y-141695000D01*
X109235000Y-141645000D02*
X112035000Y-141645000D01*
D10*
%TO.C,U1*%
X119395000Y-146220000D02*
X119395000Y-147620000D01*
X124495000Y-146220000D02*
X124495000Y-142070000D01*
X119345000Y-146220000D02*
X119345000Y-142070000D01*
X124495000Y-146220000D02*
X124350000Y-146220000D01*
X124495000Y-142070000D02*
X124350000Y-142070000D01*
X119345000Y-142070000D02*
X119490000Y-142070000D01*
X119345000Y-146220000D02*
X119395000Y-146220000D01*
%TO.C,U2*%
X119345000Y-122725000D02*
X119395000Y-122725000D01*
X119345000Y-118575000D02*
X119490000Y-118575000D01*
X124495000Y-118575000D02*
X124350000Y-118575000D01*
X124495000Y-122725000D02*
X124350000Y-122725000D01*
X119345000Y-122725000D02*
X119345000Y-118575000D01*
X124495000Y-122725000D02*
X124495000Y-118575000D01*
X119395000Y-122725000D02*
X119395000Y-124125000D01*
%TO.C,U3*%
X119345000Y-99230000D02*
X119395000Y-99230000D01*
X119345000Y-95080000D02*
X119490000Y-95080000D01*
X124495000Y-95080000D02*
X124350000Y-95080000D01*
X124495000Y-99230000D02*
X124350000Y-99230000D01*
X119345000Y-99230000D02*
X119345000Y-95080000D01*
X124495000Y-99230000D02*
X124495000Y-95080000D01*
X119395000Y-99230000D02*
X119395000Y-100630000D01*
D12*
%TO.C,U4*%
X87122000Y-154410000D02*
X87122000Y-132610000D01*
X87122000Y-132610000D02*
X78022000Y-132610000D01*
X87122000Y-154410000D02*
X78022000Y-154410000D01*
X78022000Y-154410000D02*
X78022000Y-132610000D01*
X86868000Y-153924000D02*
G75*
G03*
X86868000Y-153924000I-254000J0D01*
G01*
%TO.C,C1*%
D10*
X130008333Y-140692142D02*
X129960714Y-140739761D01*
X129817857Y-140787380D01*
X129722619Y-140787380D01*
X129579761Y-140739761D01*
X129484523Y-140644523D01*
X129436904Y-140549285D01*
X129389285Y-140358809D01*
X129389285Y-140215952D01*
X129436904Y-140025476D01*
X129484523Y-139930238D01*
X129579761Y-139835000D01*
X129722619Y-139787380D01*
X129817857Y-139787380D01*
X129960714Y-139835000D01*
X130008333Y-139882619D01*
X130960714Y-140787380D02*
X130389285Y-140787380D01*
X130675000Y-140787380D02*
X130675000Y-139787380D01*
X130579761Y-139930238D01*
X130484523Y-140025476D01*
X130389285Y-140073095D01*
%TO.C,C2*%
X130008333Y-142597142D02*
X129960714Y-142644761D01*
X129817857Y-142692380D01*
X129722619Y-142692380D01*
X129579761Y-142644761D01*
X129484523Y-142549523D01*
X129436904Y-142454285D01*
X129389285Y-142263809D01*
X129389285Y-142120952D01*
X129436904Y-141930476D01*
X129484523Y-141835238D01*
X129579761Y-141740000D01*
X129722619Y-141692380D01*
X129817857Y-141692380D01*
X129960714Y-141740000D01*
X130008333Y-141787619D01*
X130389285Y-141787619D02*
X130436904Y-141740000D01*
X130532142Y-141692380D01*
X130770238Y-141692380D01*
X130865476Y-141740000D01*
X130913095Y-141787619D01*
X130960714Y-141882857D01*
X130960714Y-141978095D01*
X130913095Y-142120952D01*
X130341666Y-142692380D01*
X130960714Y-142692380D01*
%TO.C,C3*%
X130008333Y-146407142D02*
X129960714Y-146454761D01*
X129817857Y-146502380D01*
X129722619Y-146502380D01*
X129579761Y-146454761D01*
X129484523Y-146359523D01*
X129436904Y-146264285D01*
X129389285Y-146073809D01*
X129389285Y-145930952D01*
X129436904Y-145740476D01*
X129484523Y-145645238D01*
X129579761Y-145550000D01*
X129722619Y-145502380D01*
X129817857Y-145502380D01*
X129960714Y-145550000D01*
X130008333Y-145597619D01*
X130341666Y-145502380D02*
X130960714Y-145502380D01*
X130627380Y-145883333D01*
X130770238Y-145883333D01*
X130865476Y-145930952D01*
X130913095Y-145978571D01*
X130960714Y-146073809D01*
X130960714Y-146311904D01*
X130913095Y-146407142D01*
X130865476Y-146454761D01*
X130770238Y-146502380D01*
X130484523Y-146502380D01*
X130389285Y-146454761D01*
X130341666Y-146407142D01*
%TO.C,C4*%
X130008333Y-148312142D02*
X129960714Y-148359761D01*
X129817857Y-148407380D01*
X129722619Y-148407380D01*
X129579761Y-148359761D01*
X129484523Y-148264523D01*
X129436904Y-148169285D01*
X129389285Y-147978809D01*
X129389285Y-147835952D01*
X129436904Y-147645476D01*
X129484523Y-147550238D01*
X129579761Y-147455000D01*
X129722619Y-147407380D01*
X129817857Y-147407380D01*
X129960714Y-147455000D01*
X130008333Y-147502619D01*
X130865476Y-147740714D02*
X130865476Y-148407380D01*
X130627380Y-147359761D02*
X130389285Y-148074047D01*
X131008333Y-148074047D01*
%TO.C,C5*%
X130008333Y-119102142D02*
X129960714Y-119149761D01*
X129817857Y-119197380D01*
X129722619Y-119197380D01*
X129579761Y-119149761D01*
X129484523Y-119054523D01*
X129436904Y-118959285D01*
X129389285Y-118768809D01*
X129389285Y-118625952D01*
X129436904Y-118435476D01*
X129484523Y-118340238D01*
X129579761Y-118245000D01*
X129722619Y-118197380D01*
X129817857Y-118197380D01*
X129960714Y-118245000D01*
X130008333Y-118292619D01*
X130913095Y-118197380D02*
X130436904Y-118197380D01*
X130389285Y-118673571D01*
X130436904Y-118625952D01*
X130532142Y-118578333D01*
X130770238Y-118578333D01*
X130865476Y-118625952D01*
X130913095Y-118673571D01*
X130960714Y-118768809D01*
X130960714Y-119006904D01*
X130913095Y-119102142D01*
X130865476Y-119149761D01*
X130770238Y-119197380D01*
X130532142Y-119197380D01*
X130436904Y-119149761D01*
X130389285Y-119102142D01*
%TO.C,C6*%
X130008333Y-117197142D02*
X129960714Y-117244761D01*
X129817857Y-117292380D01*
X129722619Y-117292380D01*
X129579761Y-117244761D01*
X129484523Y-117149523D01*
X129436904Y-117054285D01*
X129389285Y-116863809D01*
X129389285Y-116720952D01*
X129436904Y-116530476D01*
X129484523Y-116435238D01*
X129579761Y-116340000D01*
X129722619Y-116292380D01*
X129817857Y-116292380D01*
X129960714Y-116340000D01*
X130008333Y-116387619D01*
X130865476Y-116292380D02*
X130675000Y-116292380D01*
X130579761Y-116340000D01*
X130532142Y-116387619D01*
X130436904Y-116530476D01*
X130389285Y-116720952D01*
X130389285Y-117101904D01*
X130436904Y-117197142D01*
X130484523Y-117244761D01*
X130579761Y-117292380D01*
X130770238Y-117292380D01*
X130865476Y-117244761D01*
X130913095Y-117197142D01*
X130960714Y-117101904D01*
X130960714Y-116863809D01*
X130913095Y-116768571D01*
X130865476Y-116720952D01*
X130770238Y-116673333D01*
X130579761Y-116673333D01*
X130484523Y-116720952D01*
X130436904Y-116768571D01*
X130389285Y-116863809D01*
%TO.C,C7*%
X130008333Y-124817142D02*
X129960714Y-124864761D01*
X129817857Y-124912380D01*
X129722619Y-124912380D01*
X129579761Y-124864761D01*
X129484523Y-124769523D01*
X129436904Y-124674285D01*
X129389285Y-124483809D01*
X129389285Y-124340952D01*
X129436904Y-124150476D01*
X129484523Y-124055238D01*
X129579761Y-123960000D01*
X129722619Y-123912380D01*
X129817857Y-123912380D01*
X129960714Y-123960000D01*
X130008333Y-124007619D01*
X130341666Y-123912380D02*
X131008333Y-123912380D01*
X130579761Y-124912380D01*
%TO.C,C8*%
X130008333Y-122912142D02*
X129960714Y-122959761D01*
X129817857Y-123007380D01*
X129722619Y-123007380D01*
X129579761Y-122959761D01*
X129484523Y-122864523D01*
X129436904Y-122769285D01*
X129389285Y-122578809D01*
X129389285Y-122435952D01*
X129436904Y-122245476D01*
X129484523Y-122150238D01*
X129579761Y-122055000D01*
X129722619Y-122007380D01*
X129817857Y-122007380D01*
X129960714Y-122055000D01*
X130008333Y-122102619D01*
X130579761Y-122435952D02*
X130484523Y-122388333D01*
X130436904Y-122340714D01*
X130389285Y-122245476D01*
X130389285Y-122197857D01*
X130436904Y-122102619D01*
X130484523Y-122055000D01*
X130579761Y-122007380D01*
X130770238Y-122007380D01*
X130865476Y-122055000D01*
X130913095Y-122102619D01*
X130960714Y-122197857D01*
X130960714Y-122245476D01*
X130913095Y-122340714D01*
X130865476Y-122388333D01*
X130770238Y-122435952D01*
X130579761Y-122435952D01*
X130484523Y-122483571D01*
X130436904Y-122531190D01*
X130389285Y-122626428D01*
X130389285Y-122816904D01*
X130436904Y-122912142D01*
X130484523Y-122959761D01*
X130579761Y-123007380D01*
X130770238Y-123007380D01*
X130865476Y-122959761D01*
X130913095Y-122912142D01*
X130960714Y-122816904D01*
X130960714Y-122626428D01*
X130913095Y-122531190D01*
X130865476Y-122483571D01*
X130770238Y-122435952D01*
%TO.C,C9*%
X130135333Y-93702142D02*
X130087714Y-93749761D01*
X129944857Y-93797380D01*
X129849619Y-93797380D01*
X129706761Y-93749761D01*
X129611523Y-93654523D01*
X129563904Y-93559285D01*
X129516285Y-93368809D01*
X129516285Y-93225952D01*
X129563904Y-93035476D01*
X129611523Y-92940238D01*
X129706761Y-92845000D01*
X129849619Y-92797380D01*
X129944857Y-92797380D01*
X130087714Y-92845000D01*
X130135333Y-92892619D01*
X130611523Y-93797380D02*
X130802000Y-93797380D01*
X130897238Y-93749761D01*
X130944857Y-93702142D01*
X131040095Y-93559285D01*
X131087714Y-93368809D01*
X131087714Y-92987857D01*
X131040095Y-92892619D01*
X130992476Y-92845000D01*
X130897238Y-92797380D01*
X130706761Y-92797380D01*
X130611523Y-92845000D01*
X130563904Y-92892619D01*
X130516285Y-92987857D01*
X130516285Y-93225952D01*
X130563904Y-93321190D01*
X130611523Y-93368809D01*
X130706761Y-93416428D01*
X130897238Y-93416428D01*
X130992476Y-93368809D01*
X131040095Y-93321190D01*
X131087714Y-93225952D01*
%TO.C,C10*%
X130167142Y-95607142D02*
X130119523Y-95654761D01*
X129976666Y-95702380D01*
X129881428Y-95702380D01*
X129738571Y-95654761D01*
X129643333Y-95559523D01*
X129595714Y-95464285D01*
X129548095Y-95273809D01*
X129548095Y-95130952D01*
X129595714Y-94940476D01*
X129643333Y-94845238D01*
X129738571Y-94750000D01*
X129881428Y-94702380D01*
X129976666Y-94702380D01*
X130119523Y-94750000D01*
X130167142Y-94797619D01*
X131119523Y-95702380D02*
X130548095Y-95702380D01*
X130833809Y-95702380D02*
X130833809Y-94702380D01*
X130738571Y-94845238D01*
X130643333Y-94940476D01*
X130548095Y-94988095D01*
X131738571Y-94702380D02*
X131833809Y-94702380D01*
X131929047Y-94750000D01*
X131976666Y-94797619D01*
X132024285Y-94892857D01*
X132071904Y-95083333D01*
X132071904Y-95321428D01*
X132024285Y-95511904D01*
X131976666Y-95607142D01*
X131929047Y-95654761D01*
X131833809Y-95702380D01*
X131738571Y-95702380D01*
X131643333Y-95654761D01*
X131595714Y-95607142D01*
X131548095Y-95511904D01*
X131500476Y-95321428D01*
X131500476Y-95083333D01*
X131548095Y-94892857D01*
X131595714Y-94797619D01*
X131643333Y-94750000D01*
X131738571Y-94702380D01*
%TO.C,C11*%
X130167142Y-99417142D02*
X130119523Y-99464761D01*
X129976666Y-99512380D01*
X129881428Y-99512380D01*
X129738571Y-99464761D01*
X129643333Y-99369523D01*
X129595714Y-99274285D01*
X129548095Y-99083809D01*
X129548095Y-98940952D01*
X129595714Y-98750476D01*
X129643333Y-98655238D01*
X129738571Y-98560000D01*
X129881428Y-98512380D01*
X129976666Y-98512380D01*
X130119523Y-98560000D01*
X130167142Y-98607619D01*
X131119523Y-99512380D02*
X130548095Y-99512380D01*
X130833809Y-99512380D02*
X130833809Y-98512380D01*
X130738571Y-98655238D01*
X130643333Y-98750476D01*
X130548095Y-98798095D01*
X132071904Y-99512380D02*
X131500476Y-99512380D01*
X131786190Y-99512380D02*
X131786190Y-98512380D01*
X131690952Y-98655238D01*
X131595714Y-98750476D01*
X131500476Y-98798095D01*
%TO.C,C12*%
X130167142Y-101322142D02*
X130119523Y-101369761D01*
X129976666Y-101417380D01*
X129881428Y-101417380D01*
X129738571Y-101369761D01*
X129643333Y-101274523D01*
X129595714Y-101179285D01*
X129548095Y-100988809D01*
X129548095Y-100845952D01*
X129595714Y-100655476D01*
X129643333Y-100560238D01*
X129738571Y-100465000D01*
X129881428Y-100417380D01*
X129976666Y-100417380D01*
X130119523Y-100465000D01*
X130167142Y-100512619D01*
X131119523Y-101417380D02*
X130548095Y-101417380D01*
X130833809Y-101417380D02*
X130833809Y-100417380D01*
X130738571Y-100560238D01*
X130643333Y-100655476D01*
X130548095Y-100703095D01*
X131500476Y-100512619D02*
X131548095Y-100465000D01*
X131643333Y-100417380D01*
X131881428Y-100417380D01*
X131976666Y-100465000D01*
X132024285Y-100512619D01*
X132071904Y-100607857D01*
X132071904Y-100703095D01*
X132024285Y-100845952D01*
X131452857Y-101417380D01*
X132071904Y-101417380D01*
%TO.C,C13*%
X114657142Y-147962857D02*
X114704761Y-148010476D01*
X114752380Y-148153333D01*
X114752380Y-148248571D01*
X114704761Y-148391428D01*
X114609523Y-148486666D01*
X114514285Y-148534285D01*
X114323809Y-148581904D01*
X114180952Y-148581904D01*
X113990476Y-148534285D01*
X113895238Y-148486666D01*
X113800000Y-148391428D01*
X113752380Y-148248571D01*
X113752380Y-148153333D01*
X113800000Y-148010476D01*
X113847619Y-147962857D01*
X114752380Y-147010476D02*
X114752380Y-147581904D01*
X114752380Y-147296190D02*
X113752380Y-147296190D01*
X113895238Y-147391428D01*
X113990476Y-147486666D01*
X114038095Y-147581904D01*
X113752380Y-146677142D02*
X113752380Y-146058095D01*
X114133333Y-146391428D01*
X114133333Y-146248571D01*
X114180952Y-146153333D01*
X114228571Y-146105714D01*
X114323809Y-146058095D01*
X114561904Y-146058095D01*
X114657142Y-146105714D01*
X114704761Y-146153333D01*
X114752380Y-146248571D01*
X114752380Y-146534285D01*
X114704761Y-146629523D01*
X114657142Y-146677142D01*
%TO.C,C14*%
X117197142Y-147962857D02*
X117244761Y-148010476D01*
X117292380Y-148153333D01*
X117292380Y-148248571D01*
X117244761Y-148391428D01*
X117149523Y-148486666D01*
X117054285Y-148534285D01*
X116863809Y-148581904D01*
X116720952Y-148581904D01*
X116530476Y-148534285D01*
X116435238Y-148486666D01*
X116340000Y-148391428D01*
X116292380Y-148248571D01*
X116292380Y-148153333D01*
X116340000Y-148010476D01*
X116387619Y-147962857D01*
X117292380Y-147010476D02*
X117292380Y-147581904D01*
X117292380Y-147296190D02*
X116292380Y-147296190D01*
X116435238Y-147391428D01*
X116530476Y-147486666D01*
X116578095Y-147581904D01*
X116625714Y-146153333D02*
X117292380Y-146153333D01*
X116244761Y-146391428D02*
X116959047Y-146629523D01*
X116959047Y-146010476D01*
%TO.C,C15*%
X117197142Y-124340857D02*
X117244761Y-124388476D01*
X117292380Y-124531333D01*
X117292380Y-124626571D01*
X117244761Y-124769428D01*
X117149523Y-124864666D01*
X117054285Y-124912285D01*
X116863809Y-124959904D01*
X116720952Y-124959904D01*
X116530476Y-124912285D01*
X116435238Y-124864666D01*
X116340000Y-124769428D01*
X116292380Y-124626571D01*
X116292380Y-124531333D01*
X116340000Y-124388476D01*
X116387619Y-124340857D01*
X117292380Y-123388476D02*
X117292380Y-123959904D01*
X117292380Y-123674190D02*
X116292380Y-123674190D01*
X116435238Y-123769428D01*
X116530476Y-123864666D01*
X116578095Y-123959904D01*
X116292380Y-122483714D02*
X116292380Y-122959904D01*
X116768571Y-123007523D01*
X116720952Y-122959904D01*
X116673333Y-122864666D01*
X116673333Y-122626571D01*
X116720952Y-122531333D01*
X116768571Y-122483714D01*
X116863809Y-122436095D01*
X117101904Y-122436095D01*
X117197142Y-122483714D01*
X117244761Y-122531333D01*
X117292380Y-122626571D01*
X117292380Y-122864666D01*
X117244761Y-122959904D01*
X117197142Y-123007523D01*
%TO.C,CON1*%
X82605714Y-99417142D02*
X82558095Y-99464761D01*
X82415238Y-99512380D01*
X82320000Y-99512380D01*
X82177142Y-99464761D01*
X82081904Y-99369523D01*
X82034285Y-99274285D01*
X81986666Y-99083809D01*
X81986666Y-98940952D01*
X82034285Y-98750476D01*
X82081904Y-98655238D01*
X82177142Y-98560000D01*
X82320000Y-98512380D01*
X82415238Y-98512380D01*
X82558095Y-98560000D01*
X82605714Y-98607619D01*
X83224761Y-98512380D02*
X83415238Y-98512380D01*
X83510476Y-98560000D01*
X83605714Y-98655238D01*
X83653333Y-98845714D01*
X83653333Y-99179047D01*
X83605714Y-99369523D01*
X83510476Y-99464761D01*
X83415238Y-99512380D01*
X83224761Y-99512380D01*
X83129523Y-99464761D01*
X83034285Y-99369523D01*
X82986666Y-99179047D01*
X82986666Y-98845714D01*
X83034285Y-98655238D01*
X83129523Y-98560000D01*
X83224761Y-98512380D01*
X84081904Y-99512380D02*
X84081904Y-98512380D01*
X84653333Y-99512380D01*
X84653333Y-98512380D01*
X85653333Y-99512380D02*
X85081904Y-99512380D01*
X85367619Y-99512380D02*
X85367619Y-98512380D01*
X85272380Y-98655238D01*
X85177142Y-98750476D01*
X85081904Y-98798095D01*
%TO.C,D1*%
X84986904Y-87827380D02*
X84986904Y-86827380D01*
X85225000Y-86827380D01*
X85367857Y-86875000D01*
X85463095Y-86970238D01*
X85510714Y-87065476D01*
X85558333Y-87255952D01*
X85558333Y-87398809D01*
X85510714Y-87589285D01*
X85463095Y-87684523D01*
X85367857Y-87779761D01*
X85225000Y-87827380D01*
X84986904Y-87827380D01*
X86510714Y-87827380D02*
X85939285Y-87827380D01*
X86225000Y-87827380D02*
X86225000Y-86827380D01*
X86129761Y-86970238D01*
X86034523Y-87065476D01*
X85939285Y-87113095D01*
%TO.C,R1*%
X81748333Y-87607380D02*
X81415000Y-87131190D01*
X81176904Y-87607380D02*
X81176904Y-86607380D01*
X81557857Y-86607380D01*
X81653095Y-86655000D01*
X81700714Y-86702619D01*
X81748333Y-86797857D01*
X81748333Y-86940714D01*
X81700714Y-87035952D01*
X81653095Y-87083571D01*
X81557857Y-87131190D01*
X81176904Y-87131190D01*
X82700714Y-87607380D02*
X82129285Y-87607380D01*
X82415000Y-87607380D02*
X82415000Y-86607380D01*
X82319761Y-86750238D01*
X82224523Y-86845476D01*
X82129285Y-86893095D01*
%TO.C,R2*%
X101257380Y-144311666D02*
X100781190Y-144645000D01*
X101257380Y-144883095D02*
X100257380Y-144883095D01*
X100257380Y-144502142D01*
X100305000Y-144406904D01*
X100352619Y-144359285D01*
X100447857Y-144311666D01*
X100590714Y-144311666D01*
X100685952Y-144359285D01*
X100733571Y-144406904D01*
X100781190Y-144502142D01*
X100781190Y-144883095D01*
X100352619Y-143930714D02*
X100305000Y-143883095D01*
X100257380Y-143787857D01*
X100257380Y-143549761D01*
X100305000Y-143454523D01*
X100352619Y-143406904D01*
X100447857Y-143359285D01*
X100543095Y-143359285D01*
X100685952Y-143406904D01*
X101257380Y-143978333D01*
X101257380Y-143359285D01*
%TO.C,R3*%
X114752380Y-99861666D02*
X114276190Y-100195000D01*
X114752380Y-100433095D02*
X113752380Y-100433095D01*
X113752380Y-100052142D01*
X113800000Y-99956904D01*
X113847619Y-99909285D01*
X113942857Y-99861666D01*
X114085714Y-99861666D01*
X114180952Y-99909285D01*
X114228571Y-99956904D01*
X114276190Y-100052142D01*
X114276190Y-100433095D01*
X113752380Y-99528333D02*
X113752380Y-98909285D01*
X114133333Y-99242619D01*
X114133333Y-99099761D01*
X114180952Y-99004523D01*
X114228571Y-98956904D01*
X114323809Y-98909285D01*
X114561904Y-98909285D01*
X114657142Y-98956904D01*
X114704761Y-99004523D01*
X114752380Y-99099761D01*
X114752380Y-99385476D01*
X114704761Y-99480714D01*
X114657142Y-99528333D01*
%TO.C,R4*%
X117292380Y-99861666D02*
X116816190Y-100195000D01*
X117292380Y-100433095D02*
X116292380Y-100433095D01*
X116292380Y-100052142D01*
X116340000Y-99956904D01*
X116387619Y-99909285D01*
X116482857Y-99861666D01*
X116625714Y-99861666D01*
X116720952Y-99909285D01*
X116768571Y-99956904D01*
X116816190Y-100052142D01*
X116816190Y-100433095D01*
X116625714Y-99004523D02*
X117292380Y-99004523D01*
X116244761Y-99242619D02*
X116959047Y-99480714D01*
X116959047Y-98861666D01*
%TO.C,R5*%
X114752380Y-123356666D02*
X114276190Y-123690000D01*
X114752380Y-123928095D02*
X113752380Y-123928095D01*
X113752380Y-123547142D01*
X113800000Y-123451904D01*
X113847619Y-123404285D01*
X113942857Y-123356666D01*
X114085714Y-123356666D01*
X114180952Y-123404285D01*
X114228571Y-123451904D01*
X114276190Y-123547142D01*
X114276190Y-123928095D01*
X113752380Y-122451904D02*
X113752380Y-122928095D01*
X114228571Y-122975714D01*
X114180952Y-122928095D01*
X114133333Y-122832857D01*
X114133333Y-122594761D01*
X114180952Y-122499523D01*
X114228571Y-122451904D01*
X114323809Y-122404285D01*
X114561904Y-122404285D01*
X114657142Y-122451904D01*
X114704761Y-122499523D01*
X114752380Y-122594761D01*
X114752380Y-122832857D01*
X114704761Y-122928095D01*
X114657142Y-122975714D01*
%TO.C,U1*%
X121158095Y-143597380D02*
X121158095Y-144406904D01*
X121205714Y-144502142D01*
X121253333Y-144549761D01*
X121348571Y-144597380D01*
X121539047Y-144597380D01*
X121634285Y-144549761D01*
X121681904Y-144502142D01*
X121729523Y-144406904D01*
X121729523Y-143597380D01*
X122729523Y-144597380D02*
X122158095Y-144597380D01*
X122443809Y-144597380D02*
X122443809Y-143597380D01*
X122348571Y-143740238D01*
X122253333Y-143835476D01*
X122158095Y-143883095D01*
%TO.C,U2*%
X121158095Y-120102380D02*
X121158095Y-120911904D01*
X121205714Y-121007142D01*
X121253333Y-121054761D01*
X121348571Y-121102380D01*
X121539047Y-121102380D01*
X121634285Y-121054761D01*
X121681904Y-121007142D01*
X121729523Y-120911904D01*
X121729523Y-120102380D01*
X122158095Y-120197619D02*
X122205714Y-120150000D01*
X122300952Y-120102380D01*
X122539047Y-120102380D01*
X122634285Y-120150000D01*
X122681904Y-120197619D01*
X122729523Y-120292857D01*
X122729523Y-120388095D01*
X122681904Y-120530952D01*
X122110476Y-121102380D01*
X122729523Y-121102380D01*
%TO.C,U3*%
X121158095Y-96607380D02*
X121158095Y-97416904D01*
X121205714Y-97512142D01*
X121253333Y-97559761D01*
X121348571Y-97607380D01*
X121539047Y-97607380D01*
X121634285Y-97559761D01*
X121681904Y-97512142D01*
X121729523Y-97416904D01*
X121729523Y-96607380D01*
X122110476Y-96607380D02*
X122729523Y-96607380D01*
X122396190Y-96988333D01*
X122539047Y-96988333D01*
X122634285Y-97035952D01*
X122681904Y-97083571D01*
X122729523Y-97178809D01*
X122729523Y-97416904D01*
X122681904Y-97512142D01*
X122634285Y-97559761D01*
X122539047Y-97607380D01*
X122253333Y-97607380D01*
X122158095Y-97559761D01*
X122110476Y-97512142D01*
%TO.C,U4*%
X81407095Y-131151380D02*
X81407095Y-131960904D01*
X81454714Y-132056142D01*
X81502333Y-132103761D01*
X81597571Y-132151380D01*
X81788047Y-132151380D01*
X81883285Y-132103761D01*
X81930904Y-132056142D01*
X81978523Y-131960904D01*
X81978523Y-131151380D01*
X82883285Y-131484714D02*
X82883285Y-132151380D01*
X82645190Y-131103761D02*
X82407095Y-131818047D01*
X83026142Y-131818047D01*
%TD*%
M02*
