M48
; DRILL file {KiCad (5.1.7)-1} date 04/26/21 16:00:29
; FORMAT={-:-/ absolute / inch / decimal}
; #@! TF.CreationDate,2021-04-26T16:00:29-05:00
; #@! TF.GenerationSoftware,Kicad,Pcbnew,(5.1.7)-1
; #@! TF.FileFunction,Plated,1,2,PTH
FMAT,2
INCH
T1C0.0100
T2C0.0319
T3C0.0394
%
G90
G05
T1
X3.48Y-3.375
X4.5Y-3.74
X4.825Y-4.935
X4.825Y-5.86
X4.995Y-4.05
X4.995Y-4.975
X4.995Y-5.895
X5.055Y-3.61
X5.055Y-4.05
X5.055Y-4.525
X5.055Y-4.975
X5.055Y-5.46
X5.055Y-5.895
T2
X3.202Y-5.289
X3.202Y-5.389
X3.202Y-5.489
X3.202Y-5.589
X3.202Y-5.789
X3.202Y-5.889
X3.202Y-5.989
T3
X5.45Y-3.825
X5.55Y-3.825
X5.45Y-5.675
X5.55Y-5.675
X5.45Y-4.75
X5.55Y-4.75
X5.79Y-4.695
X5.79Y-4.795
X3.825Y-4.7
X3.825Y-4.8
X3.2Y-4.6
X3.2Y-4.7
X3.2Y-4.8
X3.2Y-4.9
T0
M30
